<svg width="1438" height="131" viewBox="0 0 1438 131" fill="none" xmlns="http://www.w3.org/2000/svg">
<g clip-path="url(#clip0_21_186)">
<rect width="1438" height="131" fill="#143164"/>
<g opacity="0.35">
<path d="M82.4043 28.854C84.3665 27.4562 82.3922 24.3425 80.2493 25.4265L78.2613 26.4312C68.1374 31.5437 56.178 25.3318 54.3087 13.9888L53.9421 11.7637C53.5477 9.36301 50.1281 9.56361 49.9479 11.9987C49.9479 11.9987 48.4692 53.0503 82.4014 28.8558L82.4043 28.854Z" fill="white"/>
<path d="M62.8786 19.7829C64.6981 22.9428 68.6868 23.9606 71.7876 22.0561C74.8884 20.1517 75.9271 16.0462 74.1077 12.8862C72.2882 9.72631 68.2995 8.70853 65.1987 10.613C62.0979 12.5174 61.0592 16.6229 62.8786 19.7829Z" fill="white"/>
<path d="M166.976 28.854C168.938 27.4562 166.964 24.3425 164.821 25.4265L162.833 26.4312C152.709 31.5437 140.75 25.3318 138.88 13.9888L138.514 11.7637C138.119 9.36301 134.7 9.56361 134.52 11.9987C134.52 11.9987 133.041 53.0503 166.973 28.8558L166.976 28.854Z" fill="white"/>
<path d="M147.45 19.7829C149.27 22.9428 153.258 23.9606 156.359 22.0561C159.46 20.1517 160.499 16.0462 158.679 12.8862C156.86 9.72631 152.871 8.70853 149.77 10.613C146.67 12.5174 145.631 16.6229 147.45 19.7829Z" fill="white"/>
<path d="M251.546 28.854C253.508 27.4562 251.534 24.3425 249.391 25.4265L247.403 26.4312C237.279 31.5437 225.319 25.3318 223.45 13.9888L223.084 11.7637C222.689 9.36301 219.27 9.56361 219.089 11.9987C219.089 11.9987 217.611 53.0503 251.543 28.8558L251.546 28.854Z" fill="white"/>
<path d="M232.02 19.7829C233.84 22.9428 237.828 23.9606 240.929 22.0561C244.03 20.1517 245.069 16.0462 243.249 12.8862C241.43 9.72631 237.441 8.70853 234.34 10.613C231.239 12.5174 230.201 16.6229 232.02 19.7829Z" fill="white"/>
<path d="M336.116 28.854C338.078 27.4562 336.104 24.3425 333.961 25.4265L331.973 26.4312C321.849 31.5437 309.889 25.3318 308.02 13.9888L307.653 11.7637C307.259 9.36301 303.839 9.56361 303.659 11.9987C303.659 11.9987 302.181 53.0503 336.113 28.8558L336.116 28.854Z" fill="white"/>
<path d="M316.59 19.7829C318.409 22.9428 322.398 23.9606 325.499 22.0561C328.6 20.1517 329.638 16.0462 327.819 12.8862C326 9.72631 322.011 8.70853 318.91 10.613C315.809 12.5174 314.77 16.6229 316.59 19.7829Z" fill="white"/>
<path d="M420.685 28.854C422.648 27.4562 420.673 24.3425 418.53 25.4265L416.542 26.4312C406.418 31.5437 394.459 25.3318 392.59 13.9888L392.223 11.7637C391.829 9.36301 388.409 9.56361 388.229 11.9987C388.229 11.9987 386.75 53.0503 420.682 28.8558L420.685 28.854Z" fill="white"/>
<path d="M401.16 19.7829C402.979 22.9428 406.968 23.9606 410.069 22.0561C413.169 20.1517 414.208 16.0462 412.389 12.8862C410.569 9.72631 406.581 8.70853 403.48 10.613C400.379 12.5174 399.34 16.6229 401.16 19.7829Z" fill="white"/>
<path d="M505.257 28.854C507.219 27.4562 505.245 24.3425 503.102 25.4265L501.114 26.4312C490.99 31.5437 479.031 25.3318 477.161 13.9888L476.795 11.7637C476.401 9.36301 472.981 9.56361 472.801 11.9987C472.801 11.9987 471.322 53.0503 505.254 28.8558L505.257 28.854Z" fill="white"/>
<path d="M485.731 19.7829C487.551 22.9428 491.54 23.9606 494.64 22.0561C497.741 20.1517 498.78 16.0462 496.96 12.8862C495.141 9.72631 491.152 8.70853 488.051 10.613C484.951 12.5174 483.912 16.6229 485.731 19.7829Z" fill="white"/>
<path d="M589.827 28.854C591.789 27.4562 589.815 24.3425 587.672 25.4265L585.684 26.4312C575.56 31.5437 563.601 25.3318 561.731 13.9888L561.365 11.7637C560.97 9.36301 557.551 9.56361 557.37 11.9987C557.37 11.9987 555.892 53.0503 589.824 28.8558L589.827 28.854Z" fill="white"/>
<path d="M570.301 19.7829C572.121 22.9428 576.109 23.9606 579.21 22.0561C582.311 20.1517 583.35 16.0462 581.53 12.8862C579.711 9.72631 575.722 8.70853 572.621 10.613C569.52 12.5174 568.482 16.6229 570.301 19.7829Z" fill="white"/>
<path d="M674.397 28.854C676.359 27.4562 674.385 24.3425 672.242 25.4265L670.254 26.4312C660.13 31.5437 648.17 25.3318 646.301 13.9888L645.935 11.7637C645.54 9.36301 642.12 9.56361 641.94 11.9987C641.94 11.9987 640.462 53.0503 674.394 28.8558L674.397 28.854Z" fill="white"/>
<path d="M654.871 19.7829C656.691 22.9428 660.679 23.9606 663.78 22.0561C666.881 20.1517 667.92 16.0462 666.1 12.8862C664.281 9.72631 660.292 8.70853 657.191 10.613C654.09 12.5174 653.052 16.6229 654.871 19.7829Z" fill="white"/>
<path d="M758.967 28.854C760.929 27.4562 758.954 24.3425 756.812 25.4265L754.824 26.4312C744.7 31.5437 732.74 25.3318 730.871 13.9888L730.504 11.7637C730.11 9.36301 726.69 9.56361 726.51 11.9987C726.51 11.9987 725.031 53.0503 758.964 28.8558L758.967 28.854Z" fill="white"/>
<path d="M739.441 19.7829C741.26 22.9428 745.249 23.9606 748.35 22.0561C751.451 20.1517 752.489 16.0462 750.67 12.8862C748.85 9.72631 744.862 8.70853 741.761 10.613C738.66 12.5174 737.621 16.6229 739.441 19.7829Z" fill="white"/>
<path d="M843.538 28.854C845.501 27.4562 843.526 24.3425 841.383 25.4265L839.395 26.4312C829.271 31.5437 817.312 25.3318 815.443 13.9888L815.076 11.7637C814.682 9.36301 811.262 9.56361 811.082 11.9987C811.082 11.9987 809.603 53.0503 843.535 28.8558L843.538 28.854Z" fill="white"/>
<path d="M824.013 19.7829C825.832 22.9428 829.821 23.9606 832.922 22.0561C836.022 20.1517 837.061 16.0462 835.242 12.8862C833.422 9.72631 829.434 8.70853 826.333 10.613C823.232 12.5174 822.193 16.6229 824.013 19.7829Z" fill="white"/>
<path d="M928.108 28.854C930.07 27.4562 928.096 24.3425 925.953 25.4265L923.965 26.4312C913.841 31.5437 901.882 25.3318 900.013 13.9888L899.646 11.7637C899.252 9.36301 895.832 9.56361 895.652 11.9987C895.652 11.9987 894.173 53.0503 928.105 28.8558L928.108 28.854Z" fill="white"/>
<path d="M908.582 19.7829C910.402 22.9428 914.391 23.9606 917.491 22.0561C920.592 20.1517 921.631 16.0462 919.812 12.8862C917.992 9.72631 914.003 8.70853 910.903 10.613C907.802 12.5174 906.763 16.6229 908.582 19.7829Z" fill="white"/>
<path d="M1012.68 28.854C1014.64 27.4562 1012.67 24.3425 1010.52 25.4265L1008.53 26.4312C998.411 31.5437 986.452 25.3318 984.582 13.9888L984.216 11.7637C983.821 9.36301 980.402 9.56361 980.222 11.9987C980.222 11.9987 978.743 53.0503 1012.68 28.8558L1012.68 28.854Z" fill="white"/>
<path d="M993.152 19.7829C994.972 22.9428 998.96 23.9606 1002.06 22.0561C1005.16 20.1517 1006.2 16.0462 1004.38 12.8862C1002.56 9.72631 998.573 8.70853 995.472 10.613C992.372 12.5174 991.333 16.6229 993.152 19.7829Z" fill="white"/>
<path d="M1097.25 28.854C1099.21 27.4562 1097.24 24.3425 1095.09 25.4265L1093.11 26.4312C1082.98 31.5437 1071.02 25.3318 1069.15 13.9888L1068.79 11.7637C1068.39 9.36301 1064.97 9.56361 1064.79 11.9987C1064.79 11.9987 1063.31 53.0503 1097.25 28.8558L1097.25 28.854Z" fill="white"/>
<path d="M1077.72 19.7829C1079.54 22.9428 1083.53 23.9606 1086.63 22.0561C1089.73 20.1517 1090.77 16.0462 1088.95 12.8862C1087.13 9.72631 1083.14 8.70853 1080.04 10.613C1076.94 12.5174 1075.9 16.6229 1077.72 19.7829Z" fill="white"/>
<path d="M1181.82 28.854C1183.78 27.4562 1181.81 24.3425 1179.66 25.4265L1177.68 26.4312C1167.55 31.5437 1155.59 25.3318 1153.72 13.9888L1153.36 11.7637C1152.96 9.36301 1149.54 9.56361 1149.36 11.9987C1149.36 11.9987 1147.88 53.0503 1181.82 28.8558L1181.82 28.854Z" fill="white"/>
<path d="M1162.29 19.7829C1164.11 22.9428 1168.1 23.9606 1171.2 22.0561C1174.3 20.1517 1175.34 16.0462 1173.52 12.8862C1171.7 9.72631 1167.71 8.70853 1164.61 10.613C1161.51 12.5174 1160.47 16.6229 1162.29 19.7829Z" fill="white"/>
<path d="M1266.39 28.854C1268.35 27.4562 1266.38 24.3425 1264.23 25.4265L1262.25 26.4312C1252.12 31.5437 1240.16 25.3318 1238.29 13.9888L1237.93 11.7637C1237.53 9.36301 1234.11 9.56361 1233.93 11.9987C1233.93 11.9987 1232.45 53.0503 1266.39 28.8558L1266.39 28.854Z" fill="white"/>
<path d="M1246.86 19.7829C1248.68 22.9428 1252.67 23.9606 1255.77 22.0561C1258.87 20.1517 1259.91 16.0462 1258.09 12.8862C1256.27 9.72631 1252.29 8.70853 1249.18 10.613C1246.08 12.5174 1245.04 16.6229 1246.86 19.7829Z" fill="white"/>
<path d="M1350.96 28.854C1352.92 27.4562 1350.95 24.3425 1348.81 25.4265L1346.82 26.4312C1336.69 31.5437 1324.74 25.3318 1322.87 13.9888L1322.5 11.7637C1322.11 9.36301 1318.69 9.56361 1318.51 11.9987C1318.51 11.9987 1317.03 53.0503 1350.96 28.8558L1350.96 28.854Z" fill="white"/>
<path d="M1331.44 19.7829C1333.26 22.9428 1337.24 23.9606 1340.34 22.0561C1343.45 20.1517 1344.48 16.0462 1342.67 12.8862C1340.85 9.72631 1336.86 8.70853 1333.76 10.613C1330.66 12.5174 1329.62 16.6229 1331.44 19.7829Z" fill="white"/>
<path d="M1435.53 28.854C1437.49 27.4562 1435.52 24.3425 1433.38 25.4265L1431.39 26.4312C1421.26 31.5437 1409.31 25.3318 1407.44 13.9888L1407.07 11.7637C1406.67 9.36301 1403.26 9.56361 1403.08 11.9987C1403.08 11.9987 1401.6 53.0503 1435.53 28.8558L1435.53 28.854Z" fill="white"/>
<path d="M1416.01 19.7829C1417.83 22.9428 1421.81 23.9606 1424.91 22.0561C1428.02 20.1517 1429.05 16.0462 1427.23 12.8862C1425.42 9.72631 1421.43 8.70853 1418.33 10.613C1415.23 12.5174 1414.19 16.6229 1416.01 19.7829Z" fill="white"/>
<path d="M38.977 28.854C40.9393 27.4562 38.965 24.3425 36.822 25.4265L34.834 26.4312C24.7101 31.5437 12.7507 25.3318 10.8814 13.9888L10.5149 11.7637C10.1205 9.36301 6.70082 9.56361 6.52061 11.9987C6.52061 11.9987 5.04195 53.0503 38.9742 28.8558L38.977 28.854Z" fill="white"/>
<path d="M19.4514 19.7829C21.2708 22.9428 25.2595 23.9606 28.3603 22.0561C31.4612 20.1517 32.4999 16.0462 30.6804 12.8862C28.861 9.72631 24.8723 8.70853 21.7715 10.613C18.6706 12.5174 17.6319 16.6229 19.4514 19.7829Z" fill="white"/>
<path d="M123.547 28.854C125.509 27.4562 123.535 24.3425 121.392 25.4265L119.404 26.4312C109.28 31.5437 97.3206 25.3318 95.4512 13.9888L95.0847 11.7637C94.6903 9.36301 91.2706 9.56361 91.0904 11.9987C91.0904 11.9987 89.6118 53.0503 123.544 28.8558L123.547 28.854Z" fill="white"/>
<path d="M104.021 19.7829C105.841 22.9428 109.829 23.9606 112.93 22.0561C116.031 20.1517 117.07 16.0462 115.25 12.8862C113.431 9.72631 109.442 8.70853 106.341 10.613C103.24 12.5174 102.202 16.6229 104.021 19.7829Z" fill="white"/>
<path d="M208.119 28.854C210.081 27.4562 208.107 24.3425 205.964 25.4265L203.976 26.4312C193.852 31.5437 181.892 25.3318 180.023 13.9888L179.656 11.7637C179.262 9.36301 175.842 9.56361 175.662 11.9987C175.662 11.9987 174.184 53.0503 208.116 28.8558L208.119 28.854Z" fill="white"/>
<path d="M188.593 19.7829C190.412 22.9428 194.401 23.9606 197.502 22.0561C200.603 20.1517 201.641 16.0462 199.822 12.8862C198.003 9.72631 194.014 8.70853 190.913 10.613C187.812 12.5174 186.774 16.6229 188.593 19.7829Z" fill="white"/>
<path d="M292.688 28.854C294.65 27.4562 292.676 24.3425 290.533 25.4265L288.545 26.4312C278.421 31.5437 266.462 25.3318 264.592 13.9888L264.226 11.7637C263.831 9.36301 260.412 9.56361 260.232 11.9987C260.232 11.9987 258.753 53.0503 292.685 28.8558L292.688 28.854Z" fill="white"/>
<path d="M273.162 19.7829C274.982 22.9428 278.97 23.9606 282.071 22.0561C285.172 20.1517 286.211 16.0462 284.391 12.8862C282.572 9.72631 278.583 8.70853 275.482 10.613C272.382 12.5174 271.343 16.6229 273.162 19.7829Z" fill="white"/>
<path d="M377.258 28.854C379.221 27.4562 377.246 24.3425 375.103 25.4265L373.115 26.4312C362.991 31.5437 351.032 25.3318 349.163 13.9888L348.796 11.7637C348.402 9.36301 344.982 9.56361 344.802 11.9987C344.802 11.9987 343.323 53.0503 377.255 28.8558L377.258 28.854Z" fill="white"/>
<path d="M357.733 19.7829C359.552 22.9428 363.541 23.9606 366.642 22.0561C369.742 20.1517 370.781 16.0462 368.962 12.8862C367.142 9.72631 363.154 8.70853 360.053 10.613C356.952 12.5174 355.913 16.6229 357.733 19.7829Z" fill="white"/>
<path d="M461.828 28.854C463.79 27.4562 461.816 24.3425 459.673 25.4265L457.685 26.4312C447.561 31.5437 435.601 25.3318 433.732 13.9888L433.365 11.7637C432.971 9.36301 429.551 9.56361 429.371 11.9987C429.371 11.9987 427.893 53.0503 461.825 28.8558L461.828 28.854Z" fill="white"/>
<path d="M442.302 19.7829C444.121 22.9428 448.11 23.9606 451.211 22.0561C454.312 20.1517 455.35 16.0462 453.531 12.8862C451.712 9.72631 447.723 8.70853 444.622 10.613C441.521 12.5174 440.482 16.6229 442.302 19.7829Z" fill="white"/>
<path d="M546.4 28.854C548.362 27.4562 546.388 24.3425 544.245 25.4265L542.257 26.4312C532.133 31.5437 520.173 25.3318 518.304 13.9888L517.938 11.7637C517.543 9.36301 514.124 9.56361 513.943 11.9987C513.943 11.9987 512.465 53.0503 546.397 28.8558L546.4 28.854Z" fill="white"/>
<path d="M526.874 19.7829C528.694 22.9428 532.682 23.9606 535.783 22.0561C538.884 20.1517 539.923 16.0462 538.103 12.8862C536.284 9.72631 532.295 8.70853 529.194 10.613C526.093 12.5174 525.055 16.6229 526.874 19.7829Z" fill="white"/>
<path d="M630.97 28.854C632.932 27.4562 630.958 24.3425 628.815 25.4265L626.827 26.4312C616.703 31.5437 604.743 25.3318 602.874 13.9888L602.507 11.7637C602.113 9.36301 598.693 9.56361 598.513 11.9987C598.513 11.9987 597.035 53.0503 630.967 28.8558L630.97 28.854Z" fill="white"/>
<path d="M611.444 19.7829C613.263 22.9428 617.252 23.9606 620.353 22.0561C623.454 20.1517 624.492 16.0462 622.673 12.8862C620.854 9.72631 616.865 8.70853 613.764 10.613C610.663 12.5174 609.624 16.6229 611.444 19.7829Z" fill="white"/>
<path d="M715.539 28.854C717.501 27.4562 715.527 24.3425 713.384 25.4265L711.396 26.4312C701.272 31.5437 689.313 25.3318 687.443 13.9888L687.077 11.7637C686.682 9.36301 683.263 9.56361 683.083 11.9987C683.083 11.9987 681.604 53.0503 715.536 28.8558L715.539 28.854Z" fill="white"/>
<path d="M696.013 19.7829C697.833 22.9428 701.822 23.9606 704.922 22.0561C708.023 20.1517 709.062 16.0462 707.242 12.8862C705.423 9.72631 701.434 8.70853 698.333 10.613C695.233 12.5174 694.194 16.6229 696.013 19.7829Z" fill="white"/>
<path d="M800.111 28.854C802.073 27.4562 800.099 24.3425 797.956 25.4265L795.968 26.4312C785.844 31.5437 773.885 25.3318 772.015 13.9888L771.649 11.7637C771.255 9.36301 767.835 9.56361 767.655 11.9987C767.655 11.9987 766.176 53.0503 800.108 28.8558L800.111 28.854Z" fill="white"/>
<path d="M780.585 19.7829C782.405 22.9428 786.394 23.9606 789.494 22.0561C792.595 20.1517 793.634 16.0462 791.814 12.8862C789.995 9.72631 786.006 8.70853 782.905 10.613C779.805 12.5174 778.766 16.6229 780.585 19.7829Z" fill="white"/>
<path d="M884.681 28.854C886.643 27.4562 884.669 24.3425 882.526 25.4265L880.538 26.4312C870.414 31.5437 858.455 25.3318 856.585 13.9888L856.219 11.7637C855.824 9.36301 852.405 9.56361 852.224 11.9987C852.224 11.9987 850.746 53.0503 884.678 28.8558L884.681 28.854Z" fill="white"/>
<path d="M865.155 19.7829C866.975 22.9428 870.963 23.9606 874.064 22.0561C877.165 20.1517 878.204 16.0462 876.384 12.8862C874.565 9.72631 870.576 8.70853 867.475 10.613C864.375 12.5174 863.336 16.6229 865.155 19.7829Z" fill="white"/>
<path d="M969.251 28.854C971.213 27.4562 969.239 24.3425 967.096 25.4265L965.108 26.4312C954.984 31.5437 943.024 25.3318 941.155 13.9888L940.789 11.7637C940.394 9.36301 936.975 9.56361 936.794 11.9987C936.794 11.9987 935.316 53.0503 969.248 28.8558L969.251 28.854Z" fill="white"/>
<path d="M949.725 19.7829C951.545 22.9428 955.533 23.9606 958.634 22.0561C961.735 20.1517 962.774 16.0462 960.954 12.8862C959.135 9.72631 955.146 8.70853 952.045 10.613C948.944 12.5174 947.906 16.6229 949.725 19.7829Z" fill="white"/>
<path d="M1053.82 28.854C1055.78 27.4562 1053.81 24.3425 1051.67 25.4265L1049.68 26.4312C1039.55 31.5437 1027.59 25.3318 1025.72 13.9888L1025.36 11.7637C1024.96 9.36301 1021.54 9.56361 1021.36 11.9987C1021.36 11.9987 1019.89 53.0503 1053.82 28.8558L1053.82 28.854Z" fill="white"/>
<path d="M1034.29 19.7829C1036.11 22.9428 1040.1 23.9606 1043.2 22.0561C1046.3 20.1517 1047.34 16.0462 1045.52 12.8862C1043.7 9.72631 1039.72 8.70853 1036.61 10.613C1033.51 12.5174 1032.48 16.6229 1034.29 19.7829Z" fill="white"/>
<path d="M1138.39 28.854C1140.35 27.4562 1138.38 24.3425 1136.24 25.4265L1134.25 26.4312C1124.13 31.5437 1112.17 25.3318 1110.3 13.9888L1109.93 11.7637C1109.54 9.36301 1106.12 9.56361 1105.94 11.9987C1105.94 11.9987 1104.46 53.0503 1138.39 28.8558L1138.39 28.854Z" fill="white"/>
<path d="M1118.87 19.7829C1120.69 22.9428 1124.67 23.9606 1127.78 22.0561C1130.88 20.1517 1131.92 16.0462 1130.1 12.8862C1128.28 9.72631 1124.29 8.70853 1121.19 10.613C1118.09 12.5174 1117.05 16.6229 1118.87 19.7829Z" fill="white"/>
<path d="M1222.96 28.854C1224.92 27.4562 1222.95 24.3425 1220.81 25.4265L1218.82 26.4312C1208.69 31.5437 1196.74 25.3318 1194.87 13.9888L1194.5 11.7637C1194.11 9.36301 1190.69 9.56361 1190.51 11.9987C1190.51 11.9987 1189.03 53.0503 1222.96 28.8558L1222.96 28.854Z" fill="white"/>
<path d="M1203.44 19.7829C1205.26 22.9428 1209.24 23.9606 1212.34 22.0561C1215.45 20.1517 1216.48 16.0462 1214.67 12.8862C1212.85 9.72631 1208.86 8.70853 1205.76 10.613C1202.66 12.5174 1201.62 16.6229 1203.44 19.7829Z" fill="white"/>
<path d="M1307.53 28.854C1309.49 27.4562 1307.52 24.3425 1305.38 25.4265L1303.39 26.4312C1293.26 31.5437 1281.31 25.3318 1279.44 13.9888L1279.07 11.7637C1278.67 9.36301 1275.26 9.56361 1275.08 11.9987C1275.08 11.9987 1273.6 53.0503 1307.53 28.8558L1307.53 28.854Z" fill="white"/>
<path d="M1288.01 19.7829C1289.83 22.9428 1293.81 23.9606 1296.91 22.0561C1300.02 20.1517 1301.05 16.0462 1299.23 12.8862C1297.42 9.72631 1293.43 8.70853 1290.33 10.613C1287.23 12.5174 1286.19 16.6229 1288.01 19.7829Z" fill="white"/>
<path d="M1392.1 28.854C1394.07 27.4562 1392.09 24.3425 1389.95 25.4265L1387.96 26.4312C1377.84 31.5437 1365.88 25.3318 1364.01 13.9888L1363.64 11.7637C1363.25 9.36301 1359.83 9.56361 1359.65 11.9987C1359.65 11.9987 1358.17 53.0503 1392.1 28.8558L1392.1 28.854Z" fill="white"/>
<path d="M1372.58 19.7829C1374.4 22.9428 1378.39 23.9606 1381.49 22.0561C1384.59 20.1517 1385.63 16.0462 1383.81 12.8862C1381.99 9.72631 1378 8.70853 1374.9 10.613C1371.8 12.5174 1370.76 16.6229 1372.58 19.7829Z" fill="white"/>
<path d="M1476.67 28.854C1478.64 27.4562 1476.66 24.3425 1474.52 25.4265L1472.53 26.4312C1462.41 31.5437 1450.45 25.3318 1448.58 13.9888L1448.21 11.7637C1447.82 9.36301 1444.4 9.56361 1444.22 11.9987C1444.22 11.9987 1442.74 53.0503 1476.67 28.8558L1476.67 28.854Z" fill="white"/>
<path d="M59.9788 70.8543C61.9411 69.4564 59.9668 66.3427 57.8239 67.4268L55.8359 68.4314C45.712 73.5439 33.7526 67.332 31.8833 55.9891L31.5167 53.764C31.1223 51.3633 27.7027 51.5639 27.5224 53.9989C27.5224 53.9989 26.0438 95.0505 59.976 70.856L59.9788 70.8543Z" fill="white"/>
<path d="M40.4532 61.7831C42.2727 64.943 46.2614 65.9608 49.3622 64.0564C52.463 62.1519 53.5017 58.0464 51.6823 54.8865C49.8628 51.7266 45.8741 50.7088 42.7733 52.6132C39.6725 54.5177 38.6337 58.6232 40.4532 61.7831Z" fill="white"/>
<path d="M144.549 70.8543C146.511 69.4564 144.537 66.3427 142.394 67.4268L140.406 68.4314C130.282 73.5439 118.322 67.332 116.453 55.9891L116.087 53.764C115.692 51.3633 112.272 51.5639 112.092 53.9989C112.092 53.9989 110.614 95.0505 144.546 70.856L144.549 70.8543Z" fill="white"/>
<path d="M125.023 61.7831C126.843 64.943 130.831 65.9608 133.932 64.0564C137.033 62.1519 138.072 58.0464 136.252 54.8865C134.433 51.7266 130.444 50.7088 127.343 52.6132C124.242 54.5177 123.204 58.6232 125.023 61.7831Z" fill="white"/>
<path d="M229.118 70.8543C231.081 69.4564 229.106 66.3427 226.964 67.4268L224.976 68.4314C214.852 73.5439 202.892 67.332 201.023 55.9891L200.656 53.764C200.262 51.3633 196.842 51.5639 196.662 53.9989C196.662 53.9989 195.183 95.0505 229.116 70.856L229.118 70.8543Z" fill="white"/>
<path d="M209.593 61.7831C211.412 64.943 215.401 65.9608 218.502 64.0564C221.603 62.1519 222.641 58.0464 220.822 54.8865C219.002 51.7266 215.014 50.7088 211.913 52.6132C208.812 54.5177 207.773 58.6232 209.593 61.7831Z" fill="white"/>
<path d="M313.69 70.8543C315.653 69.4564 313.678 66.3427 311.535 67.4268L309.547 68.4314C299.423 73.5439 287.464 67.332 285.595 55.9891L285.228 53.764C284.834 51.3633 281.414 51.5639 281.234 53.9989C281.234 53.9989 279.755 95.0505 313.687 70.856L313.69 70.8543Z" fill="white"/>
<path d="M294.165 61.7831C295.984 64.943 299.973 65.9608 303.074 64.0564C306.174 62.1519 307.213 58.0464 305.394 54.8865C303.574 51.7266 299.586 50.7088 296.485 52.6132C293.384 54.5177 292.345 58.6232 294.165 61.7831Z" fill="white"/>
<path d="M398.26 70.8543C400.222 69.4564 398.248 66.3427 396.105 67.4268L394.117 68.4314C383.993 73.5439 372.034 67.332 370.164 55.9891L369.798 53.764C369.403 51.3633 365.984 51.5639 365.804 53.9989C365.804 53.9989 364.325 95.0505 398.257 70.856L398.26 70.8543Z" fill="white"/>
<path d="M378.734 61.7831C380.554 64.943 384.542 65.9608 387.643 64.0564C390.744 62.1519 391.783 58.0464 389.963 54.8865C388.144 51.7266 384.155 50.7088 381.054 52.6132C377.954 54.5177 376.915 58.6232 378.734 61.7831Z" fill="white"/>
<path d="M482.83 70.8543C484.792 69.4564 482.818 66.3427 480.675 67.4268L478.687 68.4314C468.563 73.5439 456.604 67.332 454.734 55.9891L454.368 53.764C453.973 51.3633 450.554 51.5639 450.373 53.9989C450.373 53.9989 448.895 95.0505 482.827 70.856L482.83 70.8543Z" fill="white"/>
<path d="M463.304 61.7831C465.124 64.943 469.112 65.9608 472.213 64.0564C475.314 62.1519 476.353 58.0464 474.533 54.8865C472.714 51.7266 468.725 50.7088 465.624 52.6132C462.523 54.5177 461.485 58.6232 463.304 61.7831Z" fill="white"/>
<path d="M567.4 70.8543C569.362 69.4564 567.388 66.3427 565.245 67.4268L563.257 68.4314C553.133 73.5439 541.173 67.332 539.304 55.9891L538.937 53.764C538.543 51.3633 535.123 51.5639 534.943 53.9989C534.943 53.9989 533.465 95.0505 567.397 70.856L567.4 70.8543Z" fill="white"/>
<path d="M547.874 61.7831C549.693 64.943 553.682 65.9608 556.783 64.0564C559.884 62.1519 560.923 58.0464 559.103 54.8865C557.284 51.7266 553.295 50.7088 550.194 52.6132C547.093 54.5177 546.055 58.6232 547.874 61.7831Z" fill="white"/>
<path d="M651.971 70.8543C653.934 69.4564 651.959 66.3427 649.816 67.4268L647.828 68.4314C637.705 73.5439 625.745 67.332 623.876 55.9891L623.509 53.764C623.115 51.3633 619.695 51.5639 619.515 53.9989C619.515 53.9989 618.036 95.0505 651.969 70.856L651.971 70.8543Z" fill="white"/>
<path d="M632.446 61.7831C634.265 64.943 638.254 65.9608 641.355 64.0564C644.456 62.1519 645.494 58.0464 643.675 54.8865C641.855 51.7266 637.867 50.7088 634.766 52.6132C631.665 54.5177 630.626 58.6232 632.446 61.7831Z" fill="white"/>
<path d="M736.541 70.8543C738.503 69.4564 736.529 66.3427 734.386 67.4268L732.398 68.4314C722.274 73.5439 710.315 67.332 708.446 55.9891L708.079 53.764C707.685 51.3633 704.265 51.5639 704.085 53.9989C704.085 53.9989 702.606 95.0505 736.538 70.856L736.541 70.8543Z" fill="white"/>
<path d="M717.016 61.7831C718.835 64.943 722.824 65.9608 725.925 64.0564C729.025 62.1519 730.064 58.0464 728.245 54.8865C726.425 51.7266 722.436 50.7088 719.336 52.6132C716.235 54.5177 715.196 58.6232 717.016 61.7831Z" fill="white"/>
<path d="M821.111 70.8543C823.073 69.4564 821.099 66.3427 818.956 67.4268L816.968 68.4314C806.844 73.5439 794.885 67.332 793.015 55.9891L792.649 53.764C792.255 51.3633 788.835 51.5639 788.655 53.9989C788.655 53.9989 787.176 95.0505 821.108 70.856L821.111 70.8543Z" fill="white"/>
<path d="M801.585 61.7831C803.405 64.943 807.394 65.9608 810.494 64.0564C813.595 62.1519 814.634 58.0464 812.814 54.8865C810.995 51.7266 807.006 50.7088 803.905 52.6132C800.805 54.5177 799.766 58.6232 801.585 61.7831Z" fill="white"/>
<path d="M905.683 70.8543C907.645 69.4564 905.671 66.3427 903.528 67.4268L901.54 68.4314C891.416 73.5439 879.457 67.332 877.587 55.9891L877.221 53.764C876.826 51.3633 873.407 51.5639 873.226 53.9989C873.226 53.9989 871.748 95.0505 905.68 70.856L905.683 70.8543Z" fill="white"/>
<path d="M886.157 61.7831C887.977 64.943 891.965 65.9608 895.066 64.0564C898.167 62.1519 899.206 58.0464 897.386 54.8865C895.567 51.7266 891.578 50.7088 888.477 52.6132C885.376 54.5177 884.338 58.6232 886.157 61.7831Z" fill="white"/>
<path d="M990.253 70.8543C992.215 69.4564 990.241 66.3427 988.098 67.4268L986.11 68.4314C975.986 73.5439 964.026 67.332 962.157 55.9891L961.79 53.764C961.396 51.3633 957.976 51.5639 957.796 53.9989C957.796 53.9989 956.318 95.0505 990.25 70.856L990.253 70.8543Z" fill="white"/>
<path d="M970.727 61.7831C972.546 64.943 976.535 65.9608 979.636 64.0564C982.737 62.1519 983.776 58.0464 981.956 54.8865C980.137 51.7266 976.148 50.7088 973.047 52.6132C969.946 54.5177 968.908 58.6232 970.727 61.7831Z" fill="white"/>
<path d="M1074.82 70.8543C1076.78 69.4564 1074.81 66.3427 1072.67 67.4268L1070.68 68.4314C1060.56 73.5439 1048.6 67.332 1046.73 55.9891L1046.36 53.764C1045.97 51.3633 1042.55 51.5639 1042.37 53.9989C1042.37 53.9989 1040.89 95.0505 1074.82 70.856L1074.82 70.8543Z" fill="white"/>
<path d="M1055.3 61.7831C1057.12 64.943 1061.1 65.9608 1064.21 64.0564C1067.31 62.1519 1068.35 58.0464 1066.53 54.8865C1064.71 51.7266 1060.72 50.7088 1057.62 52.6132C1054.52 54.5177 1053.48 58.6232 1055.3 61.7831Z" fill="white"/>
<path d="M1159.39 70.8543C1161.35 69.4564 1159.38 66.3427 1157.24 67.4268L1155.25 68.4314C1145.13 73.5439 1133.17 67.332 1131.3 55.9891L1130.93 53.764C1130.54 51.3633 1127.12 51.5639 1126.94 53.9989C1126.94 53.9989 1125.46 95.0505 1159.39 70.856L1159.39 70.8543Z" fill="white"/>
<path d="M1139.87 61.7831C1141.69 64.943 1145.67 65.9608 1148.78 64.0564C1151.88 62.1519 1152.92 58.0464 1151.1 54.8865C1149.28 51.7266 1145.29 50.7088 1142.19 52.6132C1139.09 54.5177 1138.05 58.6232 1139.87 61.7831Z" fill="white"/>
<path d="M1243.96 70.8543C1245.93 69.4564 1243.95 66.3427 1241.81 67.4268L1239.82 68.4314C1229.7 73.5439 1217.74 67.332 1215.87 55.9891L1215.5 53.764C1215.11 51.3633 1211.69 51.5639 1211.51 53.9989C1211.51 53.9989 1210.03 95.0505 1243.96 70.856L1243.96 70.8543Z" fill="white"/>
<path d="M1224.44 61.7831C1226.26 64.943 1230.25 65.9608 1233.35 64.0564C1236.45 62.1519 1237.49 58.0464 1235.67 54.8865C1233.85 51.7266 1229.86 50.7088 1226.76 52.6132C1223.66 54.5177 1222.62 58.6232 1224.44 61.7831Z" fill="white"/>
<path d="M1328.53 70.8543C1330.5 69.4564 1328.52 66.3427 1326.38 67.4268L1324.39 68.4314C1314.27 73.5439 1302.31 67.332 1300.44 55.9891L1300.07 53.764C1299.68 51.3633 1296.26 51.5639 1296.08 53.9989C1296.08 53.9989 1294.6 95.0505 1328.53 70.856L1328.53 70.8543Z" fill="white"/>
<path d="M1309.01 61.7831C1310.83 64.943 1314.82 65.9608 1317.92 64.0564C1321.02 62.1519 1322.06 58.0464 1320.24 54.8865C1318.42 51.7266 1314.43 50.7088 1311.33 52.6132C1308.23 54.5177 1307.19 58.6232 1309.01 61.7831Z" fill="white"/>
<path d="M1413.1 70.8543C1415.07 69.4564 1413.09 66.3427 1410.95 67.4268L1408.96 68.4314C1398.84 73.5439 1386.88 67.332 1385.01 55.9891L1384.64 53.764C1384.25 51.3633 1380.83 51.5639 1380.65 53.9989C1380.65 53.9989 1379.17 95.0505 1413.1 70.856L1413.1 70.8543Z" fill="white"/>
<path d="M1393.58 61.7831C1395.4 64.943 1399.39 65.9608 1402.49 64.0564C1405.59 62.1519 1406.63 58.0464 1404.81 54.8865C1402.99 51.7266 1399 50.7088 1395.9 52.6132C1392.8 54.5177 1391.76 58.6232 1393.58 61.7831Z" fill="white"/>
<path d="M16.5512 70.8543C18.5135 69.4564 16.5392 66.3427 14.3963 67.4268L12.4083 68.4314C2.28434 73.5439 -9.67505 67.332 -11.5444 55.9891L-11.9109 53.764C-12.3053 51.3633 -15.725 51.5639 -15.9052 53.9989C-15.9052 53.9989 -17.3838 95.0505 16.5484 70.856L16.5512 70.8543Z" fill="white"/>
<path d="M-2.9744 61.7831C-1.15493 64.943 2.83375 65.9608 5.93456 64.0564C9.03538 62.1519 10.0741 58.0464 8.25465 54.8865C6.43518 51.7266 2.4465 50.7088 -0.654319 52.6132C-3.75514 54.5177 -4.79387 58.6232 -2.9744 61.7831Z" fill="white"/>
<path d="M101.121 70.8543C103.083 69.4564 101.109 66.3427 98.9661 67.4268L96.9781 68.4314C86.8542 73.5439 74.8948 67.332 73.0255 55.9891L72.6589 53.764C72.2645 51.3633 68.8449 51.5639 68.6647 53.9989C68.6647 53.9989 67.186 95.0505 101.118 70.856L101.121 70.8543Z" fill="white"/>
<path d="M81.5954 61.7831C83.4149 64.943 87.4036 65.9608 90.5044 64.0564C93.6052 62.1519 94.6439 58.0464 92.8245 54.8865C91.005 51.7266 87.0163 50.7088 83.9155 52.6132C80.8147 54.5177 79.776 58.6232 81.5954 61.7831Z" fill="white"/>
<path d="M185.691 70.8543C187.653 69.4564 185.679 66.3427 183.536 67.4268L181.548 68.4314C171.424 73.5439 159.465 67.332 157.595 55.9891L157.229 53.764C156.834 51.3633 153.415 51.5639 153.234 53.9989C153.234 53.9989 151.756 95.0505 185.688 70.856L185.691 70.8543Z" fill="white"/>
<path d="M166.165 61.7831C167.985 64.943 171.973 65.9608 175.074 64.0564C178.175 62.1519 179.214 58.0464 177.394 54.8865C175.575 51.7266 171.586 50.7088 168.485 52.6132C165.385 54.5177 164.346 58.6232 166.165 61.7831Z" fill="white"/>
<path d="M270.261 70.8543C272.223 69.4564 270.249 66.3427 268.106 67.4268L266.118 68.4314C255.994 73.5439 244.034 67.332 242.165 55.9891L241.799 53.764C241.404 51.3633 237.985 51.5639 237.804 53.9989C237.804 53.9989 236.326 95.0505 270.258 70.856L270.261 70.8543Z" fill="white"/>
<path d="M250.735 61.7831C252.555 64.943 256.543 65.9608 259.644 64.0564C262.745 62.1519 263.784 58.0464 261.964 54.8865C260.145 51.7266 256.156 50.7088 253.055 52.6132C249.954 54.5177 248.916 58.6232 250.735 61.7831Z" fill="white"/>
<path d="M354.832 70.8543C356.795 69.4564 354.82 66.3427 352.678 67.4268L350.69 68.4314C340.566 73.5439 328.606 67.332 326.737 55.9891L326.37 53.764C325.976 51.3633 322.556 51.5639 322.376 53.9989C322.376 53.9989 320.897 95.0505 354.83 70.856L354.832 70.8543Z" fill="white"/>
<path d="M335.307 61.7831C337.126 64.943 341.115 65.9608 344.216 64.0564C347.317 62.1519 348.355 58.0464 346.536 54.8865C344.716 51.7266 340.728 50.7088 337.627 52.6132C334.526 54.5177 333.487 58.6232 335.307 61.7831Z" fill="white"/>
<path d="M439.402 70.8543C441.365 69.4564 439.39 66.3427 437.247 67.4268L435.259 68.4314C425.135 73.5439 413.176 67.332 411.307 55.9891L410.94 53.764C410.546 51.3633 407.126 51.5639 406.946 53.9989C406.946 53.9989 405.467 95.0505 439.399 70.856L439.402 70.8543Z" fill="white"/>
<path d="M419.877 61.7831C421.696 64.943 425.685 65.9608 428.786 64.0564C431.886 62.1519 432.925 58.0464 431.106 54.8865C429.286 51.7266 425.298 50.7088 422.197 52.6132C419.096 54.5177 418.057 58.6232 419.877 61.7831Z" fill="white"/>
<path d="M523.972 70.8543C525.934 69.4564 523.96 66.3427 521.817 67.4268L519.829 68.4314C509.705 73.5439 497.746 67.332 495.877 55.9891L495.51 53.764C495.116 51.3633 491.696 51.5639 491.516 53.9989C491.516 53.9989 490.037 95.0505 523.969 70.856L523.972 70.8543Z" fill="white"/>
<path d="M504.446 61.7831C506.266 64.943 510.255 65.9608 513.355 64.0564C516.456 62.1519 517.495 58.0464 515.676 54.8865C513.856 51.7266 509.867 50.7088 506.767 52.6132C503.666 54.5177 502.627 58.6232 504.446 61.7831Z" fill="white"/>
<path d="M608.544 70.8543C610.506 69.4564 608.532 66.3427 606.389 67.4268L604.401 68.4314C594.277 73.5439 582.318 67.332 580.448 55.9891L580.082 53.764C579.687 51.3633 576.268 51.5639 576.087 53.9989C576.087 53.9989 574.609 95.0505 608.541 70.856L608.544 70.8543Z" fill="white"/>
<path d="M589.018 61.7831C590.838 64.943 594.826 65.9608 597.927 64.0564C601.028 62.1519 602.067 58.0464 600.247 54.8865C598.428 51.7266 594.439 50.7088 591.338 52.6132C588.237 54.5177 587.199 58.6232 589.018 61.7831Z" fill="white"/>
<path d="M693.114 70.8543C695.076 69.4564 693.102 66.3427 690.959 67.4268L688.971 68.4314C678.847 73.5439 666.887 67.332 665.018 55.9891L664.651 53.764C664.257 51.3633 660.837 51.5639 660.657 53.9989C660.657 53.9989 659.179 95.0505 693.111 70.856L693.114 70.8543Z" fill="white"/>
<path d="M673.588 61.7831C675.407 64.943 679.396 65.9608 682.497 64.0564C685.598 62.1519 686.636 58.0464 684.817 54.8865C682.998 51.7266 679.009 50.7088 675.908 52.6132C672.807 54.5177 671.769 58.6232 673.588 61.7831Z" fill="white"/>
<path d="M777.683 70.8543C779.646 69.4564 777.671 66.3427 775.528 67.4268L773.54 68.4314C763.417 73.5439 751.457 67.332 749.588 55.9891L749.221 53.764C748.827 51.3633 745.407 51.5639 745.227 53.9989C745.227 53.9989 743.748 95.0505 777.681 70.856L777.683 70.8543Z" fill="white"/>
<path d="M758.158 61.7831C759.977 64.943 763.966 65.9608 767.067 64.0564C770.168 62.1519 771.206 58.0464 769.387 54.8865C767.567 51.7266 763.579 50.7088 760.478 52.6132C757.377 54.5177 756.338 58.6232 758.158 61.7831Z" fill="white"/>
<path d="M862.253 70.8543C864.216 69.4564 862.241 66.3427 860.098 67.4268L858.11 68.4314C847.986 73.5439 836.027 67.332 834.158 55.9891L833.791 53.764C833.397 51.3633 829.977 51.5639 829.797 53.9989C829.797 53.9989 828.318 95.0505 862.25 70.856L862.253 70.8543Z" fill="white"/>
<path d="M842.728 61.7831C844.547 64.943 848.536 65.9608 851.637 64.0564C854.737 62.1519 855.776 58.0464 853.957 54.8865C852.137 51.7266 848.149 50.7088 845.048 52.6132C841.947 54.5177 840.908 58.6232 842.728 61.7831Z" fill="white"/>
<path d="M946.825 70.8543C948.787 69.4564 946.813 66.3427 944.67 67.4268L942.682 68.4314C932.558 73.5439 920.599 67.332 918.73 55.9891L918.363 53.764C917.969 51.3633 914.549 51.5639 914.369 53.9989C914.369 53.9989 912.89 95.0505 946.822 70.856L946.825 70.8543Z" fill="white"/>
<path d="M927.3 61.7831C929.119 64.943 933.108 65.9608 936.208 64.0564C939.309 62.1519 940.348 58.0464 938.529 54.8865C936.709 51.7266 932.72 50.7088 929.62 52.6132C926.519 54.5177 925.48 58.6232 927.3 61.7831Z" fill="white"/>
<path d="M1031.39 70.8543C1033.36 69.4564 1031.38 66.3427 1029.24 67.4268L1027.25 68.4314C1017.13 73.5439 1005.17 67.332 1003.3 55.9891L1002.93 53.764C1002.54 51.3633 999.119 51.5639 998.938 53.9989C998.938 53.9989 997.46 95.0505 1031.39 70.856L1031.39 70.8543Z" fill="white"/>
<path d="M1011.87 61.7831C1013.69 64.943 1017.68 65.9608 1020.78 64.0564C1023.88 62.1519 1024.92 58.0464 1023.1 54.8865C1021.28 51.7266 1017.29 50.7088 1014.19 52.6132C1011.09 54.5177 1010.05 58.6232 1011.87 61.7831Z" fill="white"/>
<path d="M1115.96 70.8543C1117.93 69.4564 1115.95 66.3427 1113.81 67.4268L1111.82 68.4314C1101.7 73.5439 1089.74 67.332 1087.87 55.9891L1087.5 53.764C1087.11 51.3633 1083.69 51.5639 1083.51 53.9989C1083.51 53.9989 1082.03 95.0505 1115.96 70.856L1115.96 70.8543Z" fill="white"/>
<path d="M1096.44 61.7831C1098.26 64.943 1102.25 65.9608 1105.35 64.0564C1108.45 62.1519 1109.49 58.0464 1107.67 54.8865C1105.85 51.7266 1101.86 50.7088 1098.76 52.6132C1095.66 54.5177 1094.62 58.6232 1096.44 61.7831Z" fill="white"/>
<path d="M1200.53 70.8543C1202.5 69.4564 1200.52 66.3427 1198.38 67.4268L1196.39 68.4314C1186.27 73.5439 1174.31 67.332 1172.44 55.9891L1172.07 53.764C1171.68 51.3633 1168.26 51.5639 1168.08 53.9989C1168.08 53.9989 1166.6 95.0505 1200.53 70.856L1200.53 70.8543Z" fill="white"/>
<path d="M1181.01 61.7831C1182.83 64.943 1186.82 65.9608 1189.92 64.0564C1193.02 62.1519 1194.06 58.0464 1192.24 54.8865C1190.42 51.7266 1186.43 50.7088 1183.33 52.6132C1180.23 54.5177 1179.19 58.6232 1181.01 61.7831Z" fill="white"/>
<path d="M1285.11 70.8543C1287.07 69.4564 1285.09 66.3427 1282.95 67.4268L1280.96 68.4314C1270.84 73.5439 1258.88 67.332 1257.01 55.9891L1256.64 53.764C1256.25 51.3633 1252.83 51.5639 1252.65 53.9989C1252.65 53.9989 1251.17 95.0505 1285.1 70.856L1285.11 70.8543Z" fill="white"/>
<path d="M1265.58 61.7831C1267.4 64.943 1271.39 65.9608 1274.49 64.0564C1277.59 62.1519 1278.63 58.0464 1276.81 54.8865C1274.99 51.7266 1271 50.7088 1267.9 52.6132C1264.8 54.5177 1263.76 58.6232 1265.58 61.7831Z" fill="white"/>
<path d="M1369.68 70.8543C1371.64 69.4564 1369.66 66.3427 1367.52 67.4268L1365.53 68.4314C1355.41 73.5439 1343.45 67.332 1341.58 55.9891L1341.21 53.764C1340.82 51.3633 1337.4 51.5639 1337.22 53.9989C1337.22 53.9989 1335.74 95.0505 1369.67 70.856L1369.68 70.8543Z" fill="white"/>
<path d="M1350.15 61.7831C1351.97 64.943 1355.96 65.9608 1359.06 64.0564C1362.16 62.1519 1363.2 58.0464 1361.38 54.8865C1359.56 51.7266 1355.57 50.7088 1352.47 52.6132C1349.37 54.5177 1348.33 58.6232 1350.15 61.7831Z" fill="white"/>
<path d="M1454.25 70.8543C1456.21 69.4564 1454.23 66.3427 1452.09 67.4268L1450.1 68.4314C1439.98 73.5439 1428.02 67.332 1426.15 55.9891L1425.78 53.764C1425.39 51.3633 1421.97 51.5639 1421.79 53.9989C1421.79 53.9989 1420.31 95.0505 1454.24 70.856L1454.25 70.8543Z" fill="white"/>
<path d="M1434.72 61.7831C1436.54 64.943 1440.53 65.9608 1443.63 64.0564C1446.73 62.1519 1447.77 58.0464 1445.95 54.8865C1444.13 51.7266 1440.14 50.7088 1437.04 52.6132C1433.94 54.5177 1432.9 58.6232 1434.72 61.7831Z" fill="white"/>
<path d="M40.9787 113.326C42.941 111.928 40.9667 108.815 38.8237 109.899L36.8357 110.903C26.7118 116.016 14.7524 109.804 12.8831 98.461L12.5166 96.2359C12.1222 93.8352 8.70253 94.0358 8.52232 96.4709C8.52232 96.4709 7.04366 137.522 40.9759 113.328L40.9787 113.326Z" fill="white"/>
<path d="M21.4531 104.255C23.2726 107.415 27.2612 108.433 30.3621 106.528C33.4629 104.624 34.5016 100.518 32.6821 97.3584C30.8627 94.1985 26.874 93.1807 23.7732 95.0852C20.6724 96.9896 19.6336 101.095 21.4531 104.255Z" fill="white"/>
<path d="M125.549 113.326C127.511 111.928 125.537 108.815 123.394 109.899L121.406 110.903C111.282 116.016 99.3223 109.804 97.453 98.461L97.0864 96.2359C96.692 93.8352 93.2724 94.0358 93.0921 96.4709C93.0921 96.4709 91.6135 137.522 125.546 113.328L125.549 113.326Z" fill="white"/>
<path d="M106.023 104.255C107.842 107.415 111.831 108.433 114.932 106.528C118.033 104.624 119.071 100.518 117.252 97.3584C115.432 94.1985 111.444 93.1807 108.343 95.0852C105.242 96.9896 104.203 101.095 106.023 104.255Z" fill="white"/>
<path d="M210.118 113.326C212.081 111.928 210.106 108.815 207.963 109.899L205.975 110.903C195.851 116.016 183.892 109.804 182.023 98.461L181.656 96.2359C181.262 93.8352 177.842 94.0358 177.662 96.4709C177.662 96.4709 176.183 137.522 210.116 113.328L210.118 113.326Z" fill="white"/>
<path d="M190.593 104.255C192.412 107.415 196.401 108.433 199.502 106.528C202.603 104.624 203.641 100.518 201.822 97.3584C200.002 94.1985 196.014 93.1807 192.913 95.0852C189.812 96.9896 188.773 101.095 190.593 104.255Z" fill="white"/>
<path d="M294.69 113.326C296.652 111.928 294.678 108.815 292.535 109.899L290.547 110.903C280.423 116.016 268.464 109.804 266.595 98.461L266.228 96.2359C265.834 93.8352 262.414 94.0358 262.234 96.4709C262.234 96.4709 260.755 137.522 294.687 113.328L294.69 113.326Z" fill="white"/>
<path d="M275.165 104.255C276.984 107.415 280.973 108.433 284.073 106.528C287.174 104.624 288.213 100.518 286.394 97.3584C284.574 94.1985 280.585 93.1807 277.485 95.0852C274.384 96.9896 273.345 101.095 275.165 104.255Z" fill="white"/>
<path d="M379.26 113.326C381.222 111.928 379.248 108.815 377.105 109.899L375.117 110.903C364.993 116.016 353.034 109.804 351.164 98.461L350.798 96.2359C350.403 93.8352 346.984 94.0358 346.804 96.4709C346.804 96.4709 345.325 137.522 379.257 113.328L379.26 113.326Z" fill="white"/>
<path d="M359.734 104.255C361.554 107.415 365.542 108.433 368.643 106.528C371.744 104.624 372.783 100.518 370.963 97.3584C369.144 94.1985 365.155 93.1807 362.054 95.0852C358.954 96.9896 357.915 101.095 359.734 104.255Z" fill="white"/>
<path d="M463.83 113.326C465.792 111.928 463.818 108.815 461.675 109.899L459.687 110.903C449.563 116.016 437.604 109.804 435.734 98.461L435.368 96.2359C434.973 93.8352 431.554 94.0358 431.373 96.4709C431.373 96.4709 429.895 137.522 463.827 113.328L463.83 113.326Z" fill="white"/>
<path d="M444.304 104.255C446.124 107.415 450.112 108.433 453.213 106.528C456.314 104.624 457.353 100.518 455.533 97.3584C453.714 94.1985 449.725 93.1807 446.624 95.0852C443.523 96.9896 442.485 101.095 444.304 104.255Z" fill="white"/>
<path d="M548.4 113.326C550.362 111.928 548.388 108.815 546.245 109.899L544.257 110.903C534.133 116.016 522.173 109.804 520.304 98.461L519.937 96.2359C519.543 93.8352 516.123 94.0358 515.943 96.4709C515.943 96.4709 514.465 137.522 548.397 113.328L548.4 113.326Z" fill="white"/>
<path d="M528.874 104.255C530.693 107.415 534.682 108.433 537.783 106.528C540.884 104.624 541.923 100.518 540.103 97.3584C538.284 94.1985 534.295 93.1807 531.194 95.0852C528.093 96.9896 527.055 101.095 528.874 104.255Z" fill="white"/>
<path d="M632.971 113.326C634.934 111.928 632.959 108.815 630.816 109.899L628.828 110.903C618.704 116.016 606.745 109.804 604.876 98.461L604.509 96.2359C604.115 93.8352 600.695 94.0358 600.515 96.4709C600.515 96.4709 599.036 137.522 632.968 113.328L632.971 113.326Z" fill="white"/>
<path d="M613.446 104.255C615.265 107.415 619.254 108.433 622.355 106.528C625.455 104.624 626.494 100.518 624.675 97.3584C622.855 94.1985 618.867 93.1807 615.766 95.0852C612.665 96.9896 611.626 101.095 613.446 104.255Z" fill="white"/>
<path d="M717.541 113.326C719.503 111.928 717.529 108.815 715.386 109.899L713.398 110.903C703.274 116.016 691.315 109.804 689.446 98.461L689.079 96.2359C688.685 93.8352 685.265 94.0358 685.085 96.4709C685.085 96.4709 683.606 137.522 717.538 113.328L717.541 113.326Z" fill="white"/>
<path d="M698.015 104.255C699.835 107.415 703.824 108.433 706.924 106.528C710.025 104.624 711.064 100.518 709.245 97.3584C707.425 94.1985 703.436 93.1807 700.336 95.0852C697.235 96.9896 696.196 101.095 698.015 104.255Z" fill="white"/>
<path d="M802.111 113.326C804.073 111.928 802.099 108.815 799.956 109.899L797.968 110.903C787.844 116.016 775.885 109.804 774.015 98.461L773.649 96.2359C773.254 93.8352 769.835 94.0358 769.655 96.4709C769.655 96.4709 768.176 137.522 802.108 113.328L802.111 113.326Z" fill="white"/>
<path d="M782.585 104.255C784.405 107.415 788.393 108.433 791.494 106.528C794.595 104.624 795.634 100.518 793.814 97.3584C791.995 94.1985 788.006 93.1807 784.905 95.0852C781.805 96.9896 780.766 101.095 782.585 104.255Z" fill="white"/>
<path d="M886.683 113.326C888.645 111.928 886.671 108.815 884.528 109.899L882.54 110.903C872.416 116.016 860.456 109.804 858.587 98.461L858.22 96.2359C857.826 93.8352 854.406 94.0358 854.226 96.4709C854.226 96.4709 852.748 137.522 886.68 113.328L886.683 113.326Z" fill="white"/>
<path d="M867.157 104.255C868.976 107.415 872.965 108.433 876.066 106.528C879.167 104.624 880.205 100.518 878.386 97.3584C876.567 94.1985 872.578 93.1807 869.477 95.0852C866.376 96.9896 865.337 101.095 867.157 104.255Z" fill="white"/>
<path d="M971.252 113.326C973.215 111.928 971.24 108.815 969.097 109.899L967.109 110.903C956.986 116.016 945.026 109.804 943.157 98.461L942.79 96.2359C942.396 93.8352 938.976 94.0358 938.796 96.4709C938.796 96.4709 937.317 137.522 971.25 113.328L971.252 113.326Z" fill="white"/>
<path d="M951.727 104.255C953.546 107.415 957.535 108.433 960.636 106.528C963.737 104.624 964.775 100.518 962.956 97.3584C961.136 94.1985 957.148 93.1807 954.047 95.0852C950.946 96.9896 949.907 101.095 951.727 104.255Z" fill="white"/>
<path d="M1055.82 113.326C1057.78 111.928 1055.81 108.815 1053.67 109.899L1051.68 110.903C1041.56 116.016 1029.6 109.804 1027.73 98.461L1027.36 96.2359C1026.97 93.8352 1023.55 94.0358 1023.37 96.4709C1023.37 96.4709 1021.89 137.522 1055.82 113.328L1055.82 113.326Z" fill="white"/>
<path d="M1036.3 104.255C1038.12 107.415 1042.1 108.433 1045.21 106.528C1048.31 104.624 1049.35 100.518 1047.53 97.3584C1045.71 94.1985 1041.72 93.1807 1038.62 95.0852C1035.52 96.9896 1034.48 101.095 1036.3 104.255Z" fill="white"/>
<path d="M1140.39 113.326C1142.35 111.928 1140.38 108.815 1138.24 109.899L1136.25 110.903C1126.13 116.016 1114.17 109.804 1112.3 98.461L1111.93 96.2359C1111.54 93.8352 1108.12 94.0358 1107.94 96.4709C1107.94 96.4709 1106.46 137.522 1140.39 113.328L1140.39 113.326Z" fill="white"/>
<path d="M1120.87 104.255C1122.69 107.415 1126.67 108.433 1129.78 106.528C1132.88 104.624 1133.92 100.518 1132.1 97.3584C1130.28 94.1985 1126.29 93.1807 1123.19 95.0852C1120.09 96.9896 1119.05 101.095 1120.87 104.255Z" fill="white"/>
<path d="M1224.96 113.326C1226.93 111.928 1224.95 108.815 1222.81 109.899L1220.82 110.903C1210.7 116.016 1198.74 109.804 1196.87 98.461L1196.5 96.2359C1196.11 93.8352 1192.69 94.0358 1192.51 96.4709C1192.51 96.4709 1191.03 137.522 1224.96 113.328L1224.96 113.326Z" fill="white"/>
<path d="M1205.44 104.255C1207.26 107.415 1211.25 108.433 1214.35 106.528C1217.45 104.624 1218.49 100.518 1216.67 97.3584C1214.85 94.1985 1210.86 93.1807 1207.76 95.0852C1204.66 96.9896 1203.62 101.095 1205.44 104.255Z" fill="white"/>
<path d="M1309.53 113.326C1311.5 111.928 1309.52 108.815 1307.38 109.899L1305.39 110.903C1295.27 116.016 1283.31 109.804 1281.44 98.461L1281.07 96.2359C1280.68 93.8352 1277.26 94.0358 1277.08 96.4709C1277.08 96.4709 1275.6 137.522 1309.53 113.328L1309.53 113.326Z" fill="white"/>
<path d="M1290.01 104.255C1291.83 107.415 1295.82 108.433 1298.92 106.528C1302.02 104.624 1303.06 100.518 1301.24 97.3584C1299.42 94.1985 1295.43 93.1807 1292.33 95.0852C1289.23 96.9896 1288.19 101.095 1290.01 104.255Z" fill="white"/>
<path d="M1394.1 113.326C1396.07 111.928 1394.09 108.815 1391.95 109.899L1389.96 110.903C1379.84 116.016 1367.88 109.804 1366.01 98.461L1365.64 96.2359C1365.25 93.8352 1361.83 94.0358 1361.65 96.4709C1361.65 96.4709 1360.17 137.522 1394.1 113.328L1394.1 113.326Z" fill="white"/>
<path d="M1374.58 104.255C1376.4 107.415 1380.39 108.433 1383.49 106.528C1386.59 104.624 1387.63 100.518 1385.81 97.3584C1383.99 94.1985 1380 93.1807 1376.9 95.0852C1373.8 96.9896 1372.76 101.095 1374.58 104.255Z" fill="white"/>
<path d="M1478.68 113.326C1480.64 111.928 1478.66 108.815 1476.52 109.899L1474.53 110.903C1464.41 116.016 1452.45 109.804 1450.58 98.461L1450.21 96.2359C1449.82 93.8352 1446.4 94.0358 1446.22 96.4709C1446.22 96.4709 1444.74 137.522 1478.67 113.328L1478.68 113.326Z" fill="white"/>
<path d="M82.1209 113.326C84.0832 111.928 82.1089 108.815 79.966 109.899L77.978 110.903C67.854 116.016 55.8947 109.804 54.0253 98.461L53.6588 96.2359C53.2644 93.8352 49.8447 94.0358 49.6645 96.4709C49.6645 96.4709 48.1859 137.522 82.1181 113.328L82.1209 113.326Z" fill="white"/>
<path d="M62.5953 104.255C64.4148 107.415 68.4034 108.433 71.5043 106.528C74.6051 104.624 75.6438 100.518 73.8243 97.3584C72.0049 94.1985 68.0162 93.1807 64.9154 95.0852C61.8146 96.9896 60.7758 101.095 62.5953 104.255Z" fill="white"/>
<path d="M166.691 113.326C168.653 111.928 166.679 108.815 164.536 109.899L162.548 110.903C152.424 116.016 140.465 109.804 138.595 98.461L138.229 96.2359C137.834 93.8352 134.415 94.0358 134.234 96.4709C134.234 96.4709 132.756 137.522 166.688 113.328L166.691 113.326Z" fill="white"/>
<path d="M147.165 104.255C148.985 107.415 152.973 108.433 156.074 106.528C159.175 104.624 160.214 100.518 158.394 97.3584C156.575 94.1985 152.586 93.1807 149.485 95.0852C146.385 96.9896 145.346 101.095 147.165 104.255Z" fill="white"/>
<path d="M251.261 113.326C253.223 111.928 251.249 108.815 249.106 109.899L247.118 110.903C236.994 116.016 225.034 109.804 223.165 98.461L222.799 96.2359C222.404 93.8352 218.985 94.0358 218.804 96.4709C218.804 96.4709 217.326 137.522 251.258 113.328L251.261 113.326Z" fill="white"/>
<path d="M231.735 104.255C233.555 107.415 237.543 108.433 240.644 106.528C243.745 104.624 244.784 100.518 242.964 97.3584C241.145 94.1985 237.156 93.1807 234.055 95.0852C230.954 96.9896 229.916 101.095 231.735 104.255Z" fill="white"/>
<path d="M335.832 113.326C337.795 111.928 335.82 108.815 333.677 109.899L331.689 110.903C321.565 116.016 309.606 109.804 307.737 98.461L307.37 96.2359C306.976 93.8352 303.556 94.0358 303.376 96.4709C303.376 96.4709 301.897 137.522 335.83 113.328L335.832 113.326Z" fill="white"/>
<path d="M316.307 104.255C318.126 107.415 322.115 108.433 325.216 106.528C328.317 104.624 329.355 100.518 327.536 97.3584C325.716 94.1985 321.728 93.1807 318.627 95.0852C315.526 96.9896 314.487 101.095 316.307 104.255Z" fill="white"/>
<path d="M420.402 113.326C422.364 111.928 420.39 108.815 418.247 109.899L416.259 110.903C406.135 116.016 394.176 109.804 392.307 98.461L391.94 96.2359C391.546 93.8352 388.126 94.0358 387.946 96.4709C387.946 96.4709 386.467 137.522 420.399 113.328L420.402 113.326Z" fill="white"/>
<path d="M400.877 104.255C402.696 107.415 406.685 108.433 409.786 106.528C412.886 104.624 413.925 100.518 412.106 97.3584C410.286 94.1985 406.297 93.1807 403.197 95.0852C400.096 96.9896 399.057 101.095 400.877 104.255Z" fill="white"/>
<path d="M504.972 113.326C506.934 111.928 504.96 108.815 502.817 109.899L500.829 110.903C490.705 116.016 478.746 109.804 476.876 98.461L476.51 96.2359C476.115 93.8352 472.696 94.0358 472.516 96.4709C472.516 96.4709 471.037 137.522 504.969 113.328L504.972 113.326Z" fill="white"/>
<path d="M485.446 104.255C487.266 107.415 491.255 108.433 494.355 106.528C497.456 104.624 498.495 100.518 496.675 97.3584C494.856 94.1985 490.867 93.1807 487.766 95.0852C484.666 96.9896 483.627 101.095 485.446 104.255Z" fill="white"/>
<path d="M589.544 113.326C591.506 111.928 589.532 108.815 587.389 109.899L585.401 110.903C575.277 116.016 563.317 109.804 561.448 98.461L561.082 96.2359C560.687 93.8352 557.267 94.0358 557.087 96.4709C557.087 96.4709 555.609 137.522 589.541 113.328L589.544 113.326Z" fill="white"/>
<path d="M570.018 104.255C571.837 107.415 575.826 108.433 578.927 106.528C582.028 104.624 583.067 100.518 581.247 97.3584C579.428 94.1985 575.439 93.1807 572.338 95.0852C569.237 96.9896 568.199 101.095 570.018 104.255Z" fill="white"/>
<path d="M674.113 113.326C676.076 111.928 674.101 108.815 671.959 109.899L669.971 110.903C659.847 116.016 647.887 109.804 646.018 98.461L645.651 96.2359C645.257 93.8352 641.837 94.0358 641.657 96.4709C641.657 96.4709 640.178 137.522 674.111 113.328L674.113 113.326Z" fill="white"/>
<path d="M654.588 104.255C656.407 107.415 660.396 108.433 663.497 106.528C666.598 104.624 667.636 100.518 665.817 97.3584C663.997 94.1985 660.009 93.1807 656.908 95.0852C653.807 96.9896 652.768 101.095 654.588 104.255Z" fill="white"/>
<path d="M758.683 113.326C760.646 111.928 758.671 108.815 756.528 109.899L754.54 110.903C744.416 116.016 732.457 109.804 730.588 98.461L730.221 96.2359C729.827 93.8352 726.407 94.0358 726.227 96.4709C726.227 96.4709 724.748 137.522 758.68 113.328L758.683 113.326Z" fill="white"/>
<path d="M739.158 104.255C740.977 107.415 744.966 108.433 748.067 106.528C751.167 104.624 752.206 100.518 750.387 97.3584C748.567 94.1985 744.579 93.1807 741.478 95.0852C738.377 96.9896 737.338 101.095 739.158 104.255Z" fill="white"/>
<path d="M843.253 113.326C845.215 111.928 843.241 108.815 841.098 109.899L839.11 110.903C828.986 116.016 817.027 109.804 815.158 98.461L814.791 96.2359C814.397 93.8352 810.977 94.0358 810.797 96.4709C810.797 96.4709 809.318 137.522 843.25 113.328L843.253 113.326Z" fill="white"/>
<path d="M823.728 104.255C825.547 107.415 829.536 108.433 832.636 106.528C835.737 104.624 836.776 100.518 834.957 97.3584C833.137 94.1985 829.148 93.1807 826.048 95.0852C822.947 96.9896 821.908 101.095 823.728 104.255Z" fill="white"/>
<path d="M927.825 113.326C929.787 111.928 927.813 108.815 925.67 109.899L923.682 110.903C913.558 116.016 901.599 109.804 899.729 98.461L899.363 96.2359C898.968 93.8352 895.549 94.0358 895.369 96.4709C895.369 96.4709 893.89 137.522 927.822 113.328L927.825 113.326Z" fill="white"/>
<path d="M908.299 104.255C910.119 107.415 914.107 108.433 917.208 106.528C920.309 104.624 921.348 100.518 919.528 97.3584C917.709 94.1985 913.72 93.1807 910.619 95.0852C907.519 96.9896 906.48 101.095 908.299 104.255Z" fill="white"/>
<path d="M1012.39 113.326C1014.36 111.928 1012.38 108.815 1010.24 109.899L1008.25 110.903C998.128 116.016 986.168 109.804 984.299 98.461L983.933 96.2359C983.538 93.8352 980.119 94.0358 979.938 96.4709C979.938 96.4709 978.46 137.522 1012.39 113.328L1012.39 113.326Z" fill="white"/>
<path d="M992.869 104.255C994.689 107.415 998.677 108.433 1001.78 106.528C1004.88 104.624 1005.92 100.518 1004.1 97.3584C1002.28 94.1985 998.29 93.1807 995.189 95.0852C992.088 96.9896 991.05 101.095 992.869 104.255Z" fill="white"/>
<path d="M1096.96 113.326C1098.93 111.928 1096.95 108.815 1094.81 109.899L1092.82 110.903C1082.7 116.016 1070.74 109.804 1068.87 98.461L1068.5 96.2359C1068.11 93.8352 1064.69 94.0358 1064.51 96.4709C1064.51 96.4709 1063.03 137.522 1096.96 113.328L1096.96 113.326Z" fill="white"/>
<path d="M1077.44 104.255C1079.26 107.415 1083.25 108.433 1086.35 106.528C1089.45 104.624 1090.49 100.518 1088.67 97.3584C1086.85 94.1985 1082.86 93.1807 1079.76 95.0852C1076.66 96.9896 1075.62 101.095 1077.44 104.255Z" fill="white"/>
<path d="M1181.53 113.326C1183.5 111.928 1181.52 108.815 1179.38 109.899L1177.39 110.903C1167.27 116.016 1155.31 109.804 1153.44 98.461L1153.07 96.2359C1152.68 93.8352 1149.26 94.0358 1149.08 96.4709C1149.08 96.4709 1147.6 137.522 1181.53 113.328L1181.53 113.326Z" fill="white"/>
<path d="M1162.01 104.255C1163.83 107.415 1167.82 108.433 1170.92 106.528C1174.02 104.624 1175.06 100.518 1173.24 97.3584C1171.42 94.1985 1167.43 93.1807 1164.33 95.0852C1161.23 96.9896 1160.19 101.095 1162.01 104.255Z" fill="white"/>
<path d="M1266.11 113.326C1268.07 111.928 1266.09 108.815 1263.95 109.899L1261.96 110.903C1251.84 116.016 1239.88 109.804 1238.01 98.461L1237.64 96.2359C1237.25 93.8352 1233.83 94.0358 1233.65 96.4709C1233.65 96.4709 1232.17 137.522 1266.1 113.328L1266.11 113.326Z" fill="white"/>
<path d="M1246.58 104.255C1248.4 107.415 1252.39 108.433 1255.49 106.528C1258.59 104.624 1259.63 100.518 1257.81 97.3584C1255.99 94.1985 1252 93.1807 1248.9 95.0852C1245.8 96.9896 1244.76 101.095 1246.58 104.255Z" fill="white"/>
<path d="M1350.68 113.326C1352.64 111.928 1350.66 108.815 1348.52 109.899L1346.53 110.903C1336.41 116.016 1324.45 109.804 1322.58 98.461L1322.21 96.2359C1321.82 93.8352 1318.4 94.0358 1318.22 96.4709C1318.22 96.4709 1316.74 137.522 1350.67 113.328L1350.68 113.326Z" fill="white"/>
<path d="M1331.15 104.255C1332.97 107.415 1336.96 108.433 1340.06 106.528C1343.16 104.624 1344.2 100.518 1342.38 97.3584C1340.56 94.1985 1336.57 93.1807 1333.47 95.0852C1330.37 96.9896 1329.33 101.095 1331.15 104.255Z" fill="white"/>
<path d="M1435.25 113.326C1437.21 111.928 1435.23 108.815 1433.09 109.899L1431.1 110.903C1420.98 116.016 1409.02 109.804 1407.15 98.461L1406.78 96.2359C1406.39 93.8352 1402.97 94.0358 1402.79 96.4709C1402.79 96.4709 1401.31 137.522 1435.24 113.328L1435.25 113.326Z" fill="white"/>
<path d="M1415.72 104.255C1417.54 107.415 1421.53 108.433 1424.63 106.528C1427.73 104.624 1428.77 100.518 1426.95 97.3584C1425.13 94.1985 1421.14 93.1807 1418.04 95.0852C1414.94 96.9896 1413.9 101.095 1415.72 104.255Z" fill="white"/>
</g>
</g>
<defs>
<clipPath id="clip0_21_186">
<rect width="1438" height="131" fill="white"/>
</clipPath>
</defs>
</svg>
