<svg width="229" height="45" viewBox="0 0 229 45" fill="none" xmlns="http://www.w3.org/2000/svg">
<path d="M3.28529 17.5261L19.4566 22.6811C19.6619 22.7471 19.8827 22.782 20.1073 22.782H21.0757C21.3003 22.782 21.5211 22.7471 21.7264 22.6811L37.8977 17.5261C38.9784 17.1806 40.183 17.7629 40.183 18.6285V36.7331C40.183 37.2028 39.8073 37.6298 39.2224 37.8278L21.7341 43.6544C21.5211 43.7242 21.2926 43.7631 21.0602 43.7631H20.1112C19.8827 43.7631 19.658 43.7281 19.4488 43.6582L1.97221 37.952C1.38346 37.7579 1 37.3309 1 36.8535V18.6208C1 17.7551 2.20462 17.1767 3.28529 17.5183V17.5261Z" fill="#3FABAE" stroke="#3FABAE" stroke-miterlimit="10"/>
<path d="M21.0798 22.5881H19.8791C19.7935 22.5881 19.7241 22.6577 19.7241 22.7434V43.8448C19.7241 43.9305 19.7935 44 19.8791 44H21.0798C21.1654 44 21.2347 43.9305 21.2347 43.8448V22.7434C21.2347 22.6577 21.1654 22.5881 21.0798 22.5881Z" fill="white"/>
<path d="M20.5913 19.5952C25.9907 19.5952 30.3677 15.2087 30.3677 9.79762C30.3677 4.38654 25.9907 0 20.5913 0C15.192 0 10.8149 4.38654 10.8149 9.79762C10.8149 15.2087 15.192 19.5952 20.5913 19.5952Z" fill="#FF611A"/>
<path d="M68.9971 26.5593H56.1298V33.4107H70.3257L69.6362 38.1892H50.4824V11.2224H69.5626V16.0009H56.1298V21.7809H68.9971V26.5593Z" fill="#464646" stroke="#464646" stroke-miterlimit="10"/>
<path d="M92.4466 9.63843V32.6263C92.4466 34.4702 92.4466 36.3373 92.4854 38.1889H87.1053C86.9929 37.5834 86.8845 36.5353 86.8496 36.0734C85.8735 37.6688 84.1344 38.6586 81.117 38.6586C76.0081 38.6586 72.7583 34.5478 72.7583 28.2322C72.7583 21.9165 76.2133 17.4719 81.9343 17.4719C84.8393 17.4719 86.4042 18.5005 86.8496 19.4089V9.63843H92.4428H92.4466ZM78.5064 28.0847C78.5064 32.0324 80.0402 34.1674 82.7787 34.1674C86.625 34.1674 87.0665 30.9533 87.0665 28.042C87.0665 24.5794 86.5785 21.9592 82.922 21.9592C79.986 21.9592 78.5064 24.2572 78.5064 28.0808V28.0847Z" fill="#464646" stroke="#464646" stroke-miterlimit="10"/>
<path d="M115.199 32.308C115.199 34.2606 115.203 36.38 115.237 38.1928H109.757C109.679 37.6494 109.64 36.5663 109.605 35.856C108.409 37.89 106.623 38.6625 104.043 38.6625C99.9259 38.6625 97.2998 36.1549 97.2998 31.1357V17.9454H102.889V30.01C102.889 32.2459 103.582 34.0937 106.003 34.0937C108.552 34.0937 109.609 32.7311 109.609 28.7213V17.9454H115.203V32.308H115.199Z" fill="#464646" stroke="#464646" stroke-miterlimit="10"/>
<path d="M126.385 27.3978V38.193H120.699V11.2224H132.525C138.393 11.2224 141.55 14.4598 141.55 18.625C141.55 22.2428 139.586 24.2031 137.637 25.0066C138.97 25.4996 140.98 26.8893 140.98 31.7182V33.0497C140.98 34.8625 140.996 36.9276 141.368 38.193H135.852C135.379 37.0207 135.29 35.0022 135.29 32.1375V31.7415C135.29 28.7914 134.547 27.3978 130.212 27.3978H126.385ZM126.385 22.7552H131.262C134.45 22.7552 135.678 21.5402 135.678 19.2849C135.678 17.0296 134.248 15.865 131.401 15.865H126.385V22.7552Z" fill="#464646" stroke="#464646" stroke-miterlimit="10"/>
<path d="M150.059 29.2647C150.063 31.7956 151.33 34.2722 154.115 34.2722C156.442 34.2722 157.109 33.3366 157.639 32.11H163.236C162.52 34.5866 160.312 38.6586 153.967 38.6586C147.623 38.6586 144.427 33.6705 144.427 28.3602C144.427 22.0096 147.681 17.4718 154.169 17.4718C161.106 17.4718 163.465 22.5026 163.465 27.5567C163.465 28.2437 163.465 28.6863 163.391 29.2647H150.059ZM157.86 25.8254C157.821 23.4692 156.88 21.4856 154.157 21.4856C151.434 21.4856 150.4 23.3372 150.175 25.8254H157.86Z" fill="#464646" stroke="#464646" stroke-miterlimit="10"/>
<path d="M184.024 32.9604C184.024 34.8896 184.179 37.7039 184.299 38.193H178.954C178.799 37.7932 178.679 36.7257 178.671 36.2133C177.939 37.3506 176.564 38.6627 172.993 38.6627C168.12 38.6627 166.067 35.4525 166.067 32.3121C166.067 27.7005 169.763 25.5733 175.685 25.5733H178.567V24.335C178.567 22.8949 178.052 21.4819 175.456 21.4819C173.094 21.4819 172.579 22.4873 172.319 23.9546H167.001C167.303 20.3562 169.522 17.4449 175.666 17.4798C181.077 17.5147 184.02 19.6342 184.02 24.4515V32.9642L184.024 32.9604ZM178.574 28.9738H176.297C172.927 28.9738 171.676 30.0063 171.676 31.955C171.676 33.4223 172.575 34.6567 174.585 34.6567C178.141 34.6567 178.574 32.1801 178.574 29.5056V28.9738Z" fill="#464646" stroke="#464646" stroke-miterlimit="10"/>
<path d="M206.463 31.6481C205.765 35.0213 203.399 38.6586 197.38 38.6586C191.36 38.6586 187.859 34.2993 187.859 28.2127C187.859 22.1261 191.5 17.4718 197.647 17.4718C204.46 17.4718 206.35 22.3706 206.463 24.6609H201.001C200.656 23.0111 199.723 21.8582 197.538 21.8582C194.982 21.8582 193.533 24.1058 193.533 28.0302C193.533 32.339 195.067 34.3071 197.515 34.3071C199.436 34.3071 200.467 33.1697 200.966 31.6481H206.463Z" fill="#464646" stroke="#464646" stroke-miterlimit="10"/>
<path d="M215.484 9.63843V20.3366C216.371 19.0246 218.01 17.4757 221.271 17.4757C225.04 17.4757 228.038 19.7117 228.038 25.2005V38.1889H222.48V26.039C222.48 23.4071 221.546 22.0058 219.203 22.0058C216.096 22.0058 215.484 24.3232 215.484 27.448V38.1889H209.891V9.63843H215.484Z" fill="#464646" stroke="#464646" stroke-miterlimit="10"/>
</svg>
