<svg width="187" height="48" viewBox="0 0 187 48" fill="none" xmlns="http://www.w3.org/2000/svg">
<circle cx="6.33696" cy="23.4237" r="6.33696" fill="#2E5ED4"/>
<circle cx="24.7718" cy="7.29338" r="6.33696" fill="#2E5ED4"/>
<circle cx="43.2065" cy="23.4237" r="6.33696" fill="#0B1A55"/>
<circle cx="24.7718" cy="40.7063" r="6.33696" fill="#2E5ED4"/>
<path d="M6.17041 5.15771L43.04 42.0273" stroke="black" stroke-width="1.15217" stroke-linecap="round" stroke-dasharray="2.3 2.3"/>
<path d="M43.04 5.97241L6.17048 42.842" stroke="black" stroke-width="1.15217" stroke-linecap="round" stroke-dasharray="2.3 2.3"/>
<path d="M64.968 34.8042L73.32 11.8922H79.592L87.944 34.8042H81.48L80.392 31.5722H72.52L71.432 34.8042H64.968ZM73.864 26.7082H78.44L76.168 19.6362L73.864 26.7082ZM90.3383 34.8042V11.8922H96.4503V34.8042H90.3383ZM99.707 28.8522V23.8602H108.699V28.8522H99.707ZM117.979 35.1882C115.91 35.1882 114.182 34.7295 112.795 33.8122C111.409 32.8949 110.641 31.5082 110.491 29.6522H115.739C115.995 30.4842 116.742 30.9002 117.979 30.9002C119.238 30.9002 119.846 30.5802 119.803 29.9402C119.803 29.6629 119.611 29.4069 119.227 29.1722C118.843 28.9375 118.118 28.7029 117.051 28.4682C114.833 27.9775 113.254 27.3162 112.315 26.4842C111.377 25.6522 110.907 24.5002 110.907 23.0282C110.907 21.3642 111.558 20.0309 112.859 19.0282C114.182 18.0255 115.931 17.5242 118.107 17.5242C120.155 17.5242 121.819 18.0042 123.099 18.9642C124.379 19.9029 125.062 21.2575 125.147 23.0282H119.867C119.825 22.6229 119.643 22.3242 119.323 22.1322C119.003 21.9402 118.598 21.8442 118.107 21.8442C117.126 21.8442 116.646 22.1109 116.667 22.6442C116.667 22.8789 116.806 23.0922 117.083 23.2842C117.382 23.4762 118.022 23.6895 119.003 23.9242C121.371 24.4789 123.046 25.1722 124.027 26.0042C125.009 26.8149 125.499 28.0095 125.499 29.5882C125.499 33.3002 122.993 35.1669 117.979 35.1882ZM138.437 17.5242C140.57 17.5242 142.298 18.3135 143.621 19.8922C144.965 21.4709 145.637 23.6255 145.637 26.3562C145.637 29.0869 144.965 31.2415 143.621 32.8202C142.298 34.3989 140.57 35.1882 138.437 35.1882C136.538 35.1882 135.077 34.4095 134.053 32.8522V41.0122H128.485V17.9082H133.509V20.6922C134.554 18.5802 136.197 17.5242 138.437 17.5242ZM134.053 26.3562C134.053 27.4655 134.33 28.3615 134.885 29.0442C135.439 29.7269 136.165 30.0682 137.061 30.0682C137.957 30.0682 138.682 29.7269 139.237 29.0442C139.791 28.3615 140.069 27.4655 140.069 26.3562C140.069 25.2682 139.791 24.3829 139.237 23.7002C138.682 23.0175 137.957 22.6762 137.061 22.6762C136.165 22.6762 135.439 23.0175 134.885 23.7002C134.33 24.3829 134.053 25.2682 134.053 26.3562ZM148.454 34.8042V17.9082H154.022V34.8042H148.454ZM148.454 16.0522V11.4442H154.054V16.0522H148.454ZM158.047 34.8042V17.9082H163.071V19.5082C164.031 18.2282 165.205 17.5882 166.591 17.5882C167.295 17.5882 167.925 17.7055 168.479 17.9402L167.295 23.4762H165.663C165.087 23.4762 164.597 23.6682 164.191 24.0522C163.807 24.4362 163.615 24.9695 163.615 25.6522V34.8042H158.047ZM178.067 35.1882C176.467 35.1882 175.006 34.8362 173.683 34.1322C172.361 33.4069 171.305 32.3829 170.515 31.0602C169.726 29.7375 169.331 28.1695 169.331 26.3562C169.331 24.5429 169.715 22.9749 170.483 21.6522C171.273 20.3295 172.329 19.3162 173.651 18.6122C174.974 17.8869 176.435 17.5242 178.035 17.5242C179.55 17.5242 180.926 17.8655 182.163 18.5482C183.422 19.2309 184.425 20.2229 185.171 21.5242C185.939 22.8255 186.323 24.4149 186.323 26.2922C186.323 26.8469 186.291 27.4549 186.227 28.1162H175.187C175.273 28.9269 175.582 29.5669 176.115 30.0362C176.649 30.4842 177.299 30.7082 178.067 30.7082C178.707 30.7082 179.251 30.5909 179.699 30.3562C180.169 30.1215 180.499 29.7695 180.691 29.3002L185.811 30.9642C185.107 32.5429 184.041 33.6415 182.611 34.2602C181.182 34.8789 179.667 35.1882 178.067 35.1882ZM175.251 24.9162H180.787C180.681 24.0842 180.371 23.4442 179.859 22.9962C179.347 22.5482 178.729 22.3242 178.003 22.3242C177.278 22.3242 176.659 22.5589 176.147 23.0282C175.657 23.4762 175.358 24.1055 175.251 24.9162Z" fill="#40403E"/>
</svg>
