<svg width="38" height="40" viewBox="0 0 38 40" fill="none" xmlns="http://www.w3.org/2000/svg">
<path d="M12.8916 2.91368L8.73274 7.04371H11.1676C11.6415 7.04371 12.0733 6.85022 12.3858 6.54163C12.6984 6.23138 12.8916 5.80268 12.8916 5.33233V2.91368ZM24.901 29.6272C25.3749 29.6272 25.758 30.0075 25.758 30.4779C25.758 30.9483 25.3749 31.3286 24.901 31.3286L21.0077 31.3303C20.5338 31.3303 20.1507 30.95 20.1507 30.4796C20.1507 30.0092 20.5338 29.6289 21.0077 29.6289L24.901 29.6272ZM27.724 28.0559H30.8865C31.362 28.0559 31.7468 28.4379 31.7468 28.91V32.0492C31.7468 32.5213 31.362 32.9032 30.8865 32.9032H27.724C27.2485 32.9032 26.8637 32.5212 26.8637 32.0492V28.91C26.8637 28.4379 27.2485 28.0559 27.724 28.0559ZM30.0261 29.764H28.5844V31.1952H30.0261V29.764ZM24.9011 22.6367C25.375 22.6367 25.7581 23.017 25.7581 23.4874C25.7581 23.9578 25.375 24.3381 24.9011 24.3381L21.0077 24.3398C20.5338 24.3398 20.1507 23.9595 20.1507 23.4891C20.1507 23.0187 20.5339 22.6384 21.0077 22.6384L24.9011 22.6367ZM27.7241 21.0654H30.8865C31.362 21.0654 31.7468 21.4474 31.7468 21.9195V25.0587C31.7468 25.5308 31.362 25.9127 30.8865 25.9127H27.7241C27.2485 25.9127 26.8637 25.5307 26.8637 25.0587V21.9195C26.8637 21.4474 27.2485 21.0654 27.7241 21.0654ZM30.0262 22.7735H28.5844V24.2047H30.0262V22.7735ZM19.9658 18.3701C19.4903 18.3701 19.1055 17.9881 19.1055 17.5161C19.1055 17.044 19.4903 16.6621 19.9658 16.6621H30.8865C31.362 16.6621 31.7468 17.044 31.7468 17.5161C31.7468 17.9881 31.362 18.3701 30.8865 18.3701H19.9658ZM13.9701 15.1825C13.4946 15.1825 13.1098 14.8006 13.1098 14.3285C13.1098 13.8565 13.4946 13.4745 13.9701 13.4745H30.8861C31.3616 13.4745 31.7464 13.8565 31.7464 14.3285C31.7464 14.8006 31.3616 15.1825 30.8861 15.1825H13.9701ZM19.5455 7.09747C20.0211 7.09747 20.4059 7.47945 20.4059 7.9515C20.4059 8.42356 20.0211 8.80553 19.5455 8.80553H17.5291C17.0536 8.80553 16.6688 8.42355 16.6688 7.9515C16.6688 7.47944 17.0536 7.09747 17.5291 7.09747H19.5455ZM13.9701 11.9949C13.4946 11.9949 13.1098 11.6129 13.1098 11.1409C13.1098 10.6688 13.4946 10.2868 13.9701 10.2868H30.8861C31.3616 10.2868 31.7464 10.6688 31.7464 11.1409C31.7464 11.6129 31.3616 11.9949 30.8861 11.9949H13.9701ZM22.6187 8.80732C22.1431 8.80732 21.7583 8.42534 21.7583 7.95329C21.7583 7.48124 22.1431 7.09927 22.6187 7.09927H30.8861C31.3616 7.09927 31.7464 7.48124 31.7464 7.95329C31.7464 8.42534 31.3616 8.80732 30.8861 8.80732H22.6187ZM7.86173 23.3608C7.86173 23.8329 7.47694 24.2148 7.0014 24.2148C6.52585 24.2148 6.14106 23.8328 6.14106 23.3608C6.14106 21.918 6.73087 20.6119 7.68192 19.6661C8.63298 18.7221 9.95037 18.1366 11.4039 18.1366C11.8794 18.1366 12.2642 18.5186 12.2642 18.9906C12.2642 19.4627 11.8794 19.8446 11.4039 19.8446C10.4259 19.8446 9.54038 20.2383 8.89848 20.8738C8.25826 21.5094 7.86173 22.39 7.86173 23.3608ZM5.79658 15.6344C5.79658 15.1623 6.18138 14.7804 6.65692 14.7804C7.13247 14.7804 7.51726 15.1624 7.51726 15.6344V15.9063C7.51726 16.3784 7.13246 16.7603 6.65692 16.7603C6.18137 16.7603 5.79658 16.3783 5.79658 15.9063V15.6344ZM7.92893 31.0402C8.30701 31.3771 8.56747 31.8125 8.69347 32.2829C8.86486 32.9151 8.79261 33.614 8.43637 34.2262L5.82176 38.7183C5.46721 39.3322 4.89252 39.7425 4.25569 39.9127C3.61883 40.0811 2.91477 40.0111 2.29976 39.6574L1.67804 39.2971C1.09662 38.9419 0.70345 38.3897 0.538781 37.7792C0.369067 37.1487 0.441322 36.4515 0.795876 35.841L3.41048 31.3458C3.76504 30.732 4.33973 30.3217 4.97655 30.1515C5.44875 30.0264 5.95785 30.0331 6.44179 30.1882L7.0467 29.149C6.76776 28.9405 6.50395 28.7137 6.25695 28.4702C4.93956 27.1624 4.1246 25.3559 4.1246 23.3609C4.1246 21.3659 4.93956 19.5595 6.25695 18.2517C7.57434 16.9439 9.39417 16.135 11.4039 16.135C13.4137 16.135 15.2334 16.944 16.5509 18.2517C17.8684 19.5594 18.6832 21.3659 18.6832 23.3609C18.6832 25.3559 17.8683 27.1623 16.5509 28.4702C15.2335 29.778 13.4137 30.5869 11.4039 30.5869C10.3839 30.5869 9.41439 30.3784 8.5322 30.003L7.92729 31.0422L7.92893 31.0402ZM6.63507 32.2028C6.44855 32.0961 6.26035 31.9877 6.07383 31.8809C5.8705 31.7641 5.63527 31.7425 5.42019 31.7992C5.20678 31.8559 5.01354 31.9943 4.8959 32.1962L2.2544 36.7366C2.16031 36.9268 2.14518 37.1419 2.19727 37.3388C2.24937 37.5356 2.37035 37.7124 2.54679 37.8292L3.15844 38.1794C3.36177 38.2962 3.597 38.3179 3.81208 38.2628C4.02549 38.2061 4.21873 38.0677 4.33637 37.8658L6.95098 33.3707C7.0686 33.1688 7.09045 32.9353 7.03332 32.7218C6.97619 32.51 6.83672 32.3182 6.63339 32.2014L6.63507 32.2028ZM15.3361 19.459C14.3313 18.4616 12.9399 17.8427 11.4058 17.8427C9.87161 17.8427 8.48027 18.4599 7.47544 19.459C6.47061 20.4565 5.84717 21.8376 5.84717 23.3605C5.84717 24.8834 6.46889 26.2646 7.47544 27.262C8.48027 28.2595 9.87161 28.8784 11.4058 28.8784C12.9399 28.8784 14.3313 28.2612 15.3361 27.262C16.3409 26.2646 16.9644 24.8834 16.9644 23.3605C16.9644 21.8376 16.3426 20.4565 15.3361 19.459ZM13.1298 0.265214C13.3062 0.09007 13.5028 0.00666995 13.7532 0H33.294C34.4753 0 35.549 0.48039 36.3287 1.25269C37.1118 2.02998 37.594 3.09585 37.594 4.26847V35.7291C37.594 36.9017 37.1101 37.9676 36.3321 38.7416C35.549 39.5189 34.4753 39.9976 33.294 39.9976H10.0985C9.67671 39.9976 9.25832 39.9325 8.85839 39.8124C8.44839 39.6923 8.06525 39.5105 7.72081 39.282C7.32593 39.0201 7.21838 38.4897 7.4822 38.0977C7.74603 37.7058 8.28038 37.599 8.67523 37.8609C8.8836 37.9993 9.11379 38.1077 9.35576 38.1811C9.58428 38.2528 9.83466 38.2895 10.1002 38.2895H33.2957C34.0065 38.2895 34.6517 38.001 35.1189 37.5373C35.586 37.0736 35.8767 36.4314 35.8767 35.7275V4.26682C35.8767 3.56126 35.586 2.92074 35.1189 2.45701C34.6518 1.99327 34.0048 1.70474 33.2957 1.70474H14.6152V5.32935C14.6152 6.27177 14.2287 7.12747 13.6053 7.74634C12.9819 8.36516 12.1199 8.74884 11.1705 8.74884H7.52074V12.9539C7.52074 13.426 7.13595 13.808 6.66041 13.808C6.18487 13.808 5.80007 13.426 5.80007 12.9539V7.89639C5.80511 7.66954 5.87569 7.46771 6.05212 7.29255L13.1331 0.261772L13.1298 0.265214Z" fill="#FF6A1F"/>
</svg>
