<svg width="42" height="43" viewBox="0 0 42 43" fill="none" xmlns="http://www.w3.org/2000/svg">
<path d="M31.677 17.0065H26.409H21.1409H15.8729H10.6044C10.2737 17.0065 10.0052 17.2749 10.0052 17.6056V22.8737C10.0052 22.878 10.0064 22.882 10.0064 22.8864C10.0064 22.8907 10.0052 22.8947 10.0052 22.8991V28.1671V33.4352C10.0052 33.7659 10.2737 34.0343 10.6044 34.0343H15.8725H21.1409H26.409H31.677C32.0077 34.0343 32.2762 33.7659 32.2762 33.4352V28.1671V22.8991C32.2762 22.8947 32.275 22.8907 32.275 22.8864C32.275 22.882 32.2762 22.878 32.2762 22.8737V17.6056C32.2762 17.2745 32.0077 17.0065 31.677 17.0065ZM11.2036 23.4982H15.2733V27.5679H11.2036V23.4982ZM16.472 23.4982H20.5417V27.5679H16.472V23.4982ZM21.7401 23.4982H25.8098V27.5679H21.7401V23.4982ZM27.0081 23.4982H31.0778V27.5679H27.0081V23.4982ZM31.0778 22.2741H27.0081V18.2048H31.0778V22.2741ZM25.8098 22.2741H21.7401V18.2048H25.8098V22.2741ZM20.5417 22.2741H16.472V18.2048H20.5417V22.2741ZM11.2036 18.2048H15.2733V22.2745H11.2036V18.2048ZM11.2036 28.7663H15.2733V32.836H11.2036V28.7663ZM16.472 28.7663H20.5417V32.836H16.472V28.7663ZM21.7401 28.7663H25.8098V32.836H21.7401V28.7663ZM31.0778 32.836H27.0081V28.7663H31.0778V32.836Z" fill="#FF6A1F"/>
<path d="M37.6826 6.19529H32.3392V4.16183C32.3392 3.79661 32.0426 3.5 31.677 3.5H27.7405C27.3749 3.5 27.0787 3.79661 27.0787 4.16183V6.19529H15.2031V4.16183C15.2031 3.79661 14.9069 3.5 14.5412 3.5H10.6044C10.2388 3.5 9.94256 3.79661 9.94256 4.16183V6.19529H4.59917C4.26846 6.19529 4 6.46375 4 6.79446V38.5895C4 38.9206 4.26846 39.1887 4.59917 39.1887H37.683C38.0137 39.1887 38.2821 38.9206 38.2821 38.5895V6.79446C38.2817 6.46375 38.0133 6.19529 37.6826 6.19529ZM31.0151 4.82405V8.76527H28.4023V4.82405H31.0151ZM13.8794 4.82405V8.76527H11.2666V4.82405H13.8794ZM9.94256 7.39403V9.42749C9.94256 9.7931 10.2392 10.0893 10.6044 10.0893H14.5412C14.9069 10.0893 15.2031 9.79271 15.2031 9.42749V7.39403H27.0783V9.42749C27.0783 9.7931 27.3749 10.0893 27.7401 10.0893H31.6766C32.0422 10.0893 32.3384 9.79271 32.3384 9.42749V7.39403H37.083V12.051H5.19835V7.39403H9.94256ZM5.19835 37.9903V13.2494H37.0834V37.9907L5.19835 37.9903Z" fill="#FF6A1F"/>
</svg>
