<svg width="61" height="61" viewBox="0 0 61 61" fill="none" xmlns="http://www.w3.org/2000/svg">
<path d="M55.5825 23.4469C55.3034 23.4469 55.0243 23.2608 54.9313 22.9817C54.4661 21.4931 53.8613 20.0045 53.117 18.6554C52.9774 18.3763 53.024 18.0507 53.2566 17.8646C55.0243 16.0968 55.0243 13.2592 53.2566 11.4914L49.4885 7.72336C47.7208 5.95563 44.8831 5.95563 43.1153 7.72336C42.9758 7.86292 42.8362 7.90944 42.6502 7.90944C42.5571 7.90944 42.4176 7.86292 42.3245 7.8164C40.9289 7.07209 39.4868 6.46734 37.9982 6.00215C37.7191 5.90911 37.533 5.67651 37.533 5.35088C37.533 2.83883 35.4862 0.838501 33.0207 0.838501H27.6709C25.1589 0.838501 23.1586 2.88535 23.1586 5.35088C23.1586 5.62999 22.9725 5.90911 22.6934 6.00215C21.2047 6.46734 19.7161 7.07209 18.3671 7.8164C18.274 7.86292 18.181 7.90944 18.0414 7.90944C17.8554 7.90944 17.6693 7.8164 17.5762 7.72336C15.8085 5.95563 12.9708 5.95563 11.2031 7.72336L7.43502 11.4914C5.66729 13.2592 5.66729 16.0968 7.43502 17.8646C7.66762 18.0507 7.71414 18.3763 7.57458 18.6554C6.83027 20.051 6.22552 21.4931 5.76032 22.9817C5.66729 23.2608 5.43469 23.4469 5.10905 23.4469C2.59701 23.4469 0.59668 25.4937 0.59668 27.9593V33.2625C0.59668 35.7745 2.64353 37.7749 5.10905 37.7749C5.38817 37.7749 5.66729 37.9609 5.76032 38.24C6.22552 39.7287 6.83027 41.2173 7.57458 42.5663C7.71414 42.8455 7.66762 43.1711 7.43502 43.3572C5.66729 45.1249 5.66729 47.9626 7.43502 49.7303L11.2031 53.4984C12.9708 55.2661 15.8085 55.2661 17.5762 53.4984C17.7158 53.3588 17.8554 53.3123 18.0414 53.3123C18.1345 53.3123 18.274 53.3588 18.3671 53.4053C19.7626 54.1497 21.2047 54.7544 22.6934 55.2196C22.9725 55.3126 23.1586 55.5452 23.1586 55.8709C23.1586 58.3829 25.2054 60.3832 27.6709 60.3832H32.9741C35.4862 60.3832 37.4865 58.3364 37.4865 55.8709C37.4865 55.5918 37.6726 55.3126 37.9517 55.2196C39.4403 54.7544 40.9289 54.1497 42.278 53.4053C42.371 53.3588 42.4641 53.3123 42.6036 53.3123C42.7897 53.3123 42.9758 53.4053 43.0688 53.4984C44.8366 55.2661 47.6742 55.2661 49.442 53.4984L53.21 49.7303C54.9778 47.9626 54.9778 45.1249 53.21 43.3572C52.9774 43.1711 52.9309 42.8455 53.0705 42.5663C53.8148 41.1708 54.4195 39.7287 54.8847 38.24C54.9778 37.9609 55.2104 37.7749 55.536 37.7749C58.048 37.7749 60.0484 35.728 60.0484 33.2625V27.9593C60.0949 25.4472 58.0481 23.4469 55.5825 23.4469ZM58.2341 33.2625C58.2341 34.7511 57.0246 35.9141 55.5825 35.9141C54.4661 35.9141 53.4892 36.6119 53.1635 37.6818C52.7449 39.0774 52.1866 40.4265 51.4888 41.729C50.9771 42.7059 51.1632 43.9154 51.954 44.7062C52.9774 45.7297 52.9774 47.4044 51.954 48.4743L48.186 52.2424C47.1625 53.2658 45.4878 53.2658 44.4179 52.2424C43.6271 51.4515 42.4176 51.2655 41.4407 51.7772C40.1381 52.475 38.789 53.0332 37.3935 53.4519C36.3235 53.7775 35.6257 54.7544 35.6257 55.8709C35.6257 57.3595 34.4162 58.5225 32.9741 58.5225H27.6709C26.1823 58.5225 25.0193 57.313 25.0193 55.8709C25.0193 54.7544 24.3215 53.7775 23.2516 53.4519C21.856 53.0332 20.507 52.475 19.2044 51.7772C18.2275 51.2655 17.018 51.4515 16.2272 52.2424C15.2038 53.2658 13.5291 53.2658 12.4591 52.2424L8.69104 48.4743C7.66762 47.4509 7.66762 45.7762 8.69104 44.7062C9.48187 43.9154 9.66795 42.7059 9.15624 41.729C8.45845 40.4265 7.90021 39.0774 7.48154 37.6818C7.1559 36.6119 6.179 35.9141 5.06254 35.9141C3.57392 35.9141 2.41093 34.7046 2.41093 33.2625V27.9593C2.41093 26.4707 3.62044 25.3077 5.06254 25.3077C6.179 25.3077 7.1559 24.6099 7.48154 23.5399C7.90021 22.1444 8.45845 20.7953 9.15624 19.4928C9.66795 18.5158 9.48187 17.3063 8.69104 16.5155C7.66762 15.4921 7.66762 13.8174 8.69104 12.7475L12.4591 8.97938C13.4825 7.95596 15.1572 7.95596 16.2272 8.97938C17.018 9.77021 18.2275 9.95629 19.2044 9.44458C20.507 8.74679 21.856 8.18856 23.2516 7.76988C24.3215 7.44425 25.0193 6.46734 25.0193 5.35088C25.0193 3.86226 26.2288 2.69927 27.6709 2.69927H32.9741C34.4627 2.69927 35.6257 3.90878 35.6257 5.35088C35.6257 6.46734 36.3235 7.44425 37.3935 7.76988C38.789 8.18856 40.1381 8.74679 41.4407 9.44458C42.4176 9.95629 43.6271 9.77021 44.4179 8.97938C45.4413 7.95596 47.116 7.95596 48.186 8.97938L51.954 12.7475C52.9774 13.7709 52.9774 15.4456 51.954 16.5155C51.1632 17.3063 50.9771 18.5158 51.4888 19.4928C52.1866 20.7953 52.7449 22.1444 53.1635 23.5399C53.4892 24.6099 54.4661 25.3077 55.5825 25.3077C57.0711 25.3077 58.2341 26.5172 58.2341 27.9593V33.2625Z" fill="#3DC2EE"/>
<path d="M47.6675 38.5252C47.2023 39.5486 46.6441 40.479 46.0393 41.4094H40.0383C40.3175 40.479 40.5966 39.5486 40.7826 38.5252H38.8288C38.5962 39.5021 38.3171 40.479 37.9915 41.4094H32.7813L32.5022 41.642C31.4788 42.4793 30.0367 42.4793 29.0133 41.642L28.7341 41.4094H22.5936C22.268 40.479 21.9888 39.5021 21.7562 38.5252H19.8024C20.035 39.5486 20.2676 40.479 20.5467 41.4094H14.5923C13.941 40.479 13.4293 39.5486 12.9641 38.5252H11.7081C11.4289 38.5252 11.1964 38.4786 10.9172 38.4786C15.2435 49.1781 27.4316 54.3882 38.1776 50.062C43.4342 47.9221 47.621 43.7353 49.7609 38.4786C49.4818 38.5252 49.2492 38.5252 48.9701 38.5252H47.6675ZM16.0809 43.2701H21.291C22.0819 45.317 23.2449 47.2243 24.687 48.8524C21.3841 47.829 18.3603 45.8752 16.0809 43.2701ZM29.3854 49.5968C27.0129 49.085 24.873 46.7591 23.3379 43.2701H29.3854V49.5968ZM31.2462 49.5968V43.2701H37.2937C35.7586 46.7591 33.6187 49.085 31.2462 49.5968ZM35.9446 48.8524C37.4333 47.2243 38.5962 45.317 39.3405 43.2701H44.5507C42.2713 45.8752 39.2475 47.829 35.9446 48.8524Z" fill="#3DC2EE"/>
<path d="M13.4371 21.7771C13.8093 21.0793 14.1814 20.428 14.6001 19.8233H20.6011C20.415 20.4745 20.2289 21.1258 20.0429 21.7771H21.9967C22.1828 21.1258 22.3688 20.428 22.6014 19.8233H29.3933V21.7771H31.254V19.8233H38.0458C38.2784 20.428 38.4645 21.1258 38.6506 21.7771H40.5579C40.3718 21.1258 40.2323 20.428 39.9997 19.8233H46.0007C46.4193 20.4745 46.838 21.1258 47.1636 21.7771H48.8848C49.0244 21.7771 49.1174 21.7771 49.257 21.7771C44.419 11.3102 31.9983 6.75134 21.5315 11.6359C17.0191 13.7292 13.4371 17.3112 11.3438 21.7771C11.4833 21.7771 11.5763 21.7771 11.7159 21.7771H13.4371ZM44.5586 17.9625H39.3484C38.5576 15.9156 37.3946 14.0084 35.9525 12.3802C39.2553 13.4036 42.2791 15.3574 44.5586 17.9625ZM31.254 11.6359C33.6265 12.1476 35.7664 14.4735 37.3015 17.9625H31.254V11.6359ZM29.3933 11.6359V17.9625H23.3457C24.8809 14.4735 27.0208 12.1476 29.3933 11.6359ZM24.6948 12.3802C23.2062 14.0084 22.0432 15.9156 21.2989 17.9625H16.0887C18.3682 15.3574 21.3919 13.4036 24.6948 12.3802Z" fill="#3DC2EE"/>
<path d="M48.928 23.6376H11.7125C10.1774 23.6376 8.92139 24.7075 8.92139 26.0566V34.244C8.92139 35.593 10.1774 36.663 11.7125 36.663H25.8079L30.2272 40.1985C30.5529 40.4776 31.0646 40.4776 31.3902 40.1985L35.8096 36.663H48.928C50.4632 36.663 51.7192 35.593 51.7192 34.244V26.0566C51.7192 24.7075 50.4632 23.6376 48.928 23.6376ZM49.8584 34.244C49.8584 34.5231 49.4397 34.8022 48.928 34.8022H35.4374C35.2048 34.8022 35.0187 34.8953 34.8792 34.9883L30.7855 38.2446L26.6918 34.9883C26.5522 34.8953 26.3661 34.8022 26.1335 34.8022H11.7125C11.2008 34.8022 10.7822 34.5231 10.7822 34.244V26.0566C10.7822 25.7775 11.2008 25.4983 11.7125 25.4983H48.928C49.4397 25.4983 49.8584 25.7775 49.8584 26.0566V34.244Z" fill="#3DC2EE"/>
</svg>
