<svg width="93" height="72" viewBox="0 0 93 72" fill="none" xmlns="http://www.w3.org/2000/svg">
<path d="M3.57628e-07 51.0516C3.57628e-07 35.7182 0.866667 24.7182 2.6 18.0516C4.46667 11.2516 8.13333 6.58489 13.6 4.05156C19.2 1.51823 28.3333 0.25156 41 0.25156V23.6516C34.2 23.6516 29.7333 23.7849 27.6 24.0516C25.4667 24.3182 24.0667 25.1182 23.4 26.4516C22.7333 27.7849 22.4 30.3182 22.4 34.0516H41V71.4516H3.57628e-07V51.0516ZM52 51.0516C52 35.7182 52.8667 24.7182 54.6 18.0516C56.4667 11.2516 60.1333 6.58489 65.6 4.05156C71.2 1.51823 80.3333 0.25156 93 0.25156V23.6516C86.2 23.6516 81.7333 23.7849 79.6 24.0516C77.4667 24.3182 76.0667 25.1182 75.4 26.4516C74.7333 27.7849 74.4 30.3182 74.4 34.0516H93V71.4516H52V51.0516Z" fill="#FF6A1F"/>
</svg>
