<svg width="15" height="15" viewBox="0 0 22 22" fill="none" xmlns="http://www.w3.org/2000/svg">
<path d="M10.9997 15.0698C8.90844 15.0698 7.21094 13.3723 7.21094 11.2811C7.21094 9.18981 8.90844 7.49231 10.9997 7.49231C13.0909 7.49231 14.7884 9.18981 14.7884 11.2811C14.7884 13.3723 13.0909 15.0698 10.9997 15.0698ZM10.9997 8.80481C9.63469 8.80481 8.52344 9.91606 8.52344 11.2811C8.52344 12.6461 9.63469 13.7573 10.9997 13.7573C12.3647 13.7573 13.4759 12.6461 13.4759 11.2811C13.4759 9.91606 12.3647 8.80481 10.9997 8.80481Z" fill="#565E6C"/>
<path d="M11.0003 19.1735C7.71031 19.1735 4.60406 17.2485 2.46906 13.906C1.54156 12.4623 1.54156 10.1085 2.46906 8.65605C4.61281 5.31355 7.71906 3.38855 11.0003 3.38855C14.2816 3.38855 17.3878 5.31355 19.5228 8.65605C20.4503 10.0998 20.4503 12.4535 19.5228 13.906C17.3878 17.2485 14.2816 19.1735 11.0003 19.1735ZM11.0003 4.70105C8.17406 4.70105 5.47031 6.39855 3.58031 9.3648C2.92406 10.3885 2.92406 12.1735 3.58031 13.1973C5.47031 16.1635 8.17406 17.861 11.0003 17.861C13.8266 17.861 16.5303 16.1635 18.4203 13.1973C19.0766 12.1735 19.0766 10.3885 18.4203 9.3648C16.5303 6.39855 13.8266 4.70105 11.0003 4.70105Z" fill="#565E6C"/>
</svg>
