<svg width="22" height="25" viewBox="0 0 22 25" fill="none" xmlns="http://www.w3.org/2000/svg">
<path d="M16.7488 20.5447C17.07 21.2584 16.1054 21.8417 15.6225 21.2261C13.3398 18.3166 8.90588 18.407 6.74246 21.4056C6.28412 22.0402 5.29832 21.4971 5.58937 20.7711C6.96772 17.3397 4.67271 13.5448 0.993773 13.1713C0.215387 13.0921 0.19197 11.9658 0.967011 11.8554C4.6281 11.3335 6.76699 7.44823 5.25148 4.07596C4.93031 3.36226 5.89493 2.77902 6.3778 3.3946C8.66054 6.30407 13.0944 6.21374 15.2579 3.21505C15.7162 2.58052 16.702 3.12361 16.4109 3.84958C15.0326 7.28095 17.3276 11.0759 21.0065 11.4494C21.7849 11.5286 21.8084 12.6549 21.0333 12.7653C17.3722 13.2872 15.2333 17.1725 16.7488 20.5447Z" fill="#1E3C70"/>
<path d="M11.1663 24.6185C12.2244 24.6185 13.0822 23.7607 13.0822 22.7026C13.0822 21.6445 12.2244 20.7867 11.1663 20.7867C10.1082 20.7867 9.25049 21.6445 9.25049 22.7026C9.25049 23.7607 10.1082 24.6185 11.1663 24.6185Z" fill="#F26622"/>
<path d="M2.08309 19.5656C3.14119 19.5656 3.99895 18.7078 3.99895 17.6497C3.99895 16.5916 3.14119 15.7339 2.08309 15.7339C1.02499 15.7339 0.167236 16.5916 0.167236 17.6497C0.167236 18.7078 1.02499 19.5656 2.08309 19.5656Z" fill="#F26622"/>
<path d="M1.91585 9.17217C2.97395 9.17217 3.83171 8.31441 3.83171 7.25631C3.83171 6.19821 2.97395 5.34045 1.91585 5.34045C0.857757 5.34045 0 6.19821 0 7.25631C0 8.31441 0.857757 9.17217 1.91585 9.17217Z" fill="#F26622"/>
<path d="M10.8338 3.83171C11.8919 3.83171 12.7497 2.97395 12.7497 1.91586C12.7497 0.857758 11.8919 0 10.8338 0C9.77573 0 8.91797 0.857758 8.91797 1.91586C8.91797 2.97395 9.77573 3.83171 10.8338 3.83171Z" fill="#F26622"/>
<path d="M19.9181 8.88445C20.9761 8.88445 21.8339 8.02669 21.8339 6.96859C21.8339 5.91049 20.9761 5.05273 19.9181 5.05273C18.86 5.05273 18.0022 5.91049 18.0022 6.96859C18.0022 8.02669 18.86 8.88445 19.9181 8.88445Z" fill="#F26622"/>
<path d="M20.0843 19.2779C21.1424 19.2779 22.0002 18.4201 22.0002 17.362C22.0002 16.3039 21.1424 15.4462 20.0843 15.4462C19.0262 15.4462 18.1685 16.3039 18.1685 17.362C18.1685 18.4201 19.0262 19.2779 20.0843 19.2779Z" fill="#F26622"/>
</svg>
