<svg width="496" height="492" viewBox="0 0 496 492" fill="none" xmlns="http://www.w3.org/2000/svg">
<path d="M483.89 86.1283H373.874C373.874 86.1283 384.787 56.3362 401.571 56.3362C418.354 56.3362 423.615 76.9075 423.615 76.9075C423.615 76.9075 434.943 65.7297 444.244 65.7297C453.545 65.7297 461.638 80.4991 461.638 80.4991C461.638 80.4991 474.784 72.5561 483.89 86.1398V86.1283Z" fill="#EBEBEB"/>
<path d="M362.5 47.6795H311.089C311.089 47.6795 322.578 31.0338 331.626 31.0338C340.674 31.0338 343.356 42.1309 343.356 42.1309C343.356 42.1309 349.745 36.9507 355.662 37.8716C361.579 38.7926 362.5 47.6795 362.5 47.6795Z" fill="#EBEBEB"/>
<path d="M112.261 130.39H12.1102C12.1102 130.39 25.8205 99.7695 40.4978 97.8585C55.1636 95.9476 62.1857 120.605 62.1857 120.605C62.1857 120.605 71.6482 111.891 79.0847 111.891C86.5212 111.891 92.2655 123.368 92.2655 123.368C92.2655 123.368 107.15 115.506 112.25 130.39H112.261Z" fill="#EBEBEB"/>
<path d="M188.583 22.9526H120.929C120.929 22.9526 132.556 0.75822 145.161 0.435895C157.766 0.11357 164.397 17.2198 164.397 17.2198C164.397 17.2198 184.013 1.48345 188.583 22.9411V22.9526Z" fill="#EBEBEB"/>
<path d="M253.854 156.015H208.187C208.187 156.015 216.027 141.039 224.545 140.82C233.052 140.601 237.53 152.147 237.53 152.147C237.53 152.147 250.769 141.522 253.854 156.004V156.015Z" fill="#EBEBEB"/>
<path d="M308.914 199.437H187.144V335.55H308.914V199.437Z" fill="#DBDBDB"/>
<path d="M311.722 191.172H184.335V199.437H311.722V191.172Z" fill="#EBEBEB"/>
<path d="M277.832 279.961H218.225V288.226H277.832V279.961Z" fill="#EBEBEB"/>
<path d="M223.072 219.145H202.397V251.193H223.072V219.145Z" fill="#C7C7C7"/>
<path d="M220.954 221.493H204.538V248.856H220.954V221.493Z" fill="white"/>
<path d="M226.042 251.204H199.438V255.809H226.042V251.204Z" fill="#EBEBEB"/>
<g opacity="0.5">
<path d="M220.954 221.505V224.877L204.526 241.305V235.054L218.087 221.505H220.954Z" fill="#EBEBEB"/>
<path d="M220.954 241.776V244.908L216.994 248.856H213.874L220.954 241.776Z" fill="#EBEBEB"/>
<path d="M210.064 221.505L204.526 227.03V223.899L206.932 221.505H210.064Z" fill="#EBEBEB"/>
<path d="M220.954 236.884V237.886L209.983 248.856H208.981L220.954 236.884Z" fill="#EBEBEB"/>
</g>
<path d="M223.072 237.586H202.397V239.935H223.072V237.586Z" fill="#C7C7C7"/>
<path d="M258.366 219.145H237.691V251.193H258.366V219.145Z" fill="#C7C7C7"/>
<path d="M256.237 221.493H239.821V248.856H256.237V221.493Z" fill="white"/>
<path d="M261.336 251.204H234.733V255.809H261.336V251.204Z" fill="#EBEBEB"/>
<g opacity="0.5">
<path d="M256.237 221.505V224.877L239.821 241.305V235.054L253.37 221.505H256.237Z" fill="#EBEBEB"/>
<path d="M256.237 241.776V244.908L252.288 248.856H249.157L256.237 241.776Z" fill="#EBEBEB"/>
<path d="M245.347 221.505L239.821 227.03V223.899L242.215 221.505H245.347Z" fill="#EBEBEB"/>
<path d="M256.237 236.884V237.886L245.266 248.856H244.264L256.237 236.884Z" fill="#EBEBEB"/>
</g>
<path d="M258.366 237.586H237.691V239.935H258.366V237.586Z" fill="#C7C7C7"/>
<path d="M293.649 219.145H272.974V251.193H293.649V219.145Z" fill="#C7C7C7"/>
<path d="M291.52 221.493H275.104V248.856H291.52V221.493Z" fill="white"/>
<path d="M296.619 251.204H270.016V255.809H296.619V251.204Z" fill="#EBEBEB"/>
<g opacity="0.5">
<path d="M291.531 221.505V224.877L275.104 241.305V235.054L288.665 221.505H291.531Z" fill="#EBEBEB"/>
<path d="M291.531 241.776V244.908L287.571 248.856H284.452L291.531 241.776Z" fill="#EBEBEB"/>
<path d="M280.63 221.505L275.104 227.03V223.899L277.499 221.505H280.63Z" fill="#EBEBEB"/>
<path d="M291.531 236.884V237.886L280.549 248.856H279.548L291.531 236.884Z" fill="#EBEBEB"/>
</g>
<path d="M293.649 237.586H272.974V239.935H293.649V237.586Z" fill="#C7C7C7"/>
<path d="M273.343 288.226H222.703V335.538H273.343V288.226Z" fill="#C7C7C7"/>
<path d="M269.947 291.725H226.122V335.55H269.947V291.725Z" fill="white"/>
<g opacity="0.5">
<path d="M269.935 310.006V318.144L252.541 335.538H244.414L269.935 310.006Z" fill="#EBEBEB"/>
<path d="M237.553 291.725L226.122 303.168V295.018L229.415 291.725H237.553Z" fill="#EBEBEB"/>
<path d="M262.015 291.725L226.122 327.619V323.555L257.94 291.725H262.015Z" fill="#EBEBEB"/>
<path d="M269.935 322.369V326.444L260.83 335.538H256.766L269.935 322.369Z" fill="#EBEBEB"/>
<path d="M269.935 295.789V296.537L230.934 335.538H230.174L269.935 295.789Z" fill="#EBEBEB"/>
<path d="M242.296 291.725L226.122 307.911V307.151L241.548 291.725H242.296Z" fill="#EBEBEB"/>
<path d="M256.098 291.725L226.122 321.702V320.942L255.339 291.725H256.098Z" fill="#EBEBEB"/>
</g>
<path d="M249.445 291.725H246.624V335.55H249.445V291.725Z" fill="#C7C7C7"/>
<path d="M187.144 226.846H83.931V335.539H187.144V226.846Z" fill="#DBDBDB"/>
<path d="M177.9 226.846H187.144V335.539H183.046L177.9 226.846Z" fill="#C7C7C7"/>
<path d="M113.723 241.777H95.6383V269.796H113.723V241.777Z" fill="#C7C7C7"/>
<path d="M111.858 243.837H97.5032V267.758H111.858V243.837Z" fill="white"/>
<path d="M116.302 269.807H93.0482V273.836H116.302V269.807Z" fill="#EBEBEB"/>
<g opacity="0.5">
<path d="M111.858 243.837V246.796L97.5032 261.151V255.694L109.36 243.837H111.858Z" fill="#EBEBEB"/>
<path d="M111.858 261.565V264.305L108.405 267.758H105.676L111.858 261.565Z" fill="#EBEBEB"/>
<path d="M102.338 243.837L97.5032 248.672V245.944L99.5983 243.837H102.338Z" fill="#EBEBEB"/>
<path d="M111.858 257.283V258.169L102.269 267.758H101.394L111.858 257.283Z" fill="#EBEBEB"/>
</g>
<path d="M113.723 257.904H95.6383V259.953H113.723V257.904Z" fill="#C7C7C7"/>
<path d="M144.574 241.777H126.489V269.796H144.574V241.777Z" fill="#C7C7C7"/>
<path d="M142.709 243.837H128.354V267.758H142.709V243.837Z" fill="white"/>
<path d="M147.153 269.807H123.899V273.836H147.153V269.807Z" fill="#EBEBEB"/>
<g opacity="0.5">
<path d="M142.709 243.837V246.796L128.354 261.151V255.694L140.211 243.837H142.709Z" fill="#EBEBEB"/>
<path d="M142.709 261.565V264.305L139.256 267.758H136.527L142.709 261.565Z" fill="#EBEBEB"/>
<path d="M133.189 243.837L128.354 248.672V245.944L130.449 243.837H133.189Z" fill="#EBEBEB"/>
<path d="M142.709 257.283V258.169L133.12 267.758H132.245L142.709 257.283Z" fill="#EBEBEB"/>
</g>
<path d="M144.574 257.904H126.489V259.953H144.574V257.904Z" fill="#C7C7C7"/>
<path d="M175.425 241.777H157.34V269.796H175.425V241.777Z" fill="#C7C7C7"/>
<path d="M173.56 243.837H159.205V267.758H173.56V243.837Z" fill="white"/>
<path d="M178.004 269.807H154.75V273.836H178.004V269.807Z" fill="#EBEBEB"/>
<g opacity="0.5">
<path d="M173.56 243.837V246.796L159.205 261.151V255.694L171.062 243.837H173.56Z" fill="#EBEBEB"/>
<path d="M173.56 261.565V264.305L170.107 267.758H167.378L173.56 261.565Z" fill="#EBEBEB"/>
<path d="M164.04 243.837L159.205 248.672V245.944L161.3 243.837H164.04Z" fill="#EBEBEB"/>
<path d="M173.56 257.283V258.169L163.971 267.758H163.096L173.56 257.283Z" fill="#EBEBEB"/>
</g>
<path d="M175.425 257.904H157.34V259.953H175.425V257.904Z" fill="#C7C7C7"/>
<path d="M113.723 284.093H95.6383V312.112H113.723V284.093Z" fill="#C7C7C7"/>
<path d="M111.858 286.154H97.5032V310.075H111.858V286.154Z" fill="white"/>
<path d="M116.302 312.124H93.0482V316.153H116.302V312.124Z" fill="#EBEBEB"/>
<g opacity="0.5">
<path d="M111.858 286.154V289.112L97.5032 303.467V298.011L109.36 286.154H111.858Z" fill="#EBEBEB"/>
<path d="M111.858 303.882V306.61L108.405 310.075H105.676L111.858 303.882Z" fill="#EBEBEB"/>
<path d="M102.338 286.154L97.5032 290.989V288.249L99.5983 286.154H102.338Z" fill="#EBEBEB"/>
<path d="M111.858 299.599V300.474L102.269 310.075H101.394L111.858 299.599Z" fill="#EBEBEB"/>
</g>
<path d="M113.723 300.221H95.6383V302.27H113.723V300.221Z" fill="#C7C7C7"/>
<path d="M144.574 284.093H126.489V312.112H144.574V284.093Z" fill="#C7C7C7"/>
<path d="M142.709 286.154H128.354V310.075H142.709V286.154Z" fill="white"/>
<path d="M147.153 312.124H123.899V316.153H147.153V312.124Z" fill="#EBEBEB"/>
<g opacity="0.5">
<path d="M142.709 286.154V289.112L128.354 303.467V298.011L140.211 286.154H142.709Z" fill="#EBEBEB"/>
<path d="M142.709 303.882V306.61L139.256 310.075H136.527L142.709 303.882Z" fill="#EBEBEB"/>
<path d="M133.189 286.154L128.354 290.989V288.249L130.449 286.154H133.189Z" fill="#EBEBEB"/>
<path d="M142.709 299.599V300.474L133.12 310.075H132.245L142.709 299.599Z" fill="#EBEBEB"/>
</g>
<path d="M144.574 300.221H126.489V302.27H144.574V300.221Z" fill="#C7C7C7"/>
<path d="M175.425 284.093H157.34V312.112H175.425V284.093Z" fill="#C7C7C7"/>
<path d="M173.56 286.154H159.205V310.075H173.56V286.154Z" fill="white"/>
<path d="M178.004 312.124H154.75V316.153H178.004V312.124Z" fill="#EBEBEB"/>
<g opacity="0.5">
<path d="M173.56 286.154V289.112L159.205 303.467V298.011L171.062 286.154H173.56Z" fill="#EBEBEB"/>
<path d="M173.56 303.882V306.61L170.107 310.075H167.378L173.56 303.882Z" fill="#EBEBEB"/>
<path d="M164.04 286.154L159.205 290.989V288.249L161.3 286.154H164.04Z" fill="#EBEBEB"/>
<path d="M173.56 299.599V300.474L163.971 310.075H163.096L173.56 299.599Z" fill="#EBEBEB"/>
</g>
<path d="M175.425 300.221H157.34V302.27H175.425V300.221Z" fill="#C7C7C7"/>
<path d="M187.144 218.581H80.4084V226.846H187.144V218.581Z" fill="#EBEBEB"/>
<path d="M308.868 335.538H412.081V226.846H308.868V335.538Z" fill="#DBDBDB"/>
<path d="M318.1 226.846H308.856V335.539H312.954L318.1 226.846Z" fill="#C7C7C7"/>
<path d="M382.277 269.807H400.362V241.788H382.277V269.807Z" fill="#C7C7C7"/>
<path d="M384.142 267.747H398.497V243.826H384.142V267.747Z" fill="white"/>
<path d="M379.698 273.836H402.952V269.807H379.698V273.836Z" fill="#EBEBEB"/>
<g opacity="0.5">
<path d="M384.142 243.837V246.796L398.497 261.151V255.694L386.64 243.837H384.142Z" fill="#EBEBEB"/>
<path d="M384.142 261.565V264.305L387.595 267.758H390.324L384.142 261.565Z" fill="#EBEBEB"/>
<path d="M393.662 243.837L398.497 248.672V245.944L396.402 243.837H393.662Z" fill="#EBEBEB"/>
<path d="M384.142 257.283V258.169L393.731 267.758H394.606L384.142 257.283Z" fill="#EBEBEB"/>
</g>
<path d="M382.277 259.953H400.362V257.904H382.277V259.953Z" fill="#C7C7C7"/>
<path d="M351.426 269.807H369.511V241.788H351.426V269.807Z" fill="#C7C7C7"/>
<path d="M353.291 267.747H367.646V243.826H353.291V267.747Z" fill="white"/>
<path d="M348.847 273.836H372.101V269.807H348.847V273.836Z" fill="#EBEBEB"/>
<g opacity="0.5">
<path d="M353.291 243.837V246.796L367.646 261.151V255.694L355.789 243.837H353.291Z" fill="#EBEBEB"/>
<path d="M353.291 261.565V264.305L356.744 267.758H359.473L353.291 261.565Z" fill="#EBEBEB"/>
<path d="M362.811 243.837L367.646 248.672V245.944L365.551 243.837H362.811Z" fill="#EBEBEB"/>
<path d="M353.291 257.283V258.169L362.88 267.758H363.755L353.291 257.283Z" fill="#EBEBEB"/>
</g>
<path d="M351.426 259.953H369.511V257.904H351.426V259.953Z" fill="#C7C7C7"/>
<path d="M320.575 269.807H338.66V241.788H320.575V269.807Z" fill="#C7C7C7"/>
<path d="M322.44 267.747H336.795V243.826H322.44V267.747Z" fill="white"/>
<path d="M317.996 273.836H341.25V269.807H317.996V273.836Z" fill="#EBEBEB"/>
<g opacity="0.5">
<path d="M322.44 243.837V246.796L336.795 261.151V255.694L324.938 243.837H322.44Z" fill="#EBEBEB"/>
<path d="M322.44 261.565V264.305L325.893 267.758H328.621L322.44 261.565Z" fill="#EBEBEB"/>
<path d="M331.96 243.837L336.795 248.672V245.944L334.7 243.837H331.96Z" fill="#EBEBEB"/>
<path d="M322.44 257.283V258.169L332.029 267.758H332.904L322.44 257.283Z" fill="#EBEBEB"/>
</g>
<path d="M320.575 259.953H338.66V257.904H320.575V259.953Z" fill="#C7C7C7"/>
<path d="M382.277 312.124H400.362V284.105H382.277V312.124Z" fill="#C7C7C7"/>
<path d="M384.142 310.063H398.497V286.142H384.142V310.063Z" fill="white"/>
<path d="M379.698 316.153H402.952V312.124H379.698V316.153Z" fill="#EBEBEB"/>
<g opacity="0.5">
<path d="M384.142 286.154V289.112L398.497 303.467V298.011L386.64 286.154H384.142Z" fill="#EBEBEB"/>
<path d="M384.142 303.882V306.61L387.595 310.075H390.324L384.142 303.882Z" fill="#EBEBEB"/>
<path d="M393.662 286.154L398.497 290.989V288.249L396.402 286.154H393.662Z" fill="#EBEBEB"/>
<path d="M384.142 299.599V300.474L393.731 310.075H394.606L384.142 299.599Z" fill="#EBEBEB"/>
</g>
<path d="M382.277 302.27H400.362V300.221H382.277V302.27Z" fill="#C7C7C7"/>
<path d="M351.426 312.124H369.511V284.105H351.426V312.124Z" fill="#C7C7C7"/>
<path d="M353.291 310.063H367.646V286.142H353.291V310.063Z" fill="white"/>
<path d="M348.847 316.153H372.101V312.124H348.847V316.153Z" fill="#EBEBEB"/>
<g opacity="0.5">
<path d="M353.291 286.154V289.112L367.646 303.467V298.011L355.789 286.154H353.291Z" fill="#EBEBEB"/>
<path d="M353.291 303.882V306.61L356.744 310.075H359.473L353.291 303.882Z" fill="#EBEBEB"/>
<path d="M362.811 286.154L367.646 290.989V288.249L365.551 286.154H362.811Z" fill="#EBEBEB"/>
<path d="M353.291 299.599V300.474L362.88 310.075H363.755L353.291 299.599Z" fill="#EBEBEB"/>
</g>
<path d="M351.426 302.27H369.511V300.221H351.426V302.27Z" fill="#C7C7C7"/>
<path d="M320.575 312.124H338.66V284.105H320.575V312.124Z" fill="#C7C7C7"/>
<path d="M322.44 310.063H336.795V286.142H322.44V310.063Z" fill="white"/>
<path d="M317.996 316.153H341.25V312.124H317.996V316.153Z" fill="#EBEBEB"/>
<g opacity="0.5">
<path d="M322.44 286.154V289.112L336.795 303.467V298.011L324.938 286.154H322.44Z" fill="#EBEBEB"/>
<path d="M322.44 303.882V306.61L325.893 310.075H328.621L322.44 303.882Z" fill="#EBEBEB"/>
<path d="M331.96 286.154L336.795 290.989V288.249L334.7 286.154H331.96Z" fill="#EBEBEB"/>
<path d="M322.44 299.599V300.474L332.029 310.075H332.904L322.44 299.599Z" fill="#EBEBEB"/>
</g>
<path d="M320.575 302.27H338.66V300.221H320.575V302.27Z" fill="#C7C7C7"/>
<path d="M308.856 226.846H415.592V218.581H308.856V226.846Z" fill="#EBEBEB"/>
<path d="M289.931 181.387V191.16H206.127V181.387H220.954C220.954 181.387 228.206 170.255 248.029 170.255C267.852 170.255 275.116 181.387 275.116 181.387H289.943H289.931Z" fill="#DBDBDB"/>
<path d="M247.994 491.106C367.538 491.106 464.447 482.448 464.447 471.767C464.447 461.086 367.538 452.427 247.994 452.427C128.451 452.427 31.5418 461.086 31.5418 471.767C31.5418 482.448 128.451 491.106 247.994 491.106Z" fill="#EBEBEB"/>
<path d="M0 344.195L62.0015 343.919L124.003 343.815L247.994 343.62L371.997 343.815L433.999 343.907L496 344.195L433.999 344.471L371.997 344.575L247.994 344.771L124.003 344.575L62.0015 344.471L0 344.195Z" fill="#263238"/>
<path d="M488.172 335.561H7.82788V343.93H488.172V335.561Z" fill="#C7C7C7"/>
<path d="M41.4993 335.561C41.9482 336.954 42.0518 338.347 42.0749 339.74C42.0634 341.133 41.9597 342.526 41.4993 343.919C41.0503 342.526 40.9467 341.133 40.9237 339.74C40.9467 338.347 41.0388 336.954 41.4993 335.561Z" fill="#263238"/>
<path d="M79.0501 335.561C79.4991 336.954 79.6027 338.347 79.6257 339.74C79.6142 341.133 79.5106 342.526 79.0501 343.919C78.6012 342.526 78.4976 341.133 78.4745 339.74C78.4976 338.347 78.5897 336.954 79.0501 335.561Z" fill="#263238"/>
<path d="M116.589 335.561C117.038 336.954 117.142 338.347 117.165 339.74C117.153 341.133 117.05 342.526 116.589 343.919C116.14 342.526 116.037 341.133 116.014 339.74C116.037 338.347 116.129 336.954 116.589 335.561Z" fill="#263238"/>
<path d="M154.14 335.561C154.589 336.954 154.693 338.347 154.716 339.74C154.704 341.133 154.601 342.526 154.14 343.919C153.691 342.526 153.588 341.133 153.565 339.74C153.588 338.347 153.68 336.954 154.14 335.561Z" fill="#263238"/>
<path d="M191.68 335.561C192.129 336.954 192.232 338.347 192.255 339.74C192.244 341.133 192.14 342.526 191.68 343.919C191.231 342.526 191.127 341.133 191.104 339.74C191.127 338.347 191.219 336.954 191.68 335.561Z" fill="#263238"/>
<path d="M229.23 335.561C229.679 336.954 229.783 338.347 229.806 339.74C229.794 341.133 229.691 342.526 229.23 343.919C228.781 342.526 228.678 341.133 228.655 339.74C228.678 338.347 228.77 336.954 229.23 335.561Z" fill="#263238"/>
<path d="M266.77 335.561C267.219 336.954 267.322 338.347 267.345 339.74C267.334 341.133 267.23 342.526 266.77 343.919C266.321 342.526 266.217 341.133 266.194 339.74C266.217 338.347 266.309 336.954 266.77 335.561Z" fill="#263238"/>
<path d="M304.321 335.561C304.769 336.954 304.873 338.347 304.896 339.74C304.885 341.133 304.781 342.526 304.321 343.919C303.872 342.526 303.768 341.133 303.745 339.74C303.768 338.347 303.86 336.954 304.321 335.561Z" fill="#263238"/>
<path d="M341.86 335.561C342.309 336.954 342.412 338.347 342.435 339.74C342.424 341.133 342.32 342.526 341.86 343.919C341.411 342.526 341.307 341.133 341.284 339.74C341.307 338.347 341.399 336.954 341.86 335.561Z" fill="#263238"/>
<path d="M379.411 335.561C379.86 336.954 379.963 338.347 379.986 339.74C379.975 341.133 379.871 342.526 379.411 343.919C378.962 342.526 378.858 341.133 378.835 339.74C378.858 338.347 378.95 336.954 379.411 335.561Z" fill="#263238"/>
<path d="M416.95 335.561C417.399 336.954 417.503 338.347 417.526 339.74C417.514 341.133 417.41 342.526 416.95 343.919C416.501 342.526 416.397 341.133 416.374 339.74C416.397 338.347 416.49 336.954 416.95 335.561Z" fill="#263238"/>
<path d="M454.501 335.561C454.95 336.954 455.053 338.347 455.076 339.74C455.065 341.133 454.961 342.526 454.501 343.919C454.052 342.526 453.948 341.133 453.925 339.74C453.948 338.347 454.04 336.954 454.501 335.561Z" fill="#263238"/>
<path d="M61.9899 335.561C61.9899 335.561 61.023 331.037 59.089 330.347C57.1551 329.644 55.9809 331.682 55.9809 331.682C55.9809 331.682 55.5204 327.365 52.7806 326.064C50.0409 324.775 47.9803 327.423 47.9803 327.423C47.9803 327.423 45.8737 321.943 42.1094 321.943C38.3451 321.943 36.4457 329.967 36.4457 329.967C36.4457 329.967 34.224 327.572 31.9562 328.931C29.6769 330.278 29.6769 335.573 29.6769 335.573H61.9899V335.561Z" fill="#37474F"/>
<path d="M382.991 335.561C382.991 335.561 382.024 331.037 380.09 330.347C378.156 329.644 376.982 331.682 376.982 331.682C376.982 331.682 376.521 327.365 373.781 326.064C371.042 324.775 368.981 327.423 368.981 327.423C368.981 327.423 366.875 321.943 363.11 321.943C359.346 321.943 357.447 329.967 357.447 329.967C357.447 329.967 355.225 327.572 352.957 328.931C350.678 330.278 350.678 335.573 350.678 335.573H382.991V335.561Z" fill="#455A64"/>
<path d="M147.498 335.561H113.481C113.481 335.561 114.598 330.761 116.854 330.427C119.11 330.082 120.158 332.315 120.158 332.315C120.158 332.315 120.054 325.627 124.268 324.487C128.481 323.348 132.015 329.253 132.015 329.253C132.015 329.253 134.651 325.88 138.254 326.099C141.857 326.318 142.767 331.878 142.767 331.878C142.767 331.878 146.048 329.944 147.487 335.561H147.498Z" fill="#37474F"/>
<path d="M31.772 335.561H13.8599C13.8599 335.561 13.906 332.891 15.6672 332.189C17.4285 331.486 18.4761 332.856 18.4761 332.856C18.4761 332.856 19.1898 327.952 22.4706 327.952C25.7514 327.952 27.317 332.177 27.317 332.177C27.317 332.177 28.0537 330.899 29.8726 331.141C31.6914 331.383 31.7605 335.55 31.7605 335.55L31.772 335.561Z" fill="#455A64"/>
<path d="M161.554 335.561H143.653C143.653 335.561 143.699 332.891 145.449 332.189C147.21 331.486 148.258 332.856 148.258 332.856C148.258 332.856 148.972 327.952 152.252 327.952C155.533 327.952 157.099 332.177 157.099 332.177C157.099 332.177 157.835 330.899 159.654 331.141C161.473 331.383 161.542 335.55 161.542 335.55L161.554 335.561Z" fill="#455A64"/>
<path d="M456.02 335.561H438.108C438.108 335.561 438.154 332.891 439.916 332.189C441.677 331.486 442.724 332.856 442.724 332.856C442.724 332.856 443.438 327.952 446.719 327.952C450 327.952 451.565 332.177 451.565 332.177C451.565 332.177 452.302 330.899 454.121 331.141C455.94 331.383 456.009 335.55 456.009 335.55L456.02 335.561Z" fill="#455A64"/>
<path d="M482.14 335.561H452.624C452.624 335.561 452.693 331.164 455.594 330.001C458.495 328.839 460.222 331.106 460.222 331.106C460.222 331.106 461.408 323.025 466.818 323.025C472.229 323.025 474.819 329.99 474.819 329.99C474.819 329.99 476.027 327.883 479.032 328.275C482.037 328.666 482.152 335.55 482.152 335.55L482.14 335.561Z" fill="#37474F"/>
<path d="M315.705 333.179C315.705 333.179 339.074 372.053 339.097 372.076C343.61 379.49 347.431 386.063 349.089 389.654C349.101 389.677 349.112 389.689 349.112 389.712C349.734 391.059 350.056 391.98 349.952 392.337C349.952 392.371 349.952 392.394 349.941 392.406C348.64 395.238 290.472 432.996 288.009 433.629C285.534 434.273 283.531 427.263 284.624 424.005C285.729 420.724 301.523 396.32 301.523 396.32L278.535 357.238L315.717 333.179H315.705Z" fill="#AD6359"/>
<path d="M332.121 360.484L293.419 382.54C293.419 382.54 259.92 335.009 253.209 306.322C248.432 285.9 291.117 190.792 291.117 190.792L331.73 192.38C331.73 192.38 295.261 284.461 297.195 293.982C299.555 305.597 332.121 360.484 332.121 360.484Z" fill="#AD6359"/>
<path d="M349.953 392.337C349.953 392.337 349.953 392.394 349.953 392.406C348.652 395.249 290.484 433.007 288.02 433.64C285.545 434.285 283.542 427.274 284.636 424.005C285.234 422.232 290.104 414.312 294.467 407.394C290.415 414.117 282.023 433.755 343.368 379.19C345.946 383.576 347.996 387.283 349.101 389.654C349.101 389.677 349.124 389.689 349.124 389.712C349.745 391.07 350.068 391.98 349.964 392.337H349.953Z" fill="#263238"/>
<path d="M373.31 260.655C373.31 260.655 400.995 231.347 401.018 231.324C407.372 225.43 416.432 216.324 418.044 216.232C421.083 216.934 470.421 266.791 471.538 269.082C472.666 271.373 466.197 274.734 462.778 274.32C459.347 273.894 432.272 263.292 432.272 263.292L403.009 292.462L373.31 260.644V260.655Z" fill="#AD6359"/>
<path d="M462.801 274.32C461.074 274.101 453.453 271.35 446.247 268.645C454.57 270.233 470.744 270.014 402.181 230.242C408.431 224.382 416.536 216.324 418.055 216.232C421.094 216.934 470.444 266.78 471.549 269.082C472.678 271.373 466.22 274.734 462.801 274.32Z" fill="#263238"/>
<path d="M291.451 190.803C291.451 190.803 293.995 205.054 296.516 216.578C298.346 224.993 300.28 232.406 301.523 233.212C302.928 234.121 309.846 237.506 312.16 238.576C312.16 238.576 321.91 293.74 332.915 312.538C336.691 318.973 356.157 327.1 366.679 321.701C391.36 309.05 423.385 272.144 423.385 272.144L393.478 239.29L361.234 270.947C355.639 257.248 354.649 230.702 354.649 230.702C354.649 230.702 355.835 204.663 347.5 192.944L291.428 190.792L291.451 190.803Z" fill="#AD6359"/>
<path d="M290.783 190.78C290.783 190.78 250.895 269.784 250.158 302.281C249.917 312.757 255.189 326.11 255.189 326.11C255.189 326.11 293.626 333.121 315.28 323.474C336.933 313.828 346.384 294.431 355.835 278.107C360.014 270.889 363.179 269.071 363.179 269.071C363.179 269.071 355.835 235.606 355.72 231.877C355.72 231.877 357.527 207.472 347.535 192.956L290.794 190.78H290.783Z" fill="#263238"/>
<path d="M322.912 90.0191C311.032 102.083 309.224 132.451 324.662 152.516C337.727 169.507 367.254 172.131 379.675 161.552C392.856 150.328 390.496 132.647 380.493 124.243C370.178 115.575 358.08 118.234 351.76 110.441C348.744 106.711 347.466 98.6989 343.241 93.0006C338.533 86.6462 328.99 83.8259 322.9 90.0076L322.912 90.0191Z" fill="#263238"/>
<path d="M346.269 98.3536C347.236 101.07 348.364 103.729 349.78 106.262C351.23 108.749 352.992 111.177 355.444 112.893C356.664 113.768 358.114 114.274 359.496 114.689C360.889 115.103 362.293 115.448 363.686 115.805C366.472 116.507 369.234 117.244 371.917 118.223C374.599 119.167 377.189 120.364 379.526 121.952C381.84 123.564 383.889 125.567 385.397 127.95C386.928 130.321 387.918 133.038 388.401 135.835C388.931 138.644 388.988 141.522 388.839 144.4C389.219 141.545 389.276 138.633 388.908 135.755C388.528 132.877 387.607 130.045 386.087 127.512C384.625 124.957 382.461 122.85 380.078 121.147C377.661 119.477 375.002 118.2 372.274 117.21C369.534 116.231 366.713 115.529 363.916 114.85C362.523 114.504 361.119 114.182 359.749 113.791C358.379 113.399 357.067 112.95 355.904 112.191C353.556 110.683 351.748 108.392 350.229 105.986C348.675 103.58 347.454 100.978 346.257 98.3536H346.269Z" fill="#263238"/>
<path d="M320.644 92.7014C317.214 97.8471 314.669 103.58 312.954 109.543C311.251 115.517 310.56 121.826 311.181 128.042C311.515 131.15 312.206 134.224 313.288 137.159C313.518 137.907 313.841 138.621 314.151 139.335C314.462 140.049 314.75 140.785 315.13 141.465C315.498 142.155 315.844 142.857 316.224 143.537L317.478 145.517C320.932 150.72 325.548 155.048 330.636 158.513C329.462 157.5 328.23 156.579 327.102 155.532C325.985 154.473 324.823 153.46 323.81 152.297C321.657 150.11 319.804 147.635 318.169 145.068C314.946 139.887 312.816 134.017 312.252 127.927C311.561 121.86 312.241 115.69 313.749 109.75C314.497 106.78 315.475 103.856 316.638 101.013C317.766 98.1579 319.113 95.3721 320.644 92.6899V92.7014Z" fill="#263238"/>
<path d="M316.684 139.922C308.407 143.778 271.777 151.088 260.588 142.466C249.18 133.683 240.846 98.296 239.487 93.887C236.322 83.5611 268.393 82.2834 269.337 85.1152C272.698 95.1879 276.52 121.676 280.779 123.057C289.735 125.958 298.381 126.373 312.793 128.951C322.843 130.747 325.836 135.674 316.684 139.922Z" fill="#AD6359"/>
<path d="M240.247 95.7634C238.762 92.4481 233.121 76.4585 232.592 71.7272C232.062 66.9844 231.51 53.2281 235.101 52.4568C238.693 51.674 239.176 55.6916 239.176 55.6916C239.176 55.6916 239.867 49.8437 243.551 49.3947C247.235 48.9458 247.776 55.2081 247.776 55.2081C247.776 55.2081 248.927 49.2566 252.633 49.0724C256.34 48.8882 255.834 55.2771 255.834 55.2771C255.834 55.2771 256.628 49.7861 259.748 50.9142C263.5 52.2726 260.899 62.2301 261.877 67.4219C262.096 68.5961 268.094 90.9861 268.094 90.9861L240.247 95.7634Z" fill="#AD6359"/>
<path d="M255.868 54.7246C253.969 62.046 254.406 65.58 256.674 72.6827C256.72 72.8208 256.524 72.9129 256.467 72.7748C253.612 66.029 252.426 61.6776 255.523 54.6095C255.673 54.2641 255.96 54.3677 255.868 54.7246Z" fill="#263238"/>
<path d="M247.937 54.621C246.624 62.4028 247.073 66.2362 248.892 73.8453C248.915 73.9489 248.743 74.0065 248.708 73.9029C246.291 66.593 245.208 62.2186 247.534 54.621C247.637 54.2756 247.994 54.2641 247.937 54.621Z" fill="#263238"/>
<path d="M239.28 56.0714C238.555 63.6921 238.854 67.9283 241.582 75.077C241.651 75.2497 241.41 75.3533 241.329 75.1921C237.841 68.1586 237.427 62.8862 239.05 56.0714C239.165 55.6109 239.326 55.5879 239.28 56.0714Z" fill="#263238"/>
<path d="M269.625 95.4871C269.625 95.4871 273.665 86.911 274.598 82.7438C275.542 78.5881 273.343 61.7812 269.682 62.0574C264.962 62.4028 264.318 72.3488 264.64 77.2643C264.64 77.2643 253.727 78.0586 251.713 85.0921C249.71 92.1372 269.602 95.4871 269.602 95.4871H269.625Z" fill="#AD6359"/>
<path d="M268.427 62.5755C264.352 65.9944 265.193 72.4179 265.147 77.2067C265.147 77.5751 264.847 77.7017 264.571 77.6442C260.012 78.2773 253.785 80.5105 251.586 84.8389C251.517 84.9655 251.333 84.8965 251.379 84.7583C253.105 79.7968 259.057 77.1031 264.088 76.7347C264.053 71.8193 263.5 65.3498 268.393 62.5525C268.416 62.5409 268.45 62.5755 268.427 62.5985V62.5755Z" fill="#263238"/>
<path d="M271.8 91.884C271.8 91.884 277.809 120.375 280.353 121.653C284.578 123.783 308.983 127.581 317.674 129.4C326.365 131.219 332.282 136.768 311.17 144.285C290.783 151.537 268.531 155.67 257.618 151.537C244.311 146.507 232.212 115.92 232.212 115.92L271.8 91.884Z" fill="#2E5ED4"/>
<path d="M237.265 122.505C252.99 112.075 270.062 102.993 273.02 101.22C273.159 101.139 273.239 101.404 273.101 101.485C270.327 103.119 251.022 115.483 237.358 122.793C237.196 122.873 237.116 122.609 237.265 122.505Z" fill="#263238"/>
<path opacity="0.1" d="M325.318 135.87C324.259 138.23 320.183 141.073 311.17 144.273C290.771 151.526 268.531 155.658 257.618 151.526C256.191 150.985 254.763 150.144 253.382 149.085L325.318 135.87Z" fill="black"/>
<path d="M290.783 190.78L348.019 193.013C348.019 193.013 345.371 153.149 336.806 136.699C332.904 129.216 327.229 128.606 321.553 131.15C320.137 131.783 300.879 145.885 297.909 151.836C295.295 157.109 298.093 164.534 298.093 164.534L290.771 190.78H290.783Z" fill="#EBEBEB"/>
<path d="M319.827 131.68C319.827 131.68 311.481 141.303 310.882 145.125C310.284 148.958 310.882 154.311 310.882 154.311C310.882 154.311 320.368 150.547 325.087 147.865C329.807 145.183 333.03 131.472 333.03 131.472C333.03 131.472 339.811 137.884 342.7 150.835C344.933 160.838 349.976 191.448 350.355 192.334C350.735 193.232 358.367 212.111 357.424 231.381C357.424 231.381 362.984 255.118 365.666 257.801C368.348 260.483 372.815 257.144 372.815 257.144C372.815 257.144 357.424 310.432 328.276 319.353C302.41 327.273 247.188 307.623 248.34 296.71C249.491 285.797 267.334 236.493 289.114 190.803L297.678 164.798C297.678 164.798 293.949 157.178 297.874 151.238C301.8 145.309 316.788 133.038 319.85 131.668L319.827 131.68Z" fill="#2E5ED4"/>
<path opacity="0.1" d="M286.178 266.031C284.509 270.843 282.92 275.667 281.148 280.444C280.25 282.85 279.444 285.302 278.65 287.754C277.844 290.275 277.153 292.819 277.004 295.478C277.004 295.593 276.831 295.593 276.831 295.478C276.773 292.577 277.36 289.711 277.947 286.879C279.007 281.814 280.261 276.645 282.195 271.833C283.162 269.427 284.256 267.056 285.407 264.719C286.558 262.394 287.675 260.011 288.964 257.766C289.056 257.605 289.355 257.697 289.286 257.893C288.25 260.609 287.122 263.28 286.178 266.031Z" fill="black"/>
<path opacity="0.1" d="M329.842 278.003C329.842 274.584 329.83 271.189 330.06 267.781C330.268 264.777 330.509 261.772 330.924 258.791C331.338 255.763 331.983 252.793 332.674 249.823C334.043 243.895 335.621 237.989 337.347 232.153C337.347 232.13 337.393 232.153 337.393 232.164C336.438 235.445 335.563 238.749 334.872 242.099C333.675 248.016 333.053 253.99 332.179 259.953C331.281 265.928 330.486 271.971 330.026 277.992C330.014 278.107 329.842 278.119 329.842 278.003Z" fill="black"/>
<path opacity="0.1" d="M343.874 309.66C343.483 310.04 343.092 310.397 342.689 310.754C341.998 310.259 341.319 309.752 340.651 309.246C334.769 304.756 328.345 299.599 325.755 292.428C324.512 288.997 324.397 285.267 324.431 281.664C324.477 277.923 324.995 274.182 325.49 270.486C325.502 270.348 325.744 270.371 325.721 270.509C325.318 274.596 324.995 278.671 325.26 282.781C325.502 286.28 326.526 289.86 328.184 292.957C329.853 296.1 332.156 298.77 334.631 301.28C337.555 304.25 340.697 306.967 343.874 309.66Z" fill="black"/>
<path opacity="0.1" d="M308.822 260.184C307.003 265.226 305.265 270.291 303.803 275.448C303.077 277.992 302.433 280.548 301.869 283.126C301.305 285.728 300.89 288.352 300.418 290.966C299.946 293.556 299.612 296.134 299.486 298.77C299.417 300.117 299.417 301.464 299.44 302.811C299.463 304.123 299.359 305.424 299.486 306.736C299.497 306.921 299.221 306.921 299.198 306.748C299.071 305.919 298.853 305.125 298.691 304.319C298.553 303.617 298.53 302.868 298.473 302.166C298.346 300.681 298.3 299.196 298.277 297.723C298.231 294.776 298.277 291.794 298.599 288.87C299.175 283.564 300.568 278.291 302.076 273.18C303.595 268.046 305.38 262.992 307.21 257.962C309.121 252.724 310.974 247.463 313.277 242.387C315.625 237.195 317.812 231.923 319.861 226.604C319.907 226.478 320.103 226.524 320.057 226.65C319.009 229.62 318.077 232.636 317.052 235.606C316.028 238.576 315.268 241.638 314.301 244.62C313.449 247.268 312.597 249.881 311.642 252.494C310.698 255.049 309.754 257.616 308.822 260.184Z" fill="black"/>
<path opacity="0.1" d="M287.007 317.557C286.409 317.408 285.821 317.258 285.234 317.108C283.899 313.356 282.897 309.476 282.656 305.539C282.564 304.008 282.782 302.512 282.874 300.992C282.967 299.576 283.139 298.16 283.346 296.756C283.784 293.855 284.532 291 285.626 288.272C285.66 288.168 285.833 288.237 285.798 288.341C284.682 291.288 284.014 294.442 283.899 297.596C283.853 298.966 283.853 300.382 284.014 301.74C284.175 303.122 284.486 304.492 284.659 305.885C285.004 308.659 285.465 311.422 286.121 314.138C286.397 315.278 286.696 316.429 287.007 317.557Z" fill="black"/>
<path opacity="0.1" d="M335.943 315.854C333.502 317.339 330.935 318.536 328.265 319.353C324.247 320.585 319.527 321.149 314.428 321.172C313.553 319.963 312.735 318.743 311.953 317.477C309.247 313.114 307.175 308.095 306.531 302.984C305.782 296.998 307.233 290.942 308.499 285.129C309.8 279.109 319.067 252.966 320.586 254.911C322.428 257.283 317.191 284.979 316.868 288.283C316.557 291.414 316.834 294.5 318.434 297.262C319.988 299.945 322.221 302.212 324.305 304.469C326.515 306.863 328.794 309.188 331.143 311.456C332.708 312.964 334.331 314.403 335.943 315.854Z" fill="black"/>
<path opacity="0.1" d="M368.152 258.837C367.554 259.976 366.817 261.07 366.115 262.129C364.25 264.949 362.362 267.758 360.486 270.555C358.575 273.41 356.629 276.231 354.718 279.074C353.141 281.422 351.714 283.828 349.285 285.382C348.847 285.659 348.364 285.152 348.583 284.715C350.033 281.779 351.702 278.936 353.268 276.07C355.881 271.281 358.609 266.549 360.716 261.507C361.786 258.94 362.696 256.327 363.433 253.656C363.467 253.553 363.49 253.438 363.525 253.334C364.319 255.544 365.056 257.19 365.654 257.789C366.391 258.526 367.277 258.814 368.152 258.837Z" fill="black"/>
<path opacity="0.1" d="M346.062 188.904C342.493 190.308 338.936 191.747 335.264 192.864C331.707 193.946 327.977 194.717 324.293 195.293C317.778 196.306 311.124 196.202 304.804 194.142C301.12 192.944 298.035 190.815 295.157 188.294C295.065 188.213 294.962 188.34 295.031 188.42C299.348 193.658 305.644 196.686 312.31 197.56C319.7 198.527 326.872 196.973 333.733 194.257C337.888 192.61 342.01 190.838 346.096 189.042C346.188 189.007 346.142 188.858 346.05 188.892L346.062 188.904Z" fill="black"/>
<path d="M317.524 165.892C315.095 165.443 312.632 165.063 310.157 164.983C308.925 164.937 307.705 164.948 306.473 164.983C305.863 165.006 305.253 165.006 304.631 164.994C303.998 164.994 303.331 164.96 302.72 164.798C302.663 164.787 302.64 164.868 302.697 164.879C303.285 165.075 303.849 165.247 304.447 165.362C305.023 165.466 305.621 165.512 306.197 165.535C307.44 165.593 308.695 165.593 309.95 165.639C312.471 165.731 314.992 165.811 317.501 166.088C317.616 166.099 317.639 165.904 317.524 165.881V165.892Z" fill="#263238"/>
<path d="M322.762 169.714C320.874 168.943 318.929 168.252 316.972 167.699C315.982 167.423 314.992 167.204 313.99 167.009C313.507 166.917 313.035 166.836 312.551 166.755C312.022 166.675 311.481 166.652 310.951 166.56C310.894 166.56 310.871 166.629 310.928 166.64C311.423 166.744 311.907 166.928 312.39 167.055C312.885 167.181 313.38 167.319 313.864 167.446C314.854 167.711 315.832 167.987 316.822 168.24C318.802 168.747 320.759 169.276 322.716 169.852C322.82 169.887 322.854 169.725 322.762 169.691V169.714Z" fill="#263238"/>
<path d="M335.103 145.378C348.306 164.257 368.762 192.334 380.896 192.092C391.855 191.874 409.352 182.411 428.427 172.258C432.214 170.243 414.993 141.614 411.171 144.158C403.643 149.177 387.607 162.623 382.427 163.452C380.205 163.808 355.259 145.436 341.204 136.618C328.852 128.859 332.535 141.718 335.103 145.39V145.378Z" fill="#AD6359"/>
<path d="M445.096 163.762C439.766 168.16 422.844 175.055 418.93 174.86C415.016 174.664 406.175 150.409 408.328 147.013C410.48 143.606 429.578 130.218 436.623 130.114C443.668 130.022 450.621 159.215 445.096 163.762Z" fill="#AD6359"/>
<path d="M418.826 111.857C418.826 111.857 427.736 102.935 438.983 109.842C438.983 109.842 439.467 143.341 439.777 145.378C440.1 147.416 449.228 184.84 449.228 184.84C449.228 184.84 440.767 190.815 427.656 185.934C427.656 185.934 429.785 147.531 429.555 146.403C429.325 145.275 418.826 111.868 418.826 111.868V111.857Z" fill="#EBEBEB"/>
<path d="M449.24 184.84C449.24 184.84 436.957 177.887 427.667 185.934C427.667 185.934 437.291 191.574 449.24 184.84Z" fill="#DBDBDB"/>
<path d="M439.789 145.378C440.054 145.16 439.789 145.056 439.57 144.999C439.34 144.941 439.11 144.895 438.868 144.872C438.385 144.814 437.901 144.791 437.418 144.78C436.451 144.757 435.484 144.78 434.517 144.86C433.55 144.929 432.583 145.045 431.627 145.194C431.155 145.286 430.683 145.367 430.246 145.528C429.843 145.678 429.267 145.885 429.567 146.391C429.463 146.322 429.348 146.23 429.313 146.069C429.279 145.919 429.325 145.747 429.394 145.62C429.544 145.367 429.762 145.171 429.981 145.022C430.43 144.711 430.914 144.492 431.409 144.319C432.399 143.962 433.412 143.801 434.436 143.709C435.472 143.64 436.508 143.675 437.521 143.893C438.028 143.985 438.534 144.135 439.018 144.331C439.259 144.434 439.501 144.55 439.72 144.711C439.824 144.791 439.95 144.883 440.019 145.033C440.054 145.125 440.031 145.206 439.973 145.275C439.916 145.321 439.847 145.332 439.789 145.367V145.378Z" fill="#2E5ED4"/>
<path d="M439.881 145.896C440.134 145.666 439.87 145.574 439.639 145.54C439.409 145.494 439.167 145.471 438.926 145.471C438.442 145.447 437.947 145.471 437.464 145.471C436.485 145.528 435.518 145.609 434.551 145.758C433.584 145.896 432.606 146.081 431.662 146.288C431.19 146.403 430.718 146.518 430.269 146.691C430.05 146.771 429.831 146.875 429.659 147.013C429.486 147.14 429.406 147.358 429.59 147.577C429.475 147.52 429.36 147.427 429.313 147.266C429.279 147.105 429.336 146.944 429.406 146.817C429.555 146.553 429.774 146.38 429.981 146.207C430.419 145.885 430.891 145.643 431.374 145.447C432.341 145.045 433.342 144.803 434.367 144.63C435.403 144.481 436.451 144.446 437.487 144.584C438.005 144.642 438.523 144.757 439.018 144.918C439.271 145.01 439.513 145.102 439.754 145.252C439.87 145.332 439.996 145.401 440.077 145.551C440.18 145.747 439.973 145.885 439.87 145.896H439.881Z" fill="#2E5ED4"/>
<path d="M439.973 146.311C439.973 146.311 440.065 146.219 440.077 146.173C440.077 146.115 440.077 146.173 440.019 146.15C439.927 146.15 439.801 146.15 439.674 146.173C439.432 146.207 439.202 146.253 438.96 146.311L437.521 146.61C436.566 146.817 435.599 146.978 434.643 147.151C433.676 147.301 432.709 147.45 431.742 147.566C431.259 147.635 430.775 147.692 430.315 147.784C430.085 147.819 429.855 147.876 429.647 147.957C429.44 148.026 429.313 148.187 429.509 148.417C429.406 148.36 429.267 148.279 429.256 148.095C429.256 147.922 429.371 147.784 429.475 147.692C429.682 147.497 429.912 147.37 430.142 147.243C430.603 147.013 431.086 146.829 431.558 146.691C432.514 146.38 433.492 146.184 434.471 146.012C435.449 145.85 436.439 145.735 437.441 145.712C437.936 145.689 438.442 145.712 438.949 145.747C439.202 145.77 439.455 145.793 439.708 145.862C439.835 145.896 439.962 145.919 440.1 145.988C440.134 146.012 440.169 146.035 440.203 146.092C440.238 146.161 440.203 146.219 440.169 146.23C440.111 146.276 440.054 146.299 439.985 146.322L439.973 146.311Z" fill="#2E5ED4"/>
<path d="M425.802 132.439C424.594 135.893 429.348 135.34 429.348 135.34C429.348 135.34 422.683 137.781 422.809 141.821C422.936 145.724 428.669 144.86 429.083 144.803C428.726 144.941 422.66 147.335 423.212 151.387C423.776 155.601 429.383 153.747 429.751 153.621C429.463 153.851 425.641 156.948 426.746 159.929C428.657 165.052 438.649 157.419 443.012 158.179C443.012 158.179 444.67 163.878 444.693 164.096C444.693 164.096 452.233 158.87 452.947 152.918C453.315 149.787 450.472 148.82 450.472 148.82C450.472 148.82 453.833 146.886 453.511 143.686C453.338 142.04 450.552 140.854 450.552 140.854C450.552 140.854 453.177 139.185 452.716 136.365C452.348 134.109 449.62 133.268 449.62 133.268C449.62 133.268 451.404 130.494 450.276 128.318C448.02 123.898 428.416 125.049 425.814 132.439H425.802Z" fill="#AD6359"/>
<path d="M449.194 133.072C449.263 133.072 449.275 132.98 449.205 132.969C442.667 131.772 435.115 132.462 429.083 135.352C428.888 135.444 428.957 135.812 429.187 135.743C435.967 133.959 442.137 132.923 449.182 133.072H449.194Z" fill="#263238"/>
<path d="M450.644 140.82C450.725 140.82 450.725 140.693 450.644 140.682C443.899 139.484 435.415 140.497 428.853 144.642C428.623 144.78 428.565 145.137 428.841 144.998C433.412 142.57 444.302 140.659 450.644 140.831V140.82Z" fill="#263238"/>
<path d="M429.383 154.07C435.829 150.34 442.817 149.051 450.195 148.763C450.288 148.763 450.276 148.625 450.195 148.602C446.546 147.761 441.873 148.44 438.269 149.269C434.828 150.064 431.881 151.479 429.256 153.839C429.152 153.931 429.256 154.15 429.383 154.07Z" fill="#263238"/>
<path d="M429.348 135.352C428.116 135.95 426.919 136.63 425.825 137.435C424.755 138.241 423.719 139.197 423.247 140.371C423.017 140.946 422.971 141.568 423.178 142.132C423.396 142.708 423.742 143.249 424.202 143.629C425.123 144.411 426.505 144.584 427.679 144.388L430.637 143.905L428.024 145.39C426.885 146.035 425.768 146.886 424.905 147.865C424.041 148.843 423.443 150.041 423.604 151.215C423.742 152.435 424.525 153.367 425.733 153.54C426.919 153.77 428.312 153.494 429.509 153.068L432.859 151.871L430.096 154.081C429.348 154.68 428.623 155.416 428.047 156.199C427.483 156.982 427.034 157.868 427.011 158.743C426.988 159.595 427.426 160.47 428.162 160.827C428.934 161.218 429.97 161.184 430.948 161.046C432.951 160.758 434.908 160.033 436.888 159.423C437.878 159.1 438.88 158.789 439.881 158.513C440.883 158.26 441.942 157.984 442.978 158.179C441.93 158.099 440.94 158.479 439.962 158.789C438.983 159.135 438.028 159.526 437.061 159.917C435.138 160.7 433.181 161.472 431.075 161.897C430.027 162.07 428.876 162.22 427.725 161.736C426.539 161.218 425.883 159.929 425.906 158.72C425.929 157.489 426.482 156.429 427.103 155.532C427.748 154.634 428.485 153.851 429.348 153.137L429.935 154.162C428.519 154.68 427.069 155.014 425.48 154.76C424.697 154.634 423.88 154.242 423.316 153.575C422.752 152.918 422.476 152.136 422.383 151.33C422.199 149.661 423.051 148.164 424.03 147.094C425.043 145.988 426.205 145.137 427.495 144.423L427.84 145.424C426.332 145.62 424.755 145.321 423.581 144.262C423.017 143.732 422.637 143.065 422.407 142.339C422.176 141.603 422.268 140.762 422.579 140.095C423.235 138.736 424.41 137.861 425.561 137.113C426.735 136.376 427.99 135.778 429.29 135.329L429.348 135.352Z" fill="#263238"/>
<path d="M411.171 144.158C411.171 144.158 424.64 118.119 432.226 128.376C434.482 131.426 440.123 146.622 437.084 147.807C433.17 149.35 429.636 143.444 428.001 139.381C428.001 139.381 424.674 148.878 417.364 148.533C412.783 148.314 411.16 144.158 411.16 144.158H411.171Z" fill="#AD6359"/>
<path d="M431.547 127.558C432.617 128.606 433.389 129.918 434.102 131.219C434.816 132.531 435.415 133.913 435.944 135.306C436.98 138.115 437.913 140.935 438.454 143.939C438.58 144.699 438.672 145.47 438.58 146.322C438.534 146.748 438.408 147.209 438.154 147.612C438.028 147.819 437.901 147.992 437.671 148.187C437.464 148.348 437.245 148.486 437.026 148.556C436.14 148.912 435.219 148.82 434.413 148.556C433.619 148.268 432.928 147.807 432.318 147.289C431.109 146.242 430.211 144.964 429.452 143.652C428.68 142.339 428.082 140.946 427.518 139.553L428.496 139.519C428.07 140.624 427.552 141.614 426.942 142.593C426.343 143.56 425.641 144.469 424.858 145.298C424.064 146.115 423.155 146.829 422.165 147.37C421.175 147.922 420.081 148.291 418.976 148.429C420.058 148.141 421.071 147.681 421.981 147.059C422.89 146.449 423.673 145.678 424.375 144.849C425.077 144.02 425.687 143.111 426.217 142.155C426.735 141.211 427.195 140.187 427.518 139.197L427.921 137.93L428.485 139.162C429.095 140.486 429.693 141.821 430.465 143.053C431.224 144.273 432.053 145.47 433.112 146.345C434.137 147.209 435.495 147.83 436.554 147.393C437.521 147.094 437.475 145.47 437.279 144.089C437.084 142.662 436.727 141.234 436.37 139.807C436.013 138.379 435.633 136.952 435.184 135.547C434.24 132.773 433.296 129.93 431.524 127.535L431.547 127.558Z" fill="#263238"/>
<path d="M407.361 146.668C407.361 146.668 384.453 162.542 381.701 161.828C377.12 160.643 347.662 139.484 339.926 135.133C332.19 130.77 329.565 136.825 334.055 144.411C345.877 164.372 365.309 195.649 382.346 198.93C391.521 200.692 423.742 188.639 423.742 188.639L407.349 146.668H407.361Z" fill="#2E5ED4"/>
<path d="M346.557 164.085C346.165 163.578 345.946 162.945 345.613 162.404C345.256 161.828 344.899 161.241 344.542 160.677C343.84 159.561 343.126 158.444 342.435 157.327C341.043 155.083 339.523 152.941 338.061 150.743C338.038 150.708 337.992 150.743 338.015 150.777C339.293 153.103 340.536 155.416 341.975 157.65C342.009 157.696 342.044 157.742 342.067 157.799C341.756 157.489 341.445 157.189 341.146 156.89C340.513 156.257 339.88 155.624 339.247 154.991C339.212 154.956 339.143 155.014 339.178 155.06C339.753 155.75 340.34 156.406 340.973 157.028C341.296 157.35 341.63 157.661 341.963 157.972C342.125 158.11 342.286 158.248 342.447 158.386C342.988 159.215 343.529 160.056 344.07 160.873C344.438 161.437 344.83 162.001 345.21 162.554C345.59 163.106 346.108 163.59 346.441 164.177C346.488 164.257 346.626 164.177 346.557 164.096V164.085Z" fill="#263238"/>
<path d="M401.133 153.529C408.316 169.806 414.003 187.027 415.166 190.055C415.223 190.193 414.959 190.228 414.901 190.078C413.819 187.246 405.415 167.354 400.834 153.552C400.776 153.39 401.052 153.367 401.122 153.529H401.133Z" fill="#263238"/>
<path d="M322.647 127.512C330.475 125.797 344.093 131.472 345.095 137.389C345.946 142.431 346.073 180.408 347.19 190.331C348.306 200.254 378.708 242.283 378.708 242.283L364.618 241.362L362.178 254.255C362.178 254.255 335.471 217.51 330.233 200.3C325.007 183.09 334.481 134.408 333.03 131.933C331.592 129.458 325.663 129.815 322.969 130.298C320.276 130.793 316.005 136.031 313.829 141.292C311.665 146.553 303.192 180.293 303.123 192.737C303.054 205.181 319.643 252.091 319.643 252.091L307.429 246.6L298.853 258.388C298.853 258.388 286.052 212.629 285.522 192.392C285.188 179.522 294.697 156.36 305.207 140.9C311.216 132.071 317.916 128.537 322.624 127.501L322.647 127.512Z" fill="#455A64"/>
<path d="M332.42 132.681C331.891 133.66 325.087 139.128 320.368 137.62C318.825 137.125 321.139 128.618 321.139 128.618L321.162 127.95L321.542 118.614L333.675 114.735L335.402 114.251C335.402 114.251 335.126 116.795 334.757 119.972C334.746 120.122 334.723 120.272 334.7 120.421C334.688 120.605 334.665 120.767 334.642 120.939C334.596 121.411 334.538 121.895 334.481 122.378C334.435 122.747 334.389 123.103 334.331 123.483C334.274 123.875 334.216 124.243 334.17 124.623C333.571 128.41 332.639 132.255 332.42 132.681Z" fill="#AD6359"/>
<path d="M334.746 119.961C330.348 126.304 323.982 127.674 321.15 127.95L321.53 118.614L333.664 114.735L335.39 114.251C335.39 114.251 335.114 116.795 334.746 119.972V119.961Z" fill="#263238"/>
<path d="M313.046 98.745C304.321 112.639 311.653 119.431 314.646 121.319C317.363 123.023 326.849 128.491 336.967 115.575C347.086 102.659 343.391 94.2094 337.37 89.9731C331.35 85.7369 321.772 84.862 313.046 98.745Z" fill="#AD6359"/>
<path d="M316.511 97.5823C316.868 97.7434 317.213 97.8355 317.582 97.9506C317.996 98.0888 318.307 98.2384 318.745 98.1233C318.975 98.0542 319.147 97.7434 319.113 97.5132C319.021 96.9721 318.549 96.6728 318.065 96.4887C317.536 96.293 317.075 96.2699 316.534 96.4541C316.016 96.6268 316.051 97.3866 316.511 97.5938V97.5823Z" fill="#263238"/>
<path d="M326.181 103.327C325.87 103.096 325.628 102.82 325.352 102.555C325.041 102.256 324.754 102.049 324.65 101.611C324.592 101.37 324.788 101.07 325.018 101.001C325.548 100.829 326.02 101.093 326.411 101.439C326.837 101.807 327.079 102.21 327.171 102.774C327.263 103.315 326.584 103.637 326.181 103.327Z" fill="#263238"/>
<path d="M321.887 105.445C321.887 105.445 321.933 105.537 321.91 105.571C321.289 106.492 320.725 107.666 321.381 108.518C321.404 108.541 321.369 108.587 321.335 108.564C320.379 107.758 321.139 106.216 321.887 105.445Z" fill="#263238"/>
<path d="M323.349 104.996C324.938 105.836 323.142 108.967 321.668 108.184C320.218 107.413 322.014 104.294 323.349 104.996Z" fill="#263238"/>
<path d="M323.867 105.514C324.04 105.848 324.12 106.32 324.431 106.538C324.788 106.792 325.272 106.63 325.698 106.458C325.744 106.435 325.755 106.481 325.732 106.527C325.398 107.125 324.811 107.609 324.12 107.333C323.487 107.079 323.372 106.308 323.568 105.617C323.602 105.491 323.798 105.376 323.867 105.514Z" fill="#263238"/>
<path d="M316.626 102.141C316.626 102.141 316.523 102.141 316.5 102.187C315.982 103.177 315.222 104.224 314.151 104.052C314.117 104.052 314.094 104.098 314.128 104.109C315.291 104.57 316.281 103.165 316.615 102.152L316.626 102.141Z" fill="#263238"/>
<path d="M316.327 100.633C314.831 99.6313 312.931 102.693 314.313 103.626C315.671 104.547 317.582 101.473 316.327 100.633Z" fill="#263238"/>
<path d="M315.567 100.437C315.222 100.449 314.808 100.598 314.497 100.437C314.151 100.253 314.105 99.7695 314.082 99.3205C314.082 99.2745 314.036 99.286 314.013 99.3205C313.633 99.8961 313.449 100.633 313.944 101.093C314.393 101.519 315.084 101.243 315.579 100.748C315.671 100.656 315.694 100.437 315.556 100.449L315.567 100.437Z" fill="#263238"/>
<path d="M317.409 113.457C317.052 113.56 316.649 113.768 316.27 113.606C315.913 113.457 315.59 113.088 315.337 112.801C315.314 112.778 315.268 112.789 315.268 112.824C315.326 113.342 315.752 113.86 316.247 114.009C316.742 114.159 317.156 113.894 317.478 113.537C317.524 113.491 317.455 113.422 317.409 113.445V113.457Z" fill="#263238"/>
<path d="M314.623 109.681C314.623 109.681 314.681 110.97 315.337 111.88C315.579 112.214 315.89 112.49 316.327 112.639C317.202 112.95 317.685 112.283 317.95 111.603C318.169 111.051 318.227 110.487 318.227 110.487C318.227 110.487 316.442 110.763 314.635 109.692L314.623 109.681Z" fill="#263238"/>
<path d="M315.337 111.88C315.579 112.214 315.89 112.49 316.327 112.64C317.202 112.95 317.685 112.283 317.95 111.603C317.098 111.143 315.936 111.143 315.337 111.88Z" fill="#FF9BBC"/>
<path d="M315.452 107.597C315.452 107.597 314.405 108.91 314.002 109.589C313.967 109.658 314.105 109.785 314.336 109.934C314.336 109.934 314.347 109.957 314.359 109.946C315.441 110.844 316.891 111.143 318.192 110.59C318.273 110.556 318.238 110.429 318.146 110.441C316.868 110.567 315.775 110.153 314.704 109.543C314.762 109.324 316.58 107.344 316.477 107.275C316.12 107.022 315.245 106.849 314.738 106.711C316.845 103.902 319.378 101.45 321.438 98.6299C321.507 98.5263 321.381 98.3996 321.289 98.4802C318.445 100.863 315.947 104.04 313.702 106.884C313.415 107.241 315.118 107.551 315.452 107.597Z" fill="#263238"/>
<path d="M336.392 115.966C334.849 114.965 333.169 108.23 337.382 100.437C337.382 100.437 334.078 107.701 334.02 109.002C333.974 110.314 333.088 105.214 336.403 98.8831C336.403 98.8831 331.557 99.4241 328.149 98.5953C324.742 97.7664 322.958 96.7189 322.877 96.3851C322.785 96.0512 327.885 97.1333 329.807 96.4426C329.807 96.4426 319.942 95.6713 316.177 93.9101C315.74 93.7029 320.011 86.3354 327.631 85.8404C335.252 85.3454 341.94 92.7589 343.022 96.3851C343.022 96.3851 345.152 97.9276 345.567 103.787C346.015 110.084 338.049 117.025 336.38 115.955L336.392 115.966Z" fill="#263238"/>
<path d="M333.779 120.709C333.491 120.675 333.238 120.617 333.007 120.536C332.731 120.456 332.501 120.341 332.305 120.203C331.994 120.007 331.764 119.754 331.603 119.5C331.453 119.27 331.338 119.017 331.269 118.787C331.085 118.188 331.131 117.682 331.131 117.682L333.94 114.194C333.94 114.194 339.465 111.281 340.95 113.468C342.435 115.667 336.657 121.043 333.767 120.698L333.779 120.709Z" fill="#AD6359"/>
<path d="M339.27 114.976C339.27 114.976 339.293 115.057 339.247 115.045C337.186 114.861 335.482 115.978 334.02 117.29C334.849 116.922 335.713 116.933 336.254 117.969C336.277 118.027 336.208 118.073 336.162 118.038C335.54 117.532 334.976 117.394 334.216 117.705C333.675 117.923 333.192 118.315 332.72 118.648C332.558 118.764 332.328 118.533 332.478 118.395C332.478 118.395 332.501 118.372 332.512 118.361C333.583 116.174 336.829 113.998 339.27 114.976Z" fill="#263238"/>
<path d="M333.894 119.995C333.629 120.318 333.157 120.375 332.823 120.111C332.501 119.846 332.443 119.374 332.708 119.04C332.973 118.718 333.445 118.66 333.779 118.925C334.101 119.19 334.159 119.662 333.894 119.995Z" fill="white"/>
<path d="M335.805 119.685C335.621 119.915 335.287 119.949 335.045 119.765C334.815 119.581 334.78 119.247 334.964 119.005C335.149 118.775 335.482 118.741 335.724 118.925C335.954 119.109 335.989 119.443 335.805 119.685Z" fill="white"/>
<path d="M353.889 87.2219C353.889 87.2219 363.847 90.9516 366.426 95.349C369.004 99.7465 361.925 105.825 363.076 109.681C364.227 113.537 370.098 114.642 372.803 112.651" stroke="#263238" stroke-width="0.75" stroke-miterlimit="10"/>
<path d="M372.55 112.628C372.55 112.628 372.515 111.247 373.286 109.888C374.058 108.53 376.74 106.251 376.74 106.251" stroke="#2E5ED4" stroke-width="0.75" stroke-miterlimit="10"/>
<path d="M372.953 112.904C372.953 112.904 374.702 113.181 375.877 113.054C377.051 112.927 380.216 110.464 380.216 110.464" stroke="#2E5ED4" stroke-width="0.75" stroke-miterlimit="10"/>
<path d="M372.699 112.755C372.699 112.755 374.323 110.095 375.082 109.439C375.842 108.783 378.57 106.458 378.57 106.458" stroke="#2E5ED4" stroke-width="0.75" stroke-miterlimit="10"/>
<path d="M372.826 112.858C372.826 112.858 376.314 111.442 377.005 110.821C377.695 110.211 379.963 108.714 379.963 108.714" stroke="#2E5ED4" stroke-width="0.75" stroke-miterlimit="10"/>
<path d="M336.553 94.1979L312.494 70.5646L347.155 75.7563L368.406 102.578L336.553 94.1979Z" fill="#2E5ED4"/>
<path opacity="0.1" d="M336.553 94.1979L312.494 70.5646L347.155 75.7563L368.406 102.578L336.553 94.1979Z" fill="black"/>
<path d="M320.552 88.3615L324.477 79.2788C324.477 79.2788 335.413 80.2688 342.125 84.1367C348.836 88.0046 355.11 96.0282 355.11 96.0282L349.273 104.892C349.273 104.892 340.628 97.4096 335.137 94.405C329.658 91.4005 320.552 88.3615 320.552 88.3615Z" fill="#2E5ED4"/>
<path d="M133.189 404.85C133.189 404.85 133.189 451.023 133.189 451.057C133.143 459.887 133.258 467.634 133.696 471.629C133.696 471.652 133.696 471.675 133.696 471.698C133.857 473.206 134.064 474.173 134.329 474.426C134.352 474.449 134.363 474.472 134.375 474.483C136.988 476.279 207.554 478.697 210.041 477.948C212.539 477.212 210.605 470.051 207.945 467.772C205.263 465.493 178.671 452.485 178.671 452.485L178.223 406.335L133.166 404.85H133.189Z" fill="#EB9481"/>
<path d="M133.189 441.583C133.189 441.583 133.189 451.034 133.189 451.057C133.143 459.887 133.258 467.634 133.696 471.629C133.696 471.652 133.696 471.675 133.696 471.698C133.949 473.194 134.168 474.173 134.329 474.426C134.352 474.449 134.363 474.472 134.375 474.483C136.988 476.279 207.554 478.697 210.041 477.948C212.539 477.212 210.605 470.051 207.945 467.772C205.263 465.493 178.671 452.485 178.671 452.485L178.798 442.861L133.166 441.572L133.189 441.583Z" fill="white"/>
<path d="M210.064 477.948C207.566 478.697 137.023 476.279 134.398 474.483C133.385 473.816 133.143 463.513 133.201 451.057C133.201 450.931 133.201 450.793 133.201 450.666L178.729 451.713L178.683 452.485C178.683 452.485 205.275 465.493 207.957 467.772C210.616 470.051 212.55 477.212 210.052 477.948H210.064Z" fill="#A6A6A6"/>
<path d="M209.361 475.186C197.481 474.483 149.49 472.791 137.69 472.998C137.598 472.998 137.587 473.067 137.69 473.079C149.455 474.034 197.458 475.335 209.361 475.381C209.615 475.381 209.615 475.197 209.361 475.186Z" fill="#263238"/>
<path d="M182.516 452.761C177.866 451.725 172.121 452.254 168.426 455.466C168.288 455.593 168.461 455.789 168.61 455.754C173.273 454.453 177.624 453.67 182.47 453.36C182.816 453.337 182.839 452.842 182.505 452.772L182.516 452.761Z" fill="#263238"/>
<path d="M185.82 454.914C181.169 453.878 175.425 454.407 171.73 457.619C171.592 457.746 171.765 457.941 171.914 457.907C176.576 456.606 180.928 455.823 185.774 455.512C186.119 455.489 186.142 454.994 185.809 454.925L185.82 454.914Z" fill="#263238"/>
<path d="M189.124 457.066C184.473 456.03 178.729 456.56 175.034 459.771C174.896 459.898 175.068 460.094 175.218 460.059C179.88 458.758 184.232 457.976 189.078 457.665C189.423 457.642 189.446 457.147 189.113 457.078L189.124 457.066Z" fill="#263238"/>
<path d="M130.91 371.662L130.921 372.168L131.934 453.003L181.319 452.024L171.177 205.584H129.471L130.91 371.662Z" fill="#263238"/>
<path d="M179.259 443.782C171.546 443.713 173.768 443.621 166.055 443.644C162.279 443.644 137.483 443.736 133.972 444.369C133.891 444.381 133.891 444.519 133.972 444.53C137.506 445.071 162.29 444.553 166.066 444.473C173.779 444.3 171.557 444.265 179.27 444.012C179.42 444.012 179.408 443.794 179.27 443.782H179.259Z" fill="#37474F"/>
<path d="M140.315 416.373C140.223 408.982 140.096 401.604 139.958 394.213C139.682 379.444 139.417 364.674 139.141 349.905C138.6 320.516 138.162 291.127 137.713 261.738C137.46 245.161 137.471 228.573 137.046 212.008C137.046 211.962 136.976 211.962 136.976 212.008C136.7 226.777 136.873 241.558 136.896 256.327C136.919 271.097 136.976 285.877 137.126 300.647C137.414 330.036 137.817 359.437 138.519 388.814C138.715 397.103 138.91 405.391 139.198 413.679C139.486 421.968 139.67 430.267 140.257 438.533C140.257 438.659 140.453 438.659 140.453 438.533C140.591 431.154 140.407 423.752 140.315 416.373Z" fill="#37474F"/>
<path d="M129.471 206.079L130.565 331.912L164.006 205.584H129.482L129.471 206.079Z" fill="#37474F"/>
<path d="M56.257 381.758C56.257 381.758 32.4396 420.483 32.4165 420.506C28.5486 428.437 25.2909 435.471 23.9555 439.258C23.9555 439.281 23.9325 439.292 23.9325 439.315C23.426 440.743 23.1957 441.698 23.3224 442.055C23.3224 442.09 23.3224 442.113 23.3454 442.124C24.9225 444.876 87.4535 477.649 90.0206 478.052C92.5876 478.478 93.9575 471.18 92.5416 467.968C91.1142 464.745 72.7877 441.503 72.7877 441.503L96.2023 402.605L56.2455 381.734L56.257 381.758Z" fill="#EB9481"/>
<path d="M23.334 442.067C23.334 442.067 23.334 442.113 23.334 442.136C24.9226 444.887 87.4536 477.661 90.0207 478.075C92.5877 478.501 93.9461 471.203 92.5417 467.991C91.1027 464.768 72.7878 441.526 72.7878 441.526L76.9665 434.584C66.7442 429.139 48.1645 419.573 36.6414 413.645C34.1319 417.72 32.4166 420.506 32.4166 420.517C28.5487 428.449 25.2909 435.471 23.9556 439.269C23.9556 439.292 23.9326 439.315 23.9326 439.339C23.4146 440.766 23.1958 441.721 23.3225 442.078L23.334 442.067Z" fill="white"/>
<path d="M90.0322 478.064C87.4651 477.661 24.9341 444.887 23.357 442.124C22.7354 441.088 26.9832 431.695 32.4282 420.506C32.4857 420.39 32.5433 420.275 32.6008 420.16L73.1792 440.846L72.7993 441.526C72.7993 441.526 91.1258 464.768 92.5417 467.991C93.9461 471.191 92.5878 478.489 90.0207 478.064H90.0322Z" fill="#A6A6A6"/>
<path d="M90.5962 475.278C80.1898 469.499 37.689 447.155 26.9601 442.228C26.868 442.193 26.845 442.251 26.9256 442.297C37.1134 448.248 79.7984 470.247 90.5042 475.45C90.7344 475.565 90.815 475.404 90.5962 475.278Z" fill="#263238"/>
<path d="M76.1261 443.425C72.3848 440.478 66.9744 438.452 62.2546 439.753C62.0705 439.799 62.151 440.064 62.3007 440.087C67.0665 440.939 71.3258 442.113 75.8268 443.943C76.1491 444.07 76.3909 443.644 76.1146 443.425H76.1261Z" fill="#263238"/>
<path d="M78.1752 446.798C74.434 443.851 69.0235 441.825 64.3153 443.126C64.1311 443.172 64.2117 443.436 64.3613 443.46C69.1271 444.311 73.3864 445.486 77.8874 447.316C78.2098 447.443 78.4515 447.017 78.1752 446.798Z" fill="#263238"/>
<path d="M80.2243 450.171C76.483 447.224 71.0725 445.198 66.3528 446.499C66.1686 446.545 66.2492 446.809 66.3988 446.832C71.1646 447.684 75.4239 448.858 79.925 450.689C80.2473 450.815 80.489 450.39 80.2128 450.171H80.2243Z" fill="#263238"/>
<path d="M165.548 205.538C165.548 205.538 165.548 205.538 165.548 205.584C165.364 206.447 162.452 219.974 159.424 231.6C157.225 240.096 154.969 247.555 153.668 248.327C152.195 249.19 145.035 252.367 142.64 253.369C142.64 253.369 126.535 333.777 118.028 358.711C110.177 381.723 77.7148 443.218 77.7148 443.218L30.6093 419.412C30.6093 419.412 67.4004 356.996 71.2683 345.795C77.2658 328.436 99.7364 243.664 99.7364 243.664C99.7364 243.664 99.5638 217.13 108.508 205.538H165.583H165.548Z" fill="#263238"/>
<path d="M77.001 434.032C70.2667 430.267 72.2582 431.257 65.4779 427.574C62.1626 425.766 40.3711 413.944 36.9867 412.804C36.9176 412.781 36.8486 412.896 36.9176 412.942C39.761 415.118 61.7482 426.561 65.098 428.299C71.9359 431.856 70.0135 430.762 76.8974 434.239C77.024 434.308 77.1276 434.112 77.001 434.043V434.032Z" fill="#37474F"/>
<path d="M111.801 236.286C113.09 235.952 114.471 235.848 115.784 235.641C116.843 235.468 117.902 235.284 118.961 235.054C120.941 234.616 122.944 233.96 124.555 232.694C126.374 231.278 127.307 229.125 128.182 227.053C128.7 225.821 129.241 224.601 129.793 223.393C130.058 222.805 130.323 222.218 130.599 221.631C130.921 220.941 131.359 220.227 131.589 219.513C131.624 219.41 131.796 219.467 131.75 219.559C131.543 220.043 131.451 220.584 131.301 221.09C131.117 221.677 130.956 222.276 130.772 222.863C130.449 223.922 130.127 224.981 129.782 226.029C129.16 227.905 128.596 229.885 127.537 231.577C125.591 234.674 122.115 235.917 118.638 236.366C117.637 236.493 116.635 236.562 115.634 236.619C114.391 236.688 113.067 236.804 111.835 236.642C111.651 236.619 111.593 236.343 111.801 236.297V236.286Z" fill="#37474F"/>
<path d="M157.467 246.427C152.356 248.188 147.417 250.686 142.698 253.3C142.514 253.403 142.64 253.691 142.836 253.599C147.809 251.458 152.885 249.42 157.732 247.014C158.112 246.83 157.858 246.289 157.467 246.416V246.427Z" fill="#37474F"/>
<path d="M158.964 212.353C158.952 212.18 158.653 212.146 158.653 212.33C158.699 218.235 158.319 223.427 157.824 228.953C157.594 231.52 155.533 245.679 151.09 244.643C150.341 244.47 149.962 243.733 149.846 242.617C149.708 241.27 150.215 239.612 150.433 238.277C150.928 235.318 151.32 232.337 151.573 229.344C152.045 223.749 152.068 218.166 151.389 212.595C151.366 212.41 151.101 212.422 151.101 212.606C151.101 220.342 150.905 228.066 149.743 235.733C149.19 239.417 147.337 244.965 151.182 245.529C155.107 246.105 157.64 236.815 158.123 234.282C159.459 227.191 159.516 219.536 158.952 212.364L158.964 212.353Z" fill="#37474F"/>
<path d="M151.205 245.023C150.802 245.978 150.48 246.968 150.203 247.958C149.985 248.729 149.697 249.57 149.789 250.376C149.8 250.537 150.008 250.548 150.1 250.445C150.618 249.789 150.836 248.879 151.136 248.096C151.47 247.187 151.826 246.289 152.137 245.368C152.344 244.758 151.447 244.447 151.205 245.034V245.023Z" fill="#37474F"/>
<path d="M43.3066 411.596C50.0178 398.967 56.9248 386.466 63.8663 373.964C67.2852 367.805 70.8538 361.716 74.1231 355.465C77.3463 349.295 79.5336 342.814 81.5826 336.183C85.7268 322.703 89.6638 309.154 93.3705 295.536C97.0772 281.929 100.542 268.253 103.823 254.531C104.64 251.101 105.538 247.67 106.194 244.205C106.885 240.602 106.678 237.241 106.183 233.626C105.734 230.334 105.596 227.088 106.102 223.784C106.597 220.515 107.415 217.314 108.405 214.16C108.923 212.503 109.487 210.856 110.062 209.21C110.131 209.026 110.408 209.107 110.35 209.302C108.324 215.944 106.24 222.667 106.678 229.701C106.885 233.085 107.783 236.412 107.725 239.808C107.668 243.192 106.781 246.519 106.01 249.8C102.81 263.602 99.3565 277.359 95.6843 291.046C92.0236 304.733 88.1327 318.375 84.0231 331.935C82.0201 338.531 80.1552 345.231 77.3118 351.528C74.4685 357.836 70.8653 363.799 67.4809 369.82C60.4819 382.264 53.4253 394.685 46.2075 407.014C45.2981 408.58 44.3656 410.134 43.4447 411.688C43.3871 411.791 43.2375 411.688 43.2951 411.596H43.3066Z" fill="#37474F"/>
<path d="M139.129 152.619C147.636 156.43 185.106 163.36 196.399 154.392C207.911 145.263 215.382 107.218 216.245 102.693C217.143 97.9967 187.812 91.1358 186.81 95.2685C184.255 105.802 179.846 133.406 175.517 134.868C166.423 137.953 157.605 138.506 142.94 141.349C132.717 143.329 129.736 148.394 139.129 152.596V152.619Z" fill="#EB9481"/>
<path d="M215.75 103.637C217.512 100.46 224.511 85.0232 225.455 80.3495C226.399 75.6758 228.137 62.0115 224.626 60.9294C221.115 59.8473 220.286 63.8073 220.286 63.8073C220.286 63.8073 220.102 57.9249 216.476 57.1536C212.849 56.3824 211.756 62.5871 211.756 62.5871C211.756 62.5871 211.134 56.555 207.45 56.0485C203.778 55.542 203.721 61.954 203.721 61.954C203.721 61.954 203.41 56.4169 200.198 57.2687C196.342 58.2933 198.08 68.4465 196.653 73.5231C196.33 74.6743 188.41 96.4657 188.41 96.4657L215.739 103.637H215.75Z" fill="#EB9481"/>
<path d="M203.744 61.4013C204.999 68.8609 204.262 72.3489 201.384 79.2213C201.326 79.3594 201.51 79.4746 201.591 79.3364C205.022 72.8669 206.576 68.6306 204.101 61.3208C203.974 60.9639 203.686 61.0445 203.744 61.4013Z" fill="#263238"/>
<path d="M211.652 61.9884C212.285 69.8508 211.514 73.6382 209.028 81.0631C208.993 81.1667 209.166 81.2358 209.212 81.1322C212.251 74.0526 213.713 69.7933 212.055 62.023C211.986 61.6661 211.629 61.6316 211.652 61.9884Z" fill="#263238"/>
<path d="M220.148 64.1757C220.205 71.8309 219.538 76.0211 216.211 82.9165C216.13 83.0777 216.36 83.2043 216.453 83.0547C220.539 76.3549 221.403 71.1402 220.378 64.1987C220.309 63.7267 220.136 63.6922 220.148 64.1757Z" fill="#263238"/>
<path d="M186.511 100.817C186.511 100.817 183.23 91.9187 182.655 87.6939C182.079 83.4692 185.717 66.927 189.343 67.5026C194.016 68.2623 193.786 78.2199 193.049 83.0893C193.049 83.0893 203.859 84.8275 205.24 92.0108C206.633 99.194 186.511 100.817 186.511 100.817Z" fill="#EB9481"/>
<path d="M190.551 68.1357C194.316 71.9 192.923 78.2199 192.555 82.9972C192.531 83.3655 192.808 83.5152 193.096 83.4807C197.574 84.5052 203.594 87.268 205.413 91.769C205.471 91.8956 205.655 91.8381 205.62 91.6999C204.331 86.6118 198.633 83.4116 193.66 82.6058C194.12 77.7133 195.237 71.3129 190.598 68.1012C190.575 68.0781 190.54 68.1127 190.563 68.1357H190.551Z" fill="#263238"/>
<path d="M184.991 102.279C184.991 102.279 178.499 132.094 175.92 133.441C171.638 135.674 146.796 139.91 137.955 141.89C129.114 143.87 122.207 153.471 144.804 156.982C167.402 160.493 188.042 165.961 198.886 161.046C205.643 157.984 226.802 127.11 226.802 127.11L184.98 102.291L184.991 102.279Z" fill="#2E5ED4"/>
<path d="M184.197 112.824C200.774 121.837 216.798 132.67 219.745 134.454C219.883 134.535 219.687 134.73 219.549 134.65C216.798 132.969 196.837 121.699 183.99 113.042C183.84 112.939 184.047 112.743 184.209 112.824H184.197Z" fill="#263238"/>
<path opacity="0.1" d="M194.155 162.462C182.62 164.568 164.455 160.033 144.804 156.982C130.979 154.83 128.205 150.409 130.139 146.84L194.155 162.462Z" fill="black"/>
<path d="M99.5062 224.705C99.7019 224.855 172.973 219.743 173.491 218.903C173.756 218.454 172.789 208.474 169.036 196.548C162.774 176.656 149.444 149.833 140.557 141.568C136.999 138.264 127.111 139.68 123.22 144.009C111.662 156.833 98.804 224.141 99.5062 224.705Z" fill="#EBEBEB"/>
<path d="M121.655 144.504C121.655 144.504 127.71 155.451 129.598 158.295C134.018 164.971 144.528 174.457 144.528 174.457C144.528 174.457 145.979 162.542 145.115 152.884C144.873 150.19 141.604 142.086 141.604 142.086C141.604 142.086 161.577 163.141 172.167 205.538C182.758 247.935 197.677 370.649 197.677 370.649C197.677 370.649 171.684 391.635 144.54 391.554C100.6 391.427 55.06 362.027 55.06 362.027C55.06 362.027 70.1632 337.07 71.2453 333.823C72.3274 330.577 94.775 243.595 95.0167 242.882C95.2585 242.156 110.742 157.339 121.655 144.504Z" fill="#2E5ED4"/>
<path opacity="0.1" d="M152.16 352.219C151.067 357.664 144.413 378.534 140.246 391.462C131.819 391.082 123.393 389.701 115.3 387.732C123.232 377.89 137.46 355.868 139.613 350.308C142.134 343.792 144.413 312.676 148.051 309.672C151.7 306.667 153.772 344.184 152.16 352.219Z" fill="black"/>
<path opacity="0.1" d="M143.032 288.226C143.02 288.007 142.663 287.95 142.629 288.18C142.41 290.01 142.352 291.863 142.168 293.694C141.984 295.536 141.65 297.366 141.397 299.208C140.902 302.938 140.338 306.667 139.808 310.397C138.749 317.788 137.333 325.144 135.779 332.442C134.904 336.563 133.788 340.673 132.556 344.702C132.521 344.817 132.694 344.851 132.729 344.748C135.434 337.657 137.771 330.485 139.716 323.152C140.672 319.549 141.259 315.842 141.834 312.158C142.41 308.452 142.79 304.756 142.974 301.015C143.078 298.932 143.032 296.848 143.032 294.764C143.032 292.589 143.17 290.39 143.02 288.226H143.032Z" fill="black"/>
<path opacity="0.1" d="M188.318 372.686C188.272 374.217 188.169 375.737 188.053 377.268C187.581 377.556 187.086 377.855 186.591 378.154C186.591 378.039 186.58 377.913 186.58 377.798C186.476 375.541 186.419 373.297 186.35 371.04C186.096 363.143 185.82 355.258 185.106 347.384C184.922 345.415 184.865 343.447 184.681 341.479C184.485 339.499 184.266 337.449 184.324 335.458C184.381 333.524 184.001 331.498 183.76 329.587C183.518 327.584 183.219 325.593 182.965 323.601C182.954 323.497 183.115 323.474 183.138 323.566C183.645 325.765 184.047 327.975 184.473 330.186C184.681 331.291 184.865 332.396 185.083 333.501C185.291 334.595 185.625 335.665 185.832 336.759C187.328 344.644 187.984 352.679 188.249 360.691C188.387 364.686 188.445 368.68 188.318 372.686Z" fill="black"/>
<path opacity="0.1" d="M180.133 333.386C180.041 330.473 179.949 327.561 179.777 324.66C179.604 321.805 179.362 318.927 179.051 316.084C178.741 313.171 178.223 310.282 177.969 307.37C177.681 304.077 177.371 300.796 177.129 297.504C177.117 297.343 176.864 297.343 176.876 297.504C177.025 300.417 177.14 303.329 177.279 306.23C177.417 309.142 177.325 312.055 177.44 314.967C177.67 320.758 178.223 326.513 178.936 332.258C179.351 335.538 179.949 338.808 180.249 342.1C180.249 342.215 180.433 342.215 180.433 342.1C180.191 339.199 180.226 336.275 180.133 333.374V333.386Z" fill="black"/>
<path opacity="0.1" d="M132.441 353.197C130.53 356.697 128.527 360.139 126.501 363.581C124.694 366.631 122.921 369.705 120.826 372.571C118.777 375.369 116.624 378.062 114.402 380.722C112.837 382.586 111.26 384.451 109.613 386.236C109.118 386.097 108.635 385.959 108.163 385.821L109.613 384.06C113.666 379.179 117.384 374.045 121.229 369.003C123.197 366.424 125.223 363.903 127.065 361.221C128.872 358.562 130.634 355.868 132.314 353.128C132.36 353.059 132.475 353.117 132.441 353.197Z" fill="black"/>
<path opacity="0.1" d="M123.922 302.604C121.252 310.858 118.546 319.1 115.335 327.158C113.758 331.13 111.87 334.94 110.108 338.819C108.359 342.699 106.632 346.59 104.594 350.331C102.292 354.567 99.748 358.654 96.9507 362.579C96.8931 362.66 97.0313 362.763 97.0888 362.683C102.614 356.167 107.15 348.777 110.914 341.11C112.825 337.219 114.184 333.098 115.646 329.023C117.108 324.959 118.443 320.838 119.755 316.717C121.24 312.043 122.645 307.335 124.061 302.638C124.084 302.546 123.945 302.512 123.911 302.604H123.922Z" fill="black"/>
<path opacity="0.1" d="M173.307 215.288C172.398 216.221 171.385 217.015 170.429 217.902C169.98 218.316 169.531 218.73 169.082 219.133C168.576 219.594 168.035 219.939 167.505 220.365C165.583 221.919 163.603 223.404 161.657 224.924C157.766 227.963 153.576 230.576 149.087 232.337C139.06 236.263 128.067 235.342 117.833 232.947C111.824 231.531 105.964 229.54 100.047 227.698C99.9667 227.675 99.8976 227.825 99.9897 227.859C105.147 230.115 110.408 232.13 115.726 233.857C121.021 235.572 126.42 236.873 131.946 237.195C137.356 237.517 142.847 236.884 148.039 235.123C152.724 233.523 157.145 231.025 161.22 228.032C163.522 226.34 165.686 224.452 167.655 222.287C168.656 221.182 169.623 220.054 170.636 218.949C171.638 217.844 172.524 216.635 173.514 215.519C173.652 215.369 173.445 215.15 173.307 215.3V215.288Z" fill="black"/>
<path d="M110.212 157.04C89.1573 146.587 65.3398 131.415 64.062 119.109C62.9109 107.977 70.2783 89.0752 78.1522 68.481C79.7178 64.3944 110.88 78.2313 108.773 82.41C104.629 90.6638 93.0482 108.599 92.864 113.94C92.7834 116.231 111.685 135.502 122.299 148.705C135.181 164.729 118.592 161.207 110.2 157.04H110.212Z" fill="#EB9481"/>
<path d="M84.6447 50.5344C80.8689 56.4859 76.011 74.49 76.7017 78.427C77.3924 82.364 103.063 88.2579 106.24 85.6563C109.418 83.0546 120.572 62.023 119.79 54.8743C118.995 47.7256 88.5587 44.3642 84.6447 50.5344Z" fill="#EB9481"/>
<path d="M137.184 45.5959C137.184 45.5959 146.37 54.2296 139.82 65.6837C139.82 65.6837 106.356 67.2032 104.33 67.5831C102.304 67.963 65.1787 78.2543 65.1787 78.2543C65.1787 78.2543 58.9509 69.9775 63.4174 56.7277C63.4174 56.7277 101.866 57.6601 102.983 57.4068C104.099 57.1421 137.172 45.6075 137.172 45.6075L137.184 45.5959Z" fill="#EBEBEB"/>
<path d="M65.1787 78.2543C65.1787 78.2543 71.7518 65.7643 63.4174 56.7277C63.4174 56.7277 58.076 66.524 65.1787 78.2543Z" fill="#DBDBDB"/>
<path d="M104.341 67.5831C104.56 67.8364 104.663 67.5831 104.71 67.3529C104.756 67.1227 104.79 66.8924 104.813 66.6392C104.859 66.1557 104.859 65.6722 104.859 65.1887C104.859 64.2217 104.802 63.2548 104.686 62.2993C104.583 61.3323 104.445 60.3654 104.261 59.4214C104.157 58.9494 104.053 58.4775 103.892 58.0515C103.731 57.6601 103.512 57.0845 103.006 57.3954C103.075 57.2918 103.167 57.1766 103.317 57.1306C103.466 57.0845 103.639 57.1306 103.766 57.1997C104.03 57.3378 104.226 57.5565 104.387 57.7637C104.71 58.2012 104.94 58.6731 105.124 59.1681C105.504 60.1466 105.7 61.1481 105.826 62.1727C105.93 63.2087 105.918 64.2448 105.746 65.2693C105.665 65.7758 105.538 66.2823 105.354 66.7773C105.251 67.0191 105.147 67.2608 104.997 67.491C104.917 67.6061 104.836 67.7213 104.675 67.7903C104.583 67.8364 104.502 67.8134 104.433 67.7558C104.387 67.6982 104.364 67.6292 104.341 67.5831Z" fill="#2E5ED4"/>
<path d="M103.823 67.6983C104.065 67.9515 104.145 67.6753 104.18 67.445C104.214 67.2148 104.226 66.9731 104.226 66.7198C104.226 66.2363 104.203 65.7413 104.168 65.2578C104.088 64.2793 103.973 63.3124 103.789 62.3569C103.616 61.3899 103.409 60.423 103.167 59.479C103.04 59.007 102.902 58.535 102.718 58.0976C102.626 57.8789 102.522 57.6602 102.384 57.499C102.258 57.3263 102.039 57.2573 101.82 57.4414C101.878 57.3263 101.97 57.2112 102.119 57.1652C102.281 57.1191 102.442 57.1767 102.568 57.2457C102.833 57.3839 103.017 57.6026 103.19 57.7983C103.524 58.2242 103.789 58.6847 103.996 59.1682C104.433 60.1237 104.698 61.1252 104.905 62.1382C105.089 63.1627 105.147 64.2103 105.055 65.2578C105.009 65.7758 104.917 66.2939 104.767 66.8004C104.686 67.0536 104.594 67.3069 104.456 67.5486C104.387 67.6637 104.307 67.7904 104.157 67.8825C103.961 67.9861 103.823 67.7904 103.8 67.6868L103.823 67.6983Z" fill="#2E5ED4"/>
<path d="M103.42 67.8019C103.42 67.8019 103.512 67.894 103.558 67.9055C103.616 67.9055 103.558 67.9055 103.581 67.8479C103.581 67.7558 103.57 67.6292 103.547 67.5141C103.501 67.2838 103.455 67.0421 103.386 66.8004L103.04 65.3729C102.81 64.4175 102.614 63.462 102.407 62.5065C102.223 61.5396 102.05 60.5841 101.901 59.6171C101.82 59.1336 101.751 58.6617 101.636 58.1897C101.59 57.9594 101.532 57.7292 101.44 57.522C101.371 57.3148 101.198 57.1997 100.968 57.3954C101.014 57.2918 101.095 57.1536 101.279 57.1306C101.452 57.1306 101.59 57.2342 101.693 57.3263C101.889 57.522 102.027 57.7522 102.154 57.9825C102.396 58.4429 102.591 58.9149 102.753 59.3869C103.086 60.3308 103.317 61.2978 103.524 62.2763C103.708 63.2548 103.858 64.2333 103.915 65.2348C103.95 65.7298 103.95 66.2363 103.927 66.7428C103.904 66.9961 103.892 67.2493 103.835 67.5026C103.812 67.6292 103.789 67.7558 103.72 67.894C103.697 67.9285 103.673 67.963 103.627 67.9976C103.558 68.0321 103.501 67.9976 103.478 67.963C103.42 67.9055 103.409 67.8479 103.386 67.7904L103.42 67.8019Z" fill="#2E5ED4"/>
<path d="M118.8 66.1211C115.461 67.7903 115.415 62.8864 115.415 62.8864C115.415 62.8864 113.781 69.943 109.671 70.3229C105.711 70.6797 105.861 64.7628 105.861 64.3483C105.769 64.7167 104.099 71.1632 99.9322 71.1287C95.6038 71.0826 96.7665 65.1772 96.8471 64.7858C96.6514 65.1081 94.0037 69.3674 90.838 68.6191C85.4046 67.3298 91.8856 56.2442 90.5617 51.9273C90.5617 51.9273 84.5872 50.9719 84.357 50.9719C84.357 50.9719 88.7084 42.6835 94.6368 41.21C97.7565 40.4388 99.1033 43.2015 99.1033 43.2015C99.1033 43.2015 100.646 39.5524 103.927 39.4833C105.607 39.4488 107.161 42.1195 107.161 42.1195C107.161 42.1195 108.52 39.2531 111.444 39.3682C113.781 39.4603 114.966 42.1195 114.966 42.1195C114.966 42.1195 117.545 39.9668 119.905 40.8302C124.659 42.5684 125.971 62.5525 118.811 66.1211H118.8Z" fill="#EB9481"/>
<path d="M115.208 42.4993C115.208 42.4302 115.289 42.4072 115.312 42.4763C117.349 48.9458 117.602 56.6816 115.438 63.1511C115.369 63.3583 114.989 63.3353 115.024 63.0935C115.979 56.0024 116.256 49.625 115.208 42.5108V42.4993Z" fill="#263238"/>
<path d="M107.184 42.0158C107.173 41.9352 107.3 41.9237 107.323 41.9928C109.383 48.6695 109.429 57.3838 106.056 64.5555C105.941 64.7973 105.596 64.9009 105.7 64.6131C107.576 59.6746 108.151 48.4163 107.173 42.0158H107.184Z" fill="#263238"/>
<path d="M96.4442 65.2117C99.4027 58.2126 99.8286 50.9718 99.1954 43.4663C99.1954 43.3742 99.3221 43.3626 99.3566 43.4432C100.669 47.0233 100.577 51.8467 100.185 55.5995C99.8056 59.1911 98.758 62.3568 96.6974 65.3037C96.6168 65.4189 96.3866 65.3498 96.4557 65.2001L96.4442 65.2117Z" fill="#263238"/>
<path d="M115.404 62.8864C114.955 64.2102 114.414 65.511 113.735 66.7197C113.055 67.9054 112.215 69.0796 111.087 69.7012C110.534 70.012 109.901 70.1272 109.303 69.989C108.692 69.8394 108.094 69.5631 107.656 69.1372C106.747 68.3083 106.402 66.9269 106.448 65.7067L106.563 62.6446L105.389 65.4765C104.871 66.7082 104.157 67.9515 103.282 68.9415C102.407 69.943 101.268 70.6912 100.059 70.6797C98.804 70.6797 97.7565 70.012 97.4341 68.8148C97.0543 67.6522 97.1464 66.2017 97.4341 64.9354L98.2285 61.3899L96.329 64.4634C95.811 65.2923 95.1664 66.1211 94.4411 66.8003C93.7159 67.4795 92.8756 68.032 92.0007 68.1702C91.1373 68.3083 90.1934 67.963 89.7444 67.2723C89.2609 66.5471 89.1573 65.488 89.1688 64.475C89.2034 62.4144 89.6868 60.3308 90.0667 58.2472C90.2624 57.1996 90.4581 56.1521 90.6078 55.093C90.7344 54.0455 90.884 52.9403 90.5617 51.9043C90.7689 52.9519 90.5157 54.0109 90.32 55.0355C90.0897 56.0715 89.8135 57.0845 89.5372 58.1206C88.9846 60.1696 88.4551 62.2417 88.2824 64.4289C88.2364 65.511 88.2249 66.6967 88.8695 67.8018C89.5372 68.9415 90.9301 69.448 92.1503 69.2638C93.3936 69.0911 94.3951 68.3889 95.2239 67.6522C96.0528 66.8809 96.7435 66.0405 97.3651 65.0851L96.26 64.6131C95.9146 66.1096 95.765 67.6176 96.2139 69.1947C96.4442 69.966 96.9507 70.7488 97.6874 71.2323C98.4241 71.7158 99.253 71.8999 100.082 71.8999C101.797 71.8769 103.201 70.8179 104.168 69.6897C105.158 68.527 105.872 67.2493 106.436 65.8448L105.377 65.6146C105.377 67.1687 105.872 68.7343 107.092 69.7818C107.702 70.2883 108.428 70.5876 109.187 70.7258C109.97 70.8754 110.799 70.6682 111.444 70.2653C112.745 69.4365 113.47 68.1241 114.091 66.8694C114.69 65.5916 115.127 64.2447 115.427 62.8749L115.404 62.8864Z" fill="#263238"/>
<path d="M108.785 82.41C108.785 82.41 133.454 65.4995 122.115 59.099C118.742 57.1996 102.649 53.4008 101.82 56.624C100.761 60.7797 107.184 63.6231 111.501 64.7627C111.501 64.7627 102.304 69.3328 103.57 76.6888C104.364 81.3049 108.785 82.4215 108.785 82.4215V82.41Z" fill="#EB9481"/>
<path d="M123.024 59.6861C121.827 58.7307 120.411 58.1205 118.995 57.5565C117.579 56.9924 116.106 56.5665 114.621 56.2096C111.639 55.5189 108.681 54.9203 105.561 54.7477C104.779 54.7131 103.984 54.7131 103.132 54.9203C102.718 55.0239 102.258 55.1966 101.878 55.5074C101.682 55.6571 101.532 55.8067 101.36 56.0715C101.221 56.3017 101.118 56.5319 101.06 56.7737C100.807 57.7176 101.014 58.6386 101.383 59.4214C101.774 60.1926 102.327 60.8258 102.925 61.3898C104.134 62.4834 105.538 63.2317 106.966 63.8303C108.393 64.4519 109.878 64.8779 111.363 65.2692L111.271 64.2792C110.212 64.8433 109.268 65.4995 108.359 66.2362C107.461 66.973 106.62 67.7903 105.884 68.6882C105.158 69.5976 104.548 70.6106 104.122 71.6812C103.685 72.7518 103.455 73.9029 103.455 75.0426C103.616 73.9145 103.95 72.8324 104.456 71.8309C104.963 70.8293 105.642 69.943 106.39 69.1256C107.138 68.3083 107.979 67.5716 108.877 66.9269C109.775 66.2823 110.742 65.6952 111.709 65.2347L112.94 64.6591L111.616 64.2447C110.189 63.7958 108.762 63.3583 107.426 62.7252C106.091 62.1151 104.779 61.4244 103.754 60.4574C102.753 59.5365 101.958 58.2357 102.258 57.1075C102.442 56.0945 104.088 55.9218 105.504 55.9564C106.977 55.9794 108.462 56.1521 109.959 56.3363C111.455 56.5204 112.94 56.7161 114.425 56.9924C117.349 57.6025 120.354 58.2011 123.001 59.6861H123.024Z" fill="#263238"/>
<path d="M106.713 86.5887C106.713 86.5887 93.5202 111.776 94.5908 114.481C96.3636 118.971 118.569 142.535 123.957 149.81C129.344 157.086 132.706 166.237 112.169 161.944C97.4802 158.87 63.8664 139.151 58.5595 126.407C54.8873 117.612 55.9003 81.8229 55.9003 81.8229L106.724 86.5887H106.713Z" fill="#2E5ED4"/>
<path d="M59.2617 90.9631C78.1177 91.6193 97.296 94.1403 100.727 94.4166C100.888 94.4281 100.807 94.6929 100.646 94.6814C97.4342 94.4051 74.5376 93.2539 59.1696 91.2509C58.997 91.2279 59.0775 90.9516 59.2617 90.9631Z" fill="#263238"/>
<path d="M132.545 137.171C124.532 137.194 112.629 150.49 113.136 154.035C113.873 159.1 121.482 196.237 122.541 206.171C123.6 216.106 103.006 263.718 103.006 263.718L116.555 259.769L121.724 271.833C121.724 271.833 139.854 230.173 141.236 212.249C142.617 194.314 122.84 148.832 123.715 146.115C124.59 143.387 130.081 140.083 132.821 139.98C135.561 139.876 140.937 144.296 144.194 148.97C147.452 153.644 163.315 186.878 166.066 199.023C168.818 211.167 162.774 260.54 162.774 260.54L173.514 252.54L184.439 262.198C184.439 262.198 187.04 214.747 183.173 194.89C180.721 182.25 166.135 159.561 152.517 146.737C144.735 139.415 137.345 137.182 132.533 137.194L132.545 137.171Z" fill="#455A64"/>
<path d="M139.026 153.345C136.079 154.058 128.815 149.707 125.499 145.505C125.269 145.217 125.189 141.775 124.901 137.608C124.717 135.076 124.44 132.267 124.014 129.723L140.649 130.908C140.649 130.908 139.981 136.515 140.764 140.958C140.833 141.326 140.925 141.672 141.052 141.983C141.063 142.029 141.086 142.086 141.109 142.155C141.765 144.089 143.653 152.239 139.037 153.356L139.026 153.345Z" fill="#EB9481"/>
<path d="M141.04 141.971C141.04 141.971 141.086 142.063 141.098 142.144C140.603 142.305 140.073 142.42 139.463 142.512C130.346 143.836 126.248 133.142 125.212 129.803L140.649 130.897C140.649 130.897 139.981 136.503 140.752 140.947C140.833 141.315 140.913 141.649 141.04 141.971Z" fill="#263238"/>
<path d="M135.365 97.3981C135.365 97.3981 141.443 98.3996 143.78 103.776C146.117 109.163 146.22 115.356 145.794 115.759C145.38 116.162 135.365 97.3981 135.365 97.3981Z" fill="#263238"/>
<path d="M116.624 110.59C116.382 116.599 123.531 131.887 128.435 134.431C135.526 138.115 145.046 136.146 147.648 128.1C150.169 120.295 140.499 100.541 135.227 98.4457C127.468 95.3606 116.981 101.726 116.624 110.59Z" fill="#EB9481"/>
<path d="M130.047 113.86C130.461 113.549 130.783 113.192 131.152 112.835C131.578 112.444 131.946 112.168 132.084 111.58C132.153 111.27 131.9 110.867 131.601 110.763C130.898 110.533 130.265 110.89 129.736 111.35C129.16 111.845 128.849 112.375 128.723 113.111C128.596 113.837 129.505 114.263 130.047 113.848V113.86Z" fill="#263238"/>
<path d="M140.326 109.416C139.831 109.543 139.348 109.577 138.841 109.646C138.266 109.727 137.817 109.854 137.276 109.589C136.988 109.451 136.838 109.002 136.942 108.703C137.195 108.012 137.874 107.736 138.554 107.609C139.302 107.471 139.9 107.551 140.568 107.92C141.213 108.277 140.983 109.255 140.326 109.416Z" fill="#263238"/>
<path d="M136.01 125.682C136.366 125.82 136.758 126.051 137.149 125.912C137.529 125.786 137.886 125.44 138.162 125.164C138.185 125.141 138.243 125.164 138.231 125.199C138.128 125.717 137.667 126.212 137.149 126.338C136.643 126.453 136.228 126.154 135.929 125.763C135.883 125.705 135.952 125.648 136.01 125.671V125.682Z" fill="#263238"/>
<path d="M135.756 122.079C136.735 122.735 137.805 122.862 138.807 122.643C139.256 122.551 139.705 122.378 140.108 122.148C140.188 122.114 140.269 122.068 140.338 122.01C140.407 121.964 140.476 121.929 140.557 121.872C140.672 121.803 140.695 121.676 140.66 121.549C140.66 121.549 140.626 121.469 140.603 121.434L140.557 121.331C140.234 120.513 139.624 119.328 139.624 119.328C139.981 119.351 141.765 119.374 141.57 118.971C139.866 115.586 137.978 111.811 135.561 108.806C135.491 108.703 135.319 108.806 135.376 108.91C136.884 112.237 138.968 115.264 140.534 118.579C139.981 118.603 139.049 118.603 138.634 118.787C138.531 118.867 139.843 121.066 139.958 121.446C139.958 121.446 139.958 121.457 139.958 121.492C138.68 122.24 137.483 122.275 135.791 121.929C135.687 121.906 135.63 122.01 135.733 122.068L135.756 122.079Z" fill="#263238"/>
<path d="M139.475 121.952C139.475 121.952 139.175 123.219 138.346 123.99C138.047 124.278 137.679 124.496 137.23 124.554C136.297 124.692 135.952 123.932 135.825 123.219C135.722 122.632 135.768 122.056 135.768 122.056C135.768 122.056 137.471 122.678 139.475 121.952Z" fill="#263238"/>
<path d="M138.346 123.978C138.047 124.266 137.679 124.485 137.23 124.542C136.297 124.681 135.952 123.921 135.825 123.207C136.758 122.919 137.909 123.138 138.358 123.978H138.346Z" fill="#FF9BBC"/>
<path d="M131.301 116.404C131.244 116.128 131.255 115.817 131.37 115.506C131.485 115.195 131.773 114.942 132.084 114.827C132.406 114.7 132.809 114.781 133.074 114.965C133.339 115.149 133.523 115.391 133.661 115.633C133.753 115.794 133.811 115.955 133.88 116.128C134.006 116.484 134.064 116.864 134.018 117.233C133.937 116.968 133.834 116.715 133.707 116.484C133.592 116.266 133.454 116.058 133.316 115.863C133.016 115.471 132.625 115.184 132.268 115.333C131.888 115.46 131.716 115.863 131.727 116.369C131.727 116.864 131.842 117.382 131.957 117.912C131.635 117.474 131.405 116.968 131.313 116.415L131.301 116.404Z" fill="#263238"/>
<path d="M141.397 111.753C141.236 111.523 140.994 111.316 140.695 111.178C140.395 111.039 140.016 111.085 139.716 111.224C139.405 111.373 139.175 111.707 139.129 112.029C139.083 112.352 139.129 112.651 139.21 112.916C139.267 113.089 139.336 113.25 139.417 113.411C139.59 113.745 139.82 114.055 140.119 114.274C139.981 114.032 139.877 113.791 139.797 113.537C139.716 113.296 139.659 113.065 139.624 112.824C139.544 112.329 139.624 111.857 139.97 111.707C140.326 111.523 140.729 111.673 141.086 112.029C141.431 112.375 141.742 112.812 142.042 113.261C141.95 112.732 141.742 112.214 141.408 111.753H141.397Z" fill="#263238"/>
<path d="M121.827 124.048C123.819 123.748 123.324 117.578 122.932 115.299C122.587 113.296 120.48 107.402 120.388 106.987C120.296 106.561 130.323 108.346 134.099 104.984C137.863 101.623 138.922 96.2931 138.105 94.4397C137.287 92.5748 129.644 90.5142 124.82 92.5172C120.008 94.5203 116.486 103.534 116.486 103.534C116.486 103.534 117.418 99.9192 117.246 99.7465C117.073 99.5739 114.609 102.233 115.081 104.662C115.081 104.662 114.391 101.657 114.137 101.715C113.884 101.773 112.629 105.226 113.999 106.734C113.999 106.734 112.399 110.406 113.378 113.111C114.356 115.828 119.479 124.404 121.827 124.059V124.048Z" fill="#263238"/>
<path d="M136.781 102.578C135.745 103.822 134.732 105.134 133.35 106.032C131.865 106.999 130.023 107.39 128.274 107.528C126.489 107.666 124.705 107.482 122.967 107.056C121.447 106.676 119.951 106.055 118.397 105.802C118.005 105.744 117.867 106.32 118.178 106.504C121.217 108.323 125.419 109.048 128.907 108.564C132.568 108.058 135.227 105.917 136.815 102.613C136.815 102.59 136.804 102.567 136.781 102.59V102.578Z" fill="#263238"/>
<path d="M123.496 122.77C123.496 122.77 118.42 118.626 116.44 120.583C114.46 122.54 119.306 129.251 122.345 129.493C125.384 129.734 125.672 126.925 125.672 126.925L123.496 122.77Z" fill="#EB9481"/>
<path d="M117.879 122.482C117.879 122.482 117.844 122.551 117.879 122.562C120.031 122.793 121.551 124.301 122.794 125.947C122.023 125.394 121.125 125.222 120.365 126.177C120.331 126.223 120.4 126.292 120.446 126.269C121.183 125.878 121.793 125.855 122.506 126.327C123.013 126.672 123.427 127.156 123.853 127.605C123.991 127.754 124.279 127.57 124.153 127.386C124.153 127.374 124.13 127.363 124.13 127.351C123.485 124.876 120.595 121.975 117.879 122.482Z" fill="#263238"/>
<path d="M141.19 141.66L137.633 151.629L124.958 139.692L121.655 143.813C121.655 143.813 134.34 163.072 134.386 162.185L138.105 153.575L144.171 159.227L143.124 144.469L141.19 141.672V141.66Z" fill="#EBEBEB"/>
<path d="M144.056 151.894C143.803 149.465 143.619 147.013 143.25 144.596C143.239 144.515 143.101 144.481 143.089 144.584C142.686 146.956 143.711 156.246 143.791 158.479C143.791 158.479 143.768 158.467 143.768 158.456C143.515 158.214 138.162 153.483 138.105 153.563C137.276 154.945 134.548 161.219 134.375 161.783C132.372 158.721 124.694 147.612 122.357 144.734C122.288 144.653 122.161 144.734 122.219 144.826C124.014 148.072 134.168 163.037 134.317 162.991C134.421 163.06 137.817 155.336 138.197 153.886C139.118 154.922 144.54 160.275 144.551 159.918C144.574 157.466 144.332 154.335 144.079 151.906L144.056 151.894Z" fill="#263238"/>
<path d="M171.765 17.9911C171.765 17.9911 164.581 10.5891 159.367 11.5215C154.347 12.431 151.527 19.0847 147.567 19.7754C143.607 20.4661 139.993 15.7118 140.568 12.3964" stroke="#263238" stroke-width="0.75" stroke-miterlimit="10"/>
<path d="M140.718 12.6151C140.718 12.6151 141.973 12.028 142.836 10.7272C143.711 9.43793 144.551 6.01898 144.551 6.01898" stroke="#2E5ED4" stroke-width="0.75" stroke-miterlimit="10"/>
<path d="M140.292 12.3849C140.292 12.3849 139.256 10.9344 138.853 9.82931C138.438 8.7242 139.233 4.78723 139.233 4.78723" stroke="#2E5ED4" stroke-width="0.75" stroke-miterlimit="10"/>
<path d="M140.534 12.5346C140.534 12.5346 142.191 9.88689 142.444 8.93143C142.698 7.96445 143.561 4.47644 143.561 4.47644" stroke="#2E5ED4" stroke-width="0.75" stroke-miterlimit="10"/>
<path d="M140.384 12.477C140.384 12.477 140.096 8.72423 140.338 7.82632C140.58 6.92842 140.902 4.24622 140.902 4.24622" stroke="#2E5ED4" stroke-width="0.75" stroke-miterlimit="10"/>
<path d="M191.346 22.2043L220.01 4.43042L185.049 1.88635L158.423 23.39L191.346 22.2043Z" fill="#2E5ED4"/>
<path opacity="0.1" d="M191.346 22.2043L220.01 4.43042L185.049 1.88635L158.423 23.39L191.346 22.2043Z" fill="black"/>
<path d="M208.245 20.017L206.414 10.3013C206.414 10.3013 195.524 8.87382 188.134 11.1646C180.744 13.4554 172.858 19.9134 172.858 19.9134L176.599 29.8364C176.599 29.8364 186.684 24.4375 192.693 22.7108C198.702 20.984 208.245 20.0286 208.245 20.0286V20.017Z" fill="#2E5ED4"/>
</svg>
