<svg width="190" height="186" viewBox="0 0 190 186" fill="none" xmlns="http://www.w3.org/2000/svg">
<path d="M48.6592 107.24C48.0664 105.361 47.4535 103.492 46.8858 101.609C45.8559 98.1772 44.8511 94.7408 43.8413 91.3095C43.5348 90.2746 43.2937 89.2196 42.942 88.1997C42.3291 86.4464 41.1234 85.3562 39.2494 84.9995C37.4609 84.6579 35.6775 84.266 33.9141 83.8139C31.2062 83.1256 28.4832 82.5177 25.7603 81.8948C24.2481 81.5481 22.746 81.1462 21.2388 80.7895C19.189 80.3072 17.1393 79.85 15.0895 79.3778C12.7183 78.8352 10.342 78.3027 7.9757 77.745C6.26758 77.3431 4.55945 76.9211 2.86138 76.479C2.30373 76.3333 1.81641 76.5343 1.30397 76.6347" stroke="#FF6A1F" stroke-width="1.5" stroke-linecap="round" stroke-linejoin="round"/>
<path d="M60.3647 123.99C59.3448 124.402 58.2999 124.658 57.1795 124.598C56.5465 124.562 55.9537 124.387 55.4111 124.12C54.8836 123.864 54.8083 123.246 54.6676 122.729C53.9894 120.212 53.3363 117.69 52.658 115.173C52.1305 113.208 51.6131 111.244 51.0002 109.305C50.7791 108.612 50.6636 107.933 50.1461 107.386C50.0506 107.28 50.0004 107.099 49.9954 106.949C49.9451 105.301 49.1715 103.844 48.7997 102.281C48.232 99.9303 47.4332 97.6494 46.7751 95.3233C46.1119 92.9872 45.4186 90.6561 44.6952 88.3351C44.3184 87.1243 43.9567 85.994 42.9569 85.16C42.2435 84.5672 41.3392 84.4969 40.5052 84.2909C37.3402 83.5122 34.1852 82.6883 31.0151 81.9347C28.4278 81.3218 25.8304 80.7139 23.2532 80.0809C19.9826 79.277 16.7121 78.4782 13.4516 77.6342C10.3518 76.8304 7.24204 76.0316 4.11717 75.3182C3.61981 75.2026 3.10235 75.0871 2.56479 75.1474C1.7258 75.2378 1.33394 75.5995 1.22341 76.4134C1.18824 76.6897 1.04758 76.956 1.01241 77.2323C0.952121 77.7246 1.12293 78.1718 1.27867 78.649C2.23824 81.5729 3.12747 84.522 4.04182 87.461C5.1521 91.0179 6.25735 94.5798 7.38271 98.1317C7.66404 99.0209 7.80974 99.9453 8.19155 100.799" stroke="#FF6A1F" stroke-width="1.5" stroke-linecap="round" stroke-linejoin="round"/>
<path d="M110.985 10.1531C110.548 10.0928 110.548 9.67081 110.483 9.40957C110.216 8.2591 109.543 7.42513 108.523 6.91772C108.111 6.71174 107.85 6.46557 107.639 6.08375C106.046 3.18497 103.404 1.9089 100.309 1.25077C98.2444 0.808666 96.1544 0.657949 94.0846 0.853881C90.8442 1.16536 87.6038 1.58235 84.8105 3.55171C82.7306 5.01869 81.2134 6.9127 80.1533 9.19857C78.9174 11.8562 77.8323 14.5741 76.8878 17.3473C76.717 17.8547 76.4557 18.322 76.5813 18.9047C76.7421 19.6633 77.4002 19.8894 77.9328 20.221C78.4352 20.5325 79.028 20.6983 79.5505 20.9846C80.1835 21.3363 80.1734 21.6076 79.6359 22.0949C79.3746 22.326 78.9727 22.4215 78.8923 22.8284" stroke="#1E3C70" stroke-width="1.5" stroke-linecap="round" stroke-linejoin="round"/>
<path d="M166.721 82.2656C165.525 84.3505 164.822 86.6113 164.269 88.9323C163.752 91.1027 163.455 93.3031 163.47 95.5287C163.49 98.3974 163.943 101.211 164.706 103.979C165.43 106.596 166.59 109.023 167.731 111.475C168.595 113.323 169.037 115.318 169.022 117.393C169.017 118.036 169.057 118.679 169.092 119.322C169.132 120.005 169.358 120.221 170.052 120.206C171.272 120.181 172.418 119.749 173.609 119.538C174.357 119.407 175.096 119.206 175.834 119.025C176.176 118.94 176.462 119.041 176.723 119.252" stroke="#1E3C70" stroke-width="1.5" stroke-linecap="round" stroke-linejoin="round"/>
<path d="M108.615 66.5508C108.414 68.3594 107.494 69.9067 106.751 71.5094C104.837 75.634 102.566 79.5978 101.209 83.9686C100.441 86.4504 99.8429 88.9724 99.3355 91.5246C98.8833 93.8155 98.5467 96.1214 98.19 98.4224C97.9037 100.256 97.8283 102.125 97.6475 103.979C97.4515 106.003 96.9943 107.958 95.8489 109.671C95.6479 109.967 95.5927 110.289 95.4269 110.575" stroke="#1E3C70" stroke-width="1.5" stroke-linecap="round" stroke-linejoin="round"/>
<path d="M105.429 147.039C105.861 147.587 105.695 148.24 105.63 148.818C105.399 150.822 105.479 152.827 105.6 154.821C105.7 156.484 106.052 158.127 106.147 159.79C106.233 161.242 106.438 162.699 106.318 164.16C106.127 166.416 105.65 168.612 104.926 170.762C104.288 172.651 103.379 174.419 102.746 176.308C102.068 178.323 102.033 180.327 102.379 182.392C102.525 183.266 102.766 184.216 101.877 184.909C101.43 184.738 101.249 184.346 101.058 183.945C100.455 182.663 99.611 181.508 99.1237 180.167C99.0634 179.996 98.8876 179.865 98.762 179.719" stroke="#1E3C70" stroke-width="1.5" stroke-linecap="round" stroke-linejoin="round"/>
<path d="M83.8613 61.959C83.2785 62.0645 83.0725 62.5619 82.8263 62.9989C80.3144 67.4601 77.6015 71.8008 74.9891 76.2017C73.2156 79.1909 71.6231 82.2907 70.1159 85.4356C68.8147 88.1536 67.6793 90.9368 66.4485 93.6799C66.2626 94.0918 66.1068 94.5389 66.2224 95.0112C66.2877 95.2825 66.1772 95.5538 66.0566 95.7447C65.1221 97.2267 64.7654 98.9349 64.1224 100.527C63.4944 102.09 62.7056 103.582 61.4045 104.727C61.1332 104.969 61.103 105.335 61.103 105.687C61.103 107.566 60.8368 109.415 60.4298 111.243C60.1585 112.454 59.5305 113.087 58.2846 112.946C57.32 112.841 56.9282 111.972 56.8076 110.872C56.677 109.666 57.0186 108.5 57.1693 107.315C57.2447 106.727 57.2798 106.129 57.32 105.536C57.3351 105.29 57.2748 105.114 57.0437 104.923C56.7172 104.662 56.5664 104.893 56.3605 105.019C55.3708 105.632 54.4413 106.395 53.3763 106.822C52.467 107.189 51.8942 108.033 50.9497 108.274" stroke="#1E3C70" stroke-width="1.5" stroke-linecap="round" stroke-linejoin="round"/>
<path d="M188.951 118.137C188.951 120.237 188.901 122.337 188.971 124.437C189.017 125.768 188.585 127.004 188.454 128.295C188.338 129.456 188.107 130.576 187.841 131.701C186.565 137.172 183.701 141.397 178.507 143.869C176.854 144.658 175.286 145.627 173.613 146.391C173.392 146.492 173.121 146.647 173.091 146.974" stroke="#1E3C70" stroke-width="1.5" stroke-linecap="round" stroke-linejoin="round"/>
<path d="M123.137 39.8685C126.272 39.8233 129.03 40.9587 131.663 42.5312C135.009 44.5256 138.315 46.5804 141.957 48.0323C144.871 49.1928 147.815 50.1122 151.005 50.0369C152.542 50.0017 154.004 49.5847 155.441 49.1627C156.777 48.7708 157.496 46.6759 157.014 45.2792C156.923 45.013 156.863 44.7366 156.787 44.4654" stroke="#FF6A1F" stroke-width="1.5" stroke-linecap="round" stroke-linejoin="round"/>
<path d="M185.249 83.5967C185.571 83.1747 185.38 82.7226 185.234 82.3407C183.682 78.2312 181.763 74.2975 179.462 70.5547C177.814 67.8769 175.417 66.0633 172.579 64.7621C169.329 63.27 166.028 61.9035 162.722 60.5421C162.245 60.3461 161.783 60.1 161.31 59.8789" stroke="#1E3C70" stroke-width="1.5" stroke-linecap="round" stroke-linejoin="round"/>
<path d="M154.563 30.1633C151.297 29.4247 148.273 27.9226 145.002 27.1941C143.093 26.7671 141.154 26.5159 139.22 26.2396C136.487 25.8477 133.739 25.9281 130.996 25.9482C128.579 25.9683 126.299 26.5159 124.093 27.5508C121.37 28.8269 119.813 30.952 119.245 33.8056C119.034 34.8757 119.245 35.991 119.637 37.0661C120.084 38.312 120.692 39.4826 121.224 40.6833C121.35 40.9646 121.586 41.2058 121.812 41.4268C123.093 42.6979 123.334 44.2151 122.837 45.873C122.4 47.3349 122.134 48.8371 121.817 50.3241C121.601 51.349 122.46 52.4493 123.586 52.6954C124.083 51.8062 124.791 51.4997 125.811 51.7308C126.434 51.8715 127.776 51.1933 127.871 50.6155C127.961 50.083 127.59 49.7464 127.148 49.5053" stroke="#FF6A1F" stroke-width="1.5" stroke-linecap="round" stroke-linejoin="round"/>
<path d="M176.503 84.7832C177.301 85.5318 177.558 86.5818 177.969 87.5313C178.939 89.7719 179.718 92.0879 180.411 94.424C181.335 97.5389 182.2 100.674 182.923 103.839C183.4 105.939 183.878 108.054 184.144 110.204C184.264 111.169 184.41 112.138 184.596 113.093C184.676 113.505 184.636 113.887 184.581 114.284" stroke="#1E3C70" stroke-width="1.5" stroke-linecap="round" stroke-linejoin="round"/>
<path d="M102.983 69.6676C103.094 68.8386 103.792 68.3915 104.264 67.8339C106.716 64.9099 109.504 62.3076 112.247 59.665C113.167 58.7808 114.121 57.9267 114.98 56.9873C116.03 55.8368 118.522 55.6861 119.738 56.8466C121.562 58.5899 122.993 60.6396 124.39 62.7145C124.913 63.4932 125.053 64.4427 125.244 65.3671C125.47 66.4523 125.244 67.3968 124.772 68.3362C124.36 69.1551 124.581 70.1047 124.189 70.9336C123.802 71.7575 123.616 72.6518 123.36 73.5209C122.737 75.636 122.34 77.7912 122.009 79.9666C121.682 82.0866 121.451 84.2218 121.11 86.3369C120.838 88.0349 120.492 89.728 119.984 91.3909C119.296 93.6416 118.422 95.832 117.869 98.1229C117.774 98.5097 117.693 98.8162 117.839 99.2533C118 99.7356 117.955 100.369 117.784 100.861C117.437 101.861 117.442 102.891 117.281 103.905C117.05 105.367 116.764 106.824 116.457 108.276C116.412 108.502 116.292 108.758 115.97 108.904C115.684 109.035 115.503 109.432 115.272 109.668C113.925 111.039 112.599 112.436 111.017 113.571C110.137 114.199 109.665 115.259 109.298 116.284C108.535 118.409 107.786 120.54 107.213 122.73C106.751 124.493 106.304 126.257 106.018 128.065C105.726 129.899 105.425 131.733 104.496 133.416C103.847 134.591 102.833 135.33 101.803 136.063C100.326 137.118 98.6326 137.606 96.8441 137.862C94.92 138.138 92.9858 138.304 91.0666 138.55C89.5344 138.746 87.992 138.857 86.4648 139.088C85.0229 139.309 83.5509 139.339 82.094 139.49C81.6418 139.535 81.1445 139.52 80.7576 139.851" stroke="#1E3C70" stroke-width="1.5" stroke-linecap="round" stroke-linejoin="round"/>
<path d="M25.383 118.729C25.1418 119.467 25.2624 119.728 25.9708 120.291C26.9303 121.05 28.0908 121.396 29.171 121.899C30.5877 122.562 32.0597 123.134 33.2956 124.089C34.3657 124.913 35.5714 124.978 36.7972 125.104C38.1537 125.239 39.5152 125.325 40.8716 125.486C41.9367 125.611 43.0018 125.591 44.0568 125.536C47.0611 125.38 49.995 125.827 52.8737 126.601C55.8177 127.395 58.7064 128.445 61.7007 128.997C63.9916 129.419 66.3428 129.57 68.6638 128.967C69.1913 128.832 69.6334 128.525 70.1459 128.364" stroke="#1E3C70" stroke-width="1.5" stroke-linecap="round" stroke-linejoin="round"/>
<path d="M184.656 83.1562C185.57 83.6888 185.626 84.6835 185.817 85.5325C186.289 87.6124 186.731 89.7124 187.002 91.8275C187.389 94.8067 187.63 97.8009 187.911 100.79C188.173 103.533 188.429 106.271 188.645 109.019C188.74 110.205 189.183 111.365 188.916 112.576" stroke="#1E3C70" stroke-width="1.5" stroke-linecap="round" stroke-linejoin="round"/>
<path d="M45.7652 157.117C45.725 158.207 45.3482 159.237 45.1523 160.302C44.7303 162.563 44.1776 164.799 43.6953 167.049C43.3336 168.737 42.8915 170.41 42.5499 172.098C42.3238 173.234 42.1279 174.399 42.0123 175.57C41.9119 176.61 41.9119 177.655 41.8064 178.69C41.6808 179.931 41.9119 181.207 42.0274 182.468C42.1028 183.307 42.2233 184.146 42.2836 184.985" stroke="#1E3C70" stroke-width="1.5" stroke-linecap="round" stroke-linejoin="round"/>
<path d="M60.6608 124.802C61.3591 125.41 62.1076 124.903 62.806 124.848C63.7304 124.772 64.6347 124.481 65.549 124.285C65.6194 124.27 65.7198 124.315 65.7701 124.28C66.6593 123.632 67.8701 124.27 68.7392 123.541C69.7942 123.878 70.7387 123.22 71.7736 123.18C72.7985 123.145 73.8485 122.843 74.8884 122.642C76.7875 122.27 78.6865 121.929 80.5956 121.602C82.359 121.301 84.0972 120.874 85.8606 120.587C87.5386 120.316 89.1362 119.909 90.5379 118.884C90.8544 118.653 91.0804 118.457 91.0453 118.055C91.0101 117.623 90.7338 117.226 90.3771 117.196C89.6738 117.136 89.1462 116.784 88.5986 116.428C88.0561 116.071 87.413 116.181 86.8252 116.046C84.5695 115.528 82.3288 114.971 80.0781 114.428C77.6315 113.835 75.1899 113.237 72.7382 112.65C68.91 111.73 65.0818 110.821 61.2536 109.902C61.128 109.871 61.0074 109.806 60.8818 109.756" stroke="#FF6A1F" stroke-width="1.5" stroke-linecap="round" stroke-linejoin="round"/>
<path d="M155.231 68.9238C155.085 69.7427 154.422 70.4159 153.603 70.3908C151.056 70.3255 149.117 71.5513 147.379 73.2243C146.083 74.4702 144.807 75.7413 143.525 77.0023C142.978 77.5398 142.35 77.8714 141.621 78.1678C140.803 78.4994 140.28 79.3534 140.049 80.2628C138.652 85.7187 138.481 91.2852 138.672 96.8617C138.753 99.2129 138.833 101.584 139.361 103.91C139.446 104.277 139.501 104.724 139.23 105.091" stroke="#1E3C70" stroke-width="1.5" stroke-linecap="round" stroke-linejoin="round"/>
<path d="M167.977 157.041C169.423 160.417 168.911 163.874 165.158 165.858C162.887 167.059 160.416 167.501 157.899 167.787C155.336 168.079 152.759 168.189 150.192 168.37C149.474 168.42 148.75 168.335 148.042 168.526" stroke="#1E3C70" stroke-width="1.5" stroke-linecap="round" stroke-linejoin="round"/>
<path d="M84.5291 55.1367C84.8456 55.4231 85.2123 55.5838 85.6394 55.6642C86.4281 55.8149 86.6743 56.1817 86.3678 56.9102C85.8755 58.0707 85.3078 59.196 84.7451 60.3214C84.3834 61.0498 83.9965 61.708 84.0317 62.6223C84.0619 63.4714 83.4389 64.2501 83.1274 65.069C81.3891 69.6055 78.8169 73.695 76.2899 77.8045C75.1545 79.6533 74.2502 81.6026 73.4263 83.5971C73.2906 83.9287 73.1952 84.2703 73.361 84.7224C73.5016 85.1042 73.2253 85.6468 73.1098 86.114C72.5923 88.2743 71.9292 90.3944 71.1756 92.4844C70.1457 95.348 69.2715 98.2468 68.6486 101.231C68.0608 104.049 67.7342 106.883 67.7744 109.756C67.7744 110.028 67.8196 110.299 67.8447 110.57" stroke="#1E3C70" stroke-width="1.5" stroke-linecap="round" stroke-linejoin="round"/>
<path d="M168.127 170.606C167.263 170.139 166.343 170.471 165.459 170.481C163.952 170.496 162.445 170.717 160.938 170.742C157.331 170.802 153.723 170.838 150.116 170.817C147.398 170.802 144.68 170.682 141.963 170.606" stroke="#1E3C70" stroke-width="1.5" stroke-linecap="round" stroke-linejoin="round"/>
<path d="M77.4862 156.676C77.5113 158.329 77.652 159.997 77.5314 161.639C77.4008 163.443 77.3355 165.252 77.1597 167.055C77.0491 168.211 76.9085 169.371 76.7979 170.532C76.6422 172.119 76.3759 173.707 76.0695 175.274C75.6022 177.656 74.8185 179.972 74.5422 182.393C74.4468 183.242 74.5724 184.121 74.5975 184.985" stroke="#1E3C70" stroke-width="1.5" stroke-linecap="round" stroke-linejoin="round"/>
<path d="M88.3081 148.225C88.3483 149.697 88.9009 151.048 89.4435 152.364C90.5738 155.092 92.1915 157.584 93.4877 160.232C94.9547 163.226 96.1102 166.346 96.9642 169.571C97.2807 170.762 97.5872 171.963 97.7228 173.198C97.763 173.545 97.969 173.846 98.2353 174.088" stroke="#1E3C70" stroke-width="1.5" stroke-linecap="round" stroke-linejoin="round"/>
<path d="M178.13 118.951C177.708 118.886 177.24 118.876 176.959 119.187C176.271 119.951 175.321 120.192 174.422 120.328C172.618 120.599 171.87 121.719 171.352 123.317C171.011 124.377 170.915 125.472 170.533 126.527C169.921 128.22 168.986 129.617 167.605 130.737C165.289 132.626 162.556 133.832 160.044 135.404C159.124 135.982 158.18 136.525 157.381 137.268C156.899 137.72 156.607 138.012 157.522 138.524" stroke="#1E3C70" stroke-width="1.5" stroke-linecap="round" stroke-linejoin="round"/>
<path d="M104.243 134.293C104.705 134.755 104.635 135.278 104.474 135.85C104.233 136.709 104.474 137.579 104.529 138.443C104.645 140.091 105.298 141.633 105.479 143.261C105.579 144.165 105.584 145.089 105.635 146.004C105.675 146.747 105.348 147.049 104.389 147.255C101.701 147.837 98.9729 147.948 96.2399 147.837C94.7026 147.772 93.1753 147.581 91.643 147.4C90.2816 147.24 88.9301 146.938 87.5636 146.838C86.3981 146.752 85.2426 146.607 84.0821 146.521C83.6852 146.491 83.2933 146.501 82.8964 146.461C82.3689 146.406 81.8314 146.375 81.329 146.727C81.0476 146.923 80.6507 146.943 80.3041 147.039" stroke="#1E3C70" stroke-width="1.5" stroke-linecap="round" stroke-linejoin="round"/>
<path d="M8.41307 102.275C9.3023 103.712 9.55349 105.385 10.0961 106.953C10.7291 108.776 11.2013 110.65 11.7489 112.504C11.8896 112.976 12.0805 113.428 12.2111 113.906C12.5226 115.026 13.2913 115.684 14.487 115.765C15.3812 115.825 16.2051 116.166 16.9989 116.528C17.7475 116.875 18.501 117.046 19.3049 117.101C20.6764 117.196 21.9826 117.593 23.3039 117.925C24.5548 118.241 25.7756 118.668 27.0166 119.02C27.6043 119.186 27.9309 119.703 28.4031 120.02C28.9106 120.361 29.4129 120.728 29.9053 121.1" stroke="#FF6A1F" stroke-width="1.5" stroke-linecap="round" stroke-linejoin="round"/>
<path d="M116.839 136.961C116.783 139.217 116.326 141.417 115.949 143.633C115.477 146.426 114.874 149.199 114.437 152.002C114.216 153.414 114.055 154.836 113.744 156.238C113.523 157.247 113.593 158.323 113.407 159.342C113.201 160.478 113.176 161.618 113.056 162.754" stroke="#1E3C70" stroke-width="1.5" stroke-linecap="round" stroke-linejoin="round"/>
<path d="M118.692 139.629C118.667 141.211 118.717 142.799 118.597 144.371C118.476 145.934 118.27 147.491 118.054 149.049C117.783 151.053 117.436 153.048 117.105 155.042C116.889 156.328 116.728 157.619 116.572 158.906C116.467 159.775 116.572 160.689 116.708 161.568C116.859 162.538 117.105 163.502 117.572 164.392C117.909 165.03 118.326 165.562 118.989 165.869" stroke="#1E3C70" stroke-width="1.5" stroke-linecap="round" stroke-linejoin="round"/>
<path d="M105.354 144.593C104.41 143.93 103.269 143.714 102.219 143.312C101.526 143.046 100.657 143.136 99.8679 143.051C98.421 142.895 97.0043 142.593 95.5725 142.377C92.734 141.95 89.9106 141.463 87.052 141.177C85.2283 140.996 83.4046 140.825 81.5659 140.795C81.4001 140.795 81.3147 140.845 81.1941 140.89" stroke="#1E3C70" stroke-width="1.5" stroke-linecap="round" stroke-linejoin="round"/>
<path d="M101.5 19.7129C101.686 20.3459 101.168 20.793 101.018 21.3306C100.872 21.848 100.621 22.3605 100.455 22.898C100.158 23.8677 100.284 24.4203 101.213 24.8071C102.756 25.4502 103.163 26.666 103.128 28.1631C103.097 29.399 103.193 30.6348 103.077 31.8707C103.047 32.2023 103.097 32.6997 103.58 32.7398C104.012 32.775 104.097 32.3982 104.183 32.0214C104.554 30.4088 104.871 28.786 105.785 27.3392C106.715 25.8772 108.443 24.9729 110.015 25.4552C110.689 25.6612 111.146 26.2992 111.367 27.0478C111.834 28.6152 111.593 30.1576 111.111 31.6346C110.699 32.9006 110.005 34.0461 108.92 34.9152C108.573 35.1915 108.222 35.3573 107.8 35.4226" stroke="#1E3C70" stroke-width="1.5" stroke-linecap="round" stroke-linejoin="round"/>
<path d="M67.484 59.9551C66.4038 60.774 66.2381 62.0299 65.9266 63.2156C65.3388 65.4512 64.8716 67.722 64.329 69.9677C63.485 73.4744 62.435 76.9107 61.3398 80.337C61.0132 81.3569 60.8072 82.4119 61.8421 83.2308C61.9728 83.3363 62.0431 83.5222 62.1436 83.6679" stroke="#1E3C70" stroke-width="1.5" stroke-linecap="round" stroke-linejoin="round"/>
<path d="M83.193 45.0588C82.3892 44.903 81.6909 45.2999 80.9724 45.5159C77.6165 46.5358 74.4364 47.9626 71.4069 49.7209C69.94 50.57 68.694 51.63 68.0108 53.2125C67.5888 54.1972 67.423 55.2623 67.2572 56.3223C67.1567 56.9604 67.0211 57.5934 67.0311 58.2515C67.0462 59.3266 67.3125 59.6883 68.2921 60.1154C69.0105 60.4319 69.7641 60.5977 70.5177 60.7735" stroke="#1E3C70" stroke-width="1.5" stroke-linecap="round" stroke-linejoin="round"/>
<path d="M172.202 147.114C173.332 147.084 174.432 147.31 175.598 147.36C175.301 148.611 174.357 149.124 173.528 149.696C171.006 151.455 168.228 152.696 165.309 153.63C163.355 154.253 161.365 154.73 159.31 154.911C158.391 154.992 157.482 155.243 156.567 154.896" stroke="#1E3C70" stroke-width="1.5" stroke-linecap="round" stroke-linejoin="round"/>
<path d="M80.5256 23.7168C80.1488 25.5304 80.0081 27.3742 80.3296 29.1979C80.5457 30.4237 80.3698 31.6244 80.3849 32.8352C80.41 34.5131 81.0782 36.0153 81.7765 37.5074C82.6959 39.4667 83.555 41.4461 84.0172 43.5813C84.3136 44.9528 84.7356 46.2942 85.032 47.6607C85.3083 48.9418 86.0368 49.63 87.338 49.7355C87.9308 49.7858 88.5337 49.9767 89.1164 49.9315C90.2267 49.841 91.0657 50.2329 91.8745 50.9714C92.804 51.8255 93.5777 52.7197 93.7133 54.026" stroke="#1E3C70" stroke-width="1.5" stroke-linecap="round" stroke-linejoin="round"/>
<path d="M72.5221 118.358C71.8037 117.876 70.9396 117.855 70.1458 117.644C67.6941 116.981 65.2023 116.479 62.7355 115.866C60.1985 115.238 57.6514 114.66 55.0992 114.098C54.2452 113.912 53.371 113.465 52.4416 113.761" stroke="#FF6A1F" stroke-width="1.5" stroke-linecap="round" stroke-linejoin="round"/>
<path d="M107.725 118.578C107.052 119.266 106.781 120.206 106.198 120.975C105.047 122.492 103.595 123.547 101.862 124.2C98.9734 125.29 96.0093 126.154 93.0502 127.033C92.1308 127.31 91.2215 127.616 90.3072 127.923C89.5938 128.159 89.011 128.134 88.4383 127.491C87.4837 126.43 86.2127 125.757 85.0471 124.953" stroke="#1E3C70" stroke-width="1.5" stroke-linecap="round" stroke-linejoin="round"/>
<path d="M148.041 37.2014C147.84 37.136 147.69 37.0004 147.454 36.9602C145.56 36.6538 143.635 36.4377 141.751 36.6538C139.983 36.8547 138.245 36.4528 136.481 36.7191C134.542 37.0104 132.568 37.0908 130.634 37.4274C128.996 37.7138 127.348 37.9851 125.745 38.4071C124.183 38.819 122.6 39.2461 121.219 40.1655" stroke="#FF6A1F" stroke-width="1.5" stroke-linecap="round" stroke-linejoin="round"/>
<path d="M107.504 35.9453C107.79 36.7642 107.66 37.6283 107.695 38.4673C107.725 39.1656 107.76 39.7484 108.132 40.4166C108.891 41.773 109.654 43.1596 110.016 44.6969C110.272 45.7771 109.895 46.7819 109.338 47.646C108.348 49.1782 106.931 50.3237 105.509 51.444C102.837 53.544 99.7823 55.0914 97.1246 57.2165C96.577 57.6536 95.949 57.5028 95.5069 56.8497C95.0347 56.1514 94.5926 55.433 94.1756 54.6995C94.0249 54.4383 93.9797 54.1167 93.5727 54.1871" stroke="#1E3C70" stroke-width="1.5" stroke-linecap="round" stroke-linejoin="round"/>
<path d="M136.256 122.951C136.366 122.674 136.613 122.458 136.633 122.097C136.673 121.936 136.512 121.845 136.397 121.77C135.372 121.082 134.503 120.177 133.638 119.338C132.779 118.509 131.915 117.701 130.986 116.952C129.594 115.832 128.268 114.636 127.062 113.315C126.741 112.963 126.54 112.521 126.178 112.199C126.062 112.099 125.957 111.908 125.962 111.762C126.022 110.034 124.741 109.386 123.5 108.728C122.229 108.055 120.938 108.401 119.898 109.13C118.552 110.069 117.396 111.265 117.271 113.094C117.215 113.903 117.672 114.315 118.386 113.973C119.426 113.481 120.411 112.888 121.496 112.481C122.274 112.184 123.038 111.923 123.877 111.908C124.068 111.908 124.204 111.813 124.324 111.682" stroke="#1E3C70" stroke-width="1.5" stroke-linecap="round" stroke-linejoin="round"/>
<path d="M158.492 129.621C157.477 129.45 156.452 129.078 155.457 129.159C154.407 129.244 153.413 129.099 152.418 128.933C150.84 128.672 149.268 128.395 147.67 128.45C145.053 128.541 142.496 128.993 140.114 130.144C139.396 130.49 138.843 130.972 138.909 131.917C138.939 132.354 138.818 132.821 138.482 133.178" stroke="#1E3C70" stroke-width="1.5" stroke-linecap="round" stroke-linejoin="round"/>
<path d="M74.2258 118.578C73.5475 118.613 72.9246 118.578 72.2614 119.045C71.6636 119.472 70.7593 119.518 69.9956 119.653C68.5488 119.904 67.132 120.291 65.7103 120.618C63.6304 121.095 61.5505 121.567 59.4856 122.095C58.3955 122.371 57.2651 122.517 56.2101 122.939C56.0744 122.994 55.8483 123.034 55.6976 122.879" stroke="#FF6A1F" stroke-width="1.5" stroke-linecap="round" stroke-linejoin="round"/>
<path d="M138.702 18.0804C138.627 18.0302 138.531 18 138.481 17.9297C137.376 16.2768 135.934 16.3572 134.186 16.9149C133.171 17.2364 132.281 17.8795 131.679 18.7637C131.141 19.5474 130.433 20.0498 129.579 20.2859C128.654 20.5371 127.976 21.1048 127.459 21.8082C126.926 22.5316 126.258 23.039 125.499 23.4058C123.907 24.1694 123.123 25.4103 122.982 27.1285C122.957 27.4148 123.103 27.6309 123.208 27.872" stroke="#1E3C70" stroke-width="1.5" stroke-linecap="round" stroke-linejoin="round"/>
<path d="M178.502 166.898C179.14 167.552 178.944 168.426 179.07 169.199C179.241 170.219 179.286 171.269 179.306 172.309C179.361 175.489 178.914 178.574 177.382 181.423C176.99 182.156 176.513 182.839 176.141 183.583C175.94 183.98 175.729 184.437 176.046 184.914C176.161 185.09 176.257 184.894 176.347 184.949" stroke="#1E3C70" stroke-width="1.5" stroke-linecap="round" stroke-linejoin="round"/>
<path d="M133.443 39.7239C134.528 39.9701 135.623 40.1911 136.703 40.4725C138.808 41.0201 140.903 41.6129 143.008 42.1605C143.259 42.2258 143.526 42.3213 143.832 42.1605C144.068 42.0349 144.43 42.0399 144.706 42.1153C146.123 42.482 147.57 42.6378 149.007 42.8538C150.263 43.0397 151.514 43.2758 152.785 43.3964C153.051 43.4215 153.257 43.4717 153.533 43.3863C153.88 43.2758 154.347 43.4115 154.543 43.6174C155.141 44.2354 155.99 44.0344 156.648 44.4012C156.789 44.4815 156.964 44.376 157.085 44.2605C157.562 43.8083 157.979 43.2959 158.04 42.6277C158.22 40.6835 158.165 38.7643 157.407 36.9105C157.271 36.579 157.115 36.2976 156.859 36.1117C155.513 35.1471 154.025 34.4287 152.563 33.6651C152.021 33.3838 151.473 33.1928 150.785 33.3285C149.876 33.5094 149.012 32.9919 148.127 32.806C146.213 32.4041 144.294 32.1328 142.34 32.0926C140.034 32.0424 137.738 32.1429 135.447 32.3991C134.899 32.4594 134.362 32.595 133.814 32.6854C133.593 32.7206 133.357 32.7909 133.151 32.7507C131.152 32.3639 129.313 33.1175 127.449 33.5897C126.419 33.851 125.429 34.2529 124.465 34.7352C124.008 34.9613 123.787 35.4536 123.294 35.5792" stroke="#FF6A1F" stroke-width="1.5" stroke-linecap="round" stroke-linejoin="round"/>
<path d="M175.241 148.742C175.864 149.812 176.13 151.033 176.612 152.168C177.145 153.419 177.662 154.69 178.23 155.921C179.481 158.639 179.586 161.402 178.848 164.226C178.672 164.894 178.607 165.567 178.516 166.235C178.431 166.909 178.039 167.295 177.587 167.727C177.024 167.346 176.888 166.818 176.723 166.311C175.929 163.889 175.14 161.468 174.351 159.046C174.256 158.745 174.15 158.448 173.904 158.232" stroke="#1E3C70" stroke-width="1.5" stroke-linecap="round" stroke-linejoin="round"/>
<path d="M48.5837 108.055C49.4126 109.321 49.6839 110.803 50.131 112.209C51.1308 115.385 52.0703 118.58 53.0298 121.765C53.2609 122.529 53.4569 123.302 53.708 124.061C53.8387 124.458 53.703 124.809 53.6277 125.176" stroke="#FF6A1F" stroke-width="1.5" stroke-linecap="round" stroke-linejoin="round"/>
<path d="M107.503 40.0195C106.177 42.5114 103.941 44.0386 101.651 45.5056C99.5556 46.847 97.3702 48.0125 95.0491 48.9018C94.0946 49.2685 93.1049 49.5499 92.0901 49.7307C91.8439 49.7759 91.5977 49.8211 91.4219 50.0271" stroke="#1E3C70" stroke-width="1.5" stroke-linecap="round" stroke-linejoin="round"/>
<path d="M35.6881 123.839C34.5778 123.593 33.9448 122.759 33.3118 121.915C33.0103 121.513 32.8797 121.162 33.0807 120.644C33.3821 119.876 34.1508 119.479 34.7838 120.006C35.8086 120.86 36.9893 121.468 37.9991 122.342C38.9787 123.186 40.1895 123.578 41.4706 123.774C42.9074 123.99 44.3292 124.312 45.771 124.498C47.4038 124.709 49.0014 125.251 50.6593 125.146C51.443 125.095 52.1916 125.146 52.9602 125.241C53.3722 125.291 53.759 125.276 54.1609 125.522C54.6482 125.814 55.1908 125.633 55.6279 125.251" stroke="#1E3C70" stroke-width="1.5" stroke-linecap="round" stroke-linejoin="round"/>
<path d="M155.156 128.883C154.558 128.366 153.774 128.351 153.076 128.245C151.167 127.964 149.243 127.698 147.299 127.768C144.927 127.854 142.591 128.16 140.336 128.899C139.632 129.13 139.009 128.909 138.416 128.698C138.065 128.577 137.668 128.401 137.351 128.08C136.276 126.984 135.086 126.025 133.659 125.392C132.071 124.689 130.418 124.307 128.69 124.206C128.218 124.181 127.751 124.111 127.284 124.061" stroke="#1E3C70" stroke-width="1.5" stroke-linecap="round" stroke-linejoin="round"/>
<path d="M143.299 146.295C143.174 146.269 143.018 146.184 142.932 146.229C141.702 146.882 140.496 146.34 139.3 146.129C138.532 145.993 137.803 145.672 136.999 145.697C136.226 145.722 135.648 146.104 135.442 146.737C135.221 147.415 135.547 147.832 136.16 148.465C137.19 149.52 138.577 149.53 139.823 149.892C140.662 150.138 141.491 150.429 142.325 150.69C142.561 150.766 142.777 150.771 143.003 150.811" stroke="#1E3C70" stroke-width="1.5" stroke-linecap="round" stroke-linejoin="round"/>
<path d="M147.448 110.06C147.915 111.396 149.021 112.104 150.201 112.632C152.326 113.586 154.376 113.29 156.351 112.074C157.526 111.351 158.511 110.441 159.45 109.462C159.696 109.206 160.048 108.884 159.877 108.512C159.701 108.125 159.234 108.181 158.862 108.211C156.652 108.392 154.547 107.924 152.487 107.171C151.432 106.784 150.442 106.272 149.453 105.754C148.91 105.473 148.337 105.352 147.745 105.322C146.8 105.272 146.247 106.332 146.725 107.387C146.926 107.834 147.152 108.291 147.519 108.663C147.765 108.914 148.071 109.15 148.121 109.542" stroke="#1E3C70" stroke-width="1.5" stroke-linecap="round" stroke-linejoin="round"/>
<path d="M120.993 169.496C121.224 170.777 121.189 172.063 121.063 173.349C120.907 174.937 120.751 176.53 120.405 178.092C119.817 180.735 118.45 182.719 115.803 183.643C115.642 183.699 115.456 183.699 115.285 183.724" stroke="#1E3C70" stroke-width="1.5" stroke-linecap="round" stroke-linejoin="round"/>
<path d="M140.115 29.3504C139.648 28.8228 138.969 29.0138 138.407 28.9384C136.387 28.6571 134.368 28.7626 132.328 29.0238C129.926 29.3303 127.666 30.0236 125.44 30.9128C124.857 31.1439 124.481 31.8271 123.732 31.7267" stroke="#FF6A1F" stroke-width="1.5" stroke-linecap="round" stroke-linejoin="round"/>
<path d="M89.6394 148.598C90.1067 148.789 90.1569 149.261 90.2976 149.638C91.7394 153.632 93.8545 157.259 96.2308 160.755C96.5423 161.218 96.9592 161.479 97.4767 161.579C98.2353 161.137 98.5418 160.344 99.0492 159.716" stroke="#1E3C70" stroke-width="1.5" stroke-linecap="round" stroke-linejoin="round"/>
<path d="M155.306 119.026C154.136 117.363 152.955 115.705 150.785 115.248C150.257 115.138 149.72 115.248 149.237 115.414C148.594 115.63 148.087 115.524 147.599 115.102C147.414 114.942 147.223 114.761 147.007 114.665C146.59 114.479 146.148 114.389 145.751 114.731C145.354 115.072 144.947 115.409 144.57 115.776C144.374 115.966 144.143 116.067 143.897 116.137C143.003 116.404 142.812 116.74 142.847 117.695C142.872 118.277 142.993 118.915 142.49 119.398" stroke="#1E3C70" stroke-width="1.5" stroke-linecap="round" stroke-linejoin="round"/>
<path d="M151.302 33.127C151.181 32.3332 150.704 31.8258 149.965 31.5746C147.785 30.8361 145.594 30.1578 143.299 29.8363C142.409 29.7107 141.505 29.6454 140.626 29.4193C140.123 29.2937 139.712 29.6504 139.219 29.6655C138.531 29.6856 137.838 29.7609 137.144 29.7961C134.768 29.9117 132.422 30.2332 130.101 30.7507C128.599 31.0873 127.081 31.3686 125.584 31.7353C125.187 31.8308 124.971 31.6298 124.69 31.4942" stroke="#FF6A1F" stroke-width="1.5" stroke-linecap="round" stroke-linejoin="round"/>
<path d="M117.582 98.7891C117.246 98.98 117.005 99.2513 116.839 99.6029C114.864 103.903 112.895 108.204 110.895 112.494C110.71 112.891 110.76 113.233 110.835 113.61" stroke="#1E3C70" stroke-width="1.5" stroke-linecap="round" stroke-linejoin="round"/>
<path d="M137.888 124.508C137.326 124.005 136.713 123.523 136.135 123.091C135.351 122.503 134.271 122.262 133.221 122.121C131.141 121.845 129.061 121.83 126.996 122.151C125.067 122.453 123.113 122.694 121.289 123.468" stroke="#1E3C70" stroke-width="1.5" stroke-linecap="round" stroke-linejoin="round"/>
<path d="M61.9222 83.6719C61.4851 83.9432 60.9626 84.0386 60.5205 84.2798C59.2043 84.9982 58.5059 86.214 58.0689 87.6006C57.039 90.8812 55.6624 93.9709 53.6679 96.8244C52.4722 98.5326 51.0555 99.9041 49.3976 101.09C49.2218 101.215 49.0058 101.291 48.8098 101.391" stroke="#1E3C70" stroke-width="1.5" stroke-linecap="round" stroke-linejoin="round"/>
<path d="M135.07 120.876C134.552 121.343 133.969 121.238 133.362 121.102C130.965 120.584 128.529 120.404 126.102 120.685C124.65 120.856 123.188 121.142 121.862 121.891C121.204 122.262 120.852 122.921 120.249 123.328C119.682 123.709 119.194 124.227 118.606 124.563C117.536 125.181 116.401 125.101 115.281 124.654" stroke="#1E3C70" stroke-width="1.5" stroke-linecap="round" stroke-linejoin="round"/>
<path d="M155.749 32.0866C155.688 33.0512 156.1 33.5838 157.005 33.8751C157.643 34.0811 158.075 34.6287 158.632 34.9804C158.929 35.1663 159.17 35.4325 159.456 35.6385C159.763 35.8596 160.139 35.9952 160.486 35.8495C160.898 35.6737 161.089 35.3069 161.174 34.8297C161.41 33.5687 160.868 32.4433 160.627 31.2728C160.371 30.0118 159.969 28.7809 159.813 27.4898C159.773 27.1632 159.642 26.8367 159.521 26.5252C159.351 26.0881 158.939 25.9926 158.567 26.0931C157.391 26.3996 156.402 27.0376 155.683 28.0173C155.06 28.8663 154.573 29.7907 154.553 30.901C154.543 31.318 153.644 31.8405 152.93 31.8555C152.413 31.8656 151.87 31.961 151.378 31.7752C151.101 31.6696 151.001 31.8053 150.855 31.9409" stroke="#FF6A1F" stroke-width="1.5" stroke-linecap="round" stroke-linejoin="round"/>
<path d="M99.1993 159.563C99.6364 159.543 99.6766 159.895 99.6314 160.156C99.2446 162.316 99.0336 164.492 98.8778 166.677C98.7472 168.481 98.6015 170.279 98.5965 172.088C98.5965 172.761 98.6919 173.424 98.3503 174.108C98.1493 174.514 98.3403 175.127 98.3855 175.645C98.491 176.83 98.5864 178.011 98.5312 179.202C98.5312 179.302 98.5714 179.448 98.5261 179.493C97.7223 180.196 98.2699 181.051 98.3453 181.794C98.4558 182.869 98.8025 183.924 99.0486 184.984" stroke="#1E3C70" stroke-width="1.5" stroke-linecap="round" stroke-linejoin="round"/>
<path d="M152.708 63.1445C152.914 63.461 152.628 63.6067 152.487 63.8127C150.749 66.3699 148.875 68.8266 146.921 71.2179C145.489 72.9713 144.017 74.6844 142.55 76.4076C142.284 76.7191 141.982 77.0205 141.515 77.0055" stroke="#1E3C70" stroke-width="1.5" stroke-linecap="round" stroke-linejoin="round"/>
<path d="M173.723 157.859C173.15 158.854 173.291 159.969 173.145 161.045C172.844 163.225 173.08 165.486 172.136 167.571C171.794 168.329 171.106 168.666 170.503 169.128C170.051 169.48 169.508 169.615 169.021 169.871C168.674 170.047 168.343 170.273 168.162 170.7C169.408 171.082 169.945 172.147 170.483 173.137C171.397 174.83 171.789 176.704 171.975 178.613C172.005 178.904 171.925 179.206 171.864 179.507C171.729 180.211 171.879 180.934 172.221 181.567C172.377 181.848 172.422 182.1 172.427 182.391C172.447 183.255 172.472 184.119 172.497 184.983" stroke="#1E3C70" stroke-width="1.5" stroke-linecap="round" stroke-linejoin="round"/>
<path d="M65.1121 157.49C64.7303 160.002 64.7705 162.519 64.9413 165.051C65.0318 166.362 65.1121 167.674 65.2679 168.975C65.3784 169.869 65.5542 170.753 65.705 171.643" stroke="#1E3C70" stroke-width="1.5" stroke-linecap="round" stroke-linejoin="round"/>
<path d="M110.985 11.2637C111.573 13.6149 111.528 16.0062 111.257 18.3775C111.056 20.1409 110.789 21.9043 110.413 23.6476C110.292 24.2153 110.262 24.8031 110.021 25.3456" stroke="#1E3C70" stroke-width="1.5" stroke-linecap="round" stroke-linejoin="round"/>
<path d="M130.478 171.35C130.799 172.636 131.106 173.922 131.442 175.203C131.909 176.986 132.583 178.7 133.316 180.383C133.949 181.84 134.788 183.201 135.506 184.623C135.632 184.874 135.738 185.04 136.034 184.989" stroke="#1E3C70" stroke-width="1.5" stroke-linecap="round" stroke-linejoin="round"/>
<path d="M148.634 151.927C148.8 153.038 148.976 154.133 148.659 155.268C148.464 155.976 148.443 156.745 148.7 157.489C148.8 157.775 148.865 158.051 149.227 158.001C151.282 157.71 153.362 157.494 155.155 156.303C156.562 155.369 156.748 153.892 157.049 152.384C157.331 150.968 157.09 149.611 157.079 148.225" stroke="#1E3C70" stroke-width="1.5" stroke-linecap="round" stroke-linejoin="round"/>
<path d="M132.995 62.1816C132.568 63.9953 131.694 65.6381 130.88 67.2759C129.609 69.8431 128.202 72.3601 126.519 74.6861C125.826 75.6407 126.163 76.4596 126.494 77.2885C126.836 78.1526 127.735 78.1426 128.609 77.7909C128.956 77.6502 129.267 77.4241 129.659 77.3739" stroke="#1E3C70" stroke-width="1.5" stroke-linecap="round" stroke-linejoin="round"/>
<path d="M172.127 168.234C172.559 169.073 172.669 170.008 172.845 170.907C173.287 173.153 173.473 175.434 173.453 177.719C173.443 178.759 173.327 179.794 173.237 180.834C173.207 181.176 173.066 181.482 172.724 181.648" stroke="#1E3C70" stroke-width="1.5" stroke-linecap="round" stroke-linejoin="round"/>
<path d="M112.985 162.898C112.447 163.466 112.532 164.225 112.412 164.903C111.95 167.495 111.603 170.103 111.096 172.69C110.97 173.343 110.749 174.187 111.503 174.76C111.97 175.117 112.502 175.197 112.975 174.956C113.492 174.695 113.758 174.122 113.778 173.569C113.819 172.409 113.718 171.248 113.738 170.088C113.748 169.435 113.869 168.781 114.1 168.163C114.115 168.123 114.19 168.103 114.246 168.093C114.266 168.093 114.296 168.138 114.321 168.163" stroke="#1E3C70" stroke-width="1.5" stroke-linecap="round" stroke-linejoin="round"/>
<path d="M51.1764 124.728C50.8348 124.361 50.3726 124.301 49.9154 124.206C47.1121 123.633 44.3188 123.04 41.5355 122.372C40.6061 122.151 39.6566 122 38.7222 121.774C38.4257 121.704 38.0891 121.739 37.838 121.985" stroke="#FF6A1F" stroke-width="1.5" stroke-linecap="round" stroke-linejoin="round"/>
<path d="M140.928 36.9043C141.219 37.5926 141.897 37.6679 142.485 37.8639C146.052 39.0445 149.509 40.4713 152.779 42.3251C153.166 42.5461 153.678 42.7069 153.749 43.2796" stroke="#FF6A1F" stroke-width="1.5" stroke-linecap="round" stroke-linejoin="round"/>
<path d="M116.321 108.873C116.618 109.466 116.386 110.059 116.321 110.652C115.954 114.203 115.819 117.76 116.03 121.322C116.045 121.548 116.125 121.769 116.175 121.99" stroke="#1E3C70" stroke-width="1.5" stroke-linecap="round" stroke-linejoin="round"/>
<path d="M169.238 89.3789C169.188 91.0117 168.972 92.6344 168.926 94.2722C168.866 96.4978 168.826 98.7183 168.936 100.944C168.962 101.441 168.942 101.944 169.092 102.426" stroke="#1E3C70" stroke-width="1.5" stroke-linecap="round" stroke-linejoin="round"/>
<path d="M102.389 18.377C102.118 18.9949 101.741 19.4169 101.078 19.7585C100.294 20.1604 99.6257 20.8186 98.837 21.2757C96.7772 22.4765 94.6018 23.3104 92.2406 23.7374C90.2913 24.0891 88.3471 24.2047 86.3827 24.1544C84.7701 24.1142 83.1674 23.8982 81.5648 23.7274C80.5299 23.6169 79.5804 23.3154 78.6761 22.8231" stroke="#1E3C70" stroke-width="1.5" stroke-linecap="round" stroke-linejoin="round"/>
<path d="M138.185 139.478C138.592 137.906 138.255 136.494 137.22 135.258C136.622 134.545 135.874 134.012 135.07 133.555C134.698 133.344 134.371 133.053 134.02 132.837C133.392 132.45 132.668 132.616 132.04 132.897C130.764 133.475 129.498 134.093 128.257 134.746C126.218 135.816 124.153 135.901 122.023 135.047C121.676 134.907 121.284 134.891 120.912 134.816" stroke="#1E3C70" stroke-width="1.5" stroke-linecap="round" stroke-linejoin="round"/>
<path d="M147.745 55.0664C147.384 55.1016 147.303 55.4281 147.158 55.6643C145.756 57.9501 143.917 59.7386 141.445 60.8539C140.164 61.4317 138.808 61.6075 137.441 61.8235C136.06 62.0396 134.673 62.0044 133.292 62.0396C131.604 62.0798 130.117 61.6075 128.846 60.4771C128.685 60.3314 128.625 60.1305 128.635 59.9547C128.695 58.8544 128.454 57.8446 127.73 56.9906C127.198 56.3676 127.861 55.9456 127.956 55.4332" stroke="#1E3C70" stroke-width="1.5" stroke-linecap="round" stroke-linejoin="round"/>
<path d="M155.9 119.172C154.202 119.227 152.554 118.855 150.941 118.403C150.348 118.238 149.806 117.871 149.158 117.996C148.866 118.052 148.53 117.976 148.329 118.353C148.092 118.79 148.489 118.966 148.655 119.157C149.122 119.694 149.675 120.162 150.192 120.654C150.705 121.141 150.996 121.759 151.152 122.433C151.363 123.367 151.047 123.633 150.117 123.402C149.59 123.271 149.087 123.055 148.65 122.779C148.062 122.412 147.736 122.588 147.454 123.096C147.158 123.623 146.766 124.075 146.344 124.507C145.872 124.995 145.309 125.216 144.636 125.171C144.269 125.145 144.003 125.155 143.938 125.683C143.882 126.14 143.571 126.512 143.008 126.668C142.089 126.924 141.2 127.301 140.225 127.316" stroke="#1E3C70" stroke-width="1.5" stroke-linecap="round" stroke-linejoin="round"/>
<path d="M88.7501 128.062C87.8509 129.414 86.4241 129.821 84.9671 130.127C83.4549 130.449 81.9227 130.64 80.3753 130.755C79.7322 130.801 79.0892 130.831 78.4461 130.891C77.7378 130.956 77.1751 130.78 76.738 130.213" stroke="#1E3C70" stroke-width="1.5" stroke-linecap="round" stroke-linejoin="round"/>
<path d="M116.768 132.067C115.643 132.298 114.543 131.972 113.432 131.907C112.553 131.851 111.699 131.585 110.835 131.429C110.011 131.279 109.323 131.841 108.7 132.303C107.589 133.132 106.414 133.866 105.283 134.67C105.093 134.805 104.887 134.825 104.686 134.886" stroke="#1E3C70" stroke-width="1.5" stroke-linecap="round" stroke-linejoin="round"/>
<path d="M107.801 32.906C109.092 32.6498 109.951 31.4642 110.026 29.8666C110.061 29.1281 109.79 28.5202 109.278 28.0178C108.861 27.6058 108.213 27.5907 107.806 28.0178C107.198 28.6608 106.967 29.4345 107.208 30.3087C107.419 31.0623 107.519 31.8359 107.675 32.5996C107.75 32.9713 107.645 33.0417 107.358 33.1271C107.007 33.2326 106.655 33.3481 106.324 33.4988C105.716 33.7701 105.48 34.4433 105.731 35.1266C105.952 35.7244 106.58 36.0007 107.218 35.8852C107.575 35.8199 107.806 35.6039 107.71 35.3577C107.439 34.6443 107.765 33.8957 107.509 33.1974" stroke="#1E3C70" stroke-width="1.5" stroke-linecap="round" stroke-linejoin="round"/>
<path d="M110.242 45.2109C111.061 45.427 111.639 46.0449 112.221 46.5674C113.543 47.7631 114.789 49.0391 115.884 50.4659C117.135 52.0937 116.979 53.7415 116.09 55.4346C115.954 55.6958 115.763 55.9319 115.799 56.2535" stroke="#1E3C70" stroke-width="1.5" stroke-linecap="round" stroke-linejoin="round"/>
<path d="M57.2553 148.963C56.5218 149.676 56.547 150.631 56.2958 151.535C55.8135 153.268 54.9042 154.886 53.8391 156.368C52.5881 158.106 51.0257 159.508 49.1819 160.603C48.6896 160.895 48.0566 160.734 47.6195 161.151" stroke="#1E3C70" stroke-width="1.5" stroke-linecap="round" stroke-linejoin="round"/>
<path d="M139.226 140.516C138.542 139.406 137.352 139.331 136.256 139.12C135.407 138.959 134.624 138.728 133.956 138.15C133.755 137.974 133.478 137.844 133.217 137.783C132.725 137.673 132.353 137.934 132.031 138.291C131.715 138.643 131.886 139.049 132.051 139.321C132.901 140.702 133.87 141.963 135.664 142.144C135.834 142.159 135.98 142.184 136.106 142.3" stroke="#1E3C70" stroke-width="1.5" stroke-linecap="round" stroke-linejoin="round"/>
<path d="M84.008 44.3906C83.2092 44.8177 83.1991 45.7169 82.8274 46.3952C81.9683 47.9475 80.853 49.3291 79.9286 50.8363C79.376 51.7305 79.5015 52.253 80.4511 52.7655C81.3503 53.2528 82.33 53.5592 83.2644 53.9511C83.6463 54.1119 84.1436 54.137 84.229 54.6896" stroke="#1E3C70" stroke-width="1.5" stroke-linecap="round" stroke-linejoin="round"/>
<path d="M73.1149 84.2656C72.728 84.3309 72.5422 84.6324 72.3764 84.9338C70.6682 88.0436 68.9651 91.1584 67.262 94.2732C67.0309 94.6902 66.835 95.1323 66.2975 95.2378" stroke="#1E3C70" stroke-width="1.5" stroke-linecap="round" stroke-linejoin="round"/>
<path d="M143.892 42.6133C144.852 43.1006 145.917 43.2614 146.932 43.5779C149.202 44.2913 151.518 44.6279 153.9 44.5374C154.352 44.5173 154.774 44.3867 155.085 44.02" stroke="#FF6A1F" stroke-width="1.5" stroke-linecap="round" stroke-linejoin="round"/>
<path d="M54.7335 132.441C55.472 132.803 55.4217 133.642 55.7382 134.24C56.7129 136.084 58.3356 136.762 60.2196 137.114C61.5308 137.355 62.842 137.596 64.1432 137.867C64.3592 137.912 64.5401 138.103 64.736 138.229" stroke="#1E3C70" stroke-width="1.5" stroke-linecap="round" stroke-linejoin="round"/>
<path d="M161.455 174.162C162.023 177.101 163.148 179.854 164.273 182.607C164.55 183.28 164.881 183.934 165.153 184.612C165.258 184.878 165.384 185.029 165.68 184.979" stroke="#1E3C70" stroke-width="1.5" stroke-linecap="round" stroke-linejoin="round"/>
<path d="M124.323 156.523C124.373 157.955 124.474 159.392 124.459 160.824C124.444 162.381 124.328 163.939 124.248 165.491C124.218 166.059 124.127 166.626 124.107 167.194C124.077 168.083 125.001 169.123 125.881 169.189C127.091 169.279 128.302 169.349 129.513 169.41C129.659 169.415 129.809 169.319 129.955 169.269" stroke="#1E3C70" stroke-width="1.5" stroke-linecap="round" stroke-linejoin="round"/>
<path d="M155.899 129.399C155.431 130.113 155.235 130.876 155.763 131.615C156.336 132.414 157.014 133.077 158.124 133.122C158.893 133.152 159.571 132.956 160.194 132.58C161.576 131.751 162.932 130.881 164.324 130.007C164.218 129.831 164.168 129.646 164.047 129.555C162.761 128.575 161.686 127.36 160.415 126.37C159.234 125.451 158.31 125.451 157.31 126.139C156.768 126.511 156.527 127.028 156.562 127.696C156.587 128.189 156.567 128.686 156.567 129.178" stroke="#1E3C70" stroke-width="1.5" stroke-linecap="round" stroke-linejoin="round"/>
<path d="M155.451 49.2852C155.692 49.9885 155.929 50.6918 156.255 51.365C156.361 51.5861 156.491 51.8473 156.702 51.7871C157.235 51.6313 157.647 51.7871 157.958 52.1839C158.3 52.6059 158.476 53.1284 158.385 53.6559C158.34 53.9222 158.405 54.0428 158.561 54.1784C159.089 54.6406 159.581 55.138 160.179 55.5299C161.495 56.394 161.761 57.1676 161.39 58.8507C160.892 61.1215 159.752 63.1159 158.852 65.2209C158.471 66.1152 158.049 66.9944 157.672 67.8937C157.109 69.2451 156.818 69.4109 155.296 69.1496" stroke="#1E3C70" stroke-width="1.5" stroke-linecap="round" stroke-linejoin="round"/>
<path d="M89.0455 117.318C88.4276 117.781 87.6639 117.74 86.9656 117.891C84.73 118.368 82.4692 118.735 80.2286 119.187C79.6709 119.303 79.0229 119.248 78.5958 119.765" stroke="#FF6A1F" stroke-width="1.5" stroke-linecap="round" stroke-linejoin="round"/>
<path d="M56.2154 150.375C55.4869 150.777 55.4267 151.586 55.1152 152.234C54.3063 153.887 53.191 155.298 51.92 156.605C50.7745 157.78 49.5387 158.87 48.5037 160.157C48.353 160.342 48.2576 160.518 48.2877 160.754" stroke="#1E3C70" stroke-width="1.5" stroke-linecap="round" stroke-linejoin="round"/>
<path d="M53.6224 127.029C53.5621 127.557 53.6375 128.074 53.7681 128.587C54.0243 129.571 54.2253 130.576 54.5267 131.546C54.7226 132.179 54.5468 132.661 54.1399 133.103C52.0951 135.359 51.2762 138.137 50.7437 141.036C50.6382 141.614 50.7387 142.206 51.0301 142.739" stroke="#1E3C70" stroke-width="1.5" stroke-linecap="round" stroke-linejoin="round"/>
<path d="M147.153 182.463C148.243 183.051 149.464 183.237 150.64 183.568C152.041 183.965 153.483 184.236 154.85 184.714C155.653 184.995 156.432 184.945 157.231 184.98" stroke="#1E3C70" stroke-width="1.5" stroke-linecap="round" stroke-linejoin="round"/>
<path d="M143.595 17.1925C143.977 16.3887 144.55 15.7356 145.379 15.4342C146.017 15.2031 146.288 15.7708 146.559 16.2279C146.831 16.6851 146.926 17.2327 147.288 17.6397C147.891 17.6598 148.222 17.1976 148.624 16.8861C148.941 16.6399 149.217 16.6098 149.438 16.9062C149.931 17.5542 150.373 18.2174 150.207 19.1267C150.121 19.609 149.915 19.9205 149.524 20.1616C149.237 20.3375 148.966 20.5384 148.71 20.7093C149.092 21.3925 149.8 21.1815 150.348 21.3121C151.518 21.5985 152.226 22.3521 152.699 23.3518C153.427 24.8791 153.92 26.5018 154.477 28.0944C154.593 28.426 154.713 28.7123 155.005 28.9083" stroke="#1E3C70" stroke-width="1.5" stroke-linecap="round" stroke-linejoin="round"/>
<path d="M52.8793 136.217C53.4721 136.815 54.0197 137.513 55.0345 137.001C55.3611 136.835 55.8434 136.875 56.0494 137.056C57.1295 138 58.5261 138.101 59.7821 138.573C60.0685 138.679 60.3699 138.774 60.6663 138.884C61.6761 139.251 62.2288 140.151 62.1534 141.185C62.0479 142.688 61.9977 144.2 61.9223 145.707C61.862 146.953 62.0479 146.998 63.334 147.174C64.2634 147.3 65.2129 147.264 66.1474 147.35C66.5744 147.385 66.9914 147.531 67.4084 147.636C67.7601 147.722 67.6244 148.018 67.6244 148.229C67.6345 149.495 67.323 150.716 67.0266 151.932C66.6247 153.569 65.9565 155.142 65.6952 156.825C65.6802 156.935 65.5094 157.026 65.4089 157.121" stroke="#1E3C70" stroke-width="1.5" stroke-linecap="round" stroke-linejoin="round"/>
<path d="M164.199 141.256C164.229 141.04 164.148 140.849 163.972 140.743C162.511 139.829 161.039 138.854 159.3 138.648C158.753 138.583 158.054 138.487 157.451 138.804C156.884 139.1 156.216 139.226 155.693 139.573C154.869 140.125 154.799 141.08 155.382 141.929C155.668 142.341 155.929 142.768 156.201 143.185" stroke="#1E3C70" stroke-width="1.5" stroke-linecap="round" stroke-linejoin="round"/>
<path d="M123.807 96.9355C125.052 95.8855 125.324 94.4386 125.429 92.9315C125.48 92.2181 125.379 91.4996 124.691 91.0877C123.987 90.6657 122.777 90.8315 122.098 91.3741C121.064 92.203 120.812 93.3384 120.933 94.5592C121.013 95.3831 121.074 96.2221 121.395 97.0058C121.43 97.0963 121.455 97.2118 121.43 97.2972C121.249 97.9503 121.4 98.5884 121.511 99.2264" stroke="#1E3C70" stroke-width="1.5" stroke-linecap="round" stroke-linejoin="round"/>
<path d="M101.722 149.412C101.375 151.02 101.054 152.627 100.677 154.23C100.26 155.988 99.9634 157.782 99.3505 159.495" stroke="#1E3C70" stroke-width="1.5" stroke-linecap="round" stroke-linejoin="round"/>
<path d="M113.432 175.053C113.92 175.495 113.849 176.138 113.93 176.686C114.231 178.821 114.533 180.961 114.482 183.131C114.467 183.744 114.668 184.357 114.618 184.985" stroke="#1E3C70" stroke-width="1.5" stroke-linecap="round" stroke-linejoin="round"/>
<path d="M143.299 131.994C143.841 132.687 144.354 133.405 144.937 134.063C146.409 135.726 148.197 136.887 150.418 137.239C151.116 137.349 151.849 137.254 152.563 137.254C152.643 135.51 151.623 133.908 150.046 133.255C149.488 133.024 148.925 132.813 148.488 132.365C148.167 132.039 147.619 132.129 147.308 131.768" stroke="#1E3C70" stroke-width="1.5" stroke-linecap="round" stroke-linejoin="round"/>
<path d="M112.915 175.127C112.829 177.719 111.744 180.045 110.996 182.467C110.745 183.286 110.554 184.125 110.468 184.984" stroke="#1E3C70" stroke-width="1.5" stroke-linecap="round" stroke-linejoin="round"/>
<path d="M66.8916 147.633C66.1431 149.321 65.6758 151.104 65.2789 152.898C65.0127 154.109 64.7665 155.334 64.8017 156.6C64.8117 156.992 64.7966 157.299 65.2639 157.379" stroke="#1E3C70" stroke-width="1.5" stroke-linecap="round" stroke-linejoin="round"/>
<path d="M140.928 160.971C141.184 162.282 141.556 163.568 141.787 164.889C141.948 165.839 141.787 166.733 141.717 167.637C141.636 168.617 141.501 169.557 141.787 170.541C141.923 171.008 141.777 171.556 141.862 172.094C142.068 173.36 142.259 174.641 142.199 175.942C142.164 176.695 141.943 177.434 141.928 178.167C141.897 179.474 141.47 180.79 142.118 182.111C142.46 182.805 142.244 183.674 142.259 184.467C142.259 184.638 142.259 184.814 142.259 184.985" stroke="#1E3C70" stroke-width="1.5" stroke-linecap="round" stroke-linejoin="round"/>
<path d="M132.924 32.832C132.382 33.4751 131.553 33.4299 130.844 33.6308C128.754 34.2236 126.665 34.8215 124.63 35.5901C124.238 35.7409 123.967 35.6956 123.66 35.4997" stroke="#FF6A1F" stroke-width="1.5" stroke-linecap="round" stroke-linejoin="round"/>
<path d="M52.955 143.109C52.739 143.014 52.5481 143.174 52.2718 143.074C51.4981 142.793 50.7545 142.868 49.9708 143.38C48.1019 144.601 46.7857 146.164 46.3737 148.374C46.2582 148.997 46.3637 149.655 46.3536 150.298C46.3486 150.645 46.3084 150.992 46.2833 151.338" stroke="#1E3C70" stroke-width="1.5" stroke-linecap="round" stroke-linejoin="round"/>
<path d="M136.924 149.486C136.628 149.657 136.316 149.813 136.04 150.009C135.111 150.667 135.181 151.164 136.181 151.722C137.055 152.204 137.959 152.586 138.929 152.827C139.878 153.063 140.717 153.541 141.526 154.083C141.747 154.234 141.953 154.45 142.265 154.38" stroke="#1E3C70" stroke-width="1.5" stroke-linecap="round" stroke-linejoin="round"/>
<path d="M168.348 170.902C168.132 171.309 168.338 171.696 168.509 172.008C169.695 174.138 170.544 176.388 171.101 178.755C171.182 179.086 171.337 179.448 171.679 179.649" stroke="#1E3C70" stroke-width="1.5" stroke-linecap="round" stroke-linejoin="round"/>
<path d="M146.112 96.2726C145.65 95.7199 145.253 95.102 144.625 94.7252C143.751 94.1977 142.957 94.1927 142.189 94.6549C141.144 95.2829 141.089 96.5238 141.822 97.6039C142.133 98.0611 142.475 98.6288 142.942 98.8297C143.832 99.2166 144.676 99.7441 145.545 100.051C146.575 100.412 147.348 99.5331 147.816 98.5685" stroke="#1E3C70" stroke-width="1.5" stroke-linecap="round" stroke-linejoin="round"/>
<path d="M152.487 125.1C151.718 125.366 150.899 125.306 150.111 125.456C148.438 125.783 146.724 125.893 145.067 126.341C144.65 126.451 144.167 126.411 143.735 126.21" stroke="#1E3C70" stroke-width="1.5" stroke-linecap="round" stroke-linejoin="round"/>
<path d="M123.957 69.4395C122.174 72.1624 120.119 74.7095 118.687 77.6636C118.637 77.7741 118.637 77.8645 118.622 77.965" stroke="#1E3C70" stroke-width="1.5" stroke-linecap="round" stroke-linejoin="round"/>
<path d="M144.113 99.0861C144.113 98.433 144.053 97.6995 144.787 97.398C145.46 97.1217 146.259 96.981 146.836 97.5437C147.484 98.1717 148.143 98.4279 149.067 98.5636C150.087 98.7193 150.785 99.6538 151.157 100.709C151.544 101.809 151.147 102.608 150.042 102.939C149.012 103.251 148.253 102.789 147.61 102.105C147.288 101.764 146.982 101.432 146.56 101.231" stroke="#1E3C70" stroke-width="1.5" stroke-linecap="round" stroke-linejoin="round"/>
<path d="M69.7795 140.146C68.8048 140.418 67.79 140.478 66.8204 140.332C66.107 140.222 65.4288 140.207 64.7405 140.307C64.0472 140.408 63.8462 140.689 63.8513 141.407C63.8513 142 63.8965 142.593 63.9216 143.186" stroke="#1E3C70" stroke-width="1.5" stroke-linecap="round" stroke-linejoin="round"/>
<path d="M156.341 110.129C155.628 110.244 154.935 110.435 154.191 110.45C152.835 110.476 151.554 110.079 150.272 109.792C149.027 109.516 147.906 109.627 146.781 110.129C146.113 110.425 145.354 110.551 144.852 111.164C144.626 111.435 144.073 111.088 143.967 111.611" stroke="#1E3C70" stroke-width="1.5" stroke-linecap="round" stroke-linejoin="round"/>
<path d="M148.193 139.629C146.7 139.071 145.158 139.026 143.596 139.186C142.576 139.292 141.596 139.563 140.622 139.9C140.139 140.071 139.808 140.297 139.592 140.739" stroke="#1E3C70" stroke-width="1.5" stroke-linecap="round" stroke-linejoin="round"/>
<path d="M149.448 98.5682C149.694 98.0206 150.252 97.7443 150.579 97.2469C151.131 96.3929 151.232 95.991 150.785 95.3831C150.232 94.6295 149.287 94.2326 148.564 94.4989C147.614 94.8505 146.881 95.5288 146.198 96.2422C146.002 96.4481 146.027 96.7898 146.042 97.0862" stroke="#1E3C70" stroke-width="1.5" stroke-linecap="round" stroke-linejoin="round"/>
<path d="M61.4041 98.5684C59.9823 97.639 58.3697 97.3978 56.7319 97.3275C55.7974 97.2873 54.853 97.423 53.9185 97.5536C53.7226 97.5837 53.5668 97.4883 53.396 97.5285" stroke="#1E3C70" stroke-width="1.5" stroke-linecap="round" stroke-linejoin="round"/>
<path d="M138.854 64.627C139.15 65.8126 139.477 66.9932 139.738 68.1839C140.054 69.6257 140.622 71.0023 140.783 72.4793" stroke="#1E3C70" stroke-width="1.5" stroke-linecap="round" stroke-linejoin="round"/>
<path d="M63.9971 143.332C64.0121 143.779 64.0373 144.221 64.0523 144.668C64.1076 146.09 64.7657 146.351 65.9966 146.442C67.0315 146.517 68.0714 146.547 69.1114 146.593C69.3726 146.603 69.6138 146.608 69.5937 146.964" stroke="#1E3C70" stroke-width="1.5" stroke-linecap="round" stroke-linejoin="round"/>
<path d="M120.842 123.025C122.214 124.829 121.721 126.386 120.475 127.622C119.561 128.532 118.436 128.768 117.21 128.728C117.084 128.728 116.969 128.748 116.833 128.662C115.431 127.763 114.02 126.879 112.613 125.989" stroke="#1E3C70" stroke-width="1.5" stroke-linecap="round" stroke-linejoin="round"/>
<path d="M139.149 140.885C138.978 141.116 138.732 141.126 138.481 141.106C137.315 141.01 137.165 141.111 136.21 142.191C136.095 144.105 137.722 144.155 138.863 144.643C139.877 145.075 140.988 145.276 142.033 145.652C142.294 145.748 142.691 145.828 142.781 146.22" stroke="#1E3C70" stroke-width="1.5" stroke-linecap="round" stroke-linejoin="round"/>
<path d="M78.8929 120.579C78.0991 120.137 77.2651 120.419 76.4462 120.439C74.6025 120.479 72.8089 120.861 71.0405 121.338C70.8597 121.388 70.7391 121.328 70.5934 121.323C69.9604 121.308 69.3274 121.308 68.7396 121.614C68.3226 121.83 67.9207 122.021 67.4083 122.011C66.8707 122.001 66.5592 122.554 66.5944 123.247C66.6044 123.443 66.6396 123.644 66.6647 123.84" stroke="#FF6A1F" stroke-width="1.5" stroke-linecap="round" stroke-linejoin="round"/>
<path d="M122.324 101.754C122.857 101.664 122.821 102.201 122.967 102.438C123.49 103.307 124.032 104.181 125.072 104.397C125.881 104.563 126.388 105.065 126.83 105.623C127.885 106.949 128.91 108.3 129.865 109.697C130.428 110.516 131.211 111.174 131.704 112.003C132.874 113.992 134.266 115.816 135.597 117.685C136.054 118.328 136.391 119.202 137.441 119.102" stroke="#1E3C70" stroke-width="1.5" stroke-linecap="round" stroke-linejoin="round"/>
<path d="M136.11 62.1816C136.045 63.1211 135.648 63.9701 135.356 64.8443C134.859 66.3314 134.357 67.8385 133.739 69.2653C133.317 70.2349 133.045 71.4105 132.046 72.129C131.171 72.7569 130.83 73.8471 130.137 74.656C129.624 75.2538 129.051 75.711 128.403 76.1129" stroke="#1E3C70" stroke-width="1.5" stroke-linecap="round" stroke-linejoin="round"/>
<path d="M154.858 140.814C154.075 140.312 153.341 140.442 152.552 140.874C150.965 141.749 149.252 142.361 147.659 143.241C147.227 143.477 146.951 143.904 146.464 144.029C146.363 144.894 146.725 145.557 147.142 146.23C147.82 147.34 148.378 148.511 148.413 149.857" stroke="#1E3C70" stroke-width="1.5" stroke-linecap="round" stroke-linejoin="round"/>
<path d="M137.814 161.713C137.487 161.818 137.533 162.12 137.613 162.296C137.693 162.477 137.874 162.733 138.191 162.532C138.261 162.487 138.387 162.537 138.482 162.522C139.909 162.296 140.386 162.647 140.24 164.079C140.065 165.838 140.165 167.591 140.115 169.344C140.095 170.058 139.969 170.148 139.226 170.248C138.653 170.324 138.186 170.294 137.643 169.977C137.236 169.736 136.628 169.832 136.111 169.791C134.754 169.686 133.398 169.636 132.036 169.62C131.589 169.62 131.147 169.5 130.7 169.641" stroke="#1E3C70" stroke-width="1.5" stroke-linecap="round" stroke-linejoin="round"/>
<path d="M93.4222 54.3223C92.3772 55.2919 90.9856 55.3723 89.7096 55.7139C88.9962 55.9048 88.2526 56.0555 87.489 56.0505C87.1675 56.0505 86.8459 56.2766 86.5244 56.4022" stroke="#1E3C70" stroke-width="1.5" stroke-linecap="round" stroke-linejoin="round"/>
<path d="M142.892 130.289C143.103 131.776 142.41 132.917 141.44 133.911C140.817 134.549 140.275 135.298 139.893 136.031C139.541 136.71 139.41 137.729 139.968 138.548" stroke="#1E3C70" stroke-width="1.5" stroke-linecap="round" stroke-linejoin="round"/>
<path d="M139.667 178.238C140.2 178.791 139.933 179.529 140.079 180.172C140.325 181.278 140.511 182.398 140.772 183.503C140.888 183.986 140.928 184.488 141.003 184.985" stroke="#1E3C70" stroke-width="1.5" stroke-linecap="round" stroke-linejoin="round"/>
<path d="M139.888 141.035C140.556 141.658 141.476 141.653 142.265 141.985C143.686 142.583 145.173 143.025 146.409 143.999" stroke="#1E3C70" stroke-width="1.5" stroke-linecap="round" stroke-linejoin="round"/>
<path d="M32.8685 121.247C32.4565 121.182 32.2355 120.875 31.9692 120.589C31.1554 119.72 30.3264 118.861 29.3116 118.213C29.1106 118.082 28.8795 117.982 28.6484 117.916C27.4578 117.575 27.3774 117.741 27.2015 118.65C27.1814 118.75 27.1312 118.846 27.091 118.946" stroke="#1E3C70" stroke-width="1.5" stroke-linecap="round" stroke-linejoin="round"/>
<path d="M128.7 60.4023C127.931 60.9449 127.876 61.8693 127.524 62.6279C127.047 63.6528 126.625 64.6978 126.183 65.7377C126.047 66.0542 125.871 66.3155 125.514 66.4059" stroke="#1E3C70" stroke-width="1.5" stroke-linecap="round" stroke-linejoin="round"/>
<path d="M125.067 95.6055C126.057 95.6708 127.051 95.4949 128.036 95.8115C129.091 96.1481 129.835 96.8765 130.458 97.6954C130.995 98.4038 130.427 99.6497 129.443 100.197C129.076 100.403 128.704 100.594 128.333 100.79" stroke="#1E3C70" stroke-width="1.5" stroke-linecap="round" stroke-linejoin="round"/>
<path d="M72.9652 140.07C73.5781 140.713 73.7489 141.512 73.7841 142.366C73.7992 142.713 73.8595 143.06 73.9298 143.401C74.1408 144.436 73.8846 145.386 73.4073 146.29" stroke="#1E3C70" stroke-width="1.5" stroke-linecap="round" stroke-linejoin="round"/>
<path d="M125.881 111.837C125.268 111.732 124.676 111.606 124.093 111.34C123.158 110.913 122.204 111.229 121.289 111.546C120.862 111.692 120.451 111.887 120.028 112.058" stroke="#1E3C70" stroke-width="1.5" stroke-linecap="round" stroke-linejoin="round"/>
<path d="M69.7797 125.1C70.0962 125.934 70.2067 126.838 70.1816 127.692C70.1565 128.707 70.7593 129.32 71.4275 129.571C72.8292 130.093 74.2811 130.525 75.7832 130.726C75.8535 130.736 75.9289 130.681 76.0043 130.656" stroke="#1E3C70" stroke-width="1.5" stroke-linecap="round" stroke-linejoin="round"/>
<path d="M54.2158 137.328C54.3364 139.117 53.7135 140.769 53.2211 142.432C52.99 143.211 53.2312 143.779 53.5678 144.362C53.7486 144.673 54.0953 144.899 54.5123 144.738C55.0046 144.552 55.5271 143.849 55.4567 143.407C55.4367 143.286 55.4266 143.156 55.4015 143.035" stroke="#1E3C70" stroke-width="1.5" stroke-linecap="round" stroke-linejoin="round"/>
<path d="M77.7824 140.885C79.0886 142.573 78.958 144.557 78.9681 146.517" stroke="#1E3C70" stroke-width="1.5" stroke-linecap="round" stroke-linejoin="round"/>
<path d="M133.292 119.248C132.423 119.645 131.705 119.072 131.006 118.77C129.896 118.288 128.781 117.936 127.585 117.836" stroke="#1E3C70" stroke-width="1.5" stroke-linecap="round" stroke-linejoin="round"/>
<path d="M151.157 174.611C152.121 176.46 153.166 178.254 154.488 179.876C154.578 179.987 154.638 180.123 154.714 180.243" stroke="#1E3C70" stroke-width="1.5" stroke-linecap="round" stroke-linejoin="round"/>
<path d="M148.339 132.213C148.58 130.932 147.324 129.37 146.113 129.385C145.395 129.395 145.093 129.922 144.711 130.365C144.561 130.54 144.46 130.756 144.335 130.952" stroke="#1E3C70" stroke-width="1.5" stroke-linecap="round" stroke-linejoin="round"/>
<path d="M94.0901 112.059C93.0803 112.265 92.4071 113.043 91.5732 113.546C90.6035 114.128 89.649 114.741 88.6794 115.314C88.3579 115.505 88.0916 115.716 87.9409 116.063" stroke="#1E3C70" stroke-width="1.5" stroke-linecap="round" stroke-linejoin="round"/>
<path d="M134.111 35.5742C132.885 35.8204 131.639 35.7048 130.403 35.7149C129.755 35.7199 129.117 35.7701 128.474 35.8706" stroke="#FF6A1F" stroke-width="1.5" stroke-linecap="round" stroke-linejoin="round"/>
<path d="M69.7043 146.744C70.9301 146.538 72.1911 146.252 73.4069 146.412C75.0899 146.633 76.7679 146.704 78.4509 146.643C79.114 146.618 79.6365 146.92 80.2293 147.05C80.2695 147.06 80.2796 147.191 80.3047 147.266" stroke="#1E3C70" stroke-width="1.5" stroke-linecap="round" stroke-linejoin="round"/>
<path d="M74.226 140.74C75.1454 140.685 76.0598 140.755 76.9691 140.876C77.1801 140.906 77.4514 141.002 77.6322 140.806C78.2954 140.092 79.2198 140.379 80.0136 140.153C80.3351 140.062 81.0535 140.76 81.1942 141.253C81.6664 142.926 82.0884 144.604 81.9377 146.367" stroke="#1E3C70" stroke-width="1.5" stroke-linecap="round" stroke-linejoin="round"/>
<path d="M124.178 97.6035C124.942 98.1461 125.791 98.6083 126.454 99.2564C127.253 100.03 128.238 100.608 128.795 101.668C129.664 103.326 128.66 104.933 127.288 105.245C127.107 105.285 126.941 105.391 126.771 105.461" stroke="#1E3C70" stroke-width="1.5" stroke-linecap="round" stroke-linejoin="round"/>
<path d="M158.788 139.037C160.149 140.002 161.646 140.79 163.244 141.137C164.972 141.514 166.384 142.499 167.976 143.111" stroke="#1E3C70" stroke-width="1.5" stroke-linecap="round" stroke-linejoin="round"/>
<path d="M70.1508 139.403C69.7439 138.916 69.136 138.916 68.5934 138.82C67.3776 138.614 66.1518 138.464 64.926 138.293" stroke="#1E3C70" stroke-width="1.5" stroke-linecap="round" stroke-linejoin="round"/>
<path d="M113.136 162.898C113.729 163.858 113.573 164.973 113.799 166.013C113.95 166.702 113.915 167.42 114.176 168.088" stroke="#1E3C70" stroke-width="1.5" stroke-linecap="round" stroke-linejoin="round"/>
<path d="M132.478 71.8867C132.859 72.6704 132.392 73.3537 132.161 74.0269C131.875 74.8558 131.412 75.6094 130.709 76.1922C130.493 76.3731 130.172 76.5388 130.257 76.9257" stroke="#1E3C70" stroke-width="1.5" stroke-linecap="round" stroke-linejoin="round"/>
<path d="M154.714 40.7588C153.247 39.538 151.584 38.7593 149.675 38.5332" stroke="#FF6A1F" stroke-width="1.5" stroke-linecap="round" stroke-linejoin="round"/>
<path d="M122.179 101.98C121.697 102.538 121.32 103.176 120.772 103.689C119.556 104.829 118.873 104.924 117.436 104.131" stroke="#1E3C70" stroke-width="1.5" stroke-linecap="round" stroke-linejoin="round"/>
<path d="M66.8154 122.212C66.0166 121.88 65.2781 122.091 64.5998 122.518C64.1879 122.774 63.7508 122.609 63.3288 122.714C62.54 122.915 61.7161 122.945 60.9525 123.307C60.4702 123.538 60.3295 123.809 60.5154 124.287C60.7164 124.809 60.5054 125.085 59.998 125.256C59.0786 125.563 58.1291 125.718 57.1796 125.824C56.1848 125.934 55.6272 125.321 55.7729 124.432" stroke="#FF6A1F" stroke-width="1.5" stroke-linecap="round" stroke-linejoin="round"/>
<path d="M134.924 105.607C134.356 105.381 133.959 105.683 133.592 106.054C133.14 106.507 133.055 107.135 133.326 107.592C133.854 108.496 134.225 109.566 135.366 109.993C135.793 110.154 136.155 110.48 136.556 110.717C137.194 111.093 137.516 112.299 137.315 112.947C137.104 113.63 136.908 114.299 137.089 115.102C137.24 115.771 136.983 116.559 137.305 117.233C137.833 118.328 137.461 119.538 137.812 120.649" stroke="#1E3C70" stroke-width="1.5" stroke-linecap="round" stroke-linejoin="round"/>
<path d="M126.033 51.9512C126.058 52.4837 125.972 52.9911 125.822 53.5136C125.51 54.5837 126.108 55.272 127.218 55.3021C127.916 55.3222 128.6 55.2268 129.293 55.2067C130.378 55.1815 131.293 55.5282 132.036 56.322" stroke="#1E3C70" stroke-width="1.5" stroke-linecap="round" stroke-linejoin="round"/>
<path d="M139.963 165.643C138.988 165.994 138.813 166.889 138.561 167.717C138.325 168.496 138.29 169.33 137.964 170.089" stroke="#1E3C70" stroke-width="1.5" stroke-linecap="round" stroke-linejoin="round"/>
<path d="M142.928 99.0879C142.732 99.2587 142.511 99.4144 142.341 99.6104C141.361 100.746 141.612 102.168 142.928 102.941C143.149 103.072 143.37 103.187 143.597 103.313" stroke="#1E3C70" stroke-width="1.5" stroke-linecap="round" stroke-linejoin="round"/>
<path d="M139.591 170.387C139.516 171.552 138.732 172.165 137.817 172.688C137.411 172.919 136.973 173.08 136.561 173.296C136.3 173.431 135.933 173.547 135.883 173.944" stroke="#1E3C70" stroke-width="1.5" stroke-linecap="round" stroke-linejoin="round"/>
<path d="M86.0813 49.582C85.3729 50.9083 84.9911 52.3703 84.3782 53.7318C84.3028 53.9026 84.2275 54.0784 84.1571 54.2492" stroke="#1E3C70" stroke-width="1.5" stroke-linecap="round" stroke-linejoin="round"/>
<path d="M56.6624 137.699C56.3309 138.533 56.3761 139.432 56.2454 140.297C56.145 140.975 56.0143 141.633 55.8435 142.291" stroke="#1E3C70" stroke-width="1.5" stroke-linecap="round" stroke-linejoin="round"/>
<path d="M77.1144 125.547C77.1546 126.707 76.7979 127.818 76.6723 128.958C76.6271 129.35 76.6221 129.747 76.597 130.144" stroke="#1E3C70" stroke-width="1.5" stroke-linecap="round" stroke-linejoin="round"/>
<path d="M140.411 173.349C139.773 172.917 139.185 173.254 138.552 173.4C137.833 173.57 137.225 174.148 136.482 174.068C135.563 173.967 134.859 174.404 134.106 174.756" stroke="#1E3C70" stroke-width="1.5" stroke-linecap="round" stroke-linejoin="round"/>
<path d="M77.4867 139.996C77.3159 139.765 77.0698 139.765 76.8186 139.775C75.7234 139.805 74.6281 139.785 73.5631 139.534C73.2918 139.469 73.1863 139.569 73.0406 139.7" stroke="#1E3C70" stroke-width="1.5" stroke-linecap="round" stroke-linejoin="round"/>
<path d="M127.288 100.202C126.977 100.357 126.595 100.377 126.334 100.257C125.173 99.7142 124.028 99.5333 122.842 100.126" stroke="#1E3C70" stroke-width="1.5" stroke-linecap="round" stroke-linejoin="round"/>
<path d="M141.37 17.0808C141.003 16.8798 140.968 16.4679 140.777 16.1564C140.451 15.6289 140.174 15.654 139.808 16.1514C139.365 16.7492 139.345 17.5531 138.798 18.1057C138.697 18.2062 138.873 18.5779 138.923 18.8241" stroke="#1E3C70" stroke-width="1.5" stroke-linecap="round" stroke-linejoin="round"/>
<path d="M133.221 127.174C134.472 127.958 135.486 128.982 136.436 130.118C136.984 130.771 137.431 131.439 137.747 132.213C137.863 132.499 137.973 132.851 138.199 133.007C138.546 133.248 138.727 133.579 138.456 133.815C138.209 134.026 137.737 134.202 137.375 133.916C136.602 133.303 135.773 132.806 134.858 132.419C134.512 132.273 134.125 132.358 133.798 132.082C133.391 131.741 132.939 131.474 132.839 130.881C132.784 130.53 132.527 130.419 132.176 130.429C131.603 130.444 131.096 130.535 130.684 131.022C130.201 131.595 129.558 131.987 128.915 132.364" stroke="#1E3C70" stroke-width="1.5" stroke-linecap="round" stroke-linejoin="round"/>
<path d="M120.545 122.805C120.138 122.378 119.691 122.006 119.139 121.765C117.978 121.253 116.888 121.614 115.969 122.242C114.773 123.056 113.874 124.237 112.834 125.247C112.608 125.468 112.698 125.89 112.321 125.99" stroke="#1E3C70" stroke-width="1.5" stroke-linecap="round" stroke-linejoin="round"/>
<path d="M140.115 170.158C140.692 170.942 140.677 171.907 140.577 172.746C140.471 173.665 140.687 174.594 140.411 175.494C140.17 176.277 140.16 177.227 139.693 177.825C139.12 178.563 138.537 179.387 137.668 179.864" stroke="#1E3C70" stroke-width="1.5" stroke-linecap="round" stroke-linejoin="round"/>
<path d="M56.1439 144.447C56.8372 145.271 56.8372 146.276 56.8774 147.266C56.8974 147.748 56.7367 148.17 56.1439 148.23" stroke="#1E3C70" stroke-width="1.5" stroke-linecap="round" stroke-linejoin="round"/>
<path d="M137.146 152.672C136.533 153.159 135.92 153.672 135.9 154.526C135.884 155.189 136.196 155.757 136.854 155.998C137.794 156.349 138.753 156.636 139.743 156.822" stroke="#1E3C70" stroke-width="1.5" stroke-linecap="round" stroke-linejoin="round"/>
<path d="M60.3654 123.693C59.4661 122.89 58.4764 123.437 57.557 123.588C57.1551 123.653 56.6025 123.543 56.291 123.99" stroke="#FF6A1F" stroke-width="1.5" stroke-linecap="round" stroke-linejoin="round"/>
<path d="M143.967 136.143C142.566 136.675 141.33 137.479 140.184 138.439C139.762 138.79 139.707 139.277 140.039 140.071" stroke="#1E3C70" stroke-width="1.5" stroke-linecap="round" stroke-linejoin="round"/>
<path d="M123.434 100.568C124.228 101.633 124.901 102.769 125.589 103.899C125.715 104.105 125.65 104.296 125.66 104.497" stroke="#1E3C70" stroke-width="1.5" stroke-linecap="round" stroke-linejoin="round"/>
<path d="M124.028 167.566C123.304 168.441 122.385 168.958 121.3 169.315C120.797 169.481 120.275 169.526 119.798 169.596C118.803 169.737 117.788 169.852 116.763 169.807C115.939 169.767 115.336 169.455 114.904 168.757C114.799 168.581 114.613 168.456 114.467 168.31" stroke="#1E3C70" stroke-width="1.5" stroke-linecap="round" stroke-linejoin="round"/>
<path d="M143.002 130.732C143.545 130.4 144.012 130.742 144.318 131.048C145.469 132.199 146.564 133.404 147.303 134.881" stroke="#1E3C70" stroke-width="1.5" stroke-linecap="round" stroke-linejoin="round"/>
<path d="M142.63 82.9297C142.238 83.0905 141.786 83.0804 141.445 83.3718C141.073 83.6883 141.033 84.0902 141.234 84.477C141.49 84.9694 142.063 85.1754 142.485 84.9995C143.595 84.5424 143.69 83.8993 142.781 83" stroke="#1E3C70" stroke-width="1.5" stroke-linecap="round" stroke-linejoin="round"/>
<path d="M137.888 120.805C138.109 121.006 138.215 121.252 138.185 121.548C138.084 122.533 138.381 123.538 137.989 124.522C137.883 124.784 137.989 125.196 138.129 125.467C138.662 126.482 138.496 127.426 137.969 128.366" stroke="#1E3C70" stroke-width="1.5" stroke-linecap="round" stroke-linejoin="round"/>
<path d="M144.706 103.167C144.254 102.83 143.796 102.83 143.61 103.393C143.379 104.091 142.922 104.719 142.857 105.463C142.666 107.799 141.757 109.959 141.214 112.205C141.088 112.728 140.737 113.175 140.445 113.592C140.054 114.154 139.727 114.742 139.37 115.32" stroke="#1E3C70" stroke-width="1.5" stroke-linecap="round" stroke-linejoin="round"/>
<path d="M122.4 99.8303C121.757 98.8808 121.099 99.6545 120.476 99.8454C119.863 100.031 119.281 100.313 118.698 100.579C118.457 100.689 118.21 100.73 117.954 100.72" stroke="#1E3C70" stroke-width="1.5" stroke-linecap="round" stroke-linejoin="round"/>
<path d="M136.778 123.914C136.542 124.688 136.863 125.411 137.024 126.135C137.13 126.617 137.105 127.039 136.929 127.471" stroke="#1E3C70" stroke-width="1.5" stroke-linecap="round" stroke-linejoin="round"/>
<path d="M137.221 115.243C137.567 115.193 137.924 115.188 138.256 115.082C138.763 114.922 139.15 115.163 139.426 115.479C139.692 115.781 139.702 116.137 139.471 116.59C139.08 117.363 138.858 118.172 139.255 119.112C139.567 119.855 139.803 120.689 139.733 121.543C139.713 121.759 139.833 121.865 139.959 121.99" stroke="#1E3C70" stroke-width="1.5" stroke-linecap="round" stroke-linejoin="round"/>
<path d="M138.557 114.947C138.808 113.847 139.325 112.822 139.446 111.686C139.571 110.511 139.818 109.355 139.993 108.195C140.129 107.3 139.792 106.346 139.506 105.467C139.325 104.919 137.888 104.487 137.306 104.663C136.567 104.889 135.859 105.22 135.155 105.542C134.799 105.703 134.598 106.778 134.804 107.381C135.296 107.275 135.763 107.245 136.065 106.657C136.336 106.125 136.045 105.828 135.819 105.462" stroke="#1E3C70" stroke-width="1.5" stroke-linecap="round" stroke-linejoin="round"/>
<path d="M131.071 130.511C130.845 129.41 129.84 129.41 129.066 129.114C128.75 128.993 128.378 129.003 128.031 128.953" stroke="#1E3C70" stroke-width="1.5" stroke-linecap="round" stroke-linejoin="round"/>
<path d="M142.038 179.127C143.128 179.78 143.972 180.669 144.389 181.875C144.51 182.222 144.665 182.242 144.932 182.237" stroke="#1E3C70" stroke-width="1.5" stroke-linecap="round" stroke-linejoin="round"/>
<path d="M147.6 156.676C146.796 157.791 145.646 158.268 144.34 158.454" stroke="#1E3C70" stroke-width="1.5" stroke-linecap="round" stroke-linejoin="round"/>
<path d="M139.742 116.283C140.51 116.7 140.842 117.509 141.369 118.137C141.666 118.489 141.887 118.901 142.193 119.237C142.761 119.865 142.696 120.609 141.882 120.925C140.621 121.423 140.153 122.432 139.802 123.608C139.561 124.422 139.269 125.236 138.702 125.909" stroke="#1E3C70" stroke-width="1.5" stroke-linecap="round" stroke-linejoin="round"/>
<path d="M157.602 28.3848C157.231 28.7817 156.834 29.1534 156.497 29.5754C155.648 30.6505 155.959 31.7407 157.457 32.012C158.25 32.1577 159.004 32.4039 159.753 32.6852" stroke="#FF6A1F" stroke-width="1.5" stroke-linecap="round" stroke-linejoin="round"/>
<path d="M116.989 128.807C116.738 130.017 116.939 131.228 116.979 132.439C117.009 133.398 116.939 134.363 116.914 135.328" stroke="#1E3C70" stroke-width="1.5" stroke-linecap="round" stroke-linejoin="round"/>
<path d="M67.2572 143.483C65.946 143.383 64.6398 143.287 63.3285 143.187C62.9568 143.162 62.585 143.136 62.2183 143.111" stroke="#1E3C70" stroke-width="1.5" stroke-linecap="round" stroke-linejoin="round"/>
<path d="M146.408 100.201C146.675 100.749 146.624 101.241 146.187 101.683C146.152 101.718 146.147 101.799 146.112 101.829C144.916 102.773 144.429 104.185 143.751 105.466C143.565 105.818 143.369 106.114 142.997 106.275" stroke="#1E3C70" stroke-width="1.5" stroke-linecap="round" stroke-linejoin="round"/>
<path d="M134.407 109.611C134.061 109.797 133.669 109.777 133.297 109.847C132.413 110.013 131.961 110.671 131.664 111.46" stroke="#1E3C70" stroke-width="1.5" stroke-linecap="round" stroke-linejoin="round"/>
<path d="M139.743 108.721C138.663 108.706 138.065 109.424 137.522 110.208C137.366 110.434 137.271 110.7 137.145 110.947" stroke="#1E3C70" stroke-width="1.5" stroke-linecap="round" stroke-linejoin="round"/>
<path d="M64.7403 138.367C63.5295 138.689 62.9467 139.719 62.2183 140.593" stroke="#1E3C70" stroke-width="1.5" stroke-linecap="round" stroke-linejoin="round"/>
<path d="M72.8545 139.925C72.0758 139.483 71.1916 139.724 70.3677 139.579C70.2722 139.564 70.1265 139.855 70.0009 140.001" stroke="#1E3C70" stroke-width="1.5" stroke-linecap="round" stroke-linejoin="round"/>
<path d="M141.962 121.025C142.229 121.769 141.671 122.402 141.676 123.1C141.676 124.18 140.973 124.979 140.641 125.919C140.269 126.969 139.656 127.873 139.074 128.807" stroke="#1E3C70" stroke-width="1.5" stroke-linecap="round" stroke-linejoin="round"/>
<path d="M74.3767 182.688C73.7588 183.331 73.1107 183.949 72.538 184.627C72.2516 184.963 71.9401 185.009 71.5633 184.988" stroke="#1E3C70" stroke-width="1.5" stroke-linecap="round" stroke-linejoin="round"/>
<path d="M61.7755 144.372C61.0169 144.608 60.2935 144.261 59.55 144.231C59.3038 144.221 59.0576 144.035 58.8114 144.221" stroke="#1E3C70" stroke-width="1.5" stroke-linecap="round" stroke-linejoin="round"/>
<path d="M135.22 112.5C134.266 112.686 133.296 112.641 132.332 112.651" stroke="#1E3C70" stroke-width="1.5" stroke-linecap="round" stroke-linejoin="round"/>
<path d="M137.22 111.906C136.798 111.906 136.351 111.816 135.969 111.926C135.436 112.087 135.09 113.031 135.22 113.684C135.326 114.197 135.743 114.468 136.481 114.498C136.607 114.503 136.727 114.498 136.853 114.498" stroke="#1E3C70" stroke-width="1.5" stroke-linecap="round" stroke-linejoin="round"/>
<path d="M104.54 140.52C104.073 141.62 103.335 142.484 102.315 143.112" stroke="#1E3C70" stroke-width="1.5" stroke-linecap="round" stroke-linejoin="round"/>
<path d="M169.982 85.2305C169.846 86.1699 169.56 87.0893 169.534 88.0489" stroke="#1E3C70" stroke-width="1.5" stroke-linecap="round" stroke-linejoin="round"/>
<path d="M156.563 56.916C156.673 57.6395 156.01 58.0213 155.804 58.6141C155.668 59.016 155.377 59.3627 155.151 59.7294" stroke="#1E3C70" stroke-width="1.5" stroke-linecap="round" stroke-linejoin="round"/>
<path d="M128.996 77.4469C128.745 77.1053 128.488 76.7788 128.393 76.3367C128.242 75.6233 127.644 75.7036 127.142 75.7539C126.695 75.7991 126.278 76.0151 125.811 76.0654C125.338 76.1156 125.097 76.6331 124.856 77.0099C124.525 77.5223 124.138 77.9644 123.655 78.3362" stroke="#1E3C70" stroke-width="1.5" stroke-linecap="round" stroke-linejoin="round"/>
<path d="M141.003 73.5957C141.169 74.4749 141.43 75.349 141.224 76.2634C141.214 76.3136 141.144 76.399 141.154 76.4091C141.697 76.8763 141.254 77.5194 141.445 78.0469" stroke="#1E3C70" stroke-width="1.5" stroke-linecap="round" stroke-linejoin="round"/>
<path d="M156.045 144.221C156.472 145.06 156.843 145.909 156.713 146.888" stroke="#1E3C70" stroke-width="1.5" stroke-linecap="round" stroke-linejoin="round"/>
<path d="M86.1569 55.8052C86.4432 54.8959 85.9057 54.3483 84.8959 54.5493C84.715 54.5844 84.5492 54.6899 84.3784 54.7653" stroke="#1E3C70" stroke-width="1.5" stroke-linecap="round" stroke-linejoin="round"/>
<path d="M145.374 100.201C145.053 100.769 144.741 101.342 144.41 101.904C144.229 102.206 144.153 102.522 144.189 102.869" stroke="#1E3C70" stroke-width="1.5" stroke-linecap="round" stroke-linejoin="round"/>
<path d="M155.969 148.668C156.12 149.361 156.286 150.05 156.406 150.743C156.472 151.12 156.582 151.446 156.858 151.702" stroke="#1E3C70" stroke-width="1.5" stroke-linecap="round" stroke-linejoin="round"/>
<path d="M124.028 97.4938C123.822 97.4586 123.716 97.318 123.571 97.1723C122.973 96.5644 122.521 96.5644 121.506 97.0869" stroke="#1E3C70" stroke-width="1.5" stroke-linecap="round" stroke-linejoin="round"/>
<path d="M127.288 128.884C126.484 128.864 125.69 128.949 124.916 129.18" stroke="#1E3C70" stroke-width="1.5" stroke-linecap="round" stroke-linejoin="round"/>
<path d="M124.253 129.326C123.47 129.628 122.696 129.939 122.475 130.884" stroke="#1E3C70" stroke-width="1.5" stroke-linecap="round" stroke-linejoin="round"/>
<path d="M158.12 29.3496C157.567 30.068 156.984 30.7663 156.562 31.5752" stroke="#FF6A1F" stroke-width="1.5" stroke-linecap="round" stroke-linejoin="round"/>
<path d="M156.638 33.9414C156.588 34.268 156.714 34.5393 156.839 34.8407C157.01 35.2476 157.216 35.6947 157.01 36.167" stroke="#FF6A1F" stroke-width="1.5" stroke-linecap="round" stroke-linejoin="round"/>
<path d="M133.884 69.5156C134.472 70.1034 134.733 70.9525 135.442 71.4448" stroke="#1E3C70" stroke-width="1.5" stroke-linecap="round" stroke-linejoin="round"/>
<path d="M137.738 128.586C137.12 129.159 137.432 129.993 137.145 130.661" stroke="#1E3C70" stroke-width="1.5" stroke-linecap="round" stroke-linejoin="round"/>
<path d="M188.655 115.395C188.791 115.455 188.977 115.425 188.961 115.691C188.921 116.208 188.931 116.726 188.916 117.248" stroke="#1E3C70" stroke-width="1.5" stroke-linecap="round" stroke-linejoin="round"/>
<path d="M155.377 145.633L155.824 148.079" stroke="#1E3C70" stroke-width="1.5" stroke-linecap="round" stroke-linejoin="round"/>
<path d="M141.666 124.135C142.299 124.743 142.741 125.521 143.444 126.064" stroke="#1E3C70" stroke-width="1.5" stroke-linecap="round" stroke-linejoin="round"/>
<path d="M138.557 133.922C138.919 134.208 139.094 134.615 139.215 135.037C139.305 135.354 139.436 135.625 139.672 135.851" stroke="#1E3C70" stroke-width="1.5" stroke-linecap="round" stroke-linejoin="round"/>
<path d="M144.334 182.02C143.666 182.126 142.937 181.809 142.335 182.317" stroke="#1E3C70" stroke-width="1.5" stroke-linecap="round" stroke-linejoin="round"/>
<path d="M141.962 108.722C141.354 108.511 140.812 108.079 140.108 108.204" stroke="#1E3C70" stroke-width="1.5" stroke-linecap="round" stroke-linejoin="round"/>
<path d="M139.964 177.72C140.617 177.69 141.149 178.067 141.742 178.238" stroke="#1E3C70" stroke-width="1.5" stroke-linecap="round" stroke-linejoin="round"/>
<path d="M143.003 111.762C142.551 112.274 142.008 112.586 141.3 112.505" stroke="#1E3C70" stroke-width="1.5" stroke-linecap="round" stroke-linejoin="round"/>
<path d="M46.7295 155.785C47.0359 156.021 46.9505 156.363 46.9455 156.674C46.9405 156.986 46.9907 157.277 47.0962 157.564" stroke="#1E3C70" stroke-width="1.5" stroke-linecap="round" stroke-linejoin="round"/>
<path d="M137.371 72.4785C138.045 72.8151 138.391 73.5888 139.15 73.8149" stroke="#1E3C70" stroke-width="1.5" stroke-linecap="round" stroke-linejoin="round"/>
<path d="M70.8145 121.467C70.8195 122.034 70.7693 122.607 70.8899 123.17" stroke="#FF6A1F" stroke-width="1.5" stroke-linecap="round" stroke-linejoin="round"/>
<path d="M69.4073 147.115C69.1611 147.392 68.8295 147.331 68.5181 147.336C68.2267 147.336 67.9152 147.276 67.7042 147.557" stroke="#1E3C70" stroke-width="1.5" stroke-linecap="round" stroke-linejoin="round"/>
<path d="M139.742 74.8496C140.23 75.3068 140.37 76.0704 141.079 76.3317" stroke="#1E3C70" stroke-width="1.5" stroke-linecap="round" stroke-linejoin="round"/>
<path d="M140.631 112.946C139.561 112.982 138.596 112.349 137.516 112.429" stroke="#1E3C70" stroke-width="1.5" stroke-linecap="round" stroke-linejoin="round"/>
<path d="M123.586 97.457C123.013 98.2307 123.224 99.2254 122.842 100.049" stroke="#1E3C70" stroke-width="1.5" stroke-linecap="round" stroke-linejoin="round"/>
<path d="M154.859 142.889C155.176 143.361 154.929 143.969 155.231 144.446" stroke="#1E3C70" stroke-width="1.5" stroke-linecap="round" stroke-linejoin="round"/>
<path d="M141.003 158.303C140.978 158.795 140.953 159.292 140.928 159.785" stroke="#1E3C70" stroke-width="1.5" stroke-linecap="round" stroke-linejoin="round"/>
<path d="M137.738 120.805C137.321 121.136 137.296 121.814 136.698 121.99" stroke="#1E3C70" stroke-width="1.5" stroke-linecap="round" stroke-linejoin="round"/>
<path d="M143.671 16.7489C142.636 15.2316 142.456 15.8797 141.596 16.8192C141.265 17.1859 141.225 17.623 141.23 18.0802" stroke="#1E3C70" stroke-width="1.5" stroke-linecap="round" stroke-linejoin="round"/>
<path d="M154.562 31.1992C154.688 31.3248 154.814 31.4454 154.934 31.571C155.487 32.1437 155.527 32.1437 156.195 31.6463" stroke="#FF6A1F" stroke-width="1.5" stroke-linecap="round" stroke-linejoin="round"/>
<path d="M142.706 82.9293C142.651 82.2762 142.198 82.1807 141.666 82.1857" stroke="#1E3C70" stroke-width="1.5" stroke-linecap="round" stroke-linejoin="round"/>
<path d="M139.371 157.709C139.18 158.242 139.527 158.623 139.743 159.045" stroke="#1E3C70" stroke-width="1.5" stroke-linecap="round" stroke-linejoin="round"/>
<path d="M139.074 159.936C139.626 160.066 139.687 160.518 139.742 160.975" stroke="#1E3C70" stroke-width="1.5" stroke-linecap="round" stroke-linejoin="round"/>
<path d="M139.37 110.65C138.933 110.871 138.486 111.067 138.109 111.394" stroke="#1E3C70" stroke-width="1.5" stroke-linecap="round" stroke-linejoin="round"/>
<path d="M141.445 123.617C140.932 123.572 140.676 123.04 140.184 122.949" stroke="#1E3C70" stroke-width="1.5" stroke-linecap="round" stroke-linejoin="round"/>
<path d="M157.526 54.9922C157.652 55.4443 157.27 55.7659 157.23 56.1778" stroke="#1E3C70" stroke-width="1.5" stroke-linecap="round" stroke-linejoin="round"/>
<path d="M121.511 42.7637C121.872 42.8792 122.244 42.9345 122.621 42.9144" stroke="#1E3C70" stroke-width="1.5" stroke-linecap="round" stroke-linejoin="round"/>
<path d="M95.1248 110.947C94.6475 111.013 94.5119 111.384 94.3813 111.761" stroke="#1E3C70" stroke-width="1.5" stroke-linecap="round" stroke-linejoin="round"/>
<path d="M121.289 133.695C121.309 134.047 121.289 134.399 121.44 134.735" stroke="#1E3C70" stroke-width="1.5" stroke-linecap="round" stroke-linejoin="round"/>
</svg>
