<svg width="195" height="196" viewBox="0 0 195 196" fill="none" xmlns="http://www.w3.org/2000/svg">
<g clip-path="url(#clip0_85_9730)">
<path d="M68.1658 148.092H-41.049C-50.1231 148.092 -59.1973 148.092 -68.2636 148.092C-69.8522 148.092 -69.8677 148.061 -69.8909 146.472C-69.9064 145.201 -69.9839 143.923 -69.9994 142.652C-70.0227 141.025 -69.364 140.335 -67.8142 140.723C-66.0706 141.156 -64.3194 140.986 -62.5913 140.994C-39.7394 141.087 -16.8798 141.118 5.97211 141.141C19.0602 141.156 32.1483 141.079 45.2365 141.172C51.18 141.218 57.1312 141.218 63.0747 141.257C63.2684 141.257 63.4622 141.242 63.6559 141.257C64.2758 141.311 64.8415 140.676 65.5234 141.242C66.3836 141.955 67.1042 142.73 67.4839 143.799C67.9876 145.186 68.7315 146.527 68.2898 148.084C69.3592 150.967 68.468 153.88 68.3518 156.771C68.2588 159.096 67.6157 161.397 67.3289 163.722C67.1197 165.411 66.8098 167.1 66.7633 168.813C66.7478 169.371 66.957 169.75 67.3677 169.96C72.0326 172.292 76.8138 174.353 81.9591 175.399C83.7414 175.764 85.5779 175.74 87.3989 175.779C90.0878 175.841 92.6605 175.136 95.2797 174.756C97.4029 174.454 99.5029 173.989 101.642 173.749C104.044 173.485 106.431 173.323 108.825 173.571C110.607 173.757 112.421 173.904 114.141 174.346C116.512 174.958 118.945 175.012 121.332 175.423C123.447 175.787 125.571 176.004 127.702 175.857C130.329 175.678 132.971 175.554 135.466 174.501C137.628 173.594 138.899 172.191 139.093 169.743C139.232 168.03 138.907 166.341 139.162 164.644C139.41 162.986 139.24 161.327 139.271 159.661C139.302 157.964 139.364 156.259 139.263 154.57C139.046 150.99 138.814 147.41 137.899 143.915C137.341 141.784 136.148 140.141 134.42 138.816C131.041 136.236 127.461 133.965 123.757 131.873C123.695 131.842 123.602 131.873 123.525 131.873" stroke="#1E3C70" stroke-width="2" stroke-linecap="round" stroke-linejoin="round"/>
<path d="M209.702 147.858C209.648 148.222 209.81 148.331 210.167 148.323C213.987 148.245 217.807 148.424 221.635 148.222C223.441 148.121 225.262 148.207 227.075 148.207C230.973 148.207 234.878 148.292 238.768 148.183C241.976 148.098 245.177 148.059 248.385 148.121C250.314 148.152 252.244 148.044 254.173 148.09C256.103 148.129 258.032 148.098 259.962 148.098H271.547C273.476 148.098 275.406 148.098 277.335 148.098C278.924 148.098 278.955 148.067 278.955 146.479C278.955 145.285 278.97 144.084 278.955 142.891C278.947 142.333 279.195 141.589 278.598 141.31C277.947 141.008 277.103 140.667 276.436 140.969C275.716 141.302 275.034 141.263 274.329 141.263C266.262 141.271 258.187 141.201 250.121 141.287C227.881 141.511 205.649 141.256 183.409 141.418C174.568 141.488 165.726 141.387 156.884 141.55C155.637 141.573 154.893 141.294 154.079 140.372C151.406 137.327 147.981 135.25 144.494 133.282C140.906 131.259 137.093 129.694 133.428 127.858C131.948 127.114 130.336 127.276 128.98 126.447" stroke="#1E3C70" stroke-width="2" stroke-linecap="round" stroke-linejoin="round"/>
<path d="M155.265 110.679C154.8 111.888 154.932 113.174 155.079 114.383C155.296 116.158 155.358 117.948 155.435 119.722C155.528 122.001 155.722 124.31 155.97 126.541C156.389 130.292 158.217 133.531 161.642 135.592C162.533 136.127 163.44 136.638 164.3 137.227C164.881 137.623 165.501 137.754 166.16 137.669C169.43 137.258 172.723 137.243 176.009 136.987C179.519 136.716 183.03 136.491 186.548 136.298C187.857 136.228 189.175 136.166 190.484 136.081C195.033 135.778 199.597 135.623 204.146 135.352C208.586 135.089 213.026 134.717 217.466 134.446C220.628 134.252 223.797 134.143 226.959 133.965C229.935 133.795 232.902 133.578 235.878 133.392C239.04 133.19 242.217 133.051 245.371 132.795C247.06 132.655 248.85 132.454 249.741 130.71C250.129 129.959 250.377 129.013 250.315 128.184C250.043 124.666 250.315 121.148 250.392 117.646C250.508 112.121 250.485 106.603 250.446 101.086C250.408 96.1033 250.284 91.1207 249.974 86.1458C249.71 81.9691 249.47 77.7846 248.889 73.6311C248.54 71.1127 248.269 68.5865 247.695 66.1068C246.781 62.1625 244.418 59.4271 240.752 57.7611C238.683 56.8235 236.514 56.4825 234.266 56.4902C230.988 56.498 227.703 56.4592 224.425 56.498C217.823 56.591 211.221 56.6685 204.618 56.8544C198.783 57.0172 192.956 57.2729 187.129 57.5441C183.456 57.7146 179.791 57.9626 176.125 58.257C175.381 58.319 174.397 58.195 174.095 59.2721" stroke="#FF6A1F" stroke-width="2" stroke-linecap="round" stroke-linejoin="round"/>
<path d="M47.4374 53.9257C46.7167 53.8249 46.1433 54.3286 45.4691 54.3829C44.3223 54.4759 43.3149 54.1117 42.4315 53.1973C41.8658 54.1969 40.8739 54.3829 40.0216 54.7161C35.0854 56.6688 31.4356 60.1481 28.5917 64.4876C26.329 67.9437 24.3453 71.578 22.4003 75.2278C20.3313 79.1178 18.3785 83.062 16.5265 87.0605C13.6903 93.1823 11.0557 99.3893 8.99443 105.821C8.16529 108.401 7.43687 111.021 7.06492 113.702C6.8557 115.213 6.70847 116.794 7.03393 118.328C7.40588 120.095 8.77746 120.986 10.273 121.683C13.5741 123.218 17.1387 123.698 20.6877 124.287C22.5397 124.597 24.4383 124.512 26.2825 125.077C26.9567 125.287 27.9486 125.101 28.801 125.139C32.1563 125.287 35.5039 125.759 38.8824 125.426C39.9518 125.325 40.6492 124.612 41.5404 124.24C42.23 123.954 42.9274 123.744 43.6249 124.24" stroke="#1E3C70" stroke-width="2" stroke-linecap="round" stroke-linejoin="round"/>
<path d="M35.5115 127.123C35.1473 126.898 34.7366 127.014 34.3569 127.014C28.3746 126.968 22.3846 127.014 16.4023 126.867C12.8843 126.782 9.37397 126.828 5.86366 126.782C1.81092 126.727 -2.24958 126.782 -6.29457 126.634C-9.89012 126.503 -13.4779 126.596 -17.0657 126.549C-21.1185 126.495 -25.1712 126.472 -29.224 126.425C-30.6498 126.41 -32.0911 126.441 -33.5092 126.293C-35.7331 126.069 -37.6859 126.789 -39.6619 127.68C-43.7611 129.525 -47.9224 131.23 -52.0449 133.035C-55.9969 134.779 -59.9179 136.584 -63.8621 138.351C-64.6525 138.707 -65.4894 138.948 -66.2876 139.289C-66.9075 139.552 -67.5662 139.808 -67.7986 140.552" stroke="#1E3C70" stroke-width="2" stroke-linecap="round" stroke-linejoin="round"/>
<path d="M89.0191 57.0566C89.4221 57.6068 89.98 57.8315 90.6386 58.002C95.4895 59.2574 100.418 60.3345 104.982 62.4267C107.756 63.7053 109.887 65.9525 111.941 68.1843C115.064 71.5861 117.644 75.4373 120.635 78.9477C124.114 83.0314 127.757 86.9989 131.019 91.2531C135.18 96.6697 139.535 101.986 142.619 108.146C143.107 109.122 143.797 110.06 143.41 111.401C143.224 112.052 143.844 112.912 144.022 113.694C144.27 114.795 144.649 115.88 144.89 116.949C145.525 119.801 144.06 122.311 141.379 123.784C140.798 124.101 140.294 124.396 139.636 124.117" stroke="#1E3C70" stroke-width="2" stroke-linecap="round" stroke-linejoin="round"/>
<path d="M250.005 148.549V154.105H229.966C227.765 154.105 225.564 154.144 223.364 154.097C221.163 154.043 218.962 154.198 216.762 154.136C214.561 154.066 212.36 154.206 210.159 154.221C207.92 154.237 205.68 154.221 203.441 154.221C201.201 154.221 199.04 154.206 196.839 154.221C194.638 154.237 192.437 154.306 190.237 154.33C188.036 154.345 185.835 154.33 183.634 154.33H157.109" stroke="#1E3C70" stroke-width="2" stroke-linecap="round" stroke-linejoin="round"/>
<path d="M173.909 59.0246C171.817 58.7612 169.756 58.7922 167.648 59.0944C165.843 59.3501 164.014 59.5438 162.216 59.8538C160.519 60.1405 158.853 60.559 157.218 61.1866C155.048 62.0235 154.482 63.8213 154.126 65.7431C153.452 69.3696 153.235 73.0504 153.305 76.7389C153.398 81.2179 153.669 85.6813 155.04 89.9975C155.296 90.8034 155.606 91.6016 155.97 92.3687C156.838 94.2285 158.597 94.5617 160.364 94.7942C162.169 95.0344 163.991 95.2126 165.804 95.3676C166.3 95.4141 166.803 95.2746 167.307 95.2669C171.011 95.2514 174.731 95.3986 178.427 95.0112C180.558 94.7942 182.689 94.4687 184.789 94.0658C185.44 93.9418 186.052 93.5698 186.563 92.9654C187.579 91.7566 188.284 90.3927 188.966 89.0057C189.593 87.7348 190.213 86.464 190.818 85.1854C191.608 83.5116 193.127 83.0931 194.762 83.0002C196.149 82.9304 197.676 83.0776 198.9 82.7444C200.829 82.2097 202.72 82.4422 204.611 82.1943C206.099 82.0005 207.618 81.9773 209.129 81.9463C212.639 81.8843 216.157 81.8843 219.667 81.8145C222.534 81.7603 223.526 83.1396 223.829 85.6426C224.394 90.2997 224.464 94.9724 224.565 99.6528C224.65 103.442 224.572 107.224 224.534 111.005C224.526 111.842 224.208 112.175 223.364 112.175C220.969 112.175 218.575 112.175 216.18 112.26C211.128 112.439 206.06 112.384 201.008 112.671C197.606 112.865 194.212 112.811 190.81 112.95C185.796 113.159 180.775 113.183 175.754 113.33C171.352 113.454 166.951 113.632 162.549 113.787C161.929 113.81 161.371 113.741 160.798 113.353C159.357 112.384 157.574 111.989 156.389 110.571C156.032 110.145 155.312 110.602 154.792 110.377" stroke="#FF6A1F" stroke-width="2" stroke-linecap="round" stroke-linejoin="round"/>
<path d="M209.586 148.262C209.199 148.277 208.811 148.316 208.432 148.316C194.879 148.316 181.333 148.316 167.78 148.316C164.193 148.316 160.597 148.386 157.009 148.424" stroke="#1E3C70" stroke-width="2" stroke-linecap="round" stroke-linejoin="round"/>
<path d="M68.2818 154.228C67.9098 154.042 67.5146 154.112 67.1272 154.112C50.7225 154.112 34.31 154.112 17.9053 154.112H-23.7922C-29.6583 154.112 -35.532 154.112 -41.398 154.112C-41.7467 154.112 -42.0955 154.065 -42.4597 154.042C-42.7386 152.159 -42.3512 150.284 -42.6689 148.439" stroke="#1E3C70" stroke-width="2" stroke-linecap="round" stroke-linejoin="round"/>
<path d="M68.0497 4.01363C66.4611 1.58818 64.1519 0.611804 61.3313 0.790032C60.2309 0.859773 59.2855 1.51069 58.4486 2.16936C54.7523 5.09074 52.2416 8.91102 50.3431 13.1652C49.204 15.7224 48.3981 18.4036 47.9254 21.1545C47.3597 24.4401 46.8716 27.7334 47.2823 31.1197C47.5535 33.336 47.9952 35.4437 48.8708 37.4972C49.2195 38.3186 49.3048 39.1555 49.049 40.1784C48.7391 41.4182 48.7468 42.7975 48.4834 44.0916C48.0262 46.2846 47.4372 48.4156 46.2129 50.3683C45.3837 51.7012 44.1052 52.3753 42.9351 53.2432" stroke="#1E3C70" stroke-width="2" stroke-linecap="round" stroke-linejoin="round"/>
<path d="M64.7569 40.2637C64.5012 43.464 64.1757 46.6566 63.3079 49.764C62.9282 51.1201 61.7426 52.1042 60.4175 51.9337C59.5573 51.8175 59.0846 52.0422 58.6507 52.7629C58.426 53.1348 57.9068 53.3208 57.6588 53.499C58.4105 55.9167 58.8677 58.0787 59.8285 60.0779C62.223 65.0373 66.1517 68.1834 71.4211 69.5395C76.0085 70.7174 80.3402 70.1362 84.1605 67.0288C86.9579 64.7584 88.6394 61.8137 89.7166 58.4507C89.7708 58.2879 89.8715 58.1407 89.9413 57.9857" stroke="#1E3C70" stroke-width="2" stroke-linecap="round" stroke-linejoin="round"/>
<path d="M24.043 106.34C26.1895 106.363 28.3204 106.875 30.2654 107.541C33.582 108.68 36.8444 110.036 40.1455 111.26C41.61 111.803 43.0978 112.291 44.5392 112.896C46.4454 113.694 48.4834 113.484 50.4517 113.802C52.5284 114.135 54.6129 114.43 56.7051 114.67C58.7664 114.91 60.7966 115.336 62.8424 115.654C66.2054 116.181 69.4058 117.088 72.3504 118.886C74.7991 120.381 77.3563 121.691 79.867 123.078C80.7504 123.566 81.4943 124.209 82.184 124.93" stroke="#1E3C70" stroke-width="2" stroke-linecap="round" stroke-linejoin="round"/>
<path d="M62.6096 125.271C62.3616 126.418 63.2372 127.2 63.5394 128.161C64.1284 129.998 65.0195 131.726 65.5077 133.609C65.6627 134.213 65.8564 134.903 65.252 135.259C64.694 135.585 64.0431 135.337 63.5317 134.888C62.2609 133.772 61.5867 132.245 60.7575 130.827C60.0369 129.595 59.3395 128.363 58.4561 127.224C57.6889 126.224 56.697 125.674 55.5347 125.651C52.8613 125.581 50.3351 124.822 47.7857 124.194C47.1657 124.039 46.5303 123.923 45.9181 123.806C44.3373 123.52 43.3687 124.333 42.9193 126.085C42.865 126.309 42.8418 126.55 42.803 126.782" stroke="#1E3C70" stroke-width="2" stroke-linecap="round" stroke-linejoin="round"/>
<path d="M69.7924 44.549C70.4123 46.6103 71.5746 48.3693 72.9307 49.9811C75.3562 52.8483 78.4403 54.7933 81.8189 56.4051C84.1048 57.4977 86.352 57.7689 88.6535 56.8933C89.4672 56.5833 90.0948 55.7386 90.7535 55.08C92.6443 53.1892 94.2251 51.0737 95.5192 48.718C96.8365 46.3158 98.0143 43.8594 98.6265 41.186C99.0295 39.4347 99.1844 37.6524 99.1999 35.8624C99.2154 34.0801 99.5176 32.4063 100.486 30.8798C100.649 30.624 100.711 30.2986 101.067 30.1823C103.795 29.2835 105.012 26.92 106.104 24.603C106.67 23.4097 106.523 21.8831 106.135 20.589C104.733 15.9319 102.671 11.5847 99.1922 8.0976C97.4177 6.32307 95.2634 5.10647 92.6133 5.19171C91.8771 5.21496 91.1487 5.40869 90.4125 5.52492" stroke="#1E3C70" stroke-width="2" stroke-linecap="round" stroke-linejoin="round"/>
<path d="M199.047 83C200.636 85.3402 200.264 88.0679 200.388 90.6483C200.566 94.4608 200.434 98.2888 200.434 102.109V108.401C199.396 108.51 198.466 108.711 197.536 108.688C194.863 108.618 192.205 108.859 189.547 108.944C183.828 109.137 178.117 109.308 172.406 109.602C169.903 109.726 167.384 109.719 164.882 109.85C162.487 109.982 160.093 110.021 157.698 110.091C157.249 110.106 156.854 110.23 156.544 110.556" stroke="#FF6A1F" stroke-width="2" stroke-linecap="round" stroke-linejoin="round"/>
<path d="M174.258 59.2559C174.49 59.744 175.033 59.9455 175.42 60.0308C177.187 60.395 177.776 61.6581 177.946 63.2001C178.202 65.5481 178.357 67.9038 178.543 70.2672C179 76.1255 178.907 81.9993 178.876 87.873C178.876 88.9889 178.582 90.1048 178.659 91.2284C178.682 91.5693 178.473 91.6158 178.194 91.5771" stroke="#FF6A1F" stroke-width="2" stroke-linecap="round" stroke-linejoin="round"/>
<path d="M88.9016 3.83519C85.5541 2.51786 82.0825 1.64996 78.4792 1.72745C75.2401 1.7972 72.094 2.41712 69.0874 3.7577C63.7405 6.1444 60.052 9.98017 58.7192 15.7222C58.0605 18.5506 58.0993 21.4875 58.6262 24.4089C58.8509 25.6487 59.1841 26.8653 59.3701 28.1052C59.4398 28.5546 59.6955 28.8878 60.0597 29.1513" stroke="#1E3C70" stroke-width="2" stroke-linecap="round" stroke-linejoin="round"/>
<path d="M104.541 80.916C104.502 84.4496 104.711 87.9599 105.222 91.4547C105.54 93.6399 105.703 95.8562 105.935 98.0569C105.935 98.0956 105.928 98.1421 105.935 98.1731C106.873 100.459 106.307 102.892 106.563 105.248C106.919 108.503 106.641 111.811 106.362 115.082C106.129 117.747 106.028 120.436 105.486 123.079C105.385 123.559 105.47 124.078 105.47 124.582" stroke="#1E3C70" stroke-width="2" stroke-linecap="round" stroke-linejoin="round"/>
<path d="M41.2376 83.1152C40.7649 85.5949 39.7188 87.8731 38.7579 90.1824C36.317 96.1026 33.2329 101.705 30.4045 107.432" stroke="#1E3C70" stroke-width="2" stroke-linecap="round" stroke-linejoin="round"/>
<path d="M91.7932 18.3723C91.2895 17.7524 90.8478 17.0705 90.2744 16.528C88.7788 15.1255 87.0585 15.2805 85.1987 16.9852C83.4552 18.5738 82.1301 20.5111 80.805 22.4328C79.1622 24.8195 76.9305 25.9276 74.0711 25.7726C73.025 25.7184 71.9866 25.5014 71.0723 24.959C70.7933 24.7885 70.5453 24.7498 70.2509 24.742" stroke="#1E3C70" stroke-width="2" stroke-linecap="round" stroke-linejoin="round"/>
<path d="M119.937 124.805C119.201 125.13 118.472 124.789 117.736 124.789C111.018 124.812 104.299 124.82 97.5808 124.797C92.9082 124.781 88.2355 124.719 83.5628 124.688C82.9274 124.688 82.199 124.51 82.0518 125.494C81.9588 126.122 80.8817 125.456 80.9049 126.308" stroke="#1E3C70" stroke-width="2" stroke-linecap="round" stroke-linejoin="round"/>
<path d="M116.583 175.189C117.97 177.979 119.148 180.846 119.946 183.876C120.914 187.549 121.767 191.245 122.379 194.996C122.472 195.577 122.681 196.135 122.604 196.732" stroke="#1E3C70" stroke-width="2" stroke-linecap="round" stroke-linejoin="round"/>
<path d="M89.0191 176.119C90.3364 178.514 91.4136 181.009 92.142 183.651C92.9169 186.48 93.6608 189.316 94.1257 192.222C94.3659 193.725 94.8154 195.197 94.8154 196.739" stroke="#1E3C70" stroke-width="2" stroke-linecap="round" stroke-linejoin="round"/>
<path d="M35.5113 127.47C35.5113 126.695 36.108 127.021 36.4412 127.021C38.3319 127.021 40.2227 127.091 42.1135 127.122C43.6555 127.145 45.2053 126.943 46.7474 127.292C48.1577 127.61 49.1728 128.61 50.3197 129.353C55.2481 132.515 59.7038 136.297 64.2524 139.962C64.6089 140.249 64.6476 140.59 64.8181 140.907" stroke="#1E3C70" stroke-width="2" stroke-linecap="round" stroke-linejoin="round"/>
<path d="M53.6369 13.623C53.0402 15.7153 52.5288 17.823 52.304 19.9928C51.9088 23.782 51.8313 27.5326 53.8151 30.9964C54.2955 31.841 54.838 32.6469 55.6671 33.1971" stroke="#1E3C70" stroke-width="2" stroke-linecap="round" stroke-linejoin="round"/>
<path d="M9.80058 172.523C9.00243 174.321 9.21165 176.227 9.38988 178.08C9.50612 179.296 10.7925 179.691 11.7843 180.025C14.1865 180.823 16.674 181.303 19.1769 181.737C20.0138 181.884 20.9437 181.644 21.7573 182.225C22.2145 182.551 22.8654 182.132 23.4776 182.225C26.8485 182.721 30.2658 183.008 33.6599 182.775C34.9849 182.682 36.1705 182.721 37.1159 183.55C39.0997 185.294 41.4786 186.472 43.5244 188.13C46.3605 190.424 49.2354 192.663 51.8313 195.228C52.2653 195.654 52.8387 196.011 52.8775 196.731" stroke="#1E3C70" stroke-width="2" stroke-linecap="round" stroke-linejoin="round"/>
<path d="M158.047 166.037C156.931 167.06 155.49 167.238 154.111 167.54C150.778 168.261 147.408 168.191 144.037 168.005C142.495 167.92 140.984 168.075 139.519 168.587" stroke="#1E3C70" stroke-width="2" stroke-linecap="round" stroke-linejoin="round"/>
<path d="M143.223 111.493C142.534 111.376 142.224 110.787 141.844 110.33C140.372 108.563 138.706 107.138 136.396 106.549C135.536 106.332 134.606 106.215 133.863 106.448C131.941 107.06 129.98 106.804 128.051 106.928C126.416 107.037 124.936 107.595 123.432 108.052C122.022 108.478 121.611 109.904 121.239 111.152C120.162 114.786 119.938 120.28 120.139 123.659C120.224 125.17 120.441 126.603 120.991 127.998C121.077 128.223 121.185 128.455 121.34 128.633C121.797 129.16 122.324 129.656 123.068 129.548C123.773 129.439 124.556 128.3 124.571 127.487C124.61 125.751 124.471 124.023 124.649 122.271C124.951 119.265 125.61 116.359 126.431 113.476C126.501 113.244 126.586 113.011 126.664 112.779" stroke="#1E3C70" stroke-width="2" stroke-linecap="round" stroke-linejoin="round"/>
<path d="M133.956 125.969C134.599 126.488 135.382 126.596 136.157 126.596C142.681 126.596 149.206 126.565 155.731 126.55" stroke="#1E3C70" stroke-width="2" stroke-linecap="round" stroke-linejoin="round"/>
<path d="M58.9053 121.683C59.6027 122.342 60.3854 122.923 60.9666 123.667C61.9817 124.961 63.6012 125.24 64.8256 126.178C66.5071 127.464 67.7935 129.099 69.0721 130.734C70.1259 132.075 71.2883 133.299 72.5436 134.446C72.8768 134.756 73.2643 134.802 73.6052 135.012C74.0392 135.283 74.4576 135.136 74.7521 134.872C75.1008 134.555 75.2093 134.152 75.0233 133.609C74.6591 132.548 73.8532 131.61 74.0624 130.37C74.0779 130.269 73.9307 130.138 73.8455 130.029C71.0171 126.465 68.3281 122.768 64.5621 120.095C63.9809 119.684 63.5005 118.932 62.6171 119.025" stroke="#1E3C70" stroke-width="2" stroke-linecap="round" stroke-linejoin="round"/>
<path d="M18.5953 167.316C16.7588 167.921 14.8215 168.161 13.0315 168.936C11.9854 169.385 10.9083 169.796 10.1411 170.679C9.51346 171.4 9.71493 172.074 10.4743 172.656C12.1636 173.934 14.2171 174.26 16.1699 174.678C18.5953 175.189 21.075 175.778 23.5702 175.6C25.0503 175.492 26.0499 176.026 27.0573 176.925C28.8783 178.553 31.0015 179.723 33.0705 180.993C33.6982 181.381 34.5196 181.598 34.6978 182.489" stroke="#1E3C70" stroke-width="2" stroke-linecap="round" stroke-linejoin="round"/>
<path d="M62.8422 37.4805C62.3463 38.3484 62.5245 39.3557 62.4393 40.2624C62.0596 44.1601 61.1762 47.9029 59.6032 51.4907C59.5644 51.5915 59.6032 51.7232 59.6032 51.8394" stroke="#1E3C70" stroke-width="2" stroke-linecap="round" stroke-linejoin="round"/>
<path d="M125.269 107.781C126.788 109.246 128.454 110.331 130.717 110.114C131.786 110.005 132.786 110.315 133.607 111.036C134.281 111.625 135.11 111.795 135.932 111.942C136.901 112.113 137.668 112.648 138.481 113.113C138.791 113.291 138.683 113.562 138.714 113.81" stroke="#1E3C70" stroke-width="2" stroke-linecap="round" stroke-linejoin="round"/>
<path d="M120.402 112.88C118.511 111.028 116.55 109.238 114.745 107.308C112.521 104.937 110.142 102.721 107.786 100.489C107.453 100.171 107.151 99.8227 106.624 99.9157" stroke="#1E3C70" stroke-width="2" stroke-linecap="round" stroke-linejoin="round"/>
<path d="M21.9587 182.49C21.1761 186.086 20.4322 189.689 19.5643 193.269C19.2853 194.408 19.0993 195.586 18.8359 196.733" stroke="#1E3C70" stroke-width="2" stroke-linecap="round" stroke-linejoin="round"/>
<path d="M25.6628 182.723C24.8492 187.085 24.0356 191.448 23.2452 195.811C23.1832 196.152 23.1289 196.33 22.7647 196.268" stroke="#1E3C70" stroke-width="2" stroke-linecap="round" stroke-linejoin="round"/>
<path d="M49.6385 48.4844C49.499 49.9644 49.158 51.46 48.3056 52.6069C47.523 53.6607 47.6392 54.8308 47.3835 55.9079C46.7481 58.6046 46.3994 61.3943 47.3447 64.1064C47.7787 65.3463 48.0499 66.7798 49.6307 67.2758C49.8554 67.3455 50.2506 67.7097 50.1034 68.1669" stroke="#1E3C70" stroke-width="2" stroke-linecap="round" stroke-linejoin="round"/>
<path d="M34.931 182.838C35.055 185.511 35.3882 188.169 35.6827 190.827C35.8842 192.64 36.0314 194.454 36.2096 196.267" stroke="#1E3C70" stroke-width="2" stroke-linecap="round" stroke-linejoin="round"/>
<path d="M16.5103 154.461C16.4018 158.266 16.8358 161.97 18.1066 165.589C18.9435 167.968 20.4856 169.874 21.9656 171.827C22.6398 172.718 23.407 173.547 24.1664 174.376C24.4608 174.694 24.6081 175.042 24.732 175.43" stroke="#1E3C70" stroke-width="2" stroke-linecap="round" stroke-linejoin="round"/>
<path d="M43.9663 112.996C42.4474 114.654 41.0836 116.367 40.5799 118.668C40.2312 120.249 39.9135 121.807 39.9058 123.426C39.9058 123.93 40.2002 124.286 40.3785 124.697" stroke="#1E3C70" stroke-width="2" stroke-linecap="round" stroke-linejoin="round"/>
<path d="M38.6342 185.148C38.0917 185.776 38.4792 186.497 38.5567 187.117C38.8589 189.635 39.3393 192.13 39.6493 194.657C39.7345 195.346 39.8585 196.044 39.9127 196.741" stroke="#1E3C70" stroke-width="2" stroke-linecap="round" stroke-linejoin="round"/>
<path d="M155.613 141.838C155.807 142.845 155.977 143.853 156.194 144.845C156.714 147.254 156.59 149.703 156.675 152.144C156.783 155.352 156.737 158.568 157.14 161.753C157.303 163.047 157.613 164.333 158.015 165.589C158.132 165.945 158.263 165.93 158.504 165.93" stroke="#1E3C70" stroke-width="2" stroke-linecap="round" stroke-linejoin="round"/>
<path d="M132.568 114.732C131.894 114.957 131.894 115.624 131.646 116.127C130.112 119.196 129.36 122.497 128.88 125.86C128.639 127.565 126.563 128.774 124.695 128.177" stroke="#1E3C70" stroke-width="2" stroke-linecap="round" stroke-linejoin="round"/>
<path d="M21.494 134.422C20.9748 132.531 19.4637 132.469 17.9062 132.446C16.5966 132.431 15.2793 132.384 13.9697 132.33C13.342 132.307 12.7918 132.314 12.6756 133.144C12.6446 133.353 12.3889 133.531 12.2339 133.725" stroke="#1E3C70" stroke-width="2" stroke-linecap="round" stroke-linejoin="round"/>
<path d="M94.3419 19.2949C96.0931 20.0776 96.6278 21.7359 97.1005 23.3554C97.6817 25.3314 98.4876 27.1369 100.014 28.5628C100.448 28.9657 100.58 29.5546 100.828 30.0661" stroke="#1E3C70" stroke-width="2" stroke-linecap="round" stroke-linejoin="round"/>
<path d="M4.58477 129.672C4.27481 129.284 3.96485 128.905 3.60839 128.471C1.44641 128.75 -0.746565 129.083 -2.94729 129.3C-3.65245 129.37 -3.97791 129.579 -4.1174 130.253C-4.17939 130.54 -4.40411 130.803 -4.56683 131.067C-4.8613 131.524 -4.65983 131.78 -4.21813 131.935" stroke="#1E3C70" stroke-width="2" stroke-linecap="round" stroke-linejoin="round"/>
<path d="M50.2187 30.9961C50.4899 33.9407 51.1253 36.8001 52.1637 39.5743C52.3264 40.0082 52.5124 40.5661 52.1869 41.0698" stroke="#1E3C70" stroke-width="2" stroke-linecap="round" stroke-linejoin="round"/>
<path d="M5.04935 130.717C5.04935 130.717 4.94086 130.787 4.94086 130.833C4.59215 133.065 2.84862 132.918 1.22907 133.042C-0.320735 133.165 -1.83954 133.537 -3.40485 133.499" stroke="#1E3C70" stroke-width="2" stroke-linecap="round" stroke-linejoin="round"/>
<path d="M55.891 54.1582C55.0618 55.2896 55.1393 56.5759 55.2555 57.8622C55.4492 59.9312 56.4024 61.6515 57.743 63.1936" stroke="#1E3C70" stroke-width="2" stroke-linecap="round" stroke-linejoin="round"/>
<path d="M67.0111 28.0964C66.1045 28.0654 65.3218 27.5772 64.4849 27.3292C63.2993 26.9728 62.4159 27.3835 61.5945 27.9104C60.9901 28.2978 60.2772 28.8093 60.068 29.6074C59.7348 30.8705 59.634 32.1879 60.0835 33.42C60.6492 34.9853 61.7263 36.3026 62.9971 37.3177C63.6945 37.8756 64.8104 37.9066 65.7325 38.1779" stroke="#1E3C70" stroke-width="2" stroke-linecap="round" stroke-linejoin="round"/>
<path d="M144.029 116.127C142.812 118.436 140.759 120.257 139.922 122.752C139.488 124.039 138.581 124.992 138.124 126.208" stroke="#1E3C70" stroke-width="2" stroke-linecap="round" stroke-linejoin="round"/>
<path d="M137.194 117.746C136.349 118.126 136.241 119.025 135.946 119.73C135.164 121.628 134.513 123.573 133.839 125.511C133.583 126.255 132.7 126.417 132.436 127.13" stroke="#1E3C70" stroke-width="2" stroke-linecap="round" stroke-linejoin="round"/>
<path d="M75.1168 124.805C75.0935 125.394 75.4267 125.781 75.7987 126.207C77.178 127.765 78.6891 129.222 79.8514 130.957C80.2621 131.562 80.9518 132.298 80.2931 133.003C79.6964 133.639 78.9448 133.119 78.2319 132.825C77.1625 132.391 76.3489 131.616 75.4732 130.934C75.078 130.624 74.7061 130.353 74.1869 130.368" stroke="#1E3C70" stroke-width="2" stroke-linecap="round" stroke-linejoin="round"/>
<path d="M11.9933 134.654C12.1483 134.848 12.4195 135.026 12.435 135.235C12.5513 136.545 13.4347 136.514 14.4265 136.522C15.9299 136.53 17.4409 136.623 18.9442 136.747C19.9206 136.832 20.649 136.638 20.928 135.576C20.9745 135.406 21.1527 135.266 21.2689 135.111" stroke="#1E3C70" stroke-width="2" stroke-linecap="round" stroke-linejoin="round"/>
<path d="M68.1109 118.613C69.715 120.101 71.3035 121.597 72.9231 123.069C73.8452 123.906 74.7131 124.735 76.1621 124.743C77.2238 124.743 78.1846 125.471 79.2773 125.696C79.8119 125.804 80.4241 125.618 80.9123 125.967" stroke="#1E3C70" stroke-width="2" stroke-linecap="round" stroke-linejoin="round"/>
<path d="M52.0714 53.1191C51.5832 55.3044 51.6995 57.5128 51.8467 59.7213C51.9629 61.4571 54.9463 63.8748 56.7053 63.8051C57.3098 63.7818 57.6585 62.9914 58.3249 63.3711" stroke="#1E3C70" stroke-width="2" stroke-linecap="round" stroke-linejoin="round"/>
<path d="M166.036 95.623C166.036 97.6765 166.524 98.2732 168.701 98.7382C169.461 98.9009 170.212 99.0791 170.902 99.4433" stroke="#FF6A1F" stroke-width="2" stroke-linecap="round" stroke-linejoin="round"/>
<path d="M173.22 99.3262C173.576 100.504 173.134 101.666 172.979 102.79C172.848 103.704 173.305 104.859 172.181 105.556C173.049 106.099 173.824 106.037 174.607 105.634" stroke="#FF6A1F" stroke-width="2" stroke-linecap="round" stroke-linejoin="round"/>
<path d="M178.427 98.5205C178.187 97.6526 177.373 97.9471 176.923 97.9936C175.691 98.1098 174.374 98.0091 173.297 98.9545C172.956 99.2567 172.251 99.1715 171.708 99.2179C170.871 99.2877 170.561 99.7836 170.864 100.489C171.15 101.155 171.042 101.829 171.081 102.473C171.212 104.425 172.429 106.146 172.228 108.145" stroke="#FF6A1F" stroke-width="2" stroke-linecap="round" stroke-linejoin="round"/>
<path d="M57.9755 48.0195C57.1386 49.5306 56.5575 51.1424 55.9918 52.7619C55.8446 53.1726 55.7438 53.6841 55.9221 53.9553C56.2088 54.3892 56.7357 54.056 57.1619 53.9785C57.3169 53.9475 57.4719 53.9398 57.6268 53.9165" stroke="#1E3C70" stroke-width="2" stroke-linecap="round" stroke-linejoin="round"/>
<path d="M82.9967 57.2891C82.2063 59.1411 81.9351 61.1171 81.6096 63.0776" stroke="#1E3C70" stroke-width="2" stroke-linecap="round" stroke-linejoin="round"/>
<path d="M51.8383 60.2949C50.5753 61.5813 50.4125 63.2783 50.1026 64.9288C50.0561 65.1613 50.0251 65.3938 49.9863 65.6263" stroke="#1E3C70" stroke-width="2" stroke-linecap="round" stroke-linejoin="round"/>
<path d="M74.768 27.3457C73.2724 28.787 71.5134 29.1125 69.5529 28.5623" stroke="#1E3C70" stroke-width="2" stroke-linecap="round" stroke-linejoin="round"/>
<path d="M49.5217 39.335C49.5217 39.335 49.6147 39.3195 49.638 39.335C50.7073 40.5981 52.3579 41.125 53.466 42.3416" stroke="#1E3C70" stroke-width="2" stroke-linecap="round" stroke-linejoin="round"/>
<path d="M174.025 95.5059C174.087 96.397 173.846 97.3114 174.257 98.1715" stroke="#FF6A1F" stroke-width="2" stroke-linecap="round" stroke-linejoin="round"/>
<path d="M63.656 31.6934C64.2604 32.321 65.1206 32.8015 64.9268 33.8941" stroke="#1E3C70" stroke-width="2" stroke-linecap="round" stroke-linejoin="round"/>
</g>
<defs>
<clipPath id="clip0_85_9730">
<rect y="0.769531" width="195" height="195" rx="8" fill="white"/>
</clipPath>
</defs>
</svg>
