<svg width="195" height="196" viewBox="0 0 195 196" fill="none" xmlns="http://www.w3.org/2000/svg">
<g clip-path="url(#clip0_85_9563)">
<path d="M129.037 2.20768C128.402 1.80363 127.722 1.65612 126.965 1.65612C120.744 1.63688 114.523 1.67536 108.308 1.53427C99.4706 1.32904 90.6329 1.39958 81.7951 1.3098C78.6653 1.27773 75.5355 1.34828 72.4122 1.21359C68.7757 1.05326 65.1393 1.15587 61.5029 1.13022C55.2818 1.07891 49.0607 1.13022 42.8461 0.995536C35.7912 0.841613 28.7364 0.976294 21.6816 0.905746C21.502 0.905746 21.2968 0.957055 21.1365 0.899333C20.0398 0.463217 19.6806 1.20077 19.5203 2.00245C19.3215 3.00295 19.2381 4.03552 19.1868 5.05526C19.1611 5.53627 19.3022 6.03011 19.9307 6.15197C20.5528 6.27382 21.1621 6.53678 21.7842 6.56243C25.0615 6.70353 28.326 6.63298 31.6033 6.41492C33.0784 6.31872 34.5727 5.8826 36.0735 6.24817" stroke="#FF6A1F" stroke-width="2" stroke-linecap="round" stroke-linejoin="round"/>
<path d="M41.5374 109.453C41.1654 109.902 40.678 110.043 40.12 109.998C38.9463 109.908 37.7855 110.088 36.6311 110.216C35.8038 110.313 35.528 110.832 35.4189 112.07C35.047 116.431 35.2265 120.799 35.2265 125.16C35.2265 129.194 35.2843 133.234 35.451 137.268C35.6178 141.27 35.7011 145.272 35.8871 149.268C36.1244 154.251 36.304 159.234 36.5605 164.211C36.6375 165.77 36.676 167.341 36.8171 168.906C36.8812 169.592 37.1185 169.772 37.7214 169.778C38.7411 169.797 39.7609 169.862 40.7742 169.881C43.9745 169.926 47.1749 169.939 50.3752 169.996C55.5765 170.086 60.7778 170.169 65.9727 170.253C70.1158 170.317 74.2653 170.33 78.4084 170.458C83.6482 170.618 88.888 170.477 94.115 170.708C97.9374 170.875 101.76 170.721 105.57 170.881C109.495 171.048 113.426 171.106 117.351 171.093C117.569 171.093 117.787 171.151 118.037 171.183C118.396 174.383 118.486 177.59 118.608 180.861C118.339 181.188 117.89 181.117 117.46 181.117C112.804 181.117 108.148 181.233 103.498 181.092C96.8407 180.886 90.1836 181.021 83.5328 180.867C78.3699 180.745 73.2007 180.79 68.0379 180.649C63.9653 180.54 59.8864 180.585 55.8202 180.431C51.3821 180.264 46.9375 180.296 42.5058 179.918C42.3968 179.912 42.2621 179.873 42.1852 179.918C41.0307 180.591 39.7865 180.194 38.5808 180.226C37.3751 180.258 36.195 180.559 34.9764 180.476C34.6814 180.457 34.0785 180.11 34.1042 180.893" stroke="#1E3C70" stroke-width="2" stroke-linecap="round" stroke-linejoin="round"/>
<path d="M34.2261 167.823C34.7135 167.426 34.7777 166.887 34.7777 166.297C34.7648 161.788 34.8867 157.273 34.7264 152.771C34.6366 150.257 34.5788 147.711 33.9054 145.242C33.5976 144.106 33.1102 143.818 32.0455 144.26C30.2305 145.011 29.0761 146.467 28.1269 148.083C26.6518 150.603 25.8693 153.342 25.5807 156.253C25.3434 158.633 24.8304 160.98 24.5289 163.347C24.2467 165.592 24.08 167.855 23.8619 170.107C23.5733 172.98 23.227 175.847 23.0154 178.726C22.9191 180.035 22.8422 181.343 22.7973 182.651C22.6754 186.288 22.451 189.943 22.823 193.554C23.3168 198.339 23.894 203.123 25.3691 207.754C26.0553 209.909 27.2867 211.595 29.012 212.961C29.2941 213.186 29.7944 213.186 30.1984 213.186C31.0322 213.186 31.9172 213.282 32.6933 213.038C33.3475 212.833 33.8798 212.224 34.4506 211.775C36.2592 210.358 37.2404 208.395 38.0485 206.317C39.3889 202.867 40.1265 199.256 40.6268 195.619C41.2104 191.399 41.6593 187.141 41.5503 182.863C41.5375 182.337 41.5311 181.83 41.1078 181.446C40.8384 181.202 40.8961 180.881 40.8897 180.573" stroke="#FF6A1F" stroke-width="2" stroke-linecap="round" stroke-linejoin="round"/>
<path d="M133.507 7.2305C132.699 6.59556 131.698 6.7559 130.781 6.58274C130.383 6.50577 129.979 6.63404 129.575 6.4224C128.062 5.62072 126.439 5.59506 124.778 5.80671C122.969 6.03759 121.142 5.92215 119.327 5.92215C112.778 5.92215 106.237 5.93498 99.6885 5.92215C91.2163 5.90291 82.7377 5.93498 74.2655 5.79388C66.9926 5.67202 59.7197 5.77464 52.4469 5.7105C48.6308 5.67844 44.8084 5.63996 40.9924 5.59506C40.4088 5.58865 39.8251 5.53734 39.2479 5.48603C38.3564 5.40907 38.0294 5.80029 38.0358 6.69176C38.0678 10.0011 38.0486 13.3105 38.0486 16.6198C38.0486 16.9084 38.0678 17.2034 38.0486 17.492C38.0229 17.755 37.8049 17.7229 37.6189 17.7101" stroke="#FF6A1F" stroke-width="2" stroke-linecap="round" stroke-linejoin="round"/>
<path d="M82.4492 75.9623C82.0901 75.1798 82.5775 74.4423 82.5839 73.6727C82.6031 69.7092 82.648 65.7456 82.7891 61.7821C82.9751 56.5808 83.097 51.3795 83.2381 46.1781C83.3728 41.1243 83.6101 36.0705 83.6614 31.0103C83.6742 29.625 83.7896 28.2461 83.873 26.8672C83.9179 26.0719 83.5716 25.7127 82.7763 25.7769C82.7378 25.7769 82.7058 25.7769 82.6673 25.7769C74.6697 25.7063 66.6657 25.6294 58.6681 25.5652C58.3025 25.5652 57.9241 25.437 57.5329 25.7961C57.5201 25.9565 57.4751 26.2515 57.4751 26.5401C57.4367 31.1193 57.4559 35.7049 57.3533 40.2842C57.1609 48.9039 57.3726 57.5236 57.2251 66.1433C57.1609 69.7797 57.2507 73.4161 57.1353 77.0526C56.9236 83.7418 57.1032 90.4375 57.039 97.1267" stroke="#1E3C70" stroke-width="2" stroke-linecap="round" stroke-linejoin="round"/>
<path d="M34.1172 172.402C34.8291 172.96 35.7013 172.896 36.5158 172.935C38.5874 173.018 40.6589 173.012 42.7369 173.063C47.2456 173.166 51.7543 173.275 56.2629 173.39C59.0271 173.461 61.7913 173.55 64.5555 173.602C70.2635 173.717 75.9779 173.743 81.6859 173.961C84.8157 174.083 87.9454 174.051 91.0688 174.166C97.1039 174.391 103.145 174.467 109.18 174.621C112.201 174.698 115.216 174.801 118.236 174.807" stroke="#1E3C70" stroke-width="2" stroke-linecap="round" stroke-linejoin="round"/>
<path d="M32.7 154.732C32.1805 155.072 31.9047 155.611 31.7315 156.156C30.8272 159.023 29.8075 161.858 29.1341 164.782C27.9797 169.83 27.3896 174.948 27.954 180.162C28.1144 181.663 28.1208 183.221 28.2555 184.735C28.4222 186.588 28.5697 188.454 28.8262 190.308C29.0251 191.712 29.1662 193.136 29.3265 194.554C29.5381 196.42 29.7947 198.286 30.2052 200.114C30.6092 201.884 30.994 203.674 31.7123 205.354C31.9047 205.803 32.0779 206.278 32.3729 206.656C33.1746 207.669 33.6107 207.567 34.3354 206.457C35.2718 205.02 35.4834 203.353 35.8233 201.75C36.439 198.825 36.9393 195.875 37.3626 192.918C37.773 190.039 38.3503 187.204 39.1391 184.414C39.3636 183.632 39.6971 182.881 40.0049 182.124C40.1653 181.72 40.3962 181.355 40.8708 181.252" stroke="#FF6A1F" stroke-width="2" stroke-linecap="round" stroke-linejoin="round"/>
<path d="M179.44 202.078C180.043 201.796 180.659 201.943 181.172 202.206C181.948 202.61 182.762 202.886 183.583 203.168C185.289 203.758 186.508 203.56 186.726 201.206C186.803 200.34 187.078 199.487 186.585 198.557C186.309 198.031 186.629 197.204 186.629 196.511C186.636 193.125 186.482 189.732 186.168 186.365C185.693 181.286 184.859 176.257 183.141 171.415C181.659 167.227 179.883 163.161 178.112 159.089C176.329 154.984 174.418 150.943 173.071 146.659C172.283 144.152 171.93 141.612 171.789 139.014C171.641 136.25 171.507 133.486 171.34 130.722C171.314 130.247 171.186 129.773 171.096 129.311C170.949 128.605 170.455 128.099 169.608 128.214C168.479 128.362 167.351 128.477 166.228 128.663C165.394 128.798 164.586 128.958 163.804 128.387C164.182 127.868 164.631 127.566 165.35 127.419C167.767 126.919 170.153 126.264 172.558 125.719C173.161 125.585 173.501 125.315 173.591 124.719" stroke="#1E3C70" stroke-width="2" stroke-linecap="round" stroke-linejoin="round"/>
<path d="M120.744 6.24805C120.494 7.08821 121.257 7.59488 121.424 8.31319C121.796 9.91014 121.623 11.5199 121.578 13.1169C121.552 13.9442 121.411 14.7844 121.398 15.6245C121.379 16.8944 120.597 17.7282 119.327 17.6897C114.638 17.5293 109.937 17.5614 105.249 17.2728C104.165 17.2087 103.069 17.2792 101.978 17.26C95.6867 17.1381 89.3951 16.8944 83.1034 16.7854C80.4867 16.7405 77.8636 16.6764 75.2469 16.593C69.4299 16.4134 63.6129 16.1697 57.7895 16.1633C56.9557 16.1633 56.1156 16.1248 55.2818 16.0478C54.6789 15.9965 54.3967 16.221 54.4096 16.8174C54.4096 16.965 54.4096 17.1061 54.4096 17.2536C54.3711 21.1786 54.4096 25.1101 54.2813 29.0351C54.1274 33.7298 54.3198 38.418 54.1787 43.1063C53.9414 50.8153 54.0825 58.5242 53.9478 66.2332C53.8259 73.1085 53.7875 79.9773 53.749 86.8525C53.7361 89.9823 53.6143 93.1057 53.5374 96.2355" stroke="#FF6A1F" stroke-width="2" stroke-linecap="round" stroke-linejoin="round"/>
<path d="M120.526 68.1064C120.289 66.8686 120.494 65.6372 120.513 64.3994C120.552 62.1803 120.513 59.9613 120.526 57.7422C120.552 53.4516 120.519 49.1546 120.654 44.8704C120.77 41.2339 120.686 37.5975 120.738 33.9611C120.782 30.6132 120.808 27.2718 120.853 23.924C120.866 22.9042 120.924 21.8845 120.956 20.8712C120.975 20.2683 120.789 19.9733 120.083 19.9797C117.864 19.9925 115.645 19.9092 113.426 19.8899C108.295 19.8514 103.171 19.6911 98.0466 19.627C93.538 19.5757 89.0229 19.5692 84.5207 19.4153C80.1531 19.2678 75.7919 19.3512 71.4307 19.2037C67.3582 19.069 63.2792 19.1075 59.2131 18.992C54.7044 18.8638 50.1958 18.8124 45.6871 18.7868C43.4296 18.774 41.1784 18.6265 38.9209 18.5944C38.3308 18.588 38.023 18.4084 37.9909 17.8184" stroke="#FF6A1F" stroke-width="2" stroke-linecap="round" stroke-linejoin="round"/>
<path d="M128.382 107.055C126.074 106.92 124.085 107.946 122.059 108.812C121.552 109.03 121.045 109.178 120.532 109.011C119.487 108.671 118.474 109.082 117.48 109.184C115.299 109.422 113.112 109.608 110.925 109.768C108.494 109.947 106.044 110.172 103.62 110.063C101.144 109.947 98.6688 110.332 96.1996 110.005C95.988 109.98 95.7636 109.999 95.5455 110.005C89.4335 110.146 83.3278 109.858 77.2158 109.736C73.5794 109.665 69.9429 109.62 66.3065 109.466C62.3814 109.306 58.45 109.268 54.5249 109.101C53.6783 109.062 52.9665 109.499 52.1199 109.479C48.6694 109.383 45.2126 109.383 41.7557 109.345" stroke="#1E3C70" stroke-width="2" stroke-linecap="round" stroke-linejoin="round"/>
<path d="M135.694 52.7207C136.303 52.958 136.906 52.9516 137.554 52.8426C139.696 52.4834 141.652 53.1248 143.55 54.0291C146.584 55.4721 149.374 57.3127 152.17 59.1534C155.428 61.3019 158.59 63.6428 162.111 65.3488C165.536 67.0099 166.235 67.0548 167.671 63.0849C168.075 61.9689 168.524 60.8722 168.774 59.705C168.851 59.3458 169.185 59.0444 169.409 58.6981C170.089 58.9546 170.256 59.4484 170.294 60.1347C170.48 63.5531 170.814 66.9714 170.904 70.3898C170.961 72.8269 171.256 75.2641 171.128 77.6948C170.936 81.3761 170.538 85.0382 170.301 88.7195C170.211 90.0984 170.153 91.4837 170.096 92.8626C169.922 97.0057 169.685 101.149 169.865 105.298C169.961 107.517 170.519 109.679 171 111.846C171.827 115.56 172.706 119.267 173.546 122.98C173.629 123.359 173.572 123.776 173.546 124.18C173.527 124.52 173.649 124.667 173.989 124.616" stroke="#1E3C70" stroke-width="2" stroke-linecap="round" stroke-linejoin="round"/>
<path d="M87.3616 24.9043C86.7652 25.7316 86.8357 26.7065 86.8293 27.63C86.7716 32.7544 86.8422 37.8916 86.6818 43.0095C86.5151 48.2109 86.6048 53.4122 86.4637 58.6135C86.3226 63.9623 86.374 69.3048 86.2457 74.6536C86.1174 79.9255 86.0533 85.1973 86.0533 90.4756C86.0533 90.854 86.1046 91.2452 85.6428 91.6301C84.9117 92.1303 83.924 91.0079 83.0005 91.6749" stroke="#1E3C70" stroke-width="2" stroke-linecap="round" stroke-linejoin="round"/>
<path d="M152.491 136.402C152.818 136.588 153.087 136.761 153.273 137.159C155.576 142.046 157.904 146.914 160.238 151.788C161.649 154.738 163.092 157.676 164.49 160.626C166.216 164.275 167.928 167.925 169.621 171.593C172.27 177.34 174.354 183.304 176.272 189.32C177.433 192.963 178.344 196.676 178.991 200.447C179.318 202.371 179.209 204.276 178.863 206.239C178.465 208.483 178.683 210.779 181.076 212.126C181.377 212.299 181.589 212.626 181.845 212.877" stroke="#1E3C70" stroke-width="2" stroke-linecap="round" stroke-linejoin="round"/>
<path d="M151.618 131.164C151.875 132.799 152.337 134.441 152.311 136.07C152.298 137.289 152.022 138.533 152.048 139.784C152.163 144.658 152.163 149.532 152.42 154.4C152.561 157.139 152.991 159.871 153.414 162.59C153.683 164.322 153.959 166.066 154.152 167.817C154.363 169.792 154.78 171.748 155.107 173.711C155.434 175.674 155.774 177.636 156.089 179.605C156.39 181.497 156.64 183.389 156.974 185.275C157.301 187.134 157.795 188.975 158.032 190.841C158.404 193.74 159.193 196.53 159.905 199.352C160.014 199.782 160.052 200.224 160.129 200.66" stroke="#1E3C70" stroke-width="2" stroke-linecap="round" stroke-linejoin="round"/>
<path d="M150.201 200.986C149.489 198.748 149.239 196.426 148.874 194.117C148.117 189.423 147.033 184.818 145.314 180.361C143.628 175.993 142.069 171.574 140.504 167.162C139.286 163.743 138.74 160.184 138.407 156.586C138.279 155.168 137.971 153.764 137.99 152.327C137.99 151.904 137.714 151.686 137.439 151.455" stroke="#1E3C70" stroke-width="2" stroke-linecap="round" stroke-linejoin="round"/>
<path d="M121.071 109.236C120.904 109.858 120.391 110.218 119.981 110.654C118.89 111.821 118.255 112.975 118.474 114.81C118.794 117.497 118.813 120.248 118.589 122.98C118.461 124.532 118.589 126.104 118.563 127.669C118.429 133.742 118.352 139.816 118.102 145.889C117.973 149.019 117.948 152.142 117.903 155.272C117.896 155.997 118.089 156.337 118.89 156.382C121.475 156.516 124.053 156.741 126.638 156.901C127.298 156.94 127.959 156.946 128.6 157.132" stroke="#1E3C70" stroke-width="2" stroke-linecap="round" stroke-linejoin="round"/>
<path d="M51.902 100.238C50.1575 100.18 48.4131 100.09 46.6622 100.084C42.7307 100.065 38.8057 99.853 34.8807 99.8016C32.7321 99.776 30.5901 99.6349 28.4416 99.6541C27.6783 99.6541 26.9344 99.9299 26.1519 100C23.2466 100.27 20.3221 100.308 17.4168 100.571C15.3132 100.764 13.2031 100.911 11.0931 101.039C10.4004 101.084 9.97074 101.29 9.88736 102.034C9.8104 102.733 10.022 103.207 10.766 103.342C10.9841 103.38 11.2021 103.445 11.4202 103.445C14.55 103.521 17.6733 103.579 20.8031 103.669C25.3503 103.804 29.9038 103.823 34.4381 104.156C37.0035 104.342 39.447 103.63 41.9675 103.669" stroke="#1E3C70" stroke-width="2" stroke-linecap="round" stroke-linejoin="round"/>
<path d="M92.3774 24.5781C92.3902 31.4918 92.1785 38.3992 92.1144 45.3065C92.0631 50.5078 92.0502 55.7091 91.9156 60.9104C91.7745 66.4004 91.8322 71.8967 91.6975 77.3866C91.5628 82.806 91.5179 88.2254 91.5051 93.6448C91.5051 94.517 91.4346 95.3893 91.4025 96.2615" stroke="#1E3C70" stroke-width="2" stroke-linecap="round" stroke-linejoin="round"/>
<path d="M88.6702 25.0137C88.8755 25.3536 88.8947 25.7192 88.8947 26.104C88.8498 29.7019 88.8883 33.3063 88.7536 36.9042C88.6767 39.0143 88.7216 41.1243 88.6702 43.2343C88.5612 47.6725 88.5228 52.1106 88.4137 56.5423C88.3111 60.6148 88.4137 64.7002 88.1957 68.76C87.9455 73.3456 88.2149 77.9312 87.9006 82.5104C87.7467 84.6974 87.8622 86.878 87.8044 89.0586C87.7403 91.4252 87.6633 93.7853 87.5864 96.1519" stroke="#1E3C70" stroke-width="2" stroke-linecap="round" stroke-linejoin="round"/>
<path d="M131.871 146.877C131.063 146.524 130.447 145.799 129.575 145.575C127.228 144.972 125.509 145.793 124.226 147.961C122.726 150.494 122.103 153.297 121.616 156.151C121.353 157.677 121.058 159.204 120.808 160.736C120.68 161.493 120.551 162.263 120.539 163.026C120.474 166.772 120.365 170.517 120.442 174.262C120.532 178.919 120.686 183.581 121 188.225C121.206 191.207 121.443 194.196 121.802 197.178C122.148 200.032 122.7 202.79 123.771 205.477C124.958 208.446 126.689 210.96 129.139 213M134.821 213.654C134.892 213.654 134.982 213.68 135.039 213.654" stroke="#FF6A1F" stroke-width="2" stroke-linecap="round" stroke-linejoin="round"/>
<path d="M145.295 130.945C144.653 131.324 143.961 131.401 143.223 131.394C141.177 131.375 139.118 131.266 137.111 131.824C136.842 131.901 136.572 131.984 136.226 132.093C136.316 133.357 136.399 134.665 136.495 135.967C136.623 137.75 136.79 139.533 136.899 141.316C136.957 142.265 137.111 143.195 137.149 144.151C137.175 144.83 137.034 145.388 136.848 146.023C136.636 146.748 136.848 147.608 136.906 148.409C136.944 148.954 137.06 149.499 137.111 150.045C137.143 150.372 137.252 150.801 137.092 151.007C136.399 151.905 136.649 152.873 136.662 153.861C136.726 158.658 136.867 163.462 136.745 168.259C136.643 172.331 136.874 176.417 136.457 180.477C136.354 181.483 135.508 182.048 134.699 181.695C134.276 181.509 134.289 181.253 134.263 180.913C134.167 179.675 134.077 178.437 133.93 177.206C133.814 176.237 133.051 175.359 131.756 175.25C128.017 174.929 124.265 175.115 120.519 174.916" stroke="#1E3C70" stroke-width="2" stroke-linecap="round" stroke-linejoin="round"/>
<path d="M130.563 146.332C130.025 148 129.601 149.763 129.774 151.45C129.922 152.906 129.723 154.233 129.479 155.606C129.396 156.093 129.249 156.504 128.947 156.927C128.357 157.754 128.614 158.806 128.408 159.755C127.985 161.699 127.748 163.68 127.389 165.637C127.248 166.4 127.19 167.176 127.113 167.933C126.895 170.068 126.901 172.223 126.741 174.365C126.472 177.97 126.722 181.574 126.908 185.166C127.055 188.084 127.337 191.008 127.915 193.901C128.716 197.922 130.069 201.687 132.301 205.137C132.564 205.548 132.782 205.855 133.276 206.054C133.539 206.157 133.578 206.805 133.738 207.254C133.199 208.03 132.731 208.825 132.936 209.934C133.18 211.256 132.115 212.153 131.551 213.199" stroke="#FF6A1F" stroke-width="2" stroke-linecap="round" stroke-linejoin="round"/>
<path d="M139.183 48.9043C142.287 49.2442 144.442 51.1811 146.481 53.2783C147.078 53.894 147.835 54.0158 148.566 54.1249C151.407 54.5417 154.235 54.2339 157.076 53.9645C159.135 53.7721 161.155 53.4194 163.182 53.0346C164.074 52.8678 164.927 52.5215 165.805 52.2906C166.979 51.9828 167.389 50.931 168.043 50.1036" stroke="#1E3C70" stroke-width="2" stroke-linecap="round" stroke-linejoin="round"/>
<path d="M115.292 24.3527C114.433 25.0518 113.4 24.8273 112.458 24.7631C110.489 24.6221 108.526 24.7118 106.564 24.6798C101.215 24.5964 95.8723 24.5323 90.5234 24.4617C89.959 24.4553 89.3883 24.3912 88.8816 24.7824C88.4326 25.1287 87.8426 24.9299 87.4835 24.7503C86.2008 24.1282 84.8539 24.3206 83.5392 24.2629C81.4676 24.1731 79.3961 24.2629 77.3245 24.2372C71.4305 24.1667 65.543 23.9871 59.649 23.9871C57.9045 23.9871 56.1601 23.9551 54.4092 23.9102" stroke="#1E3C70" stroke-width="2" stroke-linecap="round" stroke-linejoin="round"/>
<path d="M115.889 39.4121C115.992 41.8877 115.876 44.3569 115.857 46.8325C115.799 53.7398 115.838 60.6535 115.838 67.5608C115.838 68.0098 115.915 68.4715 115.62 68.8692" stroke="#1E3C70" stroke-width="2" stroke-linecap="round" stroke-linejoin="round"/>
<path d="M118.673 99.1992C118.936 100.809 118.82 100.88 117.146 100.957C112.676 101.155 108.2 101.059 103.729 101.033C100.965 101.014 98.1881 100.867 95.4431 100.565C94.4554 100.456 93.1471 100.771 92.4929 99.5263" stroke="#1E3C70" stroke-width="2" stroke-linecap="round" stroke-linejoin="round"/>
<path d="M165.151 45.6328C164.817 45.8829 164.644 46.2357 164.49 46.6141C163.881 48.1405 162.669 48.6664 161.11 48.692C158.538 48.7369 156.012 48.3842 153.472 48.0571C150.079 47.6146 146.699 47.0823 143.326 46.5115C141.03 46.1266 140.189 46.6012 139.074 48.7946C138.811 49.3077 138.208 49.4232 137.855 49.8721C137.233 50.6546 136.495 51.3408 135.803 52.0719" stroke="#1E3C70" stroke-width="2" stroke-linecap="round" stroke-linejoin="round"/>
<path d="M130.781 90.3601C130.653 89.5905 131.057 88.9555 131.455 88.4104C136.303 81.6506 141.049 74.8074 146.289 68.3362C147.059 67.3806 148.027 66.5853 148.887 65.7003C149.207 65.3732 149.515 65.0461 149.977 65.386C150.387 65.6875 150.285 66.2262 150.176 66.5661C149.772 67.7911 149.342 69.0161 148.771 70.1641C147.245 73.2105 145.321 76.0067 143.223 78.6812C140.434 82.2406 137.394 85.5628 133.943 88.4873C133.032 89.257 132.289 90.328 130.897 90.3793C130.672 90.3857 130.409 90.6808 130.249 90.9052C128.78 92.9896 126.478 93.3616 124.24 93.8362C122.912 94.1184 121.578 94.3942 120.206 94.3942" stroke="#1E3C70" stroke-width="2" stroke-linecap="round" stroke-linejoin="round"/>
<path d="M63.7927 102.907C63.1257 103.798 62.2022 103.317 61.3941 103.33C60.1948 103.349 58.9954 103.266 57.7961 103.24C57.4562 103.24 57.1612 103.157 56.8597 102.881C57.3728 101.303 57.2061 99.6294 57.4626 98.0004C57.5652 97.359 57.1355 97.2821 56.6032 97.0961C54.506 96.3585 52.3382 96.2495 50.1577 96.1405C48.0476 96.0378 45.9376 95.8583 43.8276 95.8326C41.4674 95.8005 39.1072 95.6851 36.7343 95.7877C33.8546 95.9096 31.2443 96.8331 28.6533 97.9683C27.749 98.3659 27.8709 98.8598 28.121 99.5204" stroke="#1E3C70" stroke-width="2" stroke-linecap="round" stroke-linejoin="round"/>
<path d="M137.984 40.3924C138.708 40.9119 139.497 40.8477 140.151 40.3795C141.902 39.1161 143.679 37.8911 144.66 35.826C145.09 34.9281 146.142 34.4471 146.95 34.1328C149.553 33.1195 149.586 31.0608 149.284 28.9443C148.951 26.5906 148.296 24.2817 147.123 22.1845C146.065 20.2925 144.872 18.5673 142.563 17.8875C140.696 17.3424 138.952 17.6694 137.329 18.3942C133.186 20.2284 129.819 23.076 127.164 26.7573C127.029 26.9433 126.875 27.1229 126.728 27.3025" stroke="#1E3C70" stroke-width="2" stroke-linecap="round" stroke-linejoin="round"/>
<path d="M135.04 182.002C135.392 184.901 135.572 187.806 135.591 190.731C135.61 193.931 135.758 197.131 135.662 200.332C135.598 202.294 135.739 204.27 135.392 206.226C135.219 207.2 134.674 207.393 133.847 207.316" stroke="#1E3C70" stroke-width="2" stroke-linecap="round" stroke-linejoin="round"/>
<path d="M115.51 38.4304C116.293 38.4561 115.927 37.8532 115.927 37.5582C115.959 34.6465 115.946 31.7412 115.946 28.8295C115.946 27.7777 115.946 26.7194 115.946 25.6676C115.946 24.1669 115.158 23.3973 113.657 23.3716C109.039 23.3075 104.421 23.269 99.8038 23.1407C97.7322 23.083 95.6607 22.9034 93.5827 22.9419C93.2171 22.9483 92.8387 22.8265 92.4475 23.1664C92.3192 23.4678 92.3962 23.9168 92.3834 24.3529" stroke="#1E3C70" stroke-width="2" stroke-linecap="round" stroke-linejoin="round"/>
<path d="M129.255 92.3223C129.53 92.6429 129.505 93.0406 129.466 93.4126C129.229 95.5547 129.235 97.7224 128.966 99.8388C128.709 101.853 129.004 103.854 128.716 105.848C128.434 107.804 128.632 109.773 128.607 111.736C128.575 113.737 128.472 115.744 128.632 117.732C128.838 120.247 128.972 122.767 129.409 125.275C129.768 127.372 130.967 128.302 132.756 128.706C133.359 128.841 133.802 129.091 134.276 129.405" stroke="#1E3C70" stroke-width="2" stroke-linecap="round" stroke-linejoin="round"/>
<path d="M133.834 182.002C133.796 182.656 133.732 183.31 133.732 183.964C133.725 190.583 133.725 197.202 133.732 203.821C133.732 204.532 133.674 205.232 133.404 205.892" stroke="#1E3C70" stroke-width="2" stroke-linecap="round" stroke-linejoin="round"/>
<path d="M152.491 4.60575C151.631 3.68221 150.413 3.71428 149.322 3.54112C146.686 3.11141 144.025 2.85488 141.37 2.59834C137.842 2.25201 134.308 2.04678 130.781 1.79665C128.985 1.66838 127.228 3.75276 127.401 5.59343" stroke="#FF6A1F" stroke-width="2" stroke-linecap="round" stroke-linejoin="round"/>
<path d="M127.837 101.27C126.875 102.796 125.214 103.052 123.681 103.424C121.712 103.905 119.686 104.181 117.685 104.54C117.614 104.553 117.537 104.54 117.467 104.54C113.465 104.47 109.463 104.675 105.467 104.438C104.197 104.361 102.921 104.367 101.651 104.354C98.2648 104.316 94.8849 104.098 91.505 104.162C89.3116 104.207 87.1311 104.098 84.9633 103.938C83.315 103.816 81.686 103.982 80.0506 103.899C77.7994 103.777 75.5419 103.732 73.2844 103.675C72.9124 103.662 72.5917 103.546 72.3031 103.335C71.9889 103.104 71.5976 103.155 71.3283 103.251C69.1798 103.976 67.0312 103.29 64.8827 103.335C64.6005 103.335 64.4145 103.104 64.2285 102.905" stroke="#1E3C70" stroke-width="2" stroke-linecap="round" stroke-linejoin="round"/>
<path d="M152.818 4.60547C152.6 4.6183 152.427 4.58623 152.356 4.92614C152.266 5.3815 151.997 5.79838 151.837 6.24091C151.375 7.54925 150.438 8.1457 149.111 7.8571C147.584 7.5236 146.052 7.70959 144.519 7.57491C141.543 7.31195 138.561 7.1452 135.572 7.01694C133.411 6.92715 132.532 7.83786 132.288 10.0569C132.045 12.3145 131.73 14.572 131.416 16.8231C131.333 17.4132 131.006 17.7338 130.332 17.7082C128.549 17.6376 126.766 17.6505 124.99 17.5735C124.304 17.5414 124.066 17.7595 123.989 18.4586C123.778 20.3826 123.797 22.3131 123.791 24.2435C123.791 24.6412 123.906 24.9362 124.214 25.2376C125.035 26.0521 126.022 26.841 126.542 27.7773C127.138 28.8548 127.78 29.9194 128.376 31.0033C128.735 31.6575 129.171 32.1642 129.877 32.5746C131.038 33.2609 131.711 34.5115 132.519 35.5825C133.539 36.9294 134.597 38.2441 135.553 39.6294C135.944 40.2002 136.451 40.5658 136.989 40.925" stroke="#1E3C70" stroke-width="2" stroke-linecap="round" stroke-linejoin="round"/>
<path d="M164.387 43.6649C163.881 43.6136 163.611 43.2673 163.284 42.9146C161.277 40.7404 159.237 38.5983 157.172 36.4818C156.929 36.2317 156.691 36.0201 156.524 35.7058C156.159 35.0196 155.075 34.6091 154.35 34.7053C151.67 35.0645 149.489 36.3792 147.475 38.0916C143.98 41.0675 140.497 44.0497 137.111 47.1474C136.245 47.9427 135.418 48.6931 134.738 49.7192C134.174 50.5722 133.09 51.1494 132.403 52.0537C132.031 52.5412 131.91 53.0222 131.987 53.593" stroke="#1E3C70" stroke-width="2" stroke-linecap="round" stroke-linejoin="round"/>
<path d="M35.2076 23.809C35.477 23.7513 35.5924 23.4819 35.9708 23.5076C37.5998 23.6294 39.2417 23.6743 40.8771 23.6936C45.3152 23.7449 49.7534 23.7705 54.1851 23.809" stroke="#FF6A1F" stroke-width="2" stroke-linecap="round" stroke-linejoin="round"/>
<path d="M109.616 97.8904C109.328 97.5569 108.969 97.3645 108.526 97.3453C105.762 97.2042 102.998 97.0759 100.234 96.9028C97.2513 96.7104 94.269 96.4346 91.2867 96.2807C90.3696 96.2293 89.4717 96.069 88.561 96.0498C87.3104 96.0305 87.1308 96.2999 87.2398 97.5633C87.2783 97.993 87.3168 98.4292 87.1629 98.8781C87.0602 99.1667 87.0218 99.59 87.1629 99.8401C87.9004 101.168 87.5926 102.527 87.3617 103.887" stroke="#1E3C70" stroke-width="2" stroke-linecap="round" stroke-linejoin="round"/>
<path d="M109.617 98.1074C109.219 98.5948 108.68 98.6782 108.09 98.659C105.801 98.582 103.511 98.4922 101.215 98.4473C99.5092 98.4153 97.7904 98.364 96.0908 98.4666C94.8466 98.5435 93.4805 98.2934 92.4672 99.4029C92.3325 99.5505 91.9092 99.4222 91.6142 99.4222" stroke="#1E3C70" stroke-width="2" stroke-linecap="round" stroke-linejoin="round"/>
<path d="M36.3556 5.8125C35.9965 6.30634 36.3492 6.83224 36.3172 7.33891C36.0542 11.5526 35.9901 15.779 35.6694 19.9927C35.586 21.1086 35.5155 22.2502 35.7592 23.3726" stroke="#FF6A1F" stroke-width="2" stroke-linecap="round" stroke-linejoin="round"/>
<path d="M163.727 128.438C160.27 129.258 156.813 130.047 153.369 130.907C152.427 131.144 151.548 130.9 150.637 130.862C149.329 130.81 148.021 130.907 146.712 130.952C146.058 130.977 145.442 130.984 144.955 130.413C144.763 130.188 144.429 130.092 144.095 130.067C142.094 129.932 140.074 129.893 138.105 129.579C137.387 129.464 136.63 129.553 135.893 129.246C135.392 129.034 134.687 129.092 134.161 129.515C135.04 131.336 134.687 133.203 134.533 135.095C134.398 136.788 134.206 138.462 133.834 140.11C133.353 142.233 132.872 144.362 132.218 146.44C132.019 147.069 131.968 147.556 132.712 148.12C134.167 149.236 134.854 150.865 134.713 152.764" stroke="#1E3C70" stroke-width="2" stroke-linecap="round" stroke-linejoin="round"/>
<path d="M134.052 129.746C133.096 130.452 132.987 131.593 132.776 132.587C132.057 135.942 131.454 139.321 130.986 142.727C130.845 143.753 130.563 144.766 130.345 145.786" stroke="#1E3C70" stroke-width="2" stroke-linecap="round" stroke-linejoin="round"/>
<path d="M135.149 53.0469C134.822 54.7464 133.5 56.0291 133.186 57.7351C131.172 59.5245 130.723 62.1797 129.421 64.3538C128.96 65.1234 128.049 65.752 127.087 66.1496C125.099 66.9705 123.021 67.49 120.975 68.1185C119.461 68.5803 117.787 68.638 116.588 69.8309C115.222 68.4649 113.452 68.1762 111.906 67.4515C111.284 67.1629 110.611 66.9833 109.944 66.7909C108.116 66.265 106.57 66.637 105.352 68.1955C104.73 68.9908 104.229 69.8566 103.742 70.7224C103.203 71.6652 103.421 72.1077 104.492 72.5695C104.64 72.6336 104.781 72.717 104.928 72.7875" stroke="#1E3C70" stroke-width="2" stroke-linecap="round" stroke-linejoin="round"/>
<path d="M82.7765 75.963C82.1159 75.9246 82.3532 76.4248 82.3468 76.7262C82.2955 78.7272 82.2762 80.7282 82.2249 82.7292C82.1672 85.0573 82.0774 87.3854 82.0133 89.7135C82.0068 89.9957 81.9812 90.2587 81.622 90.4896C83.1741 91.5927 82.9047 93.2409 83.296 94.7096C83.7513 96.3964 83.0715 97.8009 82.4366 98.9297C81.6221 100.386 80.1662 101.655 78.3961 102.124C77.511 102.354 76.6516 102.098 76.2027 101.072C75.9525 100.507 75.51 100.033 75.029 99.3401C74.4262 101.001 73.3038 102.117 72.0788 103.137" stroke="#1E3C70" stroke-width="2" stroke-linecap="round" stroke-linejoin="round"/>
<path d="M120.09 80.4316C120.308 80.8421 120.314 81.2846 120.314 81.74C120.269 85.2289 120.295 88.7243 120.179 92.2132C120.122 94.0346 120.096 95.8496 120.102 97.6711C120.102 98.0559 120.038 98.415 119.878 98.7613" stroke="#1E3C70" stroke-width="2" stroke-linecap="round" stroke-linejoin="round"/>
<path d="M33.681 149.93C33.5335 150.693 33.3731 151.456 33.2449 152.219C33.046 153.419 32.8344 154.547 33.1615 155.836C33.5335 157.318 33.3154 158.947 33.3475 160.505C33.386 162.506 33.4309 164.508 33.4501 166.509C33.4501 167.034 33.604 167.471 34.0016 167.817" stroke="#1E3C70" stroke-width="2" stroke-linecap="round" stroke-linejoin="round"/>
<path d="M133.725 7.88477C134.354 8.3273 134.341 8.98788 134.264 9.62923C133.918 12.5923 133.488 15.5489 132.827 18.4606C132.77 18.7235 132.802 18.9801 132.737 19.2302C132.596 19.7946 132.346 20.1986 131.647 20.1088C128.742 19.7369 125.837 19.3264 122.918 19.0378C121.815 18.9288 121.174 18.4093 120.738 17.4857" stroke="#FF6A1F" stroke-width="2" stroke-linecap="round" stroke-linejoin="round"/>
<path d="M103.723 90.5781C104.967 90.7962 105.66 91.848 106.538 92.5663C108.501 94.1697 110.765 94.8046 113.215 94.9393C115.44 95.0611 117.653 94.8174 119.872 94.6186" stroke="#1E3C70" stroke-width="2" stroke-linecap="round" stroke-linejoin="round"/>
<path d="M169.403 51.0858C168.146 50.3355 167.627 49.0848 167.107 47.815C166.825 47.1351 166.395 46.5579 165.818 46.0513C164.92 45.2624 164.529 44.3453 164.638 43.0049C164.766 41.4784 163.926 40.0675 163.086 38.7463C161.906 36.8864 160.161 35.841 158.154 35.1804C157.673 35.0201 157.012 34.8341 156.525 35.3664" stroke="#1E3C70" stroke-width="2" stroke-linecap="round" stroke-linejoin="round"/>
<path d="M133.07 58.1777C133.782 59.0628 133.398 60.0505 133.141 60.897C132.41 63.3342 131.659 65.7841 130.345 68.0032C130.178 68.2789 130.127 68.7279 129.896 68.8497C128.203 69.7284 127.792 71.6204 126.631 72.9031C125.195 74.4936 123.72 76.0457 121.943 77.2642C121.411 77.6298 120.975 77.9825 120.84 78.688C120.545 80.2272 119.115 80.6826 118.005 81.3945C117.46 81.7472 116.941 82.3116 116.165 82.1834" stroke="#1E3C70" stroke-width="2" stroke-linecap="round" stroke-linejoin="round"/>
<path d="M103.178 90.2526C103.812 88.8993 103.517 87.3986 103.896 85.9876C104.165 84.9743 104.447 84.0315 105.025 83.1593C105.544 82.3768 105.243 81.7547 104.274 81.4212C102.575 80.8312 100.792 80.8376 99.0345 80.658C98.7459 80.626 98.4508 80.5554 98.1622 80.5554C95.5134 80.5234 94.8721 81.5367 95.1479 84.0379C95.2505 84.9807 95.2505 85.9427 95.5006 86.8919C95.6225 87.3537 95.7892 87.7706 95.9752 88.1875" stroke="#1E3C70" stroke-width="2" stroke-linecap="round" stroke-linejoin="round"/>
<path d="M35.5349 104.547C35.1437 105.393 34.233 105.862 33.9893 106.836C33.7199 107.908 34.0342 108.44 35.0988 108.478C36.8433 108.542 38.5877 108.632 40.3386 108.69C40.8324 108.709 41.2172 108.882 41.5379 109.242" stroke="#1E3C70" stroke-width="2" stroke-linecap="round" stroke-linejoin="round"/>
<path d="M115.729 78.0352C115.889 79.6 115.889 81.1585 115.742 82.7298C115.697 83.198 115.838 83.6726 115.831 84.1472C115.806 87.309 115.703 90.4773 115.754 93.6391C115.78 95.2168 115.844 96.7817 115.511 98.3338" stroke="#1E3C70" stroke-width="2" stroke-linecap="round" stroke-linejoin="round"/>
<path d="M73.6112 92.5423C70.956 91.0415 66.9797 92.4589 65.9279 95.1397C65.6329 95.8837 66.2357 96.3968 65.9727 97.0124" stroke="#1E3C70" stroke-width="2" stroke-linecap="round" stroke-linejoin="round"/>
<path d="M129.037 32.3184C128.305 33.7229 129.133 34.9992 129.761 35.9805C130.954 37.8596 131.352 39.7836 131.217 41.9193C131.166 42.7018 131.429 42.9455 132.192 42.6697C132.942 42.3939 133.487 42.6633 133.815 43.2469C134.212 43.9588 134.526 44.613 135.341 45.0234C135.854 45.28 135.636 46.0881 135.546 46.6076C135.463 47.1271 135.546 47.5696 135.687 48.0314" stroke="#1E3C70" stroke-width="2" stroke-linecap="round" stroke-linejoin="round"/>
<path d="M120.744 7.33789C119.705 8.11392 119.731 9.31965 119.686 10.3971C119.622 11.9941 119.513 13.6039 119.846 15.2008C119.981 15.8422 120.122 16.4065 120.635 16.8298" stroke="#FF6A1F" stroke-width="2" stroke-linecap="round" stroke-linejoin="round"/>
<path d="M117.146 69.7422C118.903 70.5503 118.57 72.237 118.762 73.6736C118.865 74.4625 118.781 75.2706 118.781 76.0723C118.781 76.9445 119.217 77.3806 120.09 77.3806H120.526" stroke="#1E3C70" stroke-width="2" stroke-linecap="round" stroke-linejoin="round"/>
<path d="M120.308 68.543C120.487 69.5948 120.397 70.6466 120.372 71.7048C120.333 73.4172 120.102 75.1296 120.506 76.8356C120.603 77.2396 120.712 77.5218 121.071 77.7014" stroke="#1E3C70" stroke-width="2" stroke-linecap="round" stroke-linejoin="round"/>
<path d="M107.654 81.1953C107.571 81.7405 107.859 82.0868 108.308 82.2792C110.2 83.0937 112.124 83.6453 114.202 82.959C114.638 82.8115 115.145 82.8692 115.613 82.8372" stroke="#1E3C70" stroke-width="2" stroke-linecap="round" stroke-linejoin="round"/>
<path d="M81.6858 90.4696C80.0055 90.2836 78.3573 89.9821 76.6577 90.5465C75.5033 90.9313 74.631 91.5919 73.8358 92.4385C73.5664 92.7207 73.8037 94.5036 74.1629 94.8243C74.6823 95.2861 75.2531 95.7029 75.7534 96.1006C75.1249 97.364 74.8042 98.3966 74.9196 99.5189" stroke="#1E3C70" stroke-width="2" stroke-linecap="round" stroke-linejoin="round"/>
<path d="M116.383 69.8496C116.088 70.2472 116.139 70.7154 116.171 71.158C116.261 72.5433 116.357 73.9286 116.505 75.3011C116.595 76.1156 116.364 76.8275 115.94 77.4752C115.491 78.1615 114.626 78.0396 113.971 78.3218C113.106 78.6938 112.124 79.2966 111.259 78.2448" stroke="#1E3C70" stroke-width="2" stroke-linecap="round" stroke-linejoin="round"/>
<path d="M109.893 98C111.509 98.1475 113.131 98.2694 114.748 98.4425C115.767 98.5516 116.781 98.8402 117.8 98.8466C119.756 98.8658 121.661 99.2891 123.579 99.5585C125.067 99.7701 126.689 99.8022 127.837 101.059C128.049 101.29 128.28 101.098 128.498 101.162" stroke="#1E3C70" stroke-width="2" stroke-linecap="round" stroke-linejoin="round"/>
<path d="M49.8305 103.567C49.4201 102.99 48.7787 103.067 48.1951 102.964C46.5148 102.676 44.8473 102.785 43.1798 103.022C42.7886 103.08 42.4487 103.246 42.1985 103.567" stroke="#1E3C70" stroke-width="2" stroke-linecap="round" stroke-linejoin="round"/>
<path d="M42.1917 103.783C42.5636 104.232 43.051 104.341 43.609 104.335C45.206 104.322 46.8094 104.322 48.4063 104.335C48.9643 104.335 49.4517 104.232 49.8237 103.783" stroke="#1E3C70" stroke-width="2" stroke-linecap="round" stroke-linejoin="round"/>
<path d="M166.677 46.7236C167.633 46.0566 168.922 46.467 169.384 47.7112C169.762 48.7502 170.16 49.8149 169.647 50.9885C169.339 51.7004 169.647 52.5213 169.685 53.2653C169.775 55.0931 169.634 56.9017 169.628 58.7232" stroke="#1E3C70" stroke-width="2" stroke-linecap="round" stroke-linejoin="round"/>
<path d="M83.1036 95.0558C81.4618 94.6261 79.9674 95.2097 78.5308 95.8446C77.6009 96.2615 76.703 96.5694 75.6832 96.4732" stroke="#1E3C70" stroke-width="2" stroke-linecap="round" stroke-linejoin="round"/>
<path d="M73.8296 94.8379C72.4058 95.4472 70.9243 95.9602 69.8789 97.2173C69.8019 97.3071 69.5646 97.5572 69.244 97.4674C67.7047 97.0505 66.1142 97.2493 64.5621 97.0762C63.8374 96.9992 63.1897 96.3643 62.4778 96.0436C61.9968 95.832 61.4708 95.6652 60.9514 95.6075C59.8162 95.4921 58.6938 95.4985 58.1038 96.7876C58.0204 96.9736 57.751 97.0826 57.5714 97.2301" stroke="#1E3C70" stroke-width="2" stroke-linecap="round" stroke-linejoin="round"/>
<path d="M53.7555 96.582C53.685 96.8706 53.5696 97.1592 53.5439 97.4543C53.3579 99.5579 53.9031 101.7 53.2104 103.784C53.8005 104.868 53.4734 106.035 53.5247 107.164C53.5567 107.818 53.4669 108.473 53.4285 109.127" stroke="#1E3C70" stroke-width="2" stroke-linecap="round" stroke-linejoin="round"/>
<path d="M154.568 34.6155C154.254 33.5701 153.331 32.7813 152.279 32.7749C151.554 32.7749 150.816 32.6145 150.085 32.948C149.797 33.0827 149.348 33.1276 149.008 32.8646" stroke="#1E3C70" stroke-width="2" stroke-linecap="round" stroke-linejoin="round"/>
<path d="M101.106 86C100.708 87.071 101.023 88.187 100.875 89.2709C100.785 89.9122 100.664 90.5215 101.215 91.0153C101.715 90.9833 102.081 90.6369 102.524 90.4638C102.851 90.3355 103.171 89.9828 103.402 90.5792C103.46 90.7331 103.55 90.7267 103.614 90.5792C103.62 90.56 103.55 90.5087 103.511 90.4702" stroke="#1E3C70" stroke-width="2" stroke-linecap="round" stroke-linejoin="round"/>
<path d="M110.707 73.4472C112.137 76.2499 111.445 78.0906 108.956 80.3161C108.604 80.6303 108.174 80.8484 107.731 81.1434C107.154 80.6752 106.288 80.7778 105.794 80.1044C104.954 78.9628 104.544 77.6866 104.608 76.282C104.646 75.4226 105.32 74.9672 106.025 74.7813C107.462 74.39 108.77 73.6268 110.271 73.428C110.996 73.3318 111.458 72.5301 112.349 72.6584C113.407 72.8059 113.843 73.351 113.439 74.3195C113.119 75.0891 112.573 75.6407 111.804 75.9549" stroke="#1E3C70" stroke-width="2" stroke-linecap="round" stroke-linejoin="round"/>
<path d="M34.1173 168.041C34.0788 169.458 34.3803 170.998 33.9249 172.267C33.3349 173.903 33.5593 175.487 33.476 177.097C33.4311 177.963 33.585 178.841 33.5529 179.714C33.5337 180.201 33.8415 180.355 34.1173 180.586" stroke="#1E3C70" stroke-width="2" stroke-linecap="round" stroke-linejoin="round"/>
<path d="M110.598 77.8166C109.007 76.6173 107.923 76.9123 106.128 77.9321C105.813 78.1116 105.544 78.3618 105.249 78.5798" stroke="#1E3C70" stroke-width="2" stroke-linecap="round" stroke-linejoin="round"/>
<path d="M134.379 37.6686C134.777 37.0593 134.854 36.3731 134.636 35.7125C134.385 34.9493 134.341 34.1989 134.943 33.6537C135.553 33.1022 136.431 33.3074 137.098 33.4613C138.663 33.8205 139.83 35.565 139.709 37.1234C139.689 37.3864 139.465 37.6558 139.285 37.8866C138.06 39.4259 137.265 41.2024 136.579 43.0238C136.309 43.7485 136.111 44.4797 135.469 44.9799" stroke="#1E3C70" stroke-width="2" stroke-linecap="round" stroke-linejoin="round"/>
<path d="M95.5456 81.959C96.6423 82.5105 97.8929 82.3694 99.0409 82.7158C100.42 83.1326 100.702 83.697 99.7785 84.7745C98.6946 86.0444 97.816 87.5836 96.0971 88.1865C95.9432 88.2378 95.8278 88.4045 95.8791 88.6162" stroke="#1E3C70" stroke-width="2" stroke-linecap="round" stroke-linejoin="round"/>
<path d="M132.199 147.967C131.269 148.865 131.467 150.173 131.044 151.257C130.82 151.828 130.576 152.283 130.127 152.655" stroke="#1E3C70" stroke-width="2" stroke-linecap="round" stroke-linejoin="round"/>
<path d="M132.744 176.006C132.455 176.519 131.878 176.615 131.429 176.737C130.429 177.006 129.717 177.532 129.492 178.52C129.268 179.52 129.922 180.155 130.672 180.701C131.41 181.233 132.122 181.797 133.077 181.9C133.526 181.951 133.93 181.881 134.277 181.573" stroke="#1E3C70" stroke-width="2" stroke-linecap="round" stroke-linejoin="round"/>
<path d="M135.258 144.695C134.571 145.087 134.514 145.728 134.475 146.44C134.424 147.427 134.834 148.498 134.058 149.384" stroke="#1E3C70" stroke-width="2" stroke-linecap="round" stroke-linejoin="round"/>
<path d="M116.056 24.9046C118.384 24.9623 120.712 24.7827 123.04 25.0072C123.29 25.0328 123.546 24.943 123.803 24.9046" stroke="#1E3C70" stroke-width="2" stroke-linecap="round" stroke-linejoin="round"/>
<path d="M57.6867 97.8906C59.444 98.3075 60.9512 99.1541 62.1569 100.507" stroke="#1E3C70" stroke-width="2" stroke-linecap="round" stroke-linejoin="round"/>
<path d="M144.532 35.705C143.935 35.41 143.422 35.7114 142.896 35.9231C141.864 36.3271 140.998 37.116 139.844 37.2314" stroke="#1E3C70" stroke-width="2" stroke-linecap="round" stroke-linejoin="round"/>
<path d="M66.7425 97.4531C66.6206 98.1778 67.0311 98.6268 67.4993 99.095C68.8012 100.397 68.6729 100.987 66.9605 101.705C66.4411 101.923 65.928 102.186 65.3251 102.154C64.8826 102.129 64.5234 102.359 64.2348 102.693" stroke="#1E3C70" stroke-width="2" stroke-linecap="round" stroke-linejoin="round"/>
<path d="M64.4467 97.2363C63.8503 98.0188 63.35 98.8525 62.8947 99.7312C61.7531 101.95 59.4122 102.341 57.4625 100.725" stroke="#1E3C70" stroke-width="2" stroke-linecap="round" stroke-linejoin="round"/>
<path d="M100.67 86.8711C99.4896 87.1469 99.0406 88.3013 98.1748 88.9619C97.1679 89.7315 97.1615 89.7956 96.1995 88.9426" stroke="#1E3C70" stroke-width="2" stroke-linecap="round" stroke-linejoin="round"/>
<path d="M129.364 64.8359C129.794 65.8108 129.197 66.683 128.985 67.5488C128.831 68.1709 128.78 68.7161 128.928 69.3061" stroke="#1E3C70" stroke-width="2" stroke-linecap="round" stroke-linejoin="round"/>
<path d="M87.035 99.7434C86.8618 99.9679 86.6117 100.09 86.4706 100.391C85.9191 101.591 85.0468 102.482 83.7385 102.899C82.7316 102.565 82.6995 101.693 82.6739 100.834C82.661 100.366 82.7123 99.8974 82.3403 99.5254" stroke="#1E3C70" stroke-width="2" stroke-linecap="round" stroke-linejoin="round"/>
<path d="M129.145 2.64453C129.254 2.90107 129.351 3.16402 129.472 3.40773C129.883 4.203 129.87 4.85718 128.927 5.27405C128.709 5.37026 128.555 5.6268 128.376 5.80637" stroke="#1E3C70" stroke-width="2" stroke-linecap="round" stroke-linejoin="round"/>
<path d="M91.505 96.4727C91.2677 98.9803 91.287 101.488 91.287 104.002" stroke="#1E3C70" stroke-width="2" stroke-linecap="round" stroke-linejoin="round"/>
<path d="M69.3593 97.6719C69.6223 98.3068 69.4042 98.9802 69.5132 99.6344C69.7441 101.033 70.4817 102.129 71.4309 103.123" stroke="#1E3C70" stroke-width="2" stroke-linecap="round" stroke-linejoin="round"/>
<path d="M135.636 52.0664C135.585 52.5667 135.508 53.0541 134.822 52.9386C134.103 52.8168 133.481 52.9707 132.968 53.4902C132.635 53.8301 131.871 53.2016 131.762 54.0353" stroke="#1E3C70" stroke-width="2" stroke-linecap="round" stroke-linejoin="round"/>
<path d="M107.872 68.3242C106.872 69.8763 106.48 71.8132 104.941 72.8714C104.87 73.7628 105.55 74.2054 105.691 74.8724" stroke="#1E3C70" stroke-width="2" stroke-linecap="round" stroke-linejoin="round"/>
</g>
<defs>
<clipPath id="clip0_85_9563">
<rect y="0.769531" width="195" height="195" rx="8" fill="white"/>
</clipPath>
</defs>
</svg>
