<svg width="195" height="196" viewBox="0 0 195 196" fill="none" xmlns="http://www.w3.org/2000/svg">
<g clip-path="url(#clip0_85_9669)">
<path d="M99.0464 75.0196C100.89 74.8241 102.244 75.8337 103.703 76.7586C104.413 76.1789 104.817 75.2019 105.462 74.4399C108.074 71.3199 111.207 69.5353 115.46 71.0594C119.29 72.4272 123.152 73.3196 127.321 72.6487C129.672 72.2709 131.542 73.8927 132.727 75.6579C136.896 81.8716 140.654 88.2026 142.66 95.6409C144.673 103.105 147.61 110.342 149.473 117.878C150.502 122.059 151.082 126.332 152.749 130.37C153.329 131.771 152.43 133.555 151.59 134.871C147.552 141.196 145.181 148.243 142.862 155.278C140.993 160.951 137.925 165.96 134.167 170.343C131.125 173.893 128.285 177.599 125.217 181.123C119.694 187.473 112.913 192.235 106.029 196.892C104.635 197.836 103.489 199.171 101.769 199.718C101.359 199.191 101.228 198.904 101.378 198.103C102.205 193.765 101.821 189.375 101.137 185.057C99.7564 176.257 100.336 167.438 100.499 158.606C100.642 150.731 101.964 143 102.661 135.197C102.713 134.585 102.72 134.037 103.287 133.679" stroke="#1E3C70" stroke-width="2" stroke-linecap="round" stroke-linejoin="round"/>
<path d="M56.4945 84.7441C53.6286 87.4993 52.9578 91.4008 51.4011 94.8073C47.8317 102.61 44.6662 110.589 41.2792 118.477C40.6865 119.864 40.4195 121.252 40.3804 122.743C40.1589 130.253 40.7712 137.744 41.0317 145.234C41.1359 148.152 42.7187 150.751 44.1517 153.07C47.2455 158.065 48.9715 163.576 50.9451 168.975C52.4367 173.04 54.8922 176.264 58.0903 178.895C59.5883 180.126 60.8845 181.631 62.5064 182.673C63.4964 182.035 63.1121 181.299 62.9037 180.491C61.4577 174.805 60.4677 169.008 60.2397 163.165C60.0769 159.029 60.6306 154.848 61.093 150.712C61.6011 146.204 60.6501 141.919 59.5298 137.639C57.9275 131.53 57.0807 125.283 55.8953 119.096" stroke="#1E3C70" stroke-width="2" stroke-linecap="round" stroke-linejoin="round"/>
<path d="M68.3485 120.613C68.2378 121.727 67.5474 122.867 68.3485 123.955C71.5336 128.24 71.4945 133.301 71.6509 138.245C71.8463 144.53 71.3903 150.809 71.1363 157.095C70.9539 161.543 71.1754 166.012 71.4099 170.467C71.7421 176.739 69.4819 182.386 67.3129 188.222C64.4991 187.623 65.4241 183.969 63.1769 182.927" stroke="#1E3C70" stroke-width="2" stroke-linecap="round" stroke-linejoin="round"/>
<path d="M132.786 32.1608C132.786 28.0053 132.708 23.8498 132.819 19.7007C132.871 17.8053 132.18 16.8088 130.357 16.3268C128.194 15.7601 126.279 14.5291 124.24 13.6889C113.031 9.0839 101.704 4.74598 90.208 0.896568C88.9574 0.479711 87.7459 1.15059 86.541 2.01036C80.1188 6.59578 74.4847 12.0084 69.0199 17.8249C74.1004 19.8505 79.3827 20.5019 84.1505 22.736" stroke="#FF6A1F" stroke-width="2" stroke-linecap="round" stroke-linejoin="round"/>
<path d="M114.242 49.1811C113.669 48.3214 113.245 47.4551 113.936 46.439C114.268 45.9505 114.932 45.2536 114.796 44.9474C113.493 42.1336 114.945 40.7789 117.284 39.7367C118.228 39.3199 117.857 38.3754 117.896 37.6264C118.157 31.9207 116.535 26.495 114.737 21.2517C112.939 16.0084 108.178 13.7613 103 12.7322C98.903 11.918 94.7279 11.7357 90.5463 11.7487C88.8333 11.7487 87.6413 12.4586 87.2439 13.9242C85.5114 20.3529 82.2677 26.4103 82.5413 33.3731C82.5804 34.3827 82.7888 34.9689 83.1536 35.8417C84.0915 38.1149 84.593 40.59 83.8635 43.0976C82.6976 47.0969 84.2478 50.4057 86.6187 53.4214C89.1719 56.665 91.8554 59.6937 95.6593 61.752C98.3819 63.224 100.714 63.0742 102.648 61.2765C106.745 57.4792 112.197 55.0953 114.887 49.7999C115.03 49.5133 115.473 49.3831 115.779 49.1811" stroke="#1E3C70" stroke-width="2" stroke-linecap="round" stroke-linejoin="round"/>
<path d="M111.813 121.219C114.242 124.43 113.324 127.856 112.412 131.249C109.605 141.664 106.778 152.06 105.677 162.859C105.019 169.346 103.847 175.781 103.606 182.321" stroke="#1E3C70" stroke-width="2" stroke-linecap="round" stroke-linejoin="round"/>
<path d="M123.667 74.7129C121.231 76.9209 120.404 80.0083 119.459 82.9328C116.437 92.2665 113.33 101.587 111.142 111.175C110.999 111.807 111.051 112.412 110.901 113.012" stroke="#1E3C70" stroke-width="2" stroke-linecap="round" stroke-linejoin="round"/>
<path d="M134.31 170.766C135.763 173.163 134.903 175.859 135.105 178.373C135.737 186.15 135.834 193.966 136.134 201.769" stroke="#1E3C70" stroke-width="2" stroke-linecap="round" stroke-linejoin="round"/>
<path d="M117.284 33.6792C115.18 33.5424 114.347 31.5298 112.783 30.5462C109.006 28.1819 105.326 26.56 100.864 28.488C98.9946 29.2957 96.9754 28.8332 95.1061 28.4554C90.8138 27.5957 86.808 27.7715 83.2387 30.6309" stroke="#FF6A1F" stroke-width="2" stroke-linecap="round" stroke-linejoin="round"/>
<path d="M133.092 32.7663C133.294 34.4858 133.678 36.2119 133.665 37.9314C133.619 44.5295 133.893 51.1145 134.336 57.6865C134.479 59.8424 133.899 61.3796 131.854 62.2524C131.112 61.9593 131.261 61.3014 131.268 60.7283C131.327 52.0133 132.186 43.3115 131.9 34.5835C131.88 33.9843 132.278 33.3655 132.479 32.7598" stroke="#FF6A1F" stroke-width="2" stroke-linecap="round" stroke-linejoin="round"/>
<path d="M85.0623 69.8477C86.4106 77.5921 86.1631 85.4798 87.1857 93.2568C87.4593 95.3411 87.7589 97.4188 88.8922 100.259C94.6435 90.7947 102.635 83.9947 108.771 75.625" stroke="#1E3C70" stroke-width="2" stroke-linecap="round" stroke-linejoin="round"/>
<path d="M81.7207 130.338C81.5709 131.374 79.4997 131.204 80.5158 133.119C82.9388 133.92 85.466 132.292 88.1039 132.175C92.7805 131.96 97.3334 130.37 102.088 130.918C102.642 130.983 102.974 131.191 103.3 131.556" stroke="#1E3C70" stroke-width="2" stroke-linecap="round" stroke-linejoin="round"/>
<path d="M85.9739 119.701C81.4145 120.202 76.9594 121.023 73.377 124.468C74.2693 119.323 75.7479 118.131 79.5713 117.193C83.6877 116.183 87.2766 117.141 91.1781 118.372C99.0397 120.853 107.182 121.616 115.467 120.645C122.709 119.798 129.881 120.222 136.739 123.042" stroke="#1E3C70" stroke-width="2" stroke-linecap="round" stroke-linejoin="round"/>
<path d="M58.9242 179.885C57.576 183.415 58.0319 187.193 57.4132 190.827C56.7944 194.475 56.9572 198.246 55.5829 201.77" stroke="#1E3C70" stroke-width="2" stroke-linecap="round" stroke-linejoin="round"/>
<path d="M59.8357 113.924C59.0866 115.989 58.8391 118.112 58.9042 120.307C58.9563 122.254 58.6893 124.456 60.7736 125.413C63.0988 126.482 65.5349 126.488 67.4434 124.267C67.5801 124.111 67.8406 124.059 68.0425 123.954" stroke="#1E3C70" stroke-width="2" stroke-linecap="round" stroke-linejoin="round"/>
<path d="M126.709 100.857C122.97 107.045 118.932 113.037 114.529 118.776C114.145 119.277 113.852 119.688 113.943 120.313" stroke="#1E3C70" stroke-width="2" stroke-linecap="round" stroke-linejoin="round"/>
<path d="M88.104 73.502C88.9768 80.569 89.5565 87.649 89.322 94.7812" stroke="#1E3C70" stroke-width="2" stroke-linecap="round" stroke-linejoin="round"/>
<path d="M62.5716 110.581C62.1352 109.917 62.0832 108.738 61.054 108.797C59.3215 108.894 57.3414 107.637 55.9345 108.816C52.6518 111.584 48.0664 113.096 46.7637 117.87" stroke="#1E3C70" stroke-width="2" stroke-linecap="round" stroke-linejoin="round"/>
<path d="M42.8099 121.526C43.9041 120.588 44.9984 119.656 46.6854 118.217C45.4348 124.841 43.103 130.592 42.8099 136.721" stroke="#1E3C70" stroke-width="2" stroke-linecap="round" stroke-linejoin="round"/>
<path d="M78.6795 103.592C80.0538 102.433 80.0408 101.808 78.0802 101.417C76.3346 101.071 74.3481 101.397 73.0323 99.8926C71.391 100.179 69.8342 100.948 68.7595 101.638C66.6687 102.973 64.4346 104.752 64.3695 107.845C64.3174 110.307 62.7151 112.424 60.7155 112.867C56.5795 113.773 56.0454 116.971 54.9707 120.006C54.378 121.686 53.883 123.386 53.7592 125.171" stroke="#1E3C70" stroke-width="2" stroke-linecap="round" stroke-linejoin="round"/>
<path d="M103.3 77.4473C98.9033 81.6223 95.132 86.338 91.4715 91.1449C91.0155 91.7507 90.6834 92.389 89.9213 92.643" stroke="#1E3C70" stroke-width="2" stroke-linecap="round" stroke-linejoin="round"/>
<path d="M132.486 18.783C130.656 18.4248 129.542 19.8577 128.259 20.6524C124.41 23.0232 120.997 26.0585 116.984 28.2079" stroke="#FF6A1F" stroke-width="2" stroke-linecap="round" stroke-linejoin="round"/>
<path d="M146.77 128.82C143.018 124.97 140.126 120.287 135.528 117.265C134.499 116.588 133.515 115.852 132.18 116.053" stroke="#1E3C70" stroke-width="2" stroke-linecap="round" stroke-linejoin="round"/>
<path d="M87.1923 68.3301C84.4046 69.6653 81.4865 70.473 78.3797 70.4534C74.4065 70.4274 71.0196 72.1078 67.7433 74.1009" stroke="#1E3C70" stroke-width="2" stroke-linecap="round" stroke-linejoin="round"/>
<path d="M66.2191 89.0034C67.3849 88.3716 68.2186 87.323 69.5409 86.8279C72.1267 85.8574 72.8301 86.0203 73.1557 88.7103C73.3577 90.3973 74.009 92.1494 73.26 93.8689C69.1565 94.2988 66.3493 92.8984 65.3072 89.9218" stroke="#FF6A1F" stroke-width="2" stroke-linecap="round" stroke-linejoin="round"/>
<path d="M65.0013 89.3028C63.3078 88.1238 61.5166 87.1533 59.3672 86.4043C57.5434 88.4886 58.0515 91.2828 57.1005 93.5625" stroke="#FF6A1F" stroke-width="2" stroke-linecap="round" stroke-linejoin="round"/>
<path d="M108.471 57.082C108.471 59.2119 108.374 61.3418 108.523 63.4586C108.582 64.2793 108.393 64.7939 107.866 65.2824C106.452 66.6046 105.123 68.0376 103.593 69.21C100.961 71.2291 98.8705 73.6716 97.2617 76.7394C95.1709 75.3977 92.7806 74.9352 91.9403 72.0042C91.3606 69.9916 90.2077 70.2782 87.8108 72.877" stroke="#1E3C70" stroke-width="2" stroke-linecap="round" stroke-linejoin="round"/>
<path d="M78.6793 104.199C78.8747 104.811 80.3076 104.102 79.9233 105.424C79.6628 106.31 79.6172 107.098 78.3862 107.287C77.0379 107.495 75.7678 108.179 74.4195 108.426C72.0226 108.869 70.6679 110.452 69.5606 112.406" stroke="#1E3C70" stroke-width="2" stroke-linecap="round" stroke-linejoin="round"/>
<path d="M71.3838 74.7129C70.3873 78.6014 68.9153 82.4313 69.8662 86.5673" stroke="#1E3C70" stroke-width="2" stroke-linecap="round" stroke-linejoin="round"/>
<path d="M57.4062 86.2674C56.5008 83.0497 54.0127 80.516 53.6479 76.9532C53.6609 76.9402 53.8238 76.6666 54.0713 76.5494C60.6629 73.449 60.6238 73.4751 64.4211 80.1773C65.7238 82.4766 67.2414 84.6455 68.6548 86.8731" stroke="#FF6A1F" stroke-width="2" stroke-linecap="round" stroke-linejoin="round"/>
<path d="M106.036 133.074C105.769 131.582 104.707 132.312 103.912 132.279C103.508 134.116 104.537 134.976 106.036 135.497C107.547 136.024 109.071 136.513 110.595 137.021" stroke="#1E3C70" stroke-width="2" stroke-linecap="round" stroke-linejoin="round"/>
<path d="M64.7016 120.307C67.6847 120.404 70.3748 120 72.6935 117.656C73.6966 116.64 75.6376 116.529 77.1682 116.053C80.7115 114.966 81.7602 113.272 80.4575 110.465C77.3376 111.95 74.2698 113.526 71.3909 115.441" stroke="#1E3C70" stroke-width="2" stroke-linecap="round" stroke-linejoin="round"/>
<path d="M92.9695 61.0352C92.2465 64.0639 92.3508 66.7604 94.7086 69.3202C96.0894 70.8183 96.617 73.0914 97.5289 75.0194" stroke="#1E3C70" stroke-width="2" stroke-linecap="round" stroke-linejoin="round"/>
<path d="M113.031 31.5488C113.168 34.8251 113.227 38.1078 114.249 41.2733" stroke="#1E3C70" stroke-width="2" stroke-linecap="round" stroke-linejoin="round"/>
<path d="M78.0734 103.894C74.4128 103.568 71.1691 104.577 68.3488 106.935" stroke="#1E3C70" stroke-width="2" stroke-linecap="round" stroke-linejoin="round"/>
<path d="M106.947 121.83C108.634 124.97 107.794 128.109 106.947 131.255" stroke="#1E3C70" stroke-width="2" stroke-linecap="round" stroke-linejoin="round"/>
<path d="M81.115 36.1074C78.6334 39.0515 79.1804 41.8001 82.9387 45.2262" stroke="#1E3C70" stroke-width="2" stroke-linecap="round" stroke-linejoin="round"/>
<path d="M86.5863 124.567C83.525 125.394 80.0794 124.808 77.4089 127.237C76.8618 127.739 75.481 127.628 74.6733 126.625C74.8883 125.772 75.1097 124.866 75.3377 123.961" stroke="#1E3C70" stroke-width="2" stroke-linecap="round" stroke-linejoin="round"/>
<path d="M117.89 40.0625C119.043 43.2866 119.056 46.3154 116.372 48.8751" stroke="#1E3C70" stroke-width="2" stroke-linecap="round" stroke-linejoin="round"/>
<path d="M56.1884 100.857C57.7907 103.71 59.4451 106.518 62.8777 107.547" stroke="#1E3C70" stroke-width="2" stroke-linecap="round" stroke-linejoin="round"/>
<path d="M127.92 114.23C124.989 114.465 122.599 116.119 120.02 117.272" stroke="#1E3C70" stroke-width="2" stroke-linecap="round" stroke-linejoin="round"/>
<path d="M69.5605 72.5901C68.3816 70.7273 66.8053 71.9127 65.6459 72.3752C64.2846 72.9158 63.1773 74.1143 61.9659 75.0261" stroke="#1E3C70" stroke-width="2" stroke-linecap="round" stroke-linejoin="round"/>
<path d="M64.7016 92.0391C62.3633 93.459 60.2986 95.7908 57.0744 93.9084C56.2212 93.4069 55.7132 94.4165 54.6319 95.3283C58.8787 96.0318 59.3151 99.1647 60.1748 102.063C60.494 103.131 61.1584 104.102 61.6664 105.111" stroke="#FF6A1F" stroke-width="2" stroke-linecap="round" stroke-linejoin="round"/>
<path d="M66.2193 94.168C68.0365 95.9266 68.7204 98.6427 71.0848 99.9453" stroke="#FF6A1F" stroke-width="2" stroke-linecap="round" stroke-linejoin="round"/>
<path d="M77.1615 127.908C76.9856 129.289 77.2266 130.155 78.9852 130.071C81.5515 129.947 84.1308 130.103 86.5799 129.126" stroke="#1E3C70" stroke-width="2" stroke-linecap="round" stroke-linejoin="round"/>
<path d="M92.0578 64.6822C91.0873 64.2848 90.195 64.0829 89.3091 64.9688C88.2735 66.0044 87.4398 67.4634 87.6482 68.6032C87.8827 69.8733 87.2118 71.1044 87.8045 72.2768" stroke="#1E3C70" stroke-width="2" stroke-linecap="round" stroke-linejoin="round"/>
<path d="M124.579 120.918C126.878 121.83 128.435 123.745 130.356 125.171" stroke="#1E3C70" stroke-width="2" stroke-linecap="round" stroke-linejoin="round"/>
<path d="M71.3844 88.6969C69.3327 88.5992 68.1212 90.5597 66.2193 90.8268" stroke="#FF6A1F" stroke-width="2" stroke-linecap="round" stroke-linejoin="round"/>
<path d="M74.4257 98.1221C75.0379 97.9267 75.6502 97.7378 76.3666 97.5099C75.8521 96.0443 74.621 95.3148 73.5138 94.4746" stroke="#FF6A1F" stroke-width="2" stroke-linecap="round" stroke-linejoin="round"/>
<path d="M108.771 65.2871C109.683 66.6875 109.135 68.6676 110.594 69.8465" stroke="#1E3C70" stroke-width="2" stroke-linecap="round" stroke-linejoin="round"/>
<path d="M64.0891 98.1211C65.001 99.541 65.9128 100.961 66.8247 102.374" stroke="#FF6A1F" stroke-width="2" stroke-linecap="round" stroke-linejoin="round"/>
<path d="M66.5252 92.9512C64.1999 95.5761 63.7244 99.5232 60.4482 101.464" stroke="#1E3C70" stroke-width="2" stroke-linecap="round" stroke-linejoin="round"/>
<path d="M113.031 71.0645C111.813 72.3802 110.601 73.6959 109.383 75.0181" stroke="#1E3C70" stroke-width="2" stroke-linecap="round" stroke-linejoin="round"/>
<path d="M65.0013 90.8276C63.8875 90.7234 62.7737 90.6257 61.6599 90.5215" stroke="#FF6A1F" stroke-width="2" stroke-linecap="round" stroke-linejoin="round"/>
<path d="M80.8092 109.976C82.5743 108.015 82.5418 107.911 79.8974 107.24" stroke="#1E3C70" stroke-width="2" stroke-linecap="round" stroke-linejoin="round"/>
<path d="M81.4144 113.623C82.157 114.333 82.9191 115.03 83.2382 116.053" stroke="#FF6A1F" stroke-width="2" stroke-linecap="round" stroke-linejoin="round"/>
</g>
<defs>
<clipPath id="clip0_85_9669">
<rect y="0.769531" width="195" height="195" rx="8" fill="white"/>
</clipPath>
</defs>
</svg>
