<svg width="395" height="339" viewBox="0 0 395 339" fill="none" xmlns="http://www.w3.org/2000/svg">
<path d="M147.423 216.593C143.503 216.593 121.792 214.029 121.725 219.012C121.52 233.81 119.039 250.571 121.87 265.136C122.426 267.989 123.488 270.925 125.768 272.732C136.429 281.185 146.873 269.935 147.429 259.469C148.608 237.33 147.635 214.897 147.623 192.741C147.612 171.148 147.479 148.981 147.434 127.165C147.412 115.943 147.412 104.715 147.462 93.4927C147.49 87.9483 147.062 82.1647 147.579 76.6481C148.074 71.3985 151.01 71.0704 156.126 71.0704H226.124C240.844 71.0704 255.564 71.2817 270.284 71.3429C281.496 71.3874 292.707 70.8035 303.918 70.3809C305.736 70.3141 307.621 70.2529 309.301 70.9592C314.167 73.0001 313.544 82.593 313.678 86.8083C313.906 94.0043 313.355 101.189 313.355 108.385V137.042C313.355 148.62 314.206 160.22 313.338 171.787C309.04 169.029 302.739 165.542 294.614 162.873C289.031 161.043 279.833 158.113 267.949 158.852C250.048 159.964 237.657 168.673 234.104 171.337C231.145 173.556 219.439 182.72 212.938 199.537C210.97 204.626 202.267 229.061 215.669 254.141C225.456 272.449 244.225 285.867 263.511 287.463C280.978 288.909 300.303 282.269 314.984 273.027C317.748 271.286 319.967 268.194 323.059 267.099C324.789 266.487 326.785 266.687 328.353 267.638C330.845 269.14 330.906 271.486 331.095 274.095C331.345 277.509 332.491 278.682 335.216 280.623C347.033 289.032 359.234 296.928 371.585 304.525C376.223 307.378 381.539 309.697 386.65 306.393C390.877 303.663 392.673 297.996 390.699 293.364C389.119 289.655 385.61 287.191 382.274 284.928C375.422 280.279 368.905 275.173 362.187 270.341C359.44 268.361 356.659 266.415 353.784 264.624C351.137 262.978 348.167 261.076 345.059 260.531C343.713 260.298 342.295 260.364 341.044 260.92C339.681 261.521 339.637 261.827 338.58 262.138C336.534 262.739 334.576 261.749 332.802 260.831C331.028 259.914 329.343 258.824 327.669 257.745C326.707 257.122 325.784 256.377 325.228 255.376C323.287 251.878 326.885 246.573 327.958 243.281C332.541 229.244 331.117 212.333 324.666 199.103C321.563 192.747 317.331 187.102 312.209 182.403C310.118 180.485 306.426 177.398 301.321 174.612C298.707 173.189 287.935 167.594 273.126 167.761C260.953 167.9 248.707 171.142 239.137 178.872C228.882 187.153 221.53 199.042 218.95 211.988C215.33 230.168 221.836 245.477 231.168 260.548C234.894 266.565 237.229 269.562 236.067 272.126C234.855 274.801 230.795 276.519 222.353 276.219C195.393 275.257 146.661 274.645 142.463 274.506" stroke="#1E3D70" stroke-width="6.75348" stroke-miterlimit="10"/>
<path d="M356.098 37.9842C361.725 37.9842 366.286 33.4229 366.286 27.7963C366.286 22.1697 361.725 17.6084 356.098 17.6084C350.471 17.6084 345.91 22.1697 345.91 27.7963C345.91 33.4229 350.471 37.9842 356.098 37.9842Z" stroke="#1E3D70" stroke-width="6.75348" stroke-miterlimit="10"/>
<path d="M13.5656 153.353C19.1246 153.353 23.6311 148.846 23.6311 143.287C23.6311 137.728 19.1246 133.222 13.5656 133.222C8.0065 133.222 3.5 137.728 3.5 143.287C3.5 148.846 8.0065 153.353 13.5656 153.353Z" stroke="#F26622" stroke-width="6.75348" stroke-miterlimit="10"/>
<path d="M202.204 334.98C209.622 334.98 215.634 328.967 215.634 321.55C215.634 314.133 209.622 308.12 202.204 308.12C194.787 308.12 188.774 314.133 188.774 321.55C188.774 328.967 194.787 334.98 202.204 334.98Z" stroke="#F26622" stroke-width="6.75348" stroke-miterlimit="10"/>
<path d="M120.524 90.2176H127.525V94.1827H120.524V101.151H116.559V94.1827H109.558V90.2176H116.559V83.1772H120.524V90.2176Z" fill="#1E3D70"/>
<path d="M306.982 7.04036H313.983V11.0054H306.982V17.9734H303.017V11.0054H296.016V7.04036H303.017V0H306.982V7.04036Z" fill="#F26622"/>
<path d="M54.4855 288.481H61.4869V292.446H54.4855V299.414H50.5205V292.446H43.519V288.481H50.5205V281.44H54.4855V288.481Z" fill="#1E3D70"/>
<path d="M273.594 270.063C297.928 270.063 317.655 250.337 317.655 226.003C317.655 201.669 297.928 181.942 273.594 181.942C249.26 181.942 229.534 201.669 229.534 226.003C229.534 250.337 249.26 270.063 273.594 270.063Z" stroke="#F26622" stroke-width="6.75348" stroke-miterlimit="10"/>
</svg>
