<svg width="151" height="60" viewBox="0 0 151 60" fill="none" xmlns="http://www.w3.org/2000/svg">
<g id="Frame 96">
<g id="Group 2573">
<g id="Group 2572">
<path id="Vector" d="M37.0113 14.1643L39.3887 11.1181C39.968 10.3751 41.1296 11.0748 40.7465 11.9337L39.1709 15.4619C36.3085 21.8726 40.3881 29.2395 47.341 30.2142L51.1689 30.7502C52.1019 30.8815 52.0772 32.2363 51.1411 32.3336L47.2978 32.7337C40.314 33.4597 35.9748 40.6767 38.607 47.1863L40.056 50.7685C40.4098 51.6413 39.2234 52.2978 38.6704 51.5362L36.4027 48.4066C32.2813 42.722 23.8625 42.5721 19.5419 48.1069L17.1645 51.1531C16.5852 51.8962 15.4236 51.1964 15.8067 50.3375L17.3823 46.8093C20.2447 40.3987 16.165 33.0318 9.21217 32.0571L5.38431 31.521C4.45128 31.3897 4.476 30.035 5.41211 29.9377L9.25543 29.5376C16.2392 28.8116 20.5784 21.5945 17.9461 15.085L16.4972 11.5027C16.1434 10.63 17.3298 9.97345 17.8828 10.735L20.1505 13.8647C24.2719 19.5493 32.6907 19.6991 37.0113 14.1643Z" fill="#1E3C70"/>
<path id="Vector_2" d="M48.1483 24.5635C50.5943 24.5635 52.5771 22.5806 52.5771 20.1347C52.5771 17.6888 50.5943 15.7059 48.1483 15.7059C45.7024 15.7059 43.7195 17.6888 43.7195 20.1347C43.7195 22.5806 45.7024 24.5635 48.1483 24.5635Z" fill="#F16622"/>
<path id="Vector_3" d="M28.681 12.8575C31.1269 12.8575 33.1097 10.8747 33.1097 8.42877C33.1097 5.98283 31.1269 4 28.681 4C26.235 4 24.2522 5.98283 24.2522 8.42877C24.2522 10.8747 26.235 12.8575 28.681 12.8575Z" fill="#F16622"/>
<path id="Vector_4" d="M9.45209 24.2454C11.898 24.2454 13.8809 22.2625 13.8809 19.8166C13.8809 17.3706 11.898 15.3878 9.45209 15.3878C7.00614 15.3878 5.02332 17.3706 5.02332 19.8166C5.02332 22.2625 7.00614 24.2454 9.45209 24.2454Z" fill="#F16622"/>
<path id="Vector_5" d="M47.624 45.2955C50.07 45.2955 52.0528 43.3127 52.0528 40.8668C52.0528 38.4208 50.07 36.438 47.624 36.438C45.1781 36.438 43.1953 38.4208 43.1953 40.8668C43.1953 43.3127 45.1781 45.2955 47.624 45.2955Z" fill="#F16622"/>
<path id="Vector_6" d="M28.1577 57C30.6037 57 32.5865 55.0172 32.5865 52.5712C32.5865 50.1253 30.6037 48.1425 28.1577 48.1425C25.7118 48.1425 23.7289 50.1253 23.7289 52.5712C23.7289 55.0172 25.7118 57 28.1577 57Z" fill="#F16622"/>
<path id="Vector_7" d="M8.92877 45.6138C11.3747 45.6138 13.3575 43.6309 13.3575 41.185C13.3575 38.7391 11.3747 36.7562 8.92877 36.7562C6.48283 36.7562 4.5 38.7391 4.5 41.185C4.5 43.6309 6.48283 45.6138 8.92877 45.6138Z" fill="#F16622"/>
</g>
<g id="Group">
<path id="Vector_8" d="M66.7089 10.5716C67.6296 10.5716 68.3479 10.828 68.3989 11.2374C68.4498 11.4428 68.4498 11.6467 68.4498 11.9032C68.7063 11.3918 69.1666 10.93 69.8324 10.5206C70.4982 10.1622 71.2659 9.95679 72.1881 9.95679C72.8539 9.95679 73.5197 10.0587 74.082 10.2132C75.1571 10.4696 75.5665 11.4938 75.1571 12.2106C74.7987 12.8763 74.1839 12.467 73.4162 11.5958C72.9049 11.0319 72.2901 10.777 71.5733 10.777C70.6001 10.777 69.9343 11.2884 69.5759 12.2615C69.2176 13.2347 69.0121 15.1796 69.0121 18.0466C69.0121 22.5526 69.1141 26.2384 69.3195 29.1054C69.4215 30.2825 68.6028 31.1537 67.4766 31.1537H64.968C63.8419 31.1537 63.0741 30.335 63.1251 29.2089C63.2271 26.9057 63.278 24.6009 63.278 22.2452C63.278 18.6614 63.1761 15.436 62.9706 12.5689C62.9197 11.4428 63.7384 10.5716 64.8645 10.5716H66.7074H66.7089Z" fill="#326BAE"/>
<path id="Vector_9" d="M95.6883 19.6854C92.6158 19.9418 89.6978 20.1457 86.7288 20.1457C84.9369 20.1457 83.5543 20.1457 82.4792 20.0947V20.5041C82.4792 23.8315 83.043 26.3927 84.2201 28.2355C85.3462 30.0784 86.8817 31.0006 88.879 31.0006C90.3635 31.0006 91.5932 30.6932 92.5648 30.0274C93.6399 29.2597 94.4587 28.6959 94.817 29.2087C95.1754 29.8235 94.6116 30.6932 93.4345 31.1026C91.8465 31.6139 90.1581 31.8703 88.3662 31.8703C84.9353 31.8703 82.0173 30.9481 79.6631 29.1052C77.3074 27.3133 76.1303 24.5482 76.1303 20.9135C76.1303 17.5336 77.2054 14.872 79.3557 12.8746C81.506 10.8773 84.2711 9.90564 87.7004 9.90564C91.1297 9.90564 93.4855 10.8278 95.0735 12.7217C96.3031 14.2062 97.0183 15.8961 97.3257 17.739C97.4276 18.8142 96.7109 19.5819 95.6867 19.6838L95.6883 19.6854ZM91.899 17.3806C91.899 15.6397 91.4897 14.1042 90.6694 12.7217C89.8507 11.3901 88.7246 10.7244 87.342 10.7244C85.5501 10.7244 84.3221 11.6466 83.6053 13.5404C82.9395 15.1269 82.5811 17.0732 82.5302 19.2745C84.373 19.2745 87.4455 19.3255 87.9059 19.3255C89.4923 19.3255 90.7729 19.2235 91.7461 19.0181C91.848 18.5068 91.899 17.9429 91.899 17.3791V17.3806Z" fill="#326BAE"/>
<path id="Vector_10" d="M117.961 31.1536H115.554C115.042 31.1536 114.581 30.9481 114.273 30.6423C113.454 31.1536 112.481 31.6155 111.457 31.7684C110.893 31.8703 110.331 31.8703 109.665 31.8703C103.367 31.8703 100.245 29.6181 100.245 25.0611C100.245 22.6035 101.27 20.9135 103.267 20.0438C105.264 19.1741 108.796 18.6613 113.865 18.5083C113.814 16.1526 113.456 14.2588 112.739 12.8252C112.023 11.3917 111.1 10.675 110.025 10.675C108.797 10.675 107.669 11.0333 106.594 11.6991L105.979 12.1085C104.699 13.1326 103.624 13.7984 103.265 13.0307C102.856 12.212 103.367 11.2898 104.493 10.8804C106.491 10.2146 108.538 9.90723 110.586 9.90723C116.678 9.90723 119.853 12.8252 119.7 18.6628L119.649 20.5567C119.649 21.4264 119.598 22.1431 119.598 22.656C119.598 25.2156 119.7 27.2639 119.854 28.9029C120.007 30.1835 119.24 31.1551 117.961 31.1551V31.1536ZM113.864 29.822C113.813 29.7201 113.813 29.6691 113.813 29.6166C113.711 28.336 113.66 26.9025 113.66 25.2141C113.66 23.2167 113.711 21.2209 113.813 19.2236C111.048 19.3255 109.103 19.7349 108.028 20.4007C106.953 21.1174 106.389 22.449 106.389 24.4448C106.389 25.8273 106.542 27.0044 106.798 27.9776C107.055 28.9508 107.413 29.6675 107.873 30.0769C108.283 30.4863 108.692 30.7427 109.05 30.8956C109.409 31.0485 109.716 31.152 110.075 31.152C110.484 31.152 110.842 31.0501 111.15 30.9991C112.019 30.7937 112.993 30.2824 113.864 29.822Z" fill="#326BAE"/>
<path id="Vector_11" d="M147.399 19.8893V21.4248C147.399 23.2167 147.092 24.8556 146.426 26.2366C145.76 27.6192 144.891 28.7453 143.815 29.513C142.74 30.2808 141.563 30.8956 140.385 31.3049C139.208 31.6633 137.978 31.8688 136.801 31.8688C136.544 31.8688 136.237 31.8688 136.033 31.8178C135.316 31.7668 133.626 31.254 132.398 30.6917C132.449 33.3548 132.5 35.8635 132.604 38.3196C132.655 39.4457 131.836 40.2644 130.761 40.2644H128.15C127.075 40.2644 126.256 39.4457 126.307 38.3196C126.46 34.121 126.564 29.513 126.564 24.5467C126.564 19.8368 126.462 15.8436 126.307 12.5657C126.256 11.4396 127.075 10.6209 128.201 10.6209H130.71C131.683 10.6209 132.502 10.8773 132.502 11.1847V11.7485C133.73 10.5204 135.267 9.90564 137.161 9.90564C140.284 9.90564 142.742 10.8788 144.636 12.8746C146.479 14.872 147.401 17.1752 147.401 19.8893H147.399ZM141.101 20.1967C141.101 17.4316 140.743 15.1284 140.077 13.3365C139.411 11.5446 138.285 10.6749 136.75 10.6749C135.88 10.6749 135.009 11.0333 134.241 11.6991C133.422 12.3649 132.91 13.1326 132.655 14.0023C132.449 17.4332 132.347 21.5792 132.347 26.3417V29.8235C133.064 30.029 134.037 30.3348 135.471 30.7967C135.88 30.8987 136.289 31.1041 136.751 31.1041C138.032 31.1041 139.056 30.2854 139.875 28.6464C140.694 27.0075 141.103 24.4478 141.103 21.0185V20.1998L141.101 20.1967Z" fill="#326BAE"/>
</g>
<g id="Group_2">
<path id="Vector_12" d="M66.9011 42.6821L65.8105 40.8176H64.6612V42.6821H64.014V37.8115H65.9619C66.379 37.8115 66.7358 37.9583 67.0339 38.2533C67.3305 38.5484 67.4788 38.9037 67.4788 39.3207C67.4788 39.6359 67.3846 39.9232 67.1977 40.1842C67.0092 40.4438 66.7667 40.6276 66.4701 40.7342L67.6179 42.6821H66.9011ZM64.6612 38.4171V40.2337H65.9619C66.2029 40.2337 66.4083 40.1441 66.5782 39.9664C66.7482 39.7872 66.8316 39.5741 66.8316 39.3223C66.8316 39.0705 66.7466 38.8589 66.5782 38.6828C66.4083 38.5067 66.2029 38.4186 65.9619 38.4186H64.6612V38.4171Z" fill="#F16622"/>
<path id="Vector_13" d="M69.6923 42.7716C69.2381 42.7716 68.8489 42.665 68.5276 42.4519C68.2047 42.2387 67.9792 41.9467 67.8494 41.5745L68.4055 41.2547C68.5955 41.8432 69.0296 42.1383 69.7062 42.1383C70.0399 42.1383 70.2948 42.0703 70.4724 41.9328C70.6485 41.7954 70.7365 41.6131 70.7365 41.386C70.7365 41.1589 70.6485 40.9797 70.4724 40.8639C70.2963 40.748 70.0013 40.6244 69.5888 40.4947C69.3864 40.4252 69.232 40.3727 69.1238 40.3356C69.0157 40.2985 68.8829 40.2398 68.7222 40.1579C68.5616 40.0761 68.4426 39.9926 68.3638 39.9077C68.285 39.8212 68.214 39.71 68.1522 39.5709C68.0889 39.4319 68.058 39.2743 68.058 39.0982C68.058 38.6765 68.2063 38.3413 68.5029 38.0926C68.7994 37.8439 69.1609 37.7203 69.5888 37.7203C69.9734 37.7203 70.3087 37.8177 70.5944 38.0123C70.8802 38.2069 71.0934 38.4649 71.2386 38.7847L70.6964 39.0982C70.4878 38.5977 70.1186 38.3475 69.5903 38.3475C69.3262 38.3475 69.113 38.4124 68.9508 38.5421C68.7886 38.6719 68.7068 38.848 68.7068 39.0704C68.7068 39.2929 68.784 39.4458 68.9369 39.557C69.0899 39.6683 69.354 39.7841 69.7309 39.9046C69.8622 39.9509 69.9565 39.9849 70.0136 40.005C70.0708 40.0251 70.1588 40.056 70.2762 40.0977C70.3952 40.1394 70.4817 40.1749 70.5373 40.2027C70.5929 40.2305 70.6686 40.2707 70.7628 40.3217C70.8586 40.3727 70.9281 40.4221 70.9744 40.4684C71.0208 40.5148 71.0748 40.5719 71.1382 40.6399C71.2015 40.7079 71.2463 40.7758 71.2741 40.8453C71.3019 40.9149 71.3266 40.9952 71.3467 41.0863C71.3683 41.1775 71.3776 41.2732 71.3776 41.3752C71.3776 41.8015 71.2216 42.1414 70.9111 42.3947C70.6006 42.6481 70.1943 42.7747 69.6938 42.7747L69.6923 42.7716Z" fill="#F16622"/>
<path id="Vector_14" d="M72.6831 42.0688H74.9446V42.6805H72.0358V37.8099H74.909V38.4217H72.6831V39.917H74.736V40.5225H72.6831V42.0672V42.0688Z" fill="#F16622"/>
<path id="Vector_15" d="M78.772 37.8115V38.4232H77.3323V42.6821H76.6927V38.4232H75.2592V37.8115H78.7735H78.772Z" fill="#F16622"/>
<path id="Vector_16" d="M79.3424 37.8115H79.9897V42.6821H79.3424V37.8115Z" fill="#F16622"/>
<path id="Vector_17" d="M83.2791 42.0688H85.5406V42.6805H82.6318V37.8099H85.5051V38.4217H83.2791V39.917H85.332V40.5225H83.2791V42.0672V42.0688Z" fill="#F16622"/>
<path id="Vector_18" d="M86.2516 40.8377V40.2538H88.7911V40.8377H86.2516Z" fill="#F16622"/>
<path id="Vector_19" d="M90.4123 42.0688H92.5131V42.6805H89.765V37.8099H90.4123V42.0688Z" fill="#F16622"/>
<path id="Vector_20" d="M93.7368 42.0688H95.9983V42.6805H93.0895V37.8099H95.9628V38.4217H93.7368V39.917H95.7897V40.5225H93.7368V42.0672V42.0688Z" fill="#F16622"/>
<path id="Vector_21" d="M99.9946 42.6821L99.5976 41.59H97.4072L97.0102 42.6821H96.3212L98.1378 37.8115H98.8685L100.685 42.6821H99.9962H99.9946ZM97.6265 40.9844H99.3767L98.5024 38.5793L97.6281 40.9844H97.6265Z" fill="#F16622"/>
<path id="Vector_22" d="M104.078 42.6821L102.987 40.8176H101.838V42.6821H101.191V37.8115H103.139C103.556 37.8115 103.913 37.9583 104.211 38.2533C104.507 38.5484 104.656 38.9037 104.656 39.3207C104.656 39.6359 104.562 39.9232 104.375 40.1842C104.186 40.4438 103.944 40.6276 103.647 40.7342L104.795 42.6821H104.078ZM101.837 38.4171V40.2337H103.137C103.378 40.2337 103.584 40.1441 103.754 39.9664C103.924 39.7872 104.007 39.5741 104.007 39.3223C104.007 39.0705 103.922 38.8589 103.754 38.6828C103.584 38.5067 103.378 38.4186 103.137 38.4186H101.837V38.4171Z" fill="#F16622"/>
<path id="Vector_23" d="M108.399 37.8115H109.046V42.6821H108.524L106.018 39.0427V42.6821H105.371V37.8115H105.872L108.397 41.4695V37.8115H108.399Z" fill="#F16622"/>
<path id="Vector_24" d="M110.019 37.8115H110.666V42.6821H110.019V37.8115Z" fill="#F16622"/>
<path id="Vector_25" d="M114.668 37.8115H115.315V42.6821H114.793L112.289 39.0427V42.6821H111.641V37.8115H112.142L114.668 41.4695V37.8115Z" fill="#F16622"/>
<path id="Vector_26" d="M120.985 40.2675V40.5595C120.985 41.1944 120.767 41.7227 120.332 42.1428C119.896 42.563 119.318 42.7731 118.598 42.7731C117.879 42.7731 117.242 42.529 116.759 42.0394C116.274 41.5497 116.031 40.9534 116.031 40.2475C116.031 39.5415 116.274 38.9452 116.759 38.4556C117.244 37.9659 117.852 37.7218 118.585 37.7218C119.034 37.7218 119.447 37.8299 119.823 38.0447C120.199 38.2609 120.489 38.5452 120.693 38.8974L120.137 39.2248C119.998 38.9607 119.788 38.7491 119.507 38.5884C119.226 38.4278 118.917 38.349 118.578 38.349C118.022 38.349 117.565 38.5312 117.208 38.8958C116.851 39.2604 116.672 39.7114 116.672 40.249C116.672 40.7866 116.851 41.2376 117.211 41.5991C117.571 41.9606 118.036 42.1413 118.606 42.1413C119.093 42.1413 119.488 42.0224 119.789 41.7829C120.091 41.5435 120.275 41.2345 120.339 40.8545H118.551V40.2706H120.985V40.2675Z" fill="#F16622"/>
<path id="Vector_27" d="M67.2219 51.0315L66.8249 49.9393H64.6344L64.2374 51.0315H63.5485L65.3651 46.1609H66.0957L67.9124 51.0315H67.2234H67.2219ZM64.8538 49.3338H66.604L65.7296 46.9286L64.8553 49.3338H64.8538Z" fill="#F16622"/>
<path id="Vector_28" d="M68.4171 46.1609H69.0644V51.0315H68.4171V46.1609Z" fill="#F16622"/>
<path id="Vector_29" d="M73.4768 46.1609C73.9264 46.1609 74.3017 46.3107 74.5999 46.6104C74.8995 46.9101 75.0494 47.2824 75.0494 47.7273C75.0494 48.1721 74.8995 48.5398 74.5999 48.841C74.3002 49.1422 73.9264 49.2936 73.4768 49.2936H72.3569V51.033H71.7097V46.1624H73.4768V46.1609ZM73.4768 48.6865C73.7456 48.6865 73.9681 48.5954 74.1442 48.4116C74.3203 48.2278 74.4083 48.0007 74.4083 47.7257C74.4083 47.4507 74.3203 47.2175 74.1442 47.0368C73.9681 46.856 73.7456 46.7649 73.4768 46.7649H72.3569V48.685H73.4768V48.6865Z" fill="#F16622"/>
<path id="Vector_30" d="M76.3905 50.4182H78.4914V51.0299H75.7433V46.1593H76.3905V50.4182Z" fill="#F16622"/>
<path id="Vector_31" d="M82.4171 51.0315L82.0201 49.9393H79.8297L79.4327 51.0315H78.7437L80.5603 46.1609H81.291L83.1076 51.0315H82.4187H82.4171ZM80.049 49.3338H81.7992L80.9249 46.9286L80.0506 49.3338H80.049Z" fill="#F16622"/>
<path id="Vector_32" d="M86.3768 46.1609V46.7726H84.9371V51.0315H84.2976V46.7726H82.8641V46.1609H86.3784H86.3768Z" fill="#F16622"/>
<path id="Vector_33" d="M89.7499 46.7726H87.5935V48.3513H89.6603V48.963H87.5935V51.0299H86.9462V46.1593H89.7499V46.771V46.7726Z" fill="#F16622"/>
<path id="Vector_34" d="M94.5213 50.3843C94.0316 50.8755 93.4353 51.1227 92.7294 51.1227C92.0234 51.1227 91.4287 50.8771 90.9406 50.3843C90.454 49.8931 90.2099 49.2968 90.2099 48.5955C90.2099 47.8942 90.454 47.2933 90.9406 46.8036C91.4272 46.3139 92.0234 46.0698 92.7294 46.0698C93.4353 46.0698 94.0316 46.3139 94.5213 46.8036C95.0109 47.2933 95.255 47.8895 95.255 48.5955C95.255 49.3014 95.0109 49.8915 94.5213 50.3843ZM91.3901 49.9425C91.75 50.307 92.1964 50.4893 92.7294 50.4893C93.2623 50.4893 93.7087 50.307 94.0687 49.9425C94.4286 49.5779 94.6078 49.13 94.6078 48.5955C94.6078 48.061 94.4286 47.6068 94.0687 47.2423C93.7087 46.8777 93.2623 46.6954 92.7294 46.6954C92.1964 46.6954 91.75 46.8777 91.3901 47.2423C91.0302 47.6068 90.851 48.0579 90.851 48.5955C90.851 49.133 91.0302 49.5779 91.3901 49.9425Z" fill="#F16622"/>
<path id="Vector_35" d="M98.8523 51.0315L97.7617 49.167H96.6124V51.0315H95.9651V46.1609H97.9131C98.3302 46.1609 98.687 46.3076 98.9851 46.6027C99.2817 46.8977 99.43 47.253 99.43 47.6701C99.43 47.9852 99.3358 48.2726 99.1489 48.5336C98.9604 48.7931 98.7179 48.977 98.4213 49.0835L99.569 51.0315H98.8523ZM96.6109 46.7664V48.583H97.9115C98.1525 48.583 98.358 48.4934 98.5279 48.3158C98.6978 48.1366 98.7812 47.9234 98.7812 47.6716C98.7812 47.4199 98.6963 47.2082 98.5279 47.0321C98.358 46.856 98.1525 46.768 97.9115 46.768H96.6109V46.7664Z" fill="#F16622"/>
<path id="Vector_36" d="M104.704 46.1608V51.0314H104.064V47.2252L102.472 49.8759L102.393 49.8729L100.796 47.2205V51.0299H100.148V46.1593H100.879L102.438 48.7452L103.984 46.1593H104.707L104.704 46.1608Z" fill="#F16622"/>
</g>
</g>
</g>
</svg>
