<svg width="45" height="51" viewBox="0 0 45 51" fill="none" xmlns="http://www.w3.org/2000/svg">
<g clip-path="url(#clip0_1_2023)">
<path d="M32.9724 29.3099C34.2528 29.1555 34.0743 27.1949 32.7851 27.1546L31.5897 27.1173C25.5037 26.9269 21.3172 20.9647 23.2094 15.1783L23.5807 14.0436C23.9815 12.8193 22.2999 12.0406 21.6175 13.1345C21.6175 13.1345 10.8356 31.9769 32.9709 29.3109L32.9724 29.3099Z" fill="#1E3C70"/>
<path d="M27.4649 16.936C25.8293 17.9993 25.3619 20.1818 26.4208 21.8107C27.4798 23.4396 29.6642 23.8981 31.2998 22.8347C32.9354 21.7714 33.4029 19.5889 32.3439 17.96C31.2849 16.3311 29.1006 15.8726 27.4649 16.936Z" fill="#F26622"/>
<path d="M24.7838 48.8778C25.5561 49.9044 27.1656 48.7578 26.5559 47.6256L25.9907 46.5751C23.1146 41.2257 26.1857 34.5984 32.142 33.3016L33.3104 33.0473C34.5711 32.7736 34.4055 30.9283 33.1167 30.892C33.1167 30.892 11.4159 31.1242 24.7828 48.8763L24.7838 48.8778Z" fill="#1E3C70"/>
<path d="M29.2313 38.0614C27.5957 39.1248 27.1282 41.3073 28.1872 42.9362C29.2462 44.5651 31.4306 45.0236 33.0662 43.9602C34.7018 42.8969 35.1693 40.7144 34.1103 39.0855C33.0513 37.4566 30.8669 36.9981 29.2313 38.0614Z" fill="#F26622"/>
<path d="M20.305 12.9367C20.8186 11.7542 19.0302 10.9297 18.3443 12.0217L17.7076 13.0347C14.4629 18.193 7.18241 18.8261 3.12917 14.3038L2.33361 13.4159C1.47535 12.458 -0.0490404 13.5215 0.552246 14.6571C0.552246 14.6571 11.412 33.3739 20.3035 12.9376L20.305 12.9367Z" fill="#1E3C70"/>
<path d="M8.40989 8.37834C6.77428 9.44166 6.3068 11.6241 7.36576 13.253C8.42472 14.882 10.6091 15.3404 12.2447 14.2771C13.8803 13.2138 14.3478 11.0313 13.2889 9.40241C12.2299 7.77351 10.0455 7.31502 8.40989 8.37834Z" fill="#F26622"/>
</g>
<defs>
<clipPath id="clip0_1_2023">
<rect width="24.8665" height="43.8125" fill="white" transform="translate(44.7282 37.0098) rotate(146.972)"/>
</clipPath>
</defs>
</svg>
