<svg width="138" height="150" viewBox="0 0 138 150" fill="none" xmlns="http://www.w3.org/2000/svg">
<path d="M38.6994 70.0125C37.8979 70.3884 37.0964 70.0514 36.2949 70.0125C32.2873 69.7663 29.6889 71.8917 27.517 74.9631C25.565 77.7365 24.2464 80.8339 22.6304 83.7887C21.3376 86.1732 19.4761 87.6247 17.0974 88.7652C14.2533 90.1259 11.5643 91.8625 10.3233 94.9728C9.06932 98.0832 7.95754 101.271 6.93626 104.459C6.47086 105.898 6.98797 107.505 6.71649 108.969C6.31573 111.121 5.46251 113.194 5.10053 115.358C4.51879 118.858 3.09675 122.136 2.77356 125.687C2.56672 127.877 2.73478 130.029 2.81234 132.206C2.90284 134.759 2.30816 137.144 1.2481 139.424C0.330237 141.407 0.356092 143.416 0.795631 145.528C1.04126 146.695 1.73935 146.941 2.65721 146.773C3.7302 146.565 4.77734 146.565 5.75984 146.954C10.8016 148.963 15.5331 147.874 20.1742 145.671C20.4973 145.516 20.8852 145.451 21.1567 145.23C22.0357 144.531 22.8372 144.712 23.4061 145.541C24.492 147.097 25.8494 147.226 27.53 146.682C30.8265 145.619 34.2782 145.554 37.704 145.412C39.2166 145.347 40.574 145.036 41.6469 143.96C42.5777 143.027 43.5861 142.885 44.9047 142.924C48.6279 143.027 52.2605 142.457 55.6605 140.746C56.9145 140.111 58.0263 139.528 58.3494 138.025C58.4012 137.766 58.5692 137.493 58.7631 137.325C61.7494 134.772 63.1197 131.091 65.1882 127.916C68.1227 123.393 65.0072 117.769 60.1722 117.16C59.5 117.069 58.9312 117.16 58.3365 117.341" stroke="#003366" stroke-linecap="round" stroke-linejoin="round"/>
<path d="M106.944 1.59832C106.505 0.859622 105.768 1.05402 105.108 1.04106C98.0369 0.898501 90.9785 1.15769 83.907 1.35209C79.6151 1.46873 75.3231 1.46873 71.0441 1.65016C67.2175 1.81864 63.4168 1.48169 59.5902 1.61128C59.1636 1.62424 58.7499 1.61128 58.3103 1.702C57.7157 1.8316 57.1081 1.93527 57.2373 2.58326C57.3666 3.2442 57.6769 4.00882 58.6077 4.00882C64.1148 4.00882 69.6349 4.13842 75.1421 3.9829C84.6051 3.72371 94.0811 3.50339 103.544 3.58115C105.018 3.58115 105.936 2.58326 106.931 1.74088" stroke="#F26622" stroke-linecap="round" stroke-linejoin="round"/>
<path d="M99.6011 89.7111C99.084 89.0113 98.4893 89.2575 97.9075 89.5685C97.6102 89.737 97.3387 90.0999 97.0543 90.0999C94.4171 90.1647 94.7532 92.1734 94.6756 93.8064C94.5334 96.6316 94.7661 99.4697 94.5205 102.308C94.3395 104.433 94.2878 106.559 94.068 108.684C93.7836 111.47 94.1844 114.14 95.0635 116.758C96.4855 121.009 97.8817 125.259 99.3037 129.51C100.196 132.167 100.622 134.979 102.096 137.467C103.285 139.502 104.863 140.98 106.931 141.977C107.306 142.159 107.694 142.34 108.056 142.548C109.891 143.558 110.835 143.312 112.012 141.55C113.666 143.014 115.67 143.066 117.661 141.692C117.764 141.615 117.842 141.485 117.945 141.42C119.704 140.383 120.453 139.1 119.988 136.871C119.044 132.4 119.859 127.89 120.402 123.432C121.138 117.315 120.751 111.419 118.708 105.561C117.299 101.53 115.903 97.5776 113.149 94.247C111.779 92.5881 110.383 90.9682 108.625 89.7241" stroke="#003366" stroke-linecap="round" stroke-linejoin="round"/>
<path d="M87.5915 97.5C87.1519 105.133 89.0782 112.43 90.8622 119.739C91.6508 122.953 91.8059 126.141 91.2629 129.381C90.539 133.722 91.599 137.506 94.65 140.72C95.9298 142.068 97.3001 143.299 98.8902 144.258" stroke="#003366" stroke-linecap="round" stroke-linejoin="round"/>
<path d="M23.7164 84.4626C23.1088 88.0525 22.4495 91.6293 21.8289 95.2192C20.4586 103.254 19.5149 111.354 18.6229 119.454C18.3126 122.24 18.0541 125.026 17.7697 127.813" stroke="#003366" stroke-linecap="round" stroke-linejoin="round"/>
<path d="M118.541 98.3423C118.463 98.9643 118.631 99.5216 118.967 100.04C121.411 103.837 122.109 108.14 122.484 112.507C122.82 116.369 123.117 120.244 123.169 124.119C123.207 126.905 122.846 129.718 123.505 132.478C124.035 134.733 124.681 136.936 126.039 138.854" stroke="#003366" stroke-linecap="round" stroke-linejoin="round"/>
<path d="M125.315 30.7705C125.806 34.4511 125.444 38.1316 125.366 41.8251C125.315 44.1838 125.702 46.5554 126.039 48.9011C126.737 53.7221 127.667 58.5171 128.223 63.3641C128.534 65.9689 128.378 68.6516 128.249 71.2954C128.146 73.33 128.081 75.3647 128.159 77.3864C128.249 79.9913 127.59 80.082 125.741 79.2267" stroke="#003366" stroke-linecap="round" stroke-linejoin="round"/>
<path d="M101.864 84.6051C103.842 83.1018 105.975 82.9463 108.224 83.9312C108.173 84.5273 108.121 85.0846 108.289 85.7585C108.573 86.9119 108.573 88.2468 108.289 89.4131C108.056 90.3721 108.367 91.046 108.793 91.6811C111.275 95.3875 112.749 99.4698 113.111 103.876C113.37 106.973 112.193 109.747 110.332 112.235C109.116 113.855 107.746 115.319 106.608 117.017C104.76 119.765 103.984 122.745 103.829 125.972C103.816 126.257 103.764 126.543 103.7 127.035C102.161 125.558 101.631 123.989 101.98 122.007C102.472 119.22 103.48 116.564 103.945 113.79C104.372 111.315 104.902 108.801 103.868 106.274C103.17 104.589 102.006 103.228 101.011 101.751C98.9035 98.6145 98.3864 95.1802 99.0845 91.5515C99.2267 90.7868 99.6662 90.0611 100.261 89.3742C101.489 87.9616 102.342 86.3287 101.321 84.307C100.778 83.2184 102.265 80.9245 103.7 80.4969C105.29 80.0174 106.712 80.5228 107.914 81.5077C108.509 82.0002 108.741 82.7907 108.354 83.6072" stroke="#003366" stroke-linecap="round" stroke-linejoin="round"/>
<path d="M17.4985 96.0872C15.9989 99.1456 14.8871 102.36 14.5898 105.729C14.3312 108.775 14.2278 111.859 14.6544 114.931C15.4559 120.775 15.2361 126.594 13.827 132.348C13.7624 132.62 13.7365 132.919 13.6848 133.204" stroke="#003366" stroke-linecap="round" stroke-linejoin="round"/>
<path d="M58.6206 4.13867C58.9308 9.62061 59.0084 15.0896 58.6464 20.5715C58.2457 26.6496 58.1552 32.7536 58.4784 38.8446" stroke="#F26622" stroke-linecap="round" stroke-linejoin="round"/>
<path d="M90.4103 66.1894C81.6453 66.1894 72.8933 66.2023 64.1284 66.1764C62.7064 66.1764 61.2843 66.2671 59.8881 66.5004C58.9573 66.6559 58.1041 66.5911 57.1992 66.3579C56.514 66.1894 56.4235 65.7099 56.3718 65.2044C56.3072 64.5046 56.8631 64.5953 57.3414 64.4657C57.9231 64.2973 58.5824 64.2066 59.022 64.401C60.1984 64.9193 61.3877 64.7768 62.5771 64.7768C69.3641 64.7897 76.1382 64.7897 82.9252 64.7768C84.9936 64.7768 87.0749 64.6731 89.1434 64.6472C89.6605 64.6472 90.1776 64.7379 90.6947 64.7768" stroke="#F26622" stroke-linecap="round" stroke-linejoin="round"/>
<path d="M18.4936 29.2153C15.4815 29.3708 12.4564 29.5393 9.35381 29.6948C10.1295 31.4444 11.0473 32.9866 11.6161 34.7232C12.6633 37.8724 13.1804 41.0993 13.245 44.3652C13.3484 49.4324 13.4002 54.5126 12.3013 59.528C12.172 60.15 12.4823 60.8628 12.3918 61.4978C12.185 63.04 11.8747 64.4786 11.0861 65.943C9.9097 68.1073 9.81921 70.6862 10.3492 73.1097C10.7888 75.1055 11.3188 76.1811 14.6024 75.5202C14.9385 73.5114 14.4214 71.5545 14.1241 69.5847C14.0078 68.7941 13.969 67.9777 13.9819 67.1742C14.0078 66.1244 14.3568 66.0078 15.2488 66.4484C16.1537 66.8891 16.3089 67.4852 16.2572 68.4572C16.0891 72.4617 16.102 76.4922 15.921 80.4967C15.7918 83.1923 15.8693 85.9009 15.391 88.5706C15.3393 88.8427 15.4686 89.1408 15.5203 89.413" stroke="#003366" stroke-linecap="round" stroke-linejoin="round"/>
<path d="M44.6332 101.751C44.4393 104.589 44.2195 107.414 44.0773 110.252C43.9093 113.531 44.3876 116.771 44.6332 120.024C44.7625 121.722 45.1503 123.38 44.9564 125.13C44.8142 126.439 45.6157 127.644 46.1975 128.798C46.5853 129.575 46.9602 130.417 47.7229 130.936" stroke="#003366" stroke-linecap="round" stroke-linejoin="round"/>
<path d="M88.8588 122.434C89.5181 124.417 89.725 126.478 89.6733 128.525C89.5828 132.815 90.0482 137.014 91.2634 141.135C92.0132 143.688 93.1379 146.034 95.0641 147.952C96.0724 148.963 97.2359 149.222 98.464 148.768C102.032 147.446 105.626 147.796 109.207 148.522C110.681 148.82 112.09 148.6 113.434 148.185C114.611 147.822 115.761 147.602 116.976 147.654" stroke="#003366" stroke-linecap="round" stroke-linejoin="round"/>
<path d="M58.6208 39.8423C57.4314 39.4276 56.255 39.6868 55.4018 40.4385C53.7341 41.9159 51.7433 42.0714 49.7136 42.2528C47.0376 42.4861 44.3487 42.4083 41.6597 42.3694C40.5609 42.3565 40.1601 42.7971 39.7852 43.795C38.7769 46.4906 39.3198 49.1862 39.5396 51.8818" stroke="#003366" stroke-linecap="round" stroke-linejoin="round"/>
<path d="M98.0504 28.5159C88.9881 29.0343 79.913 29.3453 70.9153 30.6413" stroke="#F26622" stroke-linecap="round" stroke-linejoin="round"/>
<path d="M123.052 42.9656C123.698 47.8643 123.298 52.8797 124.629 57.6877C125.418 60.5389 125.534 63.4289 125.586 66.3318C125.599 66.9409 125.547 67.563 125.586 68.1721C125.676 69.3385 125.133 70.0772 124.034 69.8439C120.945 69.2089 117.958 69.8439 114.998 70.4789C114.145 70.6604 113.33 70.5696 112.606 70.3882C110.965 69.9865 109.943 70.9844 108.78 71.7231C108.172 72.1119 108.78 72.9801 108.211 73.4208" stroke="#003366" stroke-linecap="round" stroke-linejoin="round"/>
<path d="M126.168 103.733C127.822 106.364 129.425 109.034 130.835 111.807C130.925 112.002 131.145 112.105 131.119 112.377C130.938 114.088 132.101 115.28 132.838 116.602C133.355 117.535 133.511 118.391 133.071 119.311C131.455 122.693 129.374 125.778 127.008 128.668C126.801 128.927 126.568 129.212 126.168 129.095" stroke="#003366" stroke-linecap="round" stroke-linejoin="round"/>
<path d="M100.869 13.638C99.9378 14.3378 98.8001 14.26 97.753 14.3119C93.1378 14.5581 88.5097 14.7396 83.9075 15.1802C82.8733 15.2839 81.8132 15.245 80.8049 14.908C79.1243 14.3767 77.4825 14.5581 75.776 15.232C75.3623 13.949 76.5905 13.327 76.849 12.355" stroke="#F26622" stroke-linecap="round" stroke-linejoin="round"/>
<path d="M80.3783 66.4744C80.2878 74.7426 80.1844 82.9979 80.0939 91.2662" stroke="#F26622" stroke-linecap="round" stroke-linejoin="round"/>
<path d="M96.9121 37.7171C94.3653 38.0022 91.8574 38.5984 89.2848 38.7409C86.2339 38.9224 83.2217 38.8835 80.2354 38.1448C79.7313 38.0152 79.2012 37.9504 78.6841 37.8597C75.4393 37.2506 75.1161 37.4061 73.7328 40.2702C71.449 38.3781 69.3159 38.296 67.3337 40.0239C67.088 39.5185 66.4804 39.2463 66.5192 38.5724" stroke="#F26622" stroke-linecap="round" stroke-linejoin="round"/>
<path d="M83.4938 93.3918C82.033 93.4047 80.7919 92.7308 79.5379 92.1088C78.6718 91.6811 77.7927 91.2793 76.849 91.1368C74.9874 90.8387 73.6817 91.8237 72.7768 93.2751C71.9106 94.6618 71.7038 96.1651 72.738 97.6555C74.4057 100.066 76.1638 102.412 76.7585 105.431C76.9524 106.403 78.2581 106.287 79.0984 106.572" stroke="#003366" stroke-linecap="round" stroke-linejoin="round"/>
<path d="M52.8292 76.1035C52.6352 75.9091 52.3896 75.7536 52.2733 75.5333C51.0322 72.9932 48.7052 73.6282 46.611 73.5505C45.8741 73.5245 45.2277 73.8485 44.9562 74.4187C44.5813 75.1834 43.9349 75.5722 43.3273 76.1424C44.9304 79.3693 44.465 82.8037 44.0254 86.1602C43.56 89.8019 44.7365 92.5234 47.7486 94.5321C50.9805 96.6964 52.6223 99.8456 53.4368 103.591C53.9409 105.898 54.7554 108.127 55.8025 110.252" stroke="#003366" stroke-linecap="round" stroke-linejoin="round"/>
<path d="M99.7437 23.2672C96.0723 23.3449 92.375 22.671 88.7165 23.6689C86.661 24.2262 84.5279 24.5242 82.369 24.3947C81.2831 24.3299 80.1972 24.2132 79.1242 24.1225C78.2322 24.0447 77.4307 24.1743 77.0299 25.1593C75.3622 24.1225 73.6558 24.0966 71.9235 24.8353" stroke="#F26622" stroke-linecap="round" stroke-linejoin="round"/>
<path d="M28.9385 27.2327C28.1887 27.9843 27.4777 28.8008 26.6632 29.4876C25.0602 30.8355 24.3492 32.585 24.1294 34.5938C24.0648 35.164 23.9484 35.7342 23.845 36.434C24.737 37.069 25.4222 38.0799 26.5727 38.6631C26.2625 40.0109 25.6807 41.3457 24.6724 42.3695C23.5218 43.5359 22.5264 44.9096 20.8975 45.5447C20.5614 45.6743 20.2511 46.2445 20.1994 46.6462C19.8891 49.1345 19.5401 51.6227 19.6177 54.3054C21.3112 54.2017 22.8625 54.0851 24.4138 54.0203C24.8792 54.0073 25.3446 53.9814 25.8359 54.124C27.2967 54.5516 28.6929 54.4609 30.089 53.6185C31.3301 52.8669 32.6746 53.2945 33.8768 54.0073" stroke="#003366" stroke-linecap="round" stroke-linejoin="round"/>
<path d="M107.087 42.823C107.5 45.065 107.19 47.2941 106.776 49.4713C106.143 52.8538 105.419 56.2103 105.535 59.6706C105.561 60.487 105.652 61.2776 105.794 62.0811C105.923 62.7679 105.949 63.5325 105.548 64.2064" stroke="#003366" stroke-linecap="round" stroke-linejoin="round"/>
<path d="M120.234 139.567C120.997 141.045 120.88 142.664 121.074 144.246C121.1 144.427 121.074 144.621 121.074 144.816C121.165 147.019 121.501 147.369 123.466 146.475C126.853 144.945 130.253 145.671 133.653 146.112C134.286 146.19 134.881 146.267 135.489 146.086" stroke="#003366" stroke-linecap="round" stroke-linejoin="round"/>
<path d="M104.41 3.86646C104.359 4.47556 104.281 5.09762 104.281 5.70673C104.281 9.86678 104.255 14.0139 104.281 18.1739C104.307 21.4268 103.906 24.6926 104.281 27.9455C104.294 28.0881 104.333 28.2565 104.281 28.3602C103.337 30.1875 103.635 32.0667 103.764 34.0365C103.854 35.3714 103.027 36.771 102.588 38.1318C102.161 39.4666 102.613 40.6719 103.182 41.7994C103.686 42.8232 104.914 43.199 106.272 42.9398C107.371 42.7325 107.552 41.7864 107.655 40.957C107.927 39.026 108.056 37.0821 108.25 35.1511" stroke="#F26622" stroke-linecap="round" stroke-linejoin="round"/>
<path d="M91.5476 94.6619C90.8753 97.5 90.8495 100.416 90.7073 103.306C90.5263 107.259 90.8753 111.172 91.5476 115.06" stroke="#003366" stroke-linecap="round" stroke-linejoin="round"/>
<path d="M104.268 43.0952C104.022 44.6893 103.984 46.2962 103.984 47.9162C103.984 52.4521 103.984 56.988 103.984 61.5109C103.984 61.9774 104.152 62.4829 103.854 62.9235" stroke="#F26622" stroke-linecap="round" stroke-linejoin="round"/>
<path d="M34.4596 30.7707C35.7395 30.4078 36.4246 29.5395 36.5798 28.2176C36.8512 25.9108 37.1874 23.604 37.0064 21.2713C37.0064 21.2194 36.9935 21.1676 37.0064 21.1287C37.782 19.1718 36.7866 17.9406 35.3129 16.865C33.684 15.6727 31.9 15.1802 29.9479 15.7504C27.3236 16.528 25.2422 17.9795 24.5959 20.8436C24.389 21.7637 24.389 22.7227 24.2985 23.6688" stroke="#003366" stroke-linecap="round" stroke-linejoin="round"/>
<path d="M58.6211 45.0781C58.8538 51.5061 59.0865 57.9211 59.3321 64.3491" stroke="#F26622" stroke-linecap="round" stroke-linejoin="round"/>
<path d="M94.9341 90.5536C93.2923 90.3333 92.0641 91.2793 90.8489 92.1347C90.125 92.6401 89.4786 93.0807 88.5737 93.2751C86.6087 93.7028 85.8847 95.3487 85.3159 97.0593C84.592 99.2366 84.5661 101.479 84.7859 103.721C84.8634 104.485 84.6824 105.042 84.3851 105.729C83.9326 106.818 83.8939 108.075 83.6095 109.241C83.1828 111.017 82.7174 112.766 82.8984 114.633C82.976 115.475 83.0794 116.11 84.0231 116.512C85.0961 116.965 86.0786 117.665 87.2938 117.743" stroke="#003366" stroke-linecap="round" stroke-linejoin="round"/>
<path d="M33.8901 54.2926C31.5373 54.8887 29.5335 56.4828 27.1031 56.8197C24.8278 57.1308 22.7206 58.0639 20.4712 58.4138C19.3724 58.5822 18.3123 58.4786 17.2135 58.4397C15.9724 58.4008 15.6751 57.7139 15.507 56.7031C15.0028 53.6964 15.145 50.6639 15.1968 47.6313C15.2614 44.1841 15.8431 40.8145 16.3732 37.4321C16.4637 36.81 16.6188 36.2139 16.5024 35.5918" stroke="#003366" stroke-linecap="round" stroke-linejoin="round"/>
<path d="M109.207 88.7134C110.202 87.1453 111.404 85.6938 112.051 83.9054C113.111 80.9635 112.671 78.3198 110.784 75.8185C107.074 70.8939 100.222 73.3432 97.5976 76.946C95.1802 80.2507 94.9992 85.8104 98.1923 88.8689C98.2828 88.9596 98.2957 89.1411 98.3345 89.2836" stroke="#003366" stroke-linecap="round" stroke-linejoin="round"/>
<path d="M82.4983 118.326C79.331 117.38 74.1212 118.534 72.5828 121.709C70.7859 125.402 72.4018 130.936 76.0086 132.737C76.6679 133.074 77.4307 133.398 77.7926 133.93C79.5896 136.509 82.1492 136.34 84.7477 136.016C86.3637 135.822 87.8891 135.381 88.988 134.046" stroke="#003366" stroke-linecap="round" stroke-linejoin="round"/>
<path d="M47.3092 73.2785C48.602 71.7751 49.9077 70.3625 51.64 69.2351C54.0316 67.6669 54.8719 65.0491 54.1997 62.2368C53.5662 59.5671 51.9373 57.6621 49.145 56.9882C44.1937 55.7829 39.9663 58.8803 39.3717 64.0641C39.139 66.047 39.32 67.952 40.4447 69.5461C40.9488 70.2589 40.1344 71.0364 40.9359 71.5937C41.6599 72.0862 41.983 72.9286 42.3579 73.7061C42.6941 74.3671 43.0173 75.028 43.3534 75.689" stroke="#003366" stroke-linecap="round" stroke-linejoin="round"/>
<path d="M111.185 91.5513C112.581 91.3829 113.576 92.3419 114.701 92.8603C118.295 94.4802 120.247 97.5128 121.837 101.025C123.388 104.459 123.569 108.114 124.319 111.678C125.431 117.043 125.832 122.473 125.78 127.968C125.741 131.156 127.383 133.955 128.391 136.897C129.296 139.515 130.512 141.887 132.658 143.675C133.666 144.517 134.713 145.295 135.773 146.086C136.148 146.358 136.613 146.267 137.04 146.241" stroke="#003366" stroke-linecap="round" stroke-linejoin="round"/>
<path d="M47.3089 131.078C47.0503 132.244 47.9553 132.957 48.4724 133.748C50.3727 136.729 50.8769 137.739 46.7401 139.709C45.0078 140.539 43.1462 140.94 41.2329 141.135C40.6511 141.2 40.0823 141.109 39.5394 140.85" stroke="#003366" stroke-linecap="round" stroke-linejoin="round"/>
<path d="M120.518 49.614C120.738 54.9664 121.01 60.3317 121.928 65.6192C121.966 65.8525 121.928 66.0857 121.928 66.332" stroke="#003366" stroke-linecap="round" stroke-linejoin="round"/>
<path d="M106.66 31.626C107.849 32.922 109.439 32.7665 110.887 32.5721C112.581 32.3388 114.326 32.1444 115.994 32.0537C117.17 31.9889 118.644 32.9349 119.393 34.3087C119.652 34.7882 119.73 35.3843 120.273 35.7601C120.906 35.488 121.682 35.488 122.212 34.8659C121.889 33.6736 121.591 32.4684 121.617 31.1983C121.643 29.9801 122.703 28.9434 122.276 27.5826C121.462 27.9714 121.177 28.8656 120.402 29.0989C119.846 28.6453 119.975 28.0621 119.924 27.5048C119.859 26.9217 120.221 26.2218 119.251 25.8849C118.889 25.7553 119.031 24.9 119.109 24.3945C119.445 21.9451 119.083 19.4699 119.613 17.0205C119.949 15.4524 118.295 13.5214 116.407 12.7827C114.158 11.9014 111.003 12.8993 109.918 14.921C109.336 16.0096 109.064 17.176 109.905 18.3164" stroke="#003366" stroke-linecap="round" stroke-linejoin="round"/>
<path d="M19.4756 70.4402C19.3334 71.9046 19.1137 73.3691 19.0619 74.8335C18.9197 78.8899 18.8551 82.9592 18.7646 87.0156" stroke="#003366" stroke-linecap="round" stroke-linejoin="round"/>
<path d="M49.7133 98.3421C47.3347 98.0052 44.9301 98.0311 42.6549 98.7957C40.121 99.651 38.8412 101.776 37.807 104.135C37.4062 105.055 37.3028 106.157 36.4237 106.844" stroke="#003366" stroke-linecap="round" stroke-linejoin="round"/>
<path d="M119.807 73.4209C119.755 75.6888 119.729 77.9568 119.652 80.2247C119.626 81.0801 119.445 81.9224 119.393 82.7778C119.367 83.1147 119.212 83.3739 118.954 83.4646C118.643 83.5683 118.436 83.4258 118.23 83.0758C117.338 81.4688 116.95 79.7841 117.26 77.9697" stroke="#003366" stroke-linecap="round" stroke-linejoin="round"/>
<path d="M55.6472 43.9506C56.3323 43.3544 56.9141 42.6805 57.7414 42.201C58.4525 41.7863 59.254 41.1254 58.7756 39.972C58.6464 39.6609 58.9696 39.3888 59.1764 39.1296C61.0121 36.6932 62.7832 34.2049 64.4379 31.6519C64.6836 31.276 64.7224 30.7836 65.0585 30.4984C65.9375 30.4336 66.5581 30.7317 66.8942 31.3667C63.9855 36.2525 60.5079 40.6588 57.0821 45.1947C55.673 43.497 53.9407 43.9117 52.4152 44.5597C48.3818 46.2963 44.1157 46.8795 39.8237 47.346" stroke="#003366" stroke-linecap="round" stroke-linejoin="round"/>
<path d="M103.415 63.2217C103.79 63.753 104.217 64.2066 104.825 64.5176C105.639 64.9324 105.6 65.6192 104.682 65.9562C103.803 66.2931 102.872 66.4746 101.864 66.2154C99.4079 65.5803 95.7493 67.0059 94.4049 69.1831C93.6421 70.4143 92.7372 71.1012 91.2764 70.8679" stroke="#003366" stroke-linecap="round" stroke-linejoin="round"/>
<path d="M119.381 18.7311C121.449 18.3553 123.518 17.9665 125.599 17.6036C126.633 17.4222 127.693 17.4222 128.702 17.1371C129.658 16.8779 129.788 17.3056 129.697 18.0184C129.245 21.6082 128.741 25.198 128.301 28.7878C128.185 29.682 127.836 30.006 126.879 30.1097C125.224 30.2782 123.608 30.7577 121.928 30.6281" stroke="#003366" stroke-linecap="round" stroke-linejoin="round"/>
<path d="M30.5036 36.5896C29.2884 38.1836 29.1074 40.0757 28.9522 41.9679C28.8747 42.9528 28.9781 43.9507 28.823 44.9486C28.3834 47.7219 26.5606 49.5881 23.7165 50.0417" stroke="#003366" stroke-linecap="round" stroke-linejoin="round"/>
<path d="M24.9836 109.112C24.9189 113.505 24.4923 117.834 23.0056 122.007C22.76 122.681 22.4498 123.329 22.1653 123.99" stroke="#003366" stroke-linecap="round" stroke-linejoin="round"/>
<path d="M37.5617 93.8196C37.1351 94.312 36.5663 94.2473 36.0104 94.2473C34.9244 94.2473 33.8385 94.2732 32.7655 94.2473C29.4819 94.1565 29.1587 95.2451 28.2667 97.2409C27.6333 98.6535 27.2713 100.183 27.2584 101.764" stroke="#003366" stroke-linecap="round" stroke-linejoin="round"/>
<path d="M40.3926 70.8677C39.423 70.7899 38.9447 70.2456 38.6732 69.3126C38.0915 67.2649 36.6048 65.632 35.0664 64.4656C33.8253 63.5325 31.925 62.8975 30.0634 63.4807C28.2147 64.0639 26.4178 64.686 24.8277 65.8782C21.4407 68.4054 21.1563 72.2414 22.0612 75.8053C22.3327 76.881 22.5007 78.164 23.7159 78.7861" stroke="#003366" stroke-linecap="round" stroke-linejoin="round"/>
<path d="M39.9663 42.538C39.7336 42.1103 39.5914 41.553 39.2423 41.2809C37.6781 40.0886 37.4713 38.2613 37.0188 36.5765C36.5146 34.7103 35.6872 33.0385 34.5884 31.4834C33.8903 30.4985 31.8607 30.4337 31.0721 31.3408C29.2493 33.4144 27.7626 35.7212 26.6896 38.2743" stroke="#003366" stroke-linecap="round" stroke-linejoin="round"/>
<path d="M12.8313 75.9609C12.8701 76.3756 12.5211 76.6478 12.5211 77.0884C12.5211 81.1448 12.4823 85.2141 12.3789 89.2705C12.3659 89.7759 13.0382 90.3721 12.2754 90.8257" stroke="#003366" stroke-linecap="round" stroke-linejoin="round"/>
<path d="M93.5253 70.5828C93.9261 71.14 93.4736 71.6325 93.3573 72.1379C93.1246 73.1877 92.9565 74.2244 93.3831 75.2612C93.7063 76.0647 93.5383 76.8941 93.3444 77.6587C93.1375 78.4622 93.0082 79.2528 92.9436 80.0692C92.7497 82.1817 93.8097 83.4258 95.6455 84.1775" stroke="#003366" stroke-linecap="round" stroke-linejoin="round"/>
<path d="M29.0814 87.8711C30.2708 90.1909 32.4168 90.6963 34.7308 90.8389C36.657 90.9555 38.5962 91.0333 40.5224 91.124C41.3627 91.1628 42.1125 91.4609 42.7847 91.9663" stroke="#003366" stroke-linecap="round" stroke-linejoin="round"/>
<path d="M82.356 121.436C80.5073 121.462 78.775 121.864 77.1591 122.875C77.7925 123.588 78.5423 123.691 79.2533 123.834C83.0928 124.598 85.6008 126.879 87.0358 130.495C87.4495 131.532 87.7985 132.698 89.0008 133.191" stroke="#003366" stroke-linecap="round" stroke-linejoin="round"/>
<path d="M103.273 62.9364C101.631 61.5627 99.9506 60.3056 97.921 59.4762C96.848 59.0355 95.956 59.0226 95.0769 59.5539C93.1119 60.7592 91.5347 62.3402 90.8237 64.6341" stroke="#003366" stroke-linecap="round" stroke-linejoin="round"/>
<path d="M83.3519 66.4744C83.6493 70.2975 83.4036 74.1206 83.2227 77.9437C83.1968 78.5528 83.0805 79.1878 83.3519 79.7839" stroke="#F26622" stroke-linecap="round" stroke-linejoin="round"/>
<path d="M83.2096 89.2832C84.0629 90.644 83.8948 92.1473 83.4553 93.521C82.7313 95.776 81.4515 97.7847 79.7838 99.4565C78.4264 100.817 78.2454 102.217 78.9565 103.876C79.2021 104.433 79.396 105.029 79.6804 105.561C79.7968 105.768 79.8614 106.079 79.7838 106.118C78.6462 106.857 79.5253 107.569 79.8097 108.256C80.0941 108.943 80.4043 109.617 80.8051 110.239C81.5161 111.328 81.6325 112.338 81.2964 113.673C80.9602 114.956 80.8827 116.395 81.2188 117.756" stroke="#003366" stroke-linecap="round" stroke-linejoin="round"/>
<path d="M108.367 32.7532C109 34.7101 110.151 36.33 111.767 37.5482C113.667 38.9868 115.929 38.598 117.416 36.7188C118.011 35.9542 118.644 35.2025 119.252 34.4509" stroke="#003366" stroke-linecap="round" stroke-linejoin="round"/>
<path d="M125.314 79.3694C124.875 82.1428 124.991 84.942 124.875 87.7284C124.836 88.6744 124.707 89.6205 124.603 90.5665C124.539 91.2145 124.254 91.7329 123.621 91.9791" stroke="#003366" stroke-linecap="round" stroke-linejoin="round"/>
<path d="M112.465 83.4778C113.577 83.8018 114.288 84.6701 114.986 85.4736C115.58 86.1604 116.266 86.3807 117.119 86.3159C119.769 86.1215 121.514 87.5471 122.587 89.7373C123.479 91.5387 124.035 93.4956 124.746 95.3877C125.082 96.2819 125.173 97.1243 124.319 97.7982" stroke="#003366" stroke-linecap="round" stroke-linejoin="round"/>
<path d="M57.0696 92.6791C58.2978 90.6314 58.6985 88.3505 58.9054 86.0178C58.9829 85.0329 58.8278 84.035 59.0346 83.0371C59.1122 82.6872 59.0346 82.2595 58.9054 81.9096C57.897 79.3824 56.1776 77.5163 53.6826 76.3888C53.5662 76.3369 53.3982 76.3888 53.2301 76.3888C52.8294 80.7043 52.4157 85.0329 50.8644 89.1411" stroke="#003366" stroke-linecap="round" stroke-linejoin="round"/>
<path d="M36.4369 38.2871C36.0102 40.4384 36.592 42.4731 37.122 44.5207C37.5616 46.2443 37.9623 47.9939 37.2642 49.7564C37.0962 50.1582 36.7988 50.521 36.5661 50.8969" stroke="#003366" stroke-linecap="round" stroke-linejoin="round"/>
<path d="M123.905 106.429C124.616 105.431 125.302 104.433 126.025 103.461C126.659 102.619 126.762 101.699 126.142 100.921C123.711 97.8629 122.031 94.2342 119.096 91.5515C117.778 90.3463 116.782 88.7004 114.714 88.5579C114.223 88.519 113.77 88.3635 113.305 88.5838" stroke="#003366" stroke-linecap="round" stroke-linejoin="round"/>
<path d="M84.9031 105.716C85.6659 111.237 87.2947 116.538 88.8978 121.955C88.1609 122.629 87.3077 123.121 86.3122 123.419C84.2697 124.028 82.6408 122.771 82.6408 120.581C82.6408 119.181 82.6667 117.795 83.2096 116.473" stroke="#003366" stroke-linecap="round" stroke-linejoin="round"/>
<path d="M70.6305 115.203C69.3766 115.566 68.0967 115.617 66.8169 115.604C64.1667 115.578 61.5424 115.864 58.9052 116.058C58.6596 116.071 58.4398 116.239 58.1942 116.33" stroke="#003366" stroke-linecap="round" stroke-linejoin="round"/>
<path d="M36.8633 21.2842C35.6352 22.7486 34.42 24.226 33.1918 25.6775C32.2869 26.7402 31.7698 26.818 31.0846 25.9497C30.7614 25.5349 30.6709 24.7962 29.947 24.9906C29.1843 25.185 29.236 25.8978 29.2231 26.5328C29.2231 26.6236 29.1326 26.7143 29.055 26.8439C29.3782 27.3882 29.9211 27.6344 30.5029 27.8029" stroke="#003366" stroke-linecap="round" stroke-linejoin="round"/>
<path d="M56.0737 111.094C56.9399 113.22 57.8319 115.319 58.2068 117.613C58.5429 119.713 58.349 120.011 56.3581 120.607C55.2334 120.944 54.0958 120.905 52.9582 120.866C51.6783 120.827 50.4243 120.464 48.9377 120.659C49.235 119.479 49.5582 118.572 50.127 117.769" stroke="#003366" stroke-linecap="round" stroke-linejoin="round"/>
<path d="M12.9731 97.2148C11.215 100.74 10.142 104.511 9.01727 108.269" stroke="#003366" stroke-linecap="round" stroke-linejoin="round"/>
<path d="M115.14 72.8503C114.946 76.0643 114.895 79.2783 115.14 82.4794C115.179 82.9589 115.231 83.4254 115.283 83.892" stroke="#003366" stroke-linecap="round" stroke-linejoin="round"/>
<path d="M116.977 124.417C116.925 128.966 114.727 132.4 111.327 135.187" stroke="#003366" stroke-linecap="round" stroke-linejoin="round"/>
<path d="M24.5697 101.466C26.0563 104.913 27.1423 108.464 27.4008 112.235" stroke="#003366" stroke-linecap="round" stroke-linejoin="round"/>
<path d="M32.4808 41.1123C31.3561 43.1988 30.9294 45.5056 30.3736 47.7736C29.9987 49.2899 29.3135 50.521 27.8139 51.169" stroke="#003366" stroke-linecap="round" stroke-linejoin="round"/>
<path d="M94.2363 87.5856C93.3443 87.5468 92.4523 87.5857 91.5474 87.469C90.19 87.2876 88.9748 87.6764 88.0181 88.7131C86.7512 90.0869 85.4714 91.4476 84.2045 92.8214" stroke="#003366" stroke-linecap="round" stroke-linejoin="round"/>
<path d="M118.398 18.5888C116.045 18.9387 113.679 18.7962 111.339 18.537C109.788 18.3685 108.327 18.835 106.634 18.511C106.75 20.5716 106.479 22.4119 106.427 24.2522C106.401 24.9261 106.233 25.5611 106.233 26.235C106.233 26.9867 106.492 27.2977 107.241 27.2329C107.823 27.1811 108.379 27.3755 108.935 27.4791C109.723 27.6217 110.137 27.9716 110.202 28.7751C110.266 29.5527 109.736 29.8767 109.206 30.1877C108.857 30.3821 108.457 30.6154 108.082 30.6024C106.349 30.5247 106.065 31.7947 105.845 33.0388C105.755 33.5831 105.664 34.0626 105.25 34.4514C104.824 34.3607 104.397 34.257 103.984 34.1663" stroke="#003366" stroke-linecap="round" stroke-linejoin="round"/>
<path d="M77.5595 106.287C76.8355 107.596 75.4135 108.023 74.2888 108.814C72.2721 110.252 70.1778 111.613 68.0706 112.922C67.1915 113.466 66.1702 113.842 65.1102 113.92C62.7832 114.101 60.4562 114.296 58.1809 113.518C57.9741 113.44 57.7156 113.518 57.4829 113.518" stroke="#003366" stroke-linecap="round" stroke-linejoin="round"/>
<path d="M48.0205 56.4178C47.4905 53.8647 45.0471 52.0115 42.3711 51.7004C39.3331 51.3505 37.7818 53.1908 36.2951 55.2903C34.4206 57.947 34.1879 60.9536 34.4594 64.0769" stroke="#003366" stroke-linecap="round" stroke-linejoin="round"/>
<path d="M75.8665 132.919C75.0908 134.72 75.3364 135.355 77.1463 135.575C78.2193 135.705 78.9432 136.249 79.3699 137.053C80.2619 138.712 81.5805 139.023 83.2094 138.582C84.0238 138.362 84.7477 138.634 85.1614 139.178C86.6869 141.213 88.8587 141.524 91.1211 141.705" stroke="#003366" stroke-linecap="round" stroke-linejoin="round"/>
<path d="M70.0615 102.321C67.9802 102.567 66.1444 103.111 64.787 104.978C63.7658 106.403 62.4213 107.608 61.1414 108.814C59.965 109.915 58.543 110.382 56.9141 109.967" stroke="#003366" stroke-linecap="round" stroke-linejoin="round"/>
<path d="M124.758 70.155C124.901 72.4748 125.094 74.7816 125.146 77.1014C125.159 77.8012 125.508 78.3974 125.456 79.0842" stroke="#003366" stroke-linecap="round" stroke-linejoin="round"/>
<path d="M80.9465 114.36C79.9511 114.412 78.9427 114.334 77.9861 114.529C75.31 115.073 74.6637 115.41 74.0302 118.469" stroke="#003366" stroke-linecap="round" stroke-linejoin="round"/>
<path d="M119.097 18.5884C117.83 17.6423 116.55 16.6963 115.283 15.7502C114.675 15.2966 114.094 15.1411 113.434 15.7502C112.542 16.5537 111.456 17.1628 110.9 18.3162" stroke="#003366" stroke-linecap="round" stroke-linejoin="round"/>
<path d="M121.501 77.9436C121.061 80.6781 121.074 83.4255 121.501 86.16" stroke="#003366" stroke-linecap="round" stroke-linejoin="round"/>
<path d="M61.3097 100.338C59.8101 103.15 58.8664 106.222 57.2634 109.008C56.255 110.745 54.7166 111.535 53.1136 112.378C51.7433 113.09 50.3471 113.803 48.6019 113.635C49.4292 115.358 49.8946 117.03 50.8513 118.469" stroke="#003366" stroke-linecap="round" stroke-linejoin="round"/>
<path d="M74.1595 100.468C71.4188 100.805 68.6911 100.468 65.9634 100.183" stroke="#003366" stroke-linecap="round" stroke-linejoin="round"/>
<path d="M90.8366 71.438C87.9925 73.9522 88.6777 78.3196 90.0092 81.067C90.772 82.6611 92.1035 83.8663 93.267 85.1623C93.9392 85.901 94.3141 86.6138 94.3917 87.5987C94.4693 88.5577 94.9217 89.3353 96.0594 88.8558C96.848 88.5188 96.9772 89.3612 97.4814 89.4519" stroke="#003366" stroke-linecap="round" stroke-linejoin="round"/>
<path d="M109.349 143.26C109.918 144.764 111.392 144.906 112.607 145.204C114.611 145.684 116.291 146.591 117.688 148.081" stroke="#003366" stroke-linecap="round" stroke-linejoin="round"/>
<path d="M59.1898 83.0498C59.8749 83.4127 59.9525 84.1643 60.1464 84.7605C61.5167 88.8428 63.1844 92.8214 65.1882 96.6186C66.1965 98.5107 65.6794 99.9751 65.0589 101.621C62.6673 101.271 61.2323 100.066 59.9266 97.9923C57.9228 94.7913 55.3761 91.9272 51.9761 89.9832C49.5328 88.5836 46.8826 87.8578 44.1937 87.171" stroke="#003366" stroke-linecap="round" stroke-linejoin="round"/>
<path d="M118.398 41.6829C116.02 43.7046 113.059 44.9098 110.771 47.0611" stroke="#003366" stroke-linecap="round" stroke-linejoin="round"/>
<path d="M82.4982 81.6375C83.5712 82.8816 83.7522 84.2294 83.08 85.7586C82.7568 86.4973 82.7309 87.3138 82.8861 88.1562C83.1575 89.6595 82.9378 91.1758 82.7697 92.6791" stroke="#003366" stroke-linecap="round" stroke-linejoin="round"/>
<path d="M73.177 130.651C71.3284 131.273 69.4668 131.895 67.5535 132.53C68.1741 133.878 69.0919 133.683 70.0744 133.346C71.212 132.945 72.2592 132.66 73.2288 133.878C73.6424 134.396 74.5732 134.344 75.2972 134.059" stroke="#003366" stroke-linecap="round" stroke-linejoin="round"/>
<path d="M16.3736 32.1962C15.5333 31.9629 14.693 31.8074 13.5812 32.0407C14.512 35.9027 14.5896 39.8165 15.0937 43.6785" stroke="#003366" stroke-linecap="round" stroke-linejoin="round"/>
<path d="M114.443 92.5361C114.481 91.1495 113.344 90.1775 113.15 88.8556C113.111 88.5705 112.749 88.5446 112.465 88.5705C111.172 88.6353 109.879 88.6871 108.651 89.1407" stroke="#003366" stroke-linecap="round" stroke-linejoin="round"/>
<path d="M77.2755 11.655C77.1721 11.8753 77.2109 12.1864 76.8489 12.2253C74.341 12.4974 72.0786 13.5471 69.7775 14.4673C69.1699 14.7005 68.8855 15.0893 68.6528 15.6207" stroke="#F26622" stroke-linecap="round" stroke-linejoin="round"/>
<path d="M113.304 128.668C111.818 130.314 108.043 131.519 106.233 130.936" stroke="#003366" stroke-linecap="round" stroke-linejoin="round"/>
<path d="M53.5278 67.6018C54.2517 70.0123 54.2 72.345 52.8168 74.5482" stroke="#003366" stroke-linecap="round" stroke-linejoin="round"/>
<path d="M21.881 26.105C22.3076 26.2476 22.7342 26.3642 23.1479 26.5327C24.2984 26.9863 24.2726 25.9625 24.5441 25.3922C24.8543 24.7572 24.8285 24.0315 24.1174 23.7334C23.7167 23.5649 22.6178 23.6427 22.7988 24.0833C23.3676 25.4959 21.9844 25.8977 21.5449 26.1439C19.8901 27.0511 19.1015 28.4118 18.4551 30.0448C18.1578 30.7964 17.6407 31.4703 16.9814 32.0924C15.9343 33.0644 14.7449 34.127 15.1069 35.8766" stroke="#003366" stroke-linecap="round" stroke-linejoin="round"/>
<path d="M120.092 36.8616C120.079 38.2094 120.415 39.4794 120.958 40.6847C121.94 42.8619 122.716 43.2766 125.043 42.1102" stroke="#003366" stroke-linecap="round" stroke-linejoin="round"/>
<path d="M23.4317 29.6431C21.9062 30.7576 21.7898 31.263 22.2811 32.9089C22.6819 34.2437 22.7853 35.6563 22.2811 37.0042C22.0743 37.5614 21.8286 38.0539 22.294 38.5723" stroke="#003366" stroke-linecap="round" stroke-linejoin="round"/>
<path d="M36.8632 81.2095C37.9362 83.296 38.7765 85.525 40.3924 87.3005" stroke="#003366" stroke-linecap="round" stroke-linejoin="round"/>
<path d="M74.5865 93.8196C75.1941 95.7506 75.8146 97.6945 76.4222 99.6255" stroke="#003366" stroke-linecap="round" stroke-linejoin="round"/>
<path d="M105.393 66.4744C107.681 67.3945 108.328 69.4162 108.78 71.5805" stroke="#003366" stroke-linecap="round" stroke-linejoin="round"/>
<path d="M118.398 28.9304C117.622 28.2824 117.816 26.9346 116.717 26.468C115.709 27.3234 116.756 28.2305 116.549 29.0729C115.993 29.1247 115.644 28.6452 115.166 28.5027C114.869 28.6582 114.727 29.0081 114.895 29.1895C115.463 29.8246 115.851 30.4466 115.463 31.3409C115.412 31.4445 115.722 31.7037 115.864 31.8981" stroke="#003366" stroke-linecap="round" stroke-linejoin="round"/>
<path d="M30.7877 84.7476C31.4211 87.0933 32.9466 88.4929 35.3124 88.9983" stroke="#003366" stroke-linecap="round" stroke-linejoin="round"/>
<path d="M130.835 114.075C129.956 114.943 128.792 115.358 127.719 115.915C126.879 116.343 126.09 115.941 125.315 115.643" stroke="#003366" stroke-linecap="round" stroke-linejoin="round"/>
<path d="M72.1814 22.8393C70.0871 22.8782 68.3806 23.8243 66.7388 25.198C66.351 24.3038 66.5449 23.5003 66.8164 22.6968" stroke="#F26622" stroke-linecap="round" stroke-linejoin="round"/>
<path d="M65.5505 103.733C63.7665 103.578 61.9437 103.785 60.1855 103.306" stroke="#003366" stroke-linecap="round" stroke-linejoin="round"/>
<path d="M88.8586 77.3867C86.829 78.3328 84.8123 79.2788 82.7826 80.2249" stroke="#003366" stroke-linecap="round" stroke-linejoin="round"/>
<path d="M61.1672 40.27C61.9946 41.0217 62.2014 41.7474 61.1672 42.5509C60.6501 42.9527 60.2494 43.5099 59.7323 43.9506C59.2798 44.3394 58.7627 44.7022 58.1809 44.1061" stroke="#003366" stroke-linecap="round" stroke-linejoin="round"/>
<path d="M21.5964 32.0535C20.9113 31.9239 20.4976 32.3386 20.0322 32.7533C18.6619 33.9715 17.1881 35.086 15.5204 35.8636C15.236 35.9932 14.8611 35.9673 14.5379 36.0191" stroke="#003366" stroke-linecap="round" stroke-linejoin="round"/>
<path d="M62.0079 90.5537C60.4695 91.7978 59.138 93.3141 57.341 94.2342" stroke="#003366" stroke-linecap="round" stroke-linejoin="round"/>
<path d="M20.7424 43.2377C19.1136 43.5488 17.5235 43.2896 15.9334 42.9526" stroke="#003366" stroke-linecap="round" stroke-linejoin="round"/>
<path d="M23.7159 36.7322C21.6604 38.8057 21.4665 41.6309 20.7684 44.2488C20.6779 44.5857 20.5875 45.0264 20.8848 45.3763" stroke="#003366" stroke-linecap="round" stroke-linejoin="round"/>
<path d="M47.4514 64.9193C46.6758 64.2972 46.7146 63.1049 45.6416 62.5865C45.0081 62.2885 44.4522 62.0682 43.78 62.0811" stroke="#003366" stroke-linecap="round" stroke-linejoin="round"/>
<path d="M120.518 94.8044C121.074 96.0615 121.1 97.5389 122.07 98.6275" stroke="#003366" stroke-linecap="round" stroke-linejoin="round"/>
<path d="M15.5206 57.4028C13.9435 58.0638 13.4393 59.5412 12.8317 60.9408" stroke="#003366" stroke-linecap="round" stroke-linejoin="round"/>
<path d="M33.0368 47.9163C32.5973 48.9012 32.3258 49.9509 31.5114 50.7803C31.1882 51.1043 30.9426 51.3247 30.4901 51.3247" stroke="#003366" stroke-linecap="round" stroke-linejoin="round"/>
<path d="M113.02 33.1812C114.248 34.7752 114.83 34.8529 116.55 33.6088" stroke="#003366" stroke-linecap="round" stroke-linejoin="round"/>
<path d="M118.954 43.0952C118.062 44.3912 116.718 45.1947 115.567 46.2055" stroke="#003366" stroke-linecap="round" stroke-linejoin="round"/>
<path d="M27.8139 28.9304C28.6542 30.0968 29.934 30.4856 31.2009 30.9132" stroke="#003366" stroke-linecap="round" stroke-linejoin="round"/>
<path d="M55.6473 130.366C55.0139 130.56 54.3804 130.767 54.5226 131.636C54.6648 132.595 55.5181 132.323 56.0869 132.465C56.4747 132.556 56.9272 132.4 57.3538 132.349" stroke="#003366" stroke-linecap="round" stroke-linejoin="round"/>
<path d="M16.5153 67.6018C16.8515 67.8869 17.2264 68.1202 17.4978 68.4571C18.5708 69.8049 20.0058 70.5307 21.6088 70.9972" stroke="#003366" stroke-linecap="round" stroke-linejoin="round"/>
<path d="M106.104 25.5349C105.083 25.9496 105.354 27.3363 104.41 27.8029" stroke="#003366" stroke-linecap="round" stroke-linejoin="round"/>
<path d="M67.7997 113.363C68.5495 113.972 69.4544 114.399 70.062 115.203" stroke="#003366" stroke-linecap="round" stroke-linejoin="round"/>
<path d="M119.239 26.1052C118.618 26.7402 118.825 27.6345 118.528 28.3732" stroke="#003366" stroke-linecap="round" stroke-linejoin="round"/>
<path d="M36.1531 55.1478C35.5843 54.6294 34.9121 54.3313 34.1752 54.1499" stroke="#003366" stroke-linecap="round" stroke-linejoin="round"/>
<path d="M69.3635 14.338C69.2471 13.2754 68.73 13.4049 68.0966 13.9104" stroke="#F26622" stroke-linecap="round" stroke-linejoin="round"/>
<path d="M74.0179 21.9968C71.9883 22.3338 71.7039 23.876 71.6134 25.5348" stroke="#F26622" stroke-linecap="round" stroke-linejoin="round"/>
<path d="M85.0444 92.5364C85.5098 93.1066 85.9881 93.6639 86.4535 94.2341" stroke="#003366" stroke-linecap="round" stroke-linejoin="round"/>
<path d="M94.65 84.0347C94.1588 84.3846 94.0036 84.9289 93.7968 85.4473" stroke="#003366" stroke-linecap="round" stroke-linejoin="round"/>
<path d="M81.8002 112.378C82.2526 112.3 82.188 113.026 82.6534 112.948" stroke="#003366" stroke-linecap="round" stroke-linejoin="round"/>
</svg>
