<?xml version="1.0" encoding="UTF-8" standalone="no"?>
<svg
   width="35.271915"
   height="29.502523"
   viewBox="0 0 35.271915 29.502523"
   fill="none"
   version="1.1"
   id="svg1"
   sodipodi:docname="TextStarticon.svg"
   xml:space="preserve"
   inkscape:version="1.3 (0e150ed6c4, 2023-07-21)"
   xmlns:inkscape="http://www.inkscape.org/namespaces/inkscape"
   xmlns:sodipodi="http://sodipodi.sourceforge.net/DTD/sodipodi-0.dtd"
   xmlns="http://www.w3.org/2000/svg"
   xmlns:svg="http://www.w3.org/2000/svg"><defs
     id="defs1" /><sodipodi:namedview
     id="namedview1"
     pagecolor="#ffffff"
     bordercolor="#000000"
     borderopacity="0.25"
     inkscape:showpageshadow="2"
     inkscape:pageopacity="0.0"
     inkscape:pagecheckerboard="0"
     inkscape:deskcolor="#d1d1d1"
     inkscape:zoom="16.953998"
     inkscape:cx="17.635958"
     inkscape:cy="14.745784"
     inkscape:window-width="1600"
     inkscape:window-height="930"
     inkscape:window-x="-6"
     inkscape:window-y="-6"
     inkscape:window-maximized="1"
     inkscape:current-layer="svg1"><inkscape:page
       x="-5.6875291e-07"
       y="9.822501e-09"
       width="35.271915"
       height="29.502523"
       id="page3"
       margin="0"
       bleed="0" /></sodipodi:namedview><path
     d="m 0.16917384,1.8827595 c 0.1666,-2.61189537 4.17679996,-2.45629297 4.40629996,0.15646 l 0.2085,2.4151 C 5.8410738,16.78279 18.432374,24.65139 29.982024,20.20879 l 2.26855,-0.8753 c 2.43286,-0.9407 4.203272,2.3931 2.05793,3.8878 0,0 -37.0863302,23.8326 -34.14203016,-21.3485105 z"
     fill="#143164"
     id="path1"
     style="fill:#ffffff;fill-opacity:1" /><path
     d="m 12.908086,9.2792619 c -1.025,-3.8253208 1.2451,-7.7572808 5.07046,-8.78227477 3.82532,-1.02499216 7.75728,1.24512397 8.782275,5.07045397 1.024993,3.8253204 -1.245125,7.7572409 -5.070445,8.7822409 -3.82533,1.025 -7.75729,-1.2451 -8.78229,-5.0704201 z"
     fill="#f26622"
     id="path1-4" /></svg>
