<svg width="42" height="43" viewBox="0 0 42 43" fill="none" xmlns="http://www.w3.org/2000/svg">
<path d="M21.5337 21.6375L25.1324 25.2363C25.2725 25.3763 25.4475 25.4393 25.6295 25.4393C25.8116 25.4393 25.9866 25.3693 26.1266 25.2363C26.3997 24.9632 26.3997 24.5221 26.1266 24.2491L22.731 20.8534V14.069C22.731 13.684 22.4159 13.3689 22.0308 13.3689C21.6458 13.3689 21.3307 13.684 21.3307 14.069V21.1404C21.3307 21.2315 21.3517 21.3225 21.3867 21.4135C21.4217 21.4975 21.4707 21.5745 21.5407 21.6375H21.5337Z" fill="#FF6A1F"/>
<path d="M12.5999 30.5153C12.5999 30.5153 12.6139 30.5363 12.6209 30.5503C12.6279 30.5643 12.6419 30.5643 12.6559 30.5713C15.0644 32.9658 18.3761 34.4431 22.0308 34.4431C25.6855 34.4431 28.9972 32.9588 31.4057 30.5713C31.4127 30.5643 31.4267 30.5573 31.4407 30.5503C31.4547 30.5433 31.4547 30.5293 31.4617 30.5153C33.8562 28.1068 35.3335 24.7952 35.3335 21.1404C35.3335 17.4857 33.8492 14.174 31.4617 11.7656C31.4547 11.7586 31.4477 11.7445 31.4407 11.7305C31.4337 11.7165 31.4197 11.7165 31.4057 11.7095C28.9972 9.31506 25.6855 7.83777 22.0308 7.83777C18.3761 7.83777 15.0644 9.32207 12.6559 11.7095C12.6489 11.7165 12.6349 11.7235 12.6209 11.7305C12.6069 11.7375 12.6069 11.7516 12.5999 11.7656C10.2054 14.174 8.72815 17.4857 8.72815 21.1404C8.72815 24.7952 10.2124 28.1068 12.5999 30.5153ZM11.4727 20.4403H10.1634C10.3245 17.6887 11.4237 15.1892 13.146 13.2499L14.0702 14.174C14.2102 14.3141 14.3853 14.3771 14.5673 14.3771C14.7494 14.3771 14.9244 14.3071 15.0644 14.174C15.3375 13.901 15.3375 13.4599 15.0644 13.1868L14.1402 12.2627C16.0796 10.5403 18.5791 9.44109 21.3307 9.28006V10.5893C21.3307 10.9744 21.6457 11.2895 22.0308 11.2895C22.4159 11.2895 22.7309 10.9744 22.7309 10.5893V9.28006C25.4825 9.44109 27.982 10.5403 29.9214 12.2627L28.9972 13.1868C28.7241 13.4599 28.7241 13.901 28.9972 14.174C29.1372 14.3141 29.3123 14.3771 29.4943 14.3771C29.6763 14.3771 29.8514 14.3071 29.9914 14.174L30.9156 13.2499C32.6379 15.1892 33.7372 17.6887 33.8982 20.4403H32.5889C32.2038 20.4403 31.8888 20.7554 31.8888 21.1404C31.8888 21.5255 32.2038 21.8406 32.5889 21.8406H33.8982C33.7372 24.5921 32.6379 27.0916 30.9156 29.031L29.9914 28.1068C29.7183 27.8338 29.2773 27.8338 29.0042 28.1068C28.7311 28.3799 28.7311 28.821 29.0042 29.094L29.9284 30.0182C27.989 31.7405 25.4895 32.8398 22.7379 33.0008V31.6915C22.7379 31.3065 22.4229 30.9914 22.0378 30.9914C21.6527 30.9914 21.3377 31.3065 21.3377 31.6915V33.0008C18.5861 32.8398 16.0866 31.7405 14.1472 30.0182L15.0714 29.094C15.3445 28.821 15.3445 28.3799 15.0714 28.1068C14.7984 27.8338 14.3573 27.8338 14.0842 28.1068L13.16 29.031C11.4377 27.0916 10.3385 24.5921 10.1774 21.8406H11.4867C11.8718 21.8406 12.1868 21.5255 12.1868 21.1404C12.1868 20.7554 11.8718 20.4403 11.4867 20.4403H11.4727Z" fill="#FF6A1F"/>
<path d="M22.031 3.63696C18.0402 3.63696 14.1334 5.01624 11.0388 7.52274C10.4787 7.97783 9.9326 8.47493 9.4285 9.00004C9.16244 9.28009 9.16945 9.72118 9.4495 9.98723C9.58253 10.1203 9.75756 10.1833 9.9326 10.1833C10.1146 10.1833 10.2967 10.1133 10.4367 9.96623C10.9058 9.48313 11.4029 9.02804 11.921 8.60796C14.7706 6.3045 18.3623 5.03724 22.038 5.03724C30.9158 5.03724 38.1412 12.2627 38.1412 21.1405C38.1412 30.0182 30.9158 37.2437 22.038 37.2437C13.8044 37.2437 6.99901 31.0334 6.05382 23.0448L6.78897 23.78C6.929 23.92 7.10403 23.983 7.28607 23.983C7.4681 23.983 7.64314 23.913 7.78317 23.78C8.05622 23.5069 8.05622 23.0658 7.78317 22.7928L5.89279 20.9024C5.79477 20.6364 5.54272 20.4403 5.24166 20.4403C4.9406 20.4403 4.68855 20.6364 4.59053 20.9024L2.70015 22.7928C2.4271 23.0658 2.4271 23.5069 2.70015 23.78C2.84018 23.92 3.01522 23.983 3.19725 23.983C3.37929 23.983 3.55432 23.913 3.69435 23.78L4.63254 22.8418C5.49371 31.6986 12.9782 38.637 22.052 38.637C31.7069 38.637 39.5555 30.7884 39.5555 21.1335C39.5555 11.4785 31.6859 3.63696 22.031 3.63696Z" fill="#FF6A1F"/>
<path d="M5.54254 17.7939C5.59855 17.8079 5.65456 17.8149 5.71057 17.8149C6.02563 17.8149 6.31269 17.6048 6.38971 17.2828C6.55074 16.6316 6.75378 15.9875 6.99183 15.3644C7.13186 15.0003 6.94982 14.6012 6.59275 14.4612C6.22868 14.3282 5.8296 14.5032 5.68957 14.8603C5.43052 15.5394 5.20647 16.2395 5.03144 16.9467C4.94042 17.3248 5.17146 17.7028 5.54254 17.7939Z" fill="#FF6A1F"/>
<path d="M6.94996 13.6909C7.05498 13.747 7.17401 13.775 7.28603 13.775C7.53108 13.775 7.77613 13.6419 7.90215 13.4109C8.24522 12.7878 8.6303 12.1786 9.05738 11.6045C9.28843 11.2895 9.21842 10.8554 8.91035 10.6243C8.59529 10.3933 8.1612 10.4633 7.93016 10.7714C7.46807 11.3945 7.04798 12.0596 6.67691 12.7317C6.48787 13.0678 6.6139 13.4949 6.95696 13.6839L6.94996 13.6909Z" fill="#FF6A1F"/>
</svg>
