<svg width="64" height="60" viewBox="0 0 64 60" fill="none" xmlns="http://www.w3.org/2000/svg">
<path d="M31.9916 35.7317C28.6581 35.7317 25.9546 32.7912 25.9546 29.1735C25.9546 25.5557 28.6665 22.6152 31.9916 22.6152C35.3167 22.6152 38.0286 25.5557 38.0286 29.1735C38.0286 32.7912 35.3167 35.7317 31.9916 35.7317ZM31.9916 24.7499C29.8427 24.7499 28.0951 26.7344 28.0951 29.1676C28.0951 31.6009 29.8427 33.5853 31.9916 33.5853C34.1405 33.5853 35.8881 31.6009 35.8881 29.1676C35.8881 26.7344 34.1405 24.7499 31.9916 24.7499Z" fill="#3DC2EE"/>
<path d="M44.7681 51.7721C44.1772 51.7721 43.6978 51.2927 43.6978 50.7019V50.1249C43.6978 45.7518 40.8577 42.1899 37.3681 42.1899H26.6289C23.1394 42.1899 20.2992 45.7491 20.2992 50.1249V50.7019C20.2992 51.2927 19.8199 51.7721 19.229 51.7721C18.6381 51.7721 18.1587 51.2927 18.1587 50.7019V50.1249C18.1587 44.5672 21.9548 40.0493 26.6289 40.0493H37.368C42.0338 40.0493 45.8382 44.5645 45.8382 50.1249V50.7019C45.8382 51.2927 45.359 51.7721 44.7681 51.7721Z" fill="#3DC2EE"/>
<path d="M8.28585 51.7712C7.69498 51.7712 7.21558 51.2918 7.21558 50.7009V20.0282C7.21558 17.6089 9.17775 15.6467 11.597 15.6467H30.4189C31.0098 15.6467 31.4892 16.1261 31.4892 16.717C31.4892 17.3079 31.0098 17.7873 30.4189 17.7873H11.597C10.3623 17.7873 9.35613 18.7935 9.35613 20.0282V50.7009C9.35613 51.2918 8.87673 51.7712 8.28585 51.7712Z" fill="#3DC2EE"/>
<path d="M55.5044 51.7797C54.9135 51.7797 54.4341 51.3003 54.4341 50.7094V21.0841C54.4341 20.4932 54.9135 20.0138 55.5044 20.0138C56.0952 20.0138 56.5746 20.4932 56.5746 21.0841V50.7094C56.5746 51.3003 56.0952 51.7797 55.5044 51.7797Z" fill="#3DC2EE"/>
<path d="M56.6942 59.1824H7.2887C3.59845 59.1824 0.59668 56.1779 0.59668 52.4904V50.7066C0.59668 50.1158 1.07608 49.6364 1.66696 49.6364H23.1952C23.4656 49.6364 23.7304 49.7423 23.931 49.929L25.6284 51.5428C26.4702 52.3427 27.5683 52.7775 28.725 52.7775H35.2609C36.4176 52.7775 37.5241 52.3427 38.3575 51.5428L40.0548 49.929C40.2555 49.7423 40.5175 49.6364 40.7906 49.6364H62.3189C62.9098 49.6364 63.3892 50.1158 63.3892 50.7066V52.4904C63.3892 56.1807 60.3846 59.1824 56.6972 59.1824H56.6942ZM2.73716 51.7768V52.4904C2.73716 55.0016 4.7774 57.0418 7.28863 57.0418H56.6998C59.211 57.0418 61.2513 55.0016 61.2513 52.4904V51.7768H41.2228L39.832 53.0896C38.5917 54.2657 36.9696 54.9096 35.2582 54.9096H28.7222C27.0165 54.9096 25.3887 54.2602 24.1484 53.0896L22.7576 51.7768H2.73716Z" fill="#3DC2EE"/>
<path d="M39.0854 53.3907C38.4945 53.3907 38.0151 52.9113 38.0151 52.3204V47.3119C38.0151 46.721 38.4945 46.2416 39.0854 46.2416C39.6763 46.2416 40.1557 46.721 40.1557 47.3119V52.3204C40.1557 52.9113 39.6763 53.3907 39.0854 53.3907Z" fill="#3DC2EE"/>
<path d="M24.8925 53.3907C24.3017 53.3907 23.8223 52.9113 23.8223 52.3204V47.3119C23.8223 46.721 24.3017 46.2416 24.8925 46.2416C25.4834 46.2416 25.9628 46.721 25.9628 47.3119V52.3204C25.9628 52.9113 25.4834 53.3907 24.8925 53.3907Z" fill="#3DC2EE"/>
<path d="M41.0502 22.1519C40.8858 22.1519 40.7213 22.1157 40.5653 22.0377C40.2085 21.8509 39.98 21.4886 39.98 21.0817V17.7928H37.8673C35.763 17.7928 34.0488 16.0815 34.0488 13.9743V4.73497C34.0488 2.63066 35.7601 0.916504 37.8673 0.916504H52.7649C54.8692 0.916504 56.5833 2.62781 56.5833 4.73497V13.9743C56.5833 16.0786 54.872 17.7928 52.7649 17.7928H47.3215L41.6774 21.9373C41.4907 22.0739 41.2649 22.1436 41.0419 22.1436L41.0502 22.1519ZM37.8673 3.07102C36.9475 3.07102 36.1894 3.82078 36.1894 4.74893V13.9883C36.1894 14.9081 36.9391 15.6662 37.8673 15.6662H41.0502C41.6411 15.6662 42.1205 16.1456 42.1205 16.7365V18.9774L46.3459 15.8724C46.5326 15.7358 46.7528 15.6662 46.9814 15.6662H52.7759C53.6957 15.6662 54.4538 14.9164 54.4538 13.9882V4.74888C54.4538 3.82909 53.7041 3.07097 52.7759 3.07097L37.8673 3.07102Z" fill="#3DC2EE"/>
<path d="M41.2855 9.51891C41.2855 10.87 39.2603 10.87 39.2603 9.51891C39.2603 8.17062 41.2855 8.17062 41.2855 9.51891Z" fill="#3DC2EE"/>
<path d="M40.2875 11.6112C39.1391 11.6112 38.2026 10.6775 38.2026 9.52636C38.2026 8.37802 39.1363 7.44153 40.2875 7.44153C41.4358 7.44153 42.3723 8.37524 42.3723 9.52636C42.3723 10.6747 41.4386 11.6112 40.2875 11.6112ZM40.2875 9.47063C40.2875 9.47063 40.2317 9.49851 40.2317 9.52638C40.2317 9.59048 40.346 9.59048 40.346 9.52638C40.346 9.49851 40.3181 9.47063 40.2903 9.47063H40.2875Z" fill="#3DC2EE"/>
<path d="M46.335 9.51891C46.335 10.87 44.3098 10.87 44.3098 9.51891C44.3098 8.17062 46.335 8.17062 46.335 9.51891Z" fill="#3DC2EE"/>
<path d="M45.3285 11.6112C44.1801 11.6112 43.2437 10.6775 43.2437 9.52636C43.2437 8.37802 44.1774 7.44153 45.3285 7.44153C46.4768 7.44153 47.4133 8.37524 47.4133 9.52636C47.4133 10.6747 46.4796 11.6112 45.3285 11.6112ZM45.3285 9.47063C45.3285 9.47063 45.2727 9.49851 45.2727 9.52638C45.2727 9.59048 45.387 9.59048 45.387 9.52638C45.387 9.49851 45.3591 9.47063 45.3313 9.47063H45.3285Z" fill="#3DC2EE"/>
<path d="M51.3701 9.51891C51.3701 10.87 49.342 10.87 49.342 9.51891C49.342 8.17062 51.3701 8.17062 51.3701 9.51891Z" fill="#3DC2EE"/>
<path d="M50.3693 11.6112C49.2209 11.6112 48.2844 10.6775 48.2844 9.52636C48.2844 8.37802 49.2181 7.44153 50.3693 7.44153C51.5176 7.44153 52.4541 8.37524 52.4541 9.52636C52.4541 10.6747 51.5204 11.6112 50.3693 11.6112ZM50.3693 9.47063C50.3693 9.47063 50.3135 9.49851 50.3135 9.52638C50.3135 9.59048 50.4278 9.59048 50.4278 9.52638C50.4278 9.49014 50.3999 9.47063 50.372 9.47063H50.3693Z" fill="#3DC2EE"/>
</svg>
