<svg width="34" height="35" viewBox="0 0 34 35" fill="none" xmlns="http://www.w3.org/2000/svg">
<path d="M28.6304 0.700287H5.37011C2.51935 0.700287 0.200073 3.01946 0.200073 5.87032V29.1316C0.200073 31.981 2.51925 34.3003 5.37011 34.3003H28.6314C31.4808 34.3003 33.8001 31.9811 33.8001 29.1303V5.86998C33.8001 3.01923 31.4809 0.699951 28.63 0.699951L28.6304 0.700287ZM32.0771 5.87032V9.46384H25.8584V2.42363H28.6304C30.5309 2.42363 32.0771 3.96977 32.0771 5.87032ZM17.9073 9.46384V2.42363H24.135V9.46384H17.9073ZM10.0203 9.46384V2.42363H16.1839V9.46384H10.0203ZM5.37011 2.42363H8.29697V9.46384H1.92338V5.87032C1.92338 3.96984 3.46955 2.42363 5.37011 2.42363ZM28.6304 32.5769H5.37011C3.46962 32.5769 1.92476 31.0308 1.92476 29.1316L1.92345 11.1872H32.0768V29.1316C32.0768 31.0308 30.5309 32.5769 28.6304 32.5769Z" fill="#FF6A1F"/>
<path d="M23.5631 20.9631L13.4555 15.1554C12.9082 14.8181 12.1443 15.2604 12.164 15.9022V27.935C12.143 28.5886 12.9318 29.0283 13.4778 28.6687L23.5854 22.4436C24.134 22.1286 24.1209 21.2624 23.5631 20.9631ZM13.8873 26.3929V17.3918L21.4486 21.7363L13.8873 26.3929Z" fill="#FF6A1F"/>
</svg>
